M48
; DRILL file {KiCad 7.0.1} date Ср 27 сен 2023 13:26:45
; FORMAT={-:-/ absolute / metric / decimal}
; #@! TF.CreationDate,2023-09-27T13:26:45+00:00
; #@! TF.GenerationSoftware,Kicad,Pcbnew,7.0.1
; #@! TF.FileFunction,Plated,1,2,PTH
FMAT,2
METRIC
; #@! TA.AperFunction,Plated,PTH,ViaDrill
T1C0.400
; #@! TA.AperFunction,Plated,PTH,ComponentDrill
T2C0.650
; #@! TA.AperFunction,Plated,PTH,ComponentDrill
T3C0.800
; #@! TA.AperFunction,Plated,PTH,ComponentDrill
T4C0.900
; #@! TA.AperFunction,Plated,PTH,ComponentDrill
T5C1.000
%
G90
G05
T1
X112.1Y-79.15
X112.212Y-98.662
X112.25Y-97.175
X112.25Y-100.075
X112.25Y-100.075
X112.375Y-102.375
X112.625Y-111.025
X118.03Y-97.74
X118.45Y-89.325
X120.51Y-98.465
X123.06Y-96.915
X124.525Y-89.375
X125.61Y-97.04
X128.1Y-97.175
X128.155Y-90.865
X130.69Y-91.605
X131.5Y-89.375
X133.248Y-92.251
X135.755Y-92.215
X148.85Y-97.125
X160.35Y-87.55
T2
X106.675Y-92.38
X106.675Y-93.65
T3
X104.135Y-83.74
X104.135Y-86.28
X104.135Y-96.44
X104.135Y-98.98
X104.135Y-101.52
X104.135Y-109.14
X104.135Y-111.68
X104.135Y-114.22
X104.135Y-116.76
X104.135Y-119.3
X106.675Y-83.74
X106.675Y-86.28
X106.675Y-96.44
X106.675Y-98.98
X106.675Y-101.52
X106.675Y-109.14
X106.675Y-111.68
X106.675Y-114.22
X106.675Y-116.76
X106.675Y-119.3
X109.215Y-83.74
X109.215Y-86.28
X109.215Y-116.76
X109.215Y-119.3
X111.755Y-83.74
X111.755Y-86.28
X111.755Y-116.76
X111.755Y-119.3
X114.295Y-83.74
X114.295Y-86.28
X114.295Y-116.76
X114.295Y-119.3
X116.835Y-83.74
X116.835Y-86.28
X116.835Y-116.76
X116.835Y-119.3
X119.375Y-83.74
X119.375Y-86.28
X119.375Y-116.76
X119.375Y-119.3
X121.915Y-83.74
X121.915Y-86.28
X121.915Y-116.76
X121.915Y-119.3
X124.455Y-83.74
X124.455Y-86.28
X124.455Y-116.76
X124.455Y-119.3
X126.995Y-83.74
X126.995Y-86.28
X126.995Y-116.76
X126.995Y-119.3
X129.535Y-83.74
X129.535Y-86.28
X129.535Y-116.76
X129.535Y-119.3
X132.075Y-83.74
X132.075Y-86.28
X132.075Y-116.76
X132.075Y-119.3
X134.615Y-83.74
X134.615Y-86.28
X134.615Y-116.76
X134.615Y-119.3
X137.155Y-83.74
X137.155Y-86.28
X137.155Y-116.76
X137.155Y-119.3
X139.695Y-83.74
X139.695Y-86.28
X139.695Y-116.76
X139.695Y-119.3
X142.235Y-83.74
X142.235Y-86.28
X142.235Y-116.76
X142.235Y-119.3
X144.775Y-83.74
X144.775Y-86.28
X147.315Y-83.74
X147.315Y-86.28
X149.855Y-83.74
X149.855Y-86.28
X152.395Y-83.74
X152.395Y-86.28
X154.935Y-83.74
X154.935Y-86.28
X161.19Y-103.15
X161.19Y-105.69
X161.19Y-108.23
X161.19Y-110.77
X161.215Y-91.77
X161.215Y-94.31
X161.215Y-96.85
X161.215Y-99.39
X168.81Y-103.15
X168.81Y-105.69
X168.81Y-108.23
X168.81Y-110.77
X168.835Y-91.77
X168.835Y-94.31
X168.835Y-96.85
X168.835Y-99.39
T4
X173.3Y-82.79
X173.3Y-85.33
T5
X99.385Y-92.395
X99.385Y-94.935
X99.385Y-97.475
X99.385Y-100.015
X99.385Y-102.555
X99.385Y-105.095
X99.385Y-107.635
X101.985Y-77.095
X102.075Y-124.5
X104.525Y-77.095
X104.615Y-124.5
X107.065Y-77.095
X107.155Y-124.5
X109.605Y-77.095
X109.695Y-124.5
X112.145Y-77.095
X112.235Y-124.5
X114.775Y-124.5
X116.85Y-76.95
X117.315Y-124.5
X117.95Y-94.575
X119.39Y-76.95
X119.855Y-124.5
X120.49Y-94.575
X121.93Y-76.95
X122.395Y-124.5
X123.03Y-94.575
X124.47Y-76.95
X124.935Y-124.5
X125.57Y-94.575
X127.01Y-76.95
X127.475Y-124.5
X128.11Y-94.575
X129.55Y-76.95
X130.015Y-124.5
X130.65Y-94.575
X132.09Y-76.95
X132.555Y-124.5
X133.19Y-94.575
X134.63Y-76.95
X135.095Y-124.5
X135.73Y-94.575
X137.17Y-76.95
X138.27Y-94.575
X139.71Y-76.95
X140.81Y-94.575
X142.25Y-76.95
X143.35Y-94.575
X144.79Y-76.95
X145.89Y-94.575
X147.33Y-76.95
X149.87Y-76.95
X154.925Y-76.675
X155.475Y-124.4
X157.465Y-76.675
X158.015Y-124.4
X160.555Y-124.4
X160.76Y-76.67
X163.3Y-76.67
X166.87Y-76.695
X169.41Y-76.695
T0
M30
