%TF.GenerationSoftware,KiCad,Pcbnew,7.0.1*%
%TF.CreationDate,2023-09-27T13:26:46+00:00*%
%TF.ProjectId,Control_Board,436f6e74-726f-46c5-9f42-6f6172642e6b,rev?*%
%TF.SameCoordinates,Original*%
%TF.FileFunction,Drillmap*%
%TF.FilePolarity,Positive*%
%FSLAX45Y45*%
G04 Gerber Fmt 4.5, Leading zero omitted, Abs format (unit mm)*
G04 Created by KiCad (PCBNEW 7.0.1) date 2023-09-27 13:26:46*
%MOMM*%
%LPD*%
G01*
G04 APERTURE LIST*
%ADD10C,0.200000*%
%ADD11C,0.100000*%
%ADD12C,0.040000*%
%ADD13C,0.065000*%
%ADD14C,0.080000*%
%ADD15C,0.090000*%
G04 APERTURE END LIST*
D10*
X17458041Y-7912500D02*
G75*
G03*
X17458041Y-7912500I-150541J0D01*
G01*
D11*
X16832500Y-8047000D02*
G75*
G03*
X16832500Y-8047000I-141532J0D01*
G01*
X10029032Y-8047000D02*
G75*
G03*
X10029032Y-8047000I-141532J0D01*
G01*
D10*
X9592500Y-11850000D02*
G75*
G03*
X9592500Y-11850000I-150541J0D01*
G01*
X17460541Y-7499459D02*
G75*
G03*
X17460541Y-7499459I-150541J0D01*
G01*
X9600541Y-7915000D02*
G75*
G03*
X9600541Y-7915000I-150541J0D01*
G01*
X17458041Y-11847500D02*
G75*
G03*
X17458041Y-11847500I-150541J0D01*
G01*
D11*
X10075000Y-11957000D02*
G75*
G03*
X10075000Y-11957000I-141532J0D01*
G01*
D10*
X17473041Y-12616959D02*
G75*
G03*
X17473041Y-12616959I-150541J0D01*
G01*
D11*
X11542500Y-10990000D02*
X14832500Y-10990000D01*
X14832500Y-11145000D01*
X11542500Y-11145000D01*
X11542500Y-10990000D01*
D10*
X9607500Y-12619459D02*
G75*
G03*
X9607500Y-12619459I-150541J0D01*
G01*
D11*
X16833000Y-11969500D02*
G75*
G03*
X16833000Y-11969500I-141532J0D01*
G01*
D10*
X9603041Y-7501959D02*
G75*
G03*
X9603041Y-7501959I-150541J0D01*
G01*
D11*
X9083000Y-7272500D02*
X17678500Y-7272500D01*
X17678500Y-12870500D01*
X9083000Y-12870500D01*
X9083000Y-7272500D01*
D10*
D12*
X11190000Y-7895000D02*
X11230000Y-7935000D01*
X11230000Y-7895000D02*
X11190000Y-7935000D01*
X11201250Y-9846250D02*
X11241250Y-9886250D01*
X11241250Y-9846250D02*
X11201250Y-9886250D01*
X11205000Y-9697500D02*
X11245000Y-9737500D01*
X11245000Y-9697500D02*
X11205000Y-9737500D01*
X11205000Y-9987500D02*
X11245000Y-10027500D01*
X11245000Y-9987500D02*
X11205000Y-10027500D01*
X11205000Y-9987500D02*
X11245000Y-10027500D01*
X11245000Y-9987500D02*
X11205000Y-10027500D01*
X11217500Y-10217500D02*
X11257500Y-10257500D01*
X11257500Y-10217500D02*
X11217500Y-10257500D01*
X11242500Y-11082500D02*
X11282500Y-11122500D01*
X11282500Y-11082500D02*
X11242500Y-11122500D01*
X11782968Y-9754000D02*
X11822968Y-9794000D01*
X11822968Y-9754000D02*
X11782968Y-9794000D01*
X11825000Y-8912500D02*
X11865000Y-8952500D01*
X11865000Y-8912500D02*
X11825000Y-8952500D01*
X12030968Y-9826500D02*
X12070968Y-9866500D01*
X12070968Y-9826500D02*
X12030968Y-9866500D01*
X12285968Y-9671500D02*
X12325968Y-9711500D01*
X12325968Y-9671500D02*
X12285968Y-9711500D01*
X12432500Y-8917500D02*
X12472500Y-8957500D01*
X12472500Y-8917500D02*
X12432500Y-8957500D01*
X12540968Y-9684000D02*
X12580968Y-9724000D01*
X12580968Y-9684000D02*
X12540968Y-9724000D01*
X12790000Y-9697500D02*
X12830000Y-9737500D01*
X12830000Y-9697500D02*
X12790000Y-9737500D01*
X12795468Y-9066500D02*
X12835468Y-9106500D01*
X12835468Y-9066500D02*
X12795468Y-9106500D01*
X13048968Y-9140500D02*
X13088968Y-9180500D01*
X13088968Y-9140500D02*
X13048968Y-9180500D01*
X13130000Y-8917500D02*
X13170000Y-8957500D01*
X13170000Y-8917500D02*
X13130000Y-8957500D01*
X13304802Y-9205116D02*
X13344802Y-9245116D01*
X13344802Y-9205116D02*
X13304802Y-9245116D01*
X13555468Y-9201500D02*
X13595468Y-9241500D01*
X13595468Y-9201500D02*
X13555468Y-9241500D01*
X14865000Y-9692500D02*
X14905000Y-9732500D01*
X14905000Y-9692500D02*
X14865000Y-9732500D01*
X16015000Y-8735000D02*
X16055000Y-8775000D01*
X16055000Y-8735000D02*
X16015000Y-8775000D01*
D13*
X10700000Y-9238000D02*
G75*
G03*
X10700000Y-9238000I-32500J0D01*
G01*
X10700000Y-9365000D02*
G75*
G03*
X10700000Y-9365000I-32500J0D01*
G01*
D14*
X10413468Y-8334000D02*
X10413468Y-8414000D01*
X10373468Y-8374000D02*
X10453468Y-8374000D01*
X10413468Y-8588000D02*
X10413468Y-8668000D01*
X10373468Y-8628000D02*
X10453468Y-8628000D01*
X10413468Y-9604000D02*
X10413468Y-9684000D01*
X10373468Y-9644000D02*
X10453468Y-9644000D01*
X10413468Y-9858000D02*
X10413468Y-9938000D01*
X10373468Y-9898000D02*
X10453468Y-9898000D01*
X10413468Y-10112000D02*
X10413468Y-10192000D01*
X10373468Y-10152000D02*
X10453468Y-10152000D01*
X10413468Y-10874000D02*
X10413468Y-10954000D01*
X10373468Y-10914000D02*
X10453468Y-10914000D01*
X10413468Y-11128000D02*
X10413468Y-11208000D01*
X10373468Y-11168000D02*
X10453468Y-11168000D01*
X10413468Y-11382000D02*
X10413468Y-11462000D01*
X10373468Y-11422000D02*
X10453468Y-11422000D01*
X10413468Y-11636000D02*
X10413468Y-11716000D01*
X10373468Y-11676000D02*
X10453468Y-11676000D01*
X10413468Y-11890000D02*
X10413468Y-11970000D01*
X10373468Y-11930000D02*
X10453468Y-11930000D01*
X10667468Y-8334000D02*
X10667468Y-8414000D01*
X10627468Y-8374000D02*
X10707468Y-8374000D01*
X10667468Y-8588000D02*
X10667468Y-8668000D01*
X10627468Y-8628000D02*
X10707468Y-8628000D01*
X10667468Y-9604000D02*
X10667468Y-9684000D01*
X10627468Y-9644000D02*
X10707468Y-9644000D01*
X10667468Y-9858000D02*
X10667468Y-9938000D01*
X10627468Y-9898000D02*
X10707468Y-9898000D01*
X10667468Y-10112000D02*
X10667468Y-10192000D01*
X10627468Y-10152000D02*
X10707468Y-10152000D01*
X10667468Y-10874000D02*
X10667468Y-10954000D01*
X10627468Y-10914000D02*
X10707468Y-10914000D01*
X10667468Y-11128000D02*
X10667468Y-11208000D01*
X10627468Y-11168000D02*
X10707468Y-11168000D01*
X10667468Y-11382000D02*
X10667468Y-11462000D01*
X10627468Y-11422000D02*
X10707468Y-11422000D01*
X10667468Y-11636000D02*
X10667468Y-11716000D01*
X10627468Y-11676000D02*
X10707468Y-11676000D01*
X10667468Y-11890000D02*
X10667468Y-11970000D01*
X10627468Y-11930000D02*
X10707468Y-11930000D01*
X10921468Y-8334000D02*
X10921468Y-8414000D01*
X10881468Y-8374000D02*
X10961468Y-8374000D01*
X10921468Y-8588000D02*
X10921468Y-8668000D01*
X10881468Y-8628000D02*
X10961468Y-8628000D01*
X10921468Y-11636000D02*
X10921468Y-11716000D01*
X10881468Y-11676000D02*
X10961468Y-11676000D01*
X10921468Y-11890000D02*
X10921468Y-11970000D01*
X10881468Y-11930000D02*
X10961468Y-11930000D01*
X11175468Y-8334000D02*
X11175468Y-8414000D01*
X11135468Y-8374000D02*
X11215468Y-8374000D01*
X11175468Y-8588000D02*
X11175468Y-8668000D01*
X11135468Y-8628000D02*
X11215468Y-8628000D01*
X11175468Y-11636000D02*
X11175468Y-11716000D01*
X11135468Y-11676000D02*
X11215468Y-11676000D01*
X11175468Y-11890000D02*
X11175468Y-11970000D01*
X11135468Y-11930000D02*
X11215468Y-11930000D01*
X11429468Y-8334000D02*
X11429468Y-8414000D01*
X11389468Y-8374000D02*
X11469468Y-8374000D01*
X11429468Y-8588000D02*
X11429468Y-8668000D01*
X11389468Y-8628000D02*
X11469468Y-8628000D01*
X11429468Y-11636000D02*
X11429468Y-11716000D01*
X11389468Y-11676000D02*
X11469468Y-11676000D01*
X11429468Y-11890000D02*
X11429468Y-11970000D01*
X11389468Y-11930000D02*
X11469468Y-11930000D01*
X11683468Y-8334000D02*
X11683468Y-8414000D01*
X11643468Y-8374000D02*
X11723468Y-8374000D01*
X11683468Y-8588000D02*
X11683468Y-8668000D01*
X11643468Y-8628000D02*
X11723468Y-8628000D01*
X11683468Y-11636000D02*
X11683468Y-11716000D01*
X11643468Y-11676000D02*
X11723468Y-11676000D01*
X11683468Y-11890000D02*
X11683468Y-11970000D01*
X11643468Y-11930000D02*
X11723468Y-11930000D01*
X11937468Y-8334000D02*
X11937468Y-8414000D01*
X11897468Y-8374000D02*
X11977468Y-8374000D01*
X11937468Y-8588000D02*
X11937468Y-8668000D01*
X11897468Y-8628000D02*
X11977468Y-8628000D01*
X11937468Y-11636000D02*
X11937468Y-11716000D01*
X11897468Y-11676000D02*
X11977468Y-11676000D01*
X11937468Y-11890000D02*
X11937468Y-11970000D01*
X11897468Y-11930000D02*
X11977468Y-11930000D01*
X12191468Y-8334000D02*
X12191468Y-8414000D01*
X12151468Y-8374000D02*
X12231468Y-8374000D01*
X12191468Y-8588000D02*
X12191468Y-8668000D01*
X12151468Y-8628000D02*
X12231468Y-8628000D01*
X12191468Y-11636000D02*
X12191468Y-11716000D01*
X12151468Y-11676000D02*
X12231468Y-11676000D01*
X12191468Y-11890000D02*
X12191468Y-11970000D01*
X12151468Y-11930000D02*
X12231468Y-11930000D01*
X12445468Y-8334000D02*
X12445468Y-8414000D01*
X12405468Y-8374000D02*
X12485468Y-8374000D01*
X12445468Y-8588000D02*
X12445468Y-8668000D01*
X12405468Y-8628000D02*
X12485468Y-8628000D01*
X12445468Y-11636000D02*
X12445468Y-11716000D01*
X12405468Y-11676000D02*
X12485468Y-11676000D01*
X12445468Y-11890000D02*
X12445468Y-11970000D01*
X12405468Y-11930000D02*
X12485468Y-11930000D01*
X12699468Y-8334000D02*
X12699468Y-8414000D01*
X12659468Y-8374000D02*
X12739468Y-8374000D01*
X12699468Y-8588000D02*
X12699468Y-8668000D01*
X12659468Y-8628000D02*
X12739468Y-8628000D01*
X12699468Y-11636000D02*
X12699468Y-11716000D01*
X12659468Y-11676000D02*
X12739468Y-11676000D01*
X12699468Y-11890000D02*
X12699468Y-11970000D01*
X12659468Y-11930000D02*
X12739468Y-11930000D01*
X12953468Y-8334000D02*
X12953468Y-8414000D01*
X12913468Y-8374000D02*
X12993468Y-8374000D01*
X12953468Y-8588000D02*
X12953468Y-8668000D01*
X12913468Y-8628000D02*
X12993468Y-8628000D01*
X12953468Y-11636000D02*
X12953468Y-11716000D01*
X12913468Y-11676000D02*
X12993468Y-11676000D01*
X12953468Y-11890000D02*
X12953468Y-11970000D01*
X12913468Y-11930000D02*
X12993468Y-11930000D01*
X13207468Y-8334000D02*
X13207468Y-8414000D01*
X13167468Y-8374000D02*
X13247468Y-8374000D01*
X13207468Y-8588000D02*
X13207468Y-8668000D01*
X13167468Y-8628000D02*
X13247468Y-8628000D01*
X13207468Y-11636000D02*
X13207468Y-11716000D01*
X13167468Y-11676000D02*
X13247468Y-11676000D01*
X13207468Y-11890000D02*
X13207468Y-11970000D01*
X13167468Y-11930000D02*
X13247468Y-11930000D01*
X13461468Y-8334000D02*
X13461468Y-8414000D01*
X13421468Y-8374000D02*
X13501468Y-8374000D01*
X13461468Y-8588000D02*
X13461468Y-8668000D01*
X13421468Y-8628000D02*
X13501468Y-8628000D01*
X13461468Y-11636000D02*
X13461468Y-11716000D01*
X13421468Y-11676000D02*
X13501468Y-11676000D01*
X13461468Y-11890000D02*
X13461468Y-11970000D01*
X13421468Y-11930000D02*
X13501468Y-11930000D01*
X13715468Y-8334000D02*
X13715468Y-8414000D01*
X13675468Y-8374000D02*
X13755468Y-8374000D01*
X13715468Y-8588000D02*
X13715468Y-8668000D01*
X13675468Y-8628000D02*
X13755468Y-8628000D01*
X13715468Y-11636000D02*
X13715468Y-11716000D01*
X13675468Y-11676000D02*
X13755468Y-11676000D01*
X13715468Y-11890000D02*
X13715468Y-11970000D01*
X13675468Y-11930000D02*
X13755468Y-11930000D01*
X13969468Y-8334000D02*
X13969468Y-8414000D01*
X13929468Y-8374000D02*
X14009468Y-8374000D01*
X13969468Y-8588000D02*
X13969468Y-8668000D01*
X13929468Y-8628000D02*
X14009468Y-8628000D01*
X13969468Y-11636000D02*
X13969468Y-11716000D01*
X13929468Y-11676000D02*
X14009468Y-11676000D01*
X13969468Y-11890000D02*
X13969468Y-11970000D01*
X13929468Y-11930000D02*
X14009468Y-11930000D01*
X14223468Y-8334000D02*
X14223468Y-8414000D01*
X14183468Y-8374000D02*
X14263468Y-8374000D01*
X14223468Y-8588000D02*
X14223468Y-8668000D01*
X14183468Y-8628000D02*
X14263468Y-8628000D01*
X14223468Y-11636000D02*
X14223468Y-11716000D01*
X14183468Y-11676000D02*
X14263468Y-11676000D01*
X14223468Y-11890000D02*
X14223468Y-11970000D01*
X14183468Y-11930000D02*
X14263468Y-11930000D01*
X14477468Y-8334000D02*
X14477468Y-8414000D01*
X14437468Y-8374000D02*
X14517468Y-8374000D01*
X14477468Y-8588000D02*
X14477468Y-8668000D01*
X14437468Y-8628000D02*
X14517468Y-8628000D01*
X14731468Y-8334000D02*
X14731468Y-8414000D01*
X14691468Y-8374000D02*
X14771468Y-8374000D01*
X14731468Y-8588000D02*
X14731468Y-8668000D01*
X14691468Y-8628000D02*
X14771468Y-8628000D01*
X14985468Y-8334000D02*
X14985468Y-8414000D01*
X14945468Y-8374000D02*
X15025468Y-8374000D01*
X14985468Y-8588000D02*
X14985468Y-8668000D01*
X14945468Y-8628000D02*
X15025468Y-8628000D01*
X15239468Y-8334000D02*
X15239468Y-8414000D01*
X15199468Y-8374000D02*
X15279468Y-8374000D01*
X15239468Y-8588000D02*
X15239468Y-8668000D01*
X15199468Y-8628000D02*
X15279468Y-8628000D01*
X15493468Y-8334000D02*
X15493468Y-8414000D01*
X15453468Y-8374000D02*
X15533468Y-8374000D01*
X15493468Y-8588000D02*
X15493468Y-8668000D01*
X15453468Y-8628000D02*
X15533468Y-8628000D01*
X16118968Y-10275000D02*
X16118968Y-10355000D01*
X16078968Y-10315000D02*
X16158968Y-10315000D01*
X16118968Y-10529000D02*
X16118968Y-10609000D01*
X16078968Y-10569000D02*
X16158968Y-10569000D01*
X16118968Y-10783000D02*
X16118968Y-10863000D01*
X16078968Y-10823000D02*
X16158968Y-10823000D01*
X16118968Y-11037000D02*
X16118968Y-11117000D01*
X16078968Y-11077000D02*
X16158968Y-11077000D01*
X16121468Y-9137000D02*
X16121468Y-9217000D01*
X16081468Y-9177000D02*
X16161468Y-9177000D01*
X16121468Y-9391000D02*
X16121468Y-9471000D01*
X16081468Y-9431000D02*
X16161468Y-9431000D01*
X16121468Y-9645000D02*
X16121468Y-9725000D01*
X16081468Y-9685000D02*
X16161468Y-9685000D01*
X16121468Y-9899000D02*
X16121468Y-9979000D01*
X16081468Y-9939000D02*
X16161468Y-9939000D01*
X16880968Y-10275000D02*
X16880968Y-10355000D01*
X16840968Y-10315000D02*
X16920968Y-10315000D01*
X16880968Y-10529000D02*
X16880968Y-10609000D01*
X16840968Y-10569000D02*
X16920968Y-10569000D01*
X16880968Y-10783000D02*
X16880968Y-10863000D01*
X16840968Y-10823000D02*
X16920968Y-10823000D01*
X16880968Y-11037000D02*
X16880968Y-11117000D01*
X16840968Y-11077000D02*
X16920968Y-11077000D01*
X16883468Y-9137000D02*
X16883468Y-9217000D01*
X16843468Y-9177000D02*
X16923468Y-9177000D01*
X16883468Y-9391000D02*
X16883468Y-9471000D01*
X16843468Y-9431000D02*
X16923468Y-9431000D01*
X16883468Y-9645000D02*
X16883468Y-9725000D01*
X16843468Y-9685000D02*
X16923468Y-9685000D01*
X16883468Y-9899000D02*
X16883468Y-9979000D01*
X16843468Y-9939000D02*
X16923468Y-9939000D01*
D15*
X17361820Y-8310820D02*
X17361820Y-8247180D01*
X17298180Y-8247180D01*
X17298180Y-8310820D01*
X17361820Y-8310820D01*
X17361820Y-8564820D02*
X17361820Y-8501180D01*
X17298180Y-8501180D01*
X17298180Y-8564820D01*
X17361820Y-8564820D01*
D11*
X9938468Y-9289500D02*
X9988468Y-9239500D01*
X9938468Y-9189500D01*
X9888468Y-9239500D01*
X9938468Y-9289500D01*
X9938468Y-9543500D02*
X9988468Y-9493500D01*
X9938468Y-9443500D01*
X9888468Y-9493500D01*
X9938468Y-9543500D01*
X9938468Y-9797500D02*
X9988468Y-9747500D01*
X9938468Y-9697500D01*
X9888468Y-9747500D01*
X9938468Y-9797500D01*
X9938468Y-10051500D02*
X9988468Y-10001500D01*
X9938468Y-9951500D01*
X9888468Y-10001500D01*
X9938468Y-10051500D01*
X9938468Y-10305500D02*
X9988468Y-10255500D01*
X9938468Y-10205500D01*
X9888468Y-10255500D01*
X9938468Y-10305500D01*
X9938468Y-10559500D02*
X9988468Y-10509500D01*
X9938468Y-10459500D01*
X9888468Y-10509500D01*
X9938468Y-10559500D01*
X9938468Y-10813500D02*
X9988468Y-10763500D01*
X9938468Y-10713500D01*
X9888468Y-10763500D01*
X9938468Y-10813500D01*
X10198468Y-7759500D02*
X10248468Y-7709500D01*
X10198468Y-7659500D01*
X10148468Y-7709500D01*
X10198468Y-7759500D01*
X10207500Y-12500000D02*
X10257500Y-12450000D01*
X10207500Y-12400000D01*
X10157500Y-12450000D01*
X10207500Y-12500000D01*
X10452468Y-7759500D02*
X10502468Y-7709500D01*
X10452468Y-7659500D01*
X10402468Y-7709500D01*
X10452468Y-7759500D01*
X10461500Y-12500000D02*
X10511500Y-12450000D01*
X10461500Y-12400000D01*
X10411500Y-12450000D01*
X10461500Y-12500000D01*
X10706468Y-7759500D02*
X10756468Y-7709500D01*
X10706468Y-7659500D01*
X10656468Y-7709500D01*
X10706468Y-7759500D01*
X10715500Y-12500000D02*
X10765500Y-12450000D01*
X10715500Y-12400000D01*
X10665500Y-12450000D01*
X10715500Y-12500000D01*
X10960468Y-7759500D02*
X11010468Y-7709500D01*
X10960468Y-7659500D01*
X10910468Y-7709500D01*
X10960468Y-7759500D01*
X10969500Y-12500000D02*
X11019500Y-12450000D01*
X10969500Y-12400000D01*
X10919500Y-12450000D01*
X10969500Y-12500000D01*
X11214468Y-7759500D02*
X11264468Y-7709500D01*
X11214468Y-7659500D01*
X11164468Y-7709500D01*
X11214468Y-7759500D01*
X11223500Y-12500000D02*
X11273500Y-12450000D01*
X11223500Y-12400000D01*
X11173500Y-12450000D01*
X11223500Y-12500000D01*
X11477500Y-12500000D02*
X11527500Y-12450000D01*
X11477500Y-12400000D01*
X11427500Y-12450000D01*
X11477500Y-12500000D01*
X11685000Y-7745000D02*
X11735000Y-7695000D01*
X11685000Y-7645000D01*
X11635000Y-7695000D01*
X11685000Y-7745000D01*
X11731500Y-12500000D02*
X11781500Y-12450000D01*
X11731500Y-12400000D01*
X11681500Y-12450000D01*
X11731500Y-12500000D01*
X11795000Y-9507500D02*
X11845000Y-9457500D01*
X11795000Y-9407500D01*
X11745000Y-9457500D01*
X11795000Y-9507500D01*
X11939000Y-7745000D02*
X11989000Y-7695000D01*
X11939000Y-7645000D01*
X11889000Y-7695000D01*
X11939000Y-7745000D01*
X11985500Y-12500000D02*
X12035500Y-12450000D01*
X11985500Y-12400000D01*
X11935500Y-12450000D01*
X11985500Y-12500000D01*
X12049000Y-9507500D02*
X12099000Y-9457500D01*
X12049000Y-9407500D01*
X11999000Y-9457500D01*
X12049000Y-9507500D01*
X12193000Y-7745000D02*
X12243000Y-7695000D01*
X12193000Y-7645000D01*
X12143000Y-7695000D01*
X12193000Y-7745000D01*
X12239500Y-12500000D02*
X12289500Y-12450000D01*
X12239500Y-12400000D01*
X12189500Y-12450000D01*
X12239500Y-12500000D01*
X12303000Y-9507500D02*
X12353000Y-9457500D01*
X12303000Y-9407500D01*
X12253000Y-9457500D01*
X12303000Y-9507500D01*
X12447000Y-7745000D02*
X12497000Y-7695000D01*
X12447000Y-7645000D01*
X12397000Y-7695000D01*
X12447000Y-7745000D01*
X12493500Y-12500000D02*
X12543500Y-12450000D01*
X12493500Y-12400000D01*
X12443500Y-12450000D01*
X12493500Y-12500000D01*
X12557000Y-9507500D02*
X12607000Y-9457500D01*
X12557000Y-9407500D01*
X12507000Y-9457500D01*
X12557000Y-9507500D01*
X12701000Y-7745000D02*
X12751000Y-7695000D01*
X12701000Y-7645000D01*
X12651000Y-7695000D01*
X12701000Y-7745000D01*
X12747500Y-12500000D02*
X12797500Y-12450000D01*
X12747500Y-12400000D01*
X12697500Y-12450000D01*
X12747500Y-12500000D01*
X12811000Y-9507500D02*
X12861000Y-9457500D01*
X12811000Y-9407500D01*
X12761000Y-9457500D01*
X12811000Y-9507500D01*
X12955000Y-7745000D02*
X13005000Y-7695000D01*
X12955000Y-7645000D01*
X12905000Y-7695000D01*
X12955000Y-7745000D01*
X13001500Y-12500000D02*
X13051500Y-12450000D01*
X13001500Y-12400000D01*
X12951500Y-12450000D01*
X13001500Y-12500000D01*
X13065000Y-9507500D02*
X13115000Y-9457500D01*
X13065000Y-9407500D01*
X13015000Y-9457500D01*
X13065000Y-9507500D01*
X13209000Y-7745000D02*
X13259000Y-7695000D01*
X13209000Y-7645000D01*
X13159000Y-7695000D01*
X13209000Y-7745000D01*
X13255500Y-12500000D02*
X13305500Y-12450000D01*
X13255500Y-12400000D01*
X13205500Y-12450000D01*
X13255500Y-12500000D01*
X13319000Y-9507500D02*
X13369000Y-9457500D01*
X13319000Y-9407500D01*
X13269000Y-9457500D01*
X13319000Y-9507500D01*
X13463000Y-7745000D02*
X13513000Y-7695000D01*
X13463000Y-7645000D01*
X13413000Y-7695000D01*
X13463000Y-7745000D01*
X13509500Y-12500000D02*
X13559500Y-12450000D01*
X13509500Y-12400000D01*
X13459500Y-12450000D01*
X13509500Y-12500000D01*
X13573000Y-9507500D02*
X13623000Y-9457500D01*
X13573000Y-9407500D01*
X13523000Y-9457500D01*
X13573000Y-9507500D01*
X13717000Y-7745000D02*
X13767000Y-7695000D01*
X13717000Y-7645000D01*
X13667000Y-7695000D01*
X13717000Y-7745000D01*
X13827000Y-9507500D02*
X13877000Y-9457500D01*
X13827000Y-9407500D01*
X13777000Y-9457500D01*
X13827000Y-9507500D01*
X13971000Y-7745000D02*
X14021000Y-7695000D01*
X13971000Y-7645000D01*
X13921000Y-7695000D01*
X13971000Y-7745000D01*
X14081000Y-9507500D02*
X14131000Y-9457500D01*
X14081000Y-9407500D01*
X14031000Y-9457500D01*
X14081000Y-9507500D01*
X14225000Y-7745000D02*
X14275000Y-7695000D01*
X14225000Y-7645000D01*
X14175000Y-7695000D01*
X14225000Y-7745000D01*
X14335000Y-9507500D02*
X14385000Y-9457500D01*
X14335000Y-9407500D01*
X14285000Y-9457500D01*
X14335000Y-9507500D01*
X14479000Y-7745000D02*
X14529000Y-7695000D01*
X14479000Y-7645000D01*
X14429000Y-7695000D01*
X14479000Y-7745000D01*
X14589000Y-9507500D02*
X14639000Y-9457500D01*
X14589000Y-9407500D01*
X14539000Y-9457500D01*
X14589000Y-9507500D01*
X14733000Y-7745000D02*
X14783000Y-7695000D01*
X14733000Y-7645000D01*
X14683000Y-7695000D01*
X14733000Y-7745000D01*
X14987000Y-7745000D02*
X15037000Y-7695000D01*
X14987000Y-7645000D01*
X14937000Y-7695000D01*
X14987000Y-7745000D01*
X15492468Y-7717500D02*
X15542468Y-7667500D01*
X15492468Y-7617500D01*
X15442468Y-7667500D01*
X15492468Y-7717500D01*
X15547500Y-12490000D02*
X15597500Y-12440000D01*
X15547500Y-12390000D01*
X15497500Y-12440000D01*
X15547500Y-12490000D01*
X15746468Y-7717500D02*
X15796468Y-7667500D01*
X15746468Y-7617500D01*
X15696468Y-7667500D01*
X15746468Y-7717500D01*
X15801500Y-12490000D02*
X15851500Y-12440000D01*
X15801500Y-12390000D01*
X15751500Y-12440000D01*
X15801500Y-12490000D01*
X16055500Y-12490000D02*
X16105500Y-12440000D01*
X16055500Y-12390000D01*
X16005500Y-12440000D01*
X16055500Y-12490000D01*
X16075968Y-7717000D02*
X16125968Y-7667000D01*
X16075968Y-7617000D01*
X16025968Y-7667000D01*
X16075968Y-7717000D01*
X16329968Y-7717000D02*
X16379968Y-7667000D01*
X16329968Y-7617000D01*
X16279968Y-7667000D01*
X16329968Y-7717000D01*
X16686968Y-7719500D02*
X16736968Y-7669500D01*
X16686968Y-7619500D01*
X16636968Y-7669500D01*
X16686968Y-7719500D01*
X16940968Y-7719500D02*
X16990968Y-7669500D01*
X16940968Y-7619500D01*
X16890968Y-7669500D01*
X16940968Y-7719500D01*
D10*
X9325619Y-13188024D02*
X9325619Y-12988024D01*
X9325619Y-12988024D02*
X9373238Y-12988024D01*
X9373238Y-12988024D02*
X9401810Y-12997548D01*
X9401810Y-12997548D02*
X9420857Y-13016595D01*
X9420857Y-13016595D02*
X9430381Y-13035643D01*
X9430381Y-13035643D02*
X9439905Y-13073738D01*
X9439905Y-13073738D02*
X9439905Y-13102309D01*
X9439905Y-13102309D02*
X9430381Y-13140405D01*
X9430381Y-13140405D02*
X9420857Y-13159452D01*
X9420857Y-13159452D02*
X9401810Y-13178500D01*
X9401810Y-13178500D02*
X9373238Y-13188024D01*
X9373238Y-13188024D02*
X9325619Y-13188024D01*
X9525619Y-13188024D02*
X9525619Y-13054690D01*
X9525619Y-13092786D02*
X9535143Y-13073738D01*
X9535143Y-13073738D02*
X9544667Y-13064214D01*
X9544667Y-13064214D02*
X9563714Y-13054690D01*
X9563714Y-13054690D02*
X9582762Y-13054690D01*
X9649429Y-13188024D02*
X9649429Y-13054690D01*
X9649429Y-12988024D02*
X9639905Y-12997548D01*
X9639905Y-12997548D02*
X9649429Y-13007071D01*
X9649429Y-13007071D02*
X9658952Y-12997548D01*
X9658952Y-12997548D02*
X9649429Y-12988024D01*
X9649429Y-12988024D02*
X9649429Y-13007071D01*
X9773238Y-13188024D02*
X9754190Y-13178500D01*
X9754190Y-13178500D02*
X9744667Y-13159452D01*
X9744667Y-13159452D02*
X9744667Y-12988024D01*
X9878000Y-13188024D02*
X9858952Y-13178500D01*
X9858952Y-13178500D02*
X9849429Y-13159452D01*
X9849429Y-13159452D02*
X9849429Y-12988024D01*
X10106571Y-13188024D02*
X10106571Y-12988024D01*
X10106571Y-12988024D02*
X10173238Y-13130881D01*
X10173238Y-13130881D02*
X10239905Y-12988024D01*
X10239905Y-12988024D02*
X10239905Y-13188024D01*
X10420857Y-13188024D02*
X10420857Y-13083262D01*
X10420857Y-13083262D02*
X10411333Y-13064214D01*
X10411333Y-13064214D02*
X10392286Y-13054690D01*
X10392286Y-13054690D02*
X10354190Y-13054690D01*
X10354190Y-13054690D02*
X10335143Y-13064214D01*
X10420857Y-13178500D02*
X10401810Y-13188024D01*
X10401810Y-13188024D02*
X10354190Y-13188024D01*
X10354190Y-13188024D02*
X10335143Y-13178500D01*
X10335143Y-13178500D02*
X10325619Y-13159452D01*
X10325619Y-13159452D02*
X10325619Y-13140405D01*
X10325619Y-13140405D02*
X10335143Y-13121357D01*
X10335143Y-13121357D02*
X10354190Y-13111833D01*
X10354190Y-13111833D02*
X10401810Y-13111833D01*
X10401810Y-13111833D02*
X10420857Y-13102309D01*
X10516095Y-13054690D02*
X10516095Y-13254690D01*
X10516095Y-13064214D02*
X10535143Y-13054690D01*
X10535143Y-13054690D02*
X10573238Y-13054690D01*
X10573238Y-13054690D02*
X10592286Y-13064214D01*
X10592286Y-13064214D02*
X10601810Y-13073738D01*
X10601810Y-13073738D02*
X10611333Y-13092786D01*
X10611333Y-13092786D02*
X10611333Y-13149928D01*
X10611333Y-13149928D02*
X10601810Y-13168976D01*
X10601810Y-13168976D02*
X10592286Y-13178500D01*
X10592286Y-13178500D02*
X10573238Y-13188024D01*
X10573238Y-13188024D02*
X10535143Y-13188024D01*
X10535143Y-13188024D02*
X10516095Y-13178500D01*
X10697048Y-13168976D02*
X10706571Y-13178500D01*
X10706571Y-13178500D02*
X10697048Y-13188024D01*
X10697048Y-13188024D02*
X10687524Y-13178500D01*
X10687524Y-13178500D02*
X10697048Y-13168976D01*
X10697048Y-13168976D02*
X10697048Y-13188024D01*
X10697048Y-13064214D02*
X10706571Y-13073738D01*
X10706571Y-13073738D02*
X10697048Y-13083262D01*
X10697048Y-13083262D02*
X10687524Y-13073738D01*
X10687524Y-13073738D02*
X10697048Y-13064214D01*
X10697048Y-13064214D02*
X10697048Y-13083262D01*
D12*
X9038000Y-13495500D02*
X9078000Y-13535500D01*
X9078000Y-13495500D02*
X9038000Y-13535500D01*
D10*
X9363714Y-13408024D02*
X9382762Y-13408024D01*
X9382762Y-13408024D02*
X9401810Y-13417548D01*
X9401810Y-13417548D02*
X9411333Y-13427071D01*
X9411333Y-13427071D02*
X9420857Y-13446119D01*
X9420857Y-13446119D02*
X9430381Y-13484214D01*
X9430381Y-13484214D02*
X9430381Y-13531833D01*
X9430381Y-13531833D02*
X9420857Y-13569928D01*
X9420857Y-13569928D02*
X9411333Y-13588976D01*
X9411333Y-13588976D02*
X9401810Y-13598500D01*
X9401810Y-13598500D02*
X9382762Y-13608024D01*
X9382762Y-13608024D02*
X9363714Y-13608024D01*
X9363714Y-13608024D02*
X9344667Y-13598500D01*
X9344667Y-13598500D02*
X9335143Y-13588976D01*
X9335143Y-13588976D02*
X9325619Y-13569928D01*
X9325619Y-13569928D02*
X9316095Y-13531833D01*
X9316095Y-13531833D02*
X9316095Y-13484214D01*
X9316095Y-13484214D02*
X9325619Y-13446119D01*
X9325619Y-13446119D02*
X9335143Y-13427071D01*
X9335143Y-13427071D02*
X9344667Y-13417548D01*
X9344667Y-13417548D02*
X9363714Y-13408024D01*
X9516095Y-13588976D02*
X9525619Y-13598500D01*
X9525619Y-13598500D02*
X9516095Y-13608024D01*
X9516095Y-13608024D02*
X9506571Y-13598500D01*
X9506571Y-13598500D02*
X9516095Y-13588976D01*
X9516095Y-13588976D02*
X9516095Y-13608024D01*
X9697048Y-13474690D02*
X9697048Y-13608024D01*
X9649429Y-13398500D02*
X9601810Y-13541357D01*
X9601810Y-13541357D02*
X9725619Y-13541357D01*
X9839905Y-13408024D02*
X9858952Y-13408024D01*
X9858952Y-13408024D02*
X9878000Y-13417548D01*
X9878000Y-13417548D02*
X9887524Y-13427071D01*
X9887524Y-13427071D02*
X9897048Y-13446119D01*
X9897048Y-13446119D02*
X9906571Y-13484214D01*
X9906571Y-13484214D02*
X9906571Y-13531833D01*
X9906571Y-13531833D02*
X9897048Y-13569928D01*
X9897048Y-13569928D02*
X9887524Y-13588976D01*
X9887524Y-13588976D02*
X9878000Y-13598500D01*
X9878000Y-13598500D02*
X9858952Y-13608024D01*
X9858952Y-13608024D02*
X9839905Y-13608024D01*
X9839905Y-13608024D02*
X9820857Y-13598500D01*
X9820857Y-13598500D02*
X9811333Y-13588976D01*
X9811333Y-13588976D02*
X9801810Y-13569928D01*
X9801810Y-13569928D02*
X9792286Y-13531833D01*
X9792286Y-13531833D02*
X9792286Y-13484214D01*
X9792286Y-13484214D02*
X9801810Y-13446119D01*
X9801810Y-13446119D02*
X9811333Y-13427071D01*
X9811333Y-13427071D02*
X9820857Y-13417548D01*
X9820857Y-13417548D02*
X9839905Y-13408024D01*
X10030381Y-13408024D02*
X10049429Y-13408024D01*
X10049429Y-13408024D02*
X10068476Y-13417548D01*
X10068476Y-13417548D02*
X10078000Y-13427071D01*
X10078000Y-13427071D02*
X10087524Y-13446119D01*
X10087524Y-13446119D02*
X10097048Y-13484214D01*
X10097048Y-13484214D02*
X10097048Y-13531833D01*
X10097048Y-13531833D02*
X10087524Y-13569928D01*
X10087524Y-13569928D02*
X10078000Y-13588976D01*
X10078000Y-13588976D02*
X10068476Y-13598500D01*
X10068476Y-13598500D02*
X10049429Y-13608024D01*
X10049429Y-13608024D02*
X10030381Y-13608024D01*
X10030381Y-13608024D02*
X10011333Y-13598500D01*
X10011333Y-13598500D02*
X10001810Y-13588976D01*
X10001810Y-13588976D02*
X9992286Y-13569928D01*
X9992286Y-13569928D02*
X9982762Y-13531833D01*
X9982762Y-13531833D02*
X9982762Y-13484214D01*
X9982762Y-13484214D02*
X9992286Y-13446119D01*
X9992286Y-13446119D02*
X10001810Y-13427071D01*
X10001810Y-13427071D02*
X10011333Y-13417548D01*
X10011333Y-13417548D02*
X10030381Y-13408024D01*
X10182762Y-13608024D02*
X10182762Y-13474690D01*
X10182762Y-13493738D02*
X10192286Y-13484214D01*
X10192286Y-13484214D02*
X10211333Y-13474690D01*
X10211333Y-13474690D02*
X10239905Y-13474690D01*
X10239905Y-13474690D02*
X10258952Y-13484214D01*
X10258952Y-13484214D02*
X10268476Y-13503262D01*
X10268476Y-13503262D02*
X10268476Y-13608024D01*
X10268476Y-13503262D02*
X10278000Y-13484214D01*
X10278000Y-13484214D02*
X10297048Y-13474690D01*
X10297048Y-13474690D02*
X10325619Y-13474690D01*
X10325619Y-13474690D02*
X10344667Y-13484214D01*
X10344667Y-13484214D02*
X10354191Y-13503262D01*
X10354191Y-13503262D02*
X10354191Y-13608024D01*
X10449429Y-13608024D02*
X10449429Y-13474690D01*
X10449429Y-13493738D02*
X10458952Y-13484214D01*
X10458952Y-13484214D02*
X10478000Y-13474690D01*
X10478000Y-13474690D02*
X10506572Y-13474690D01*
X10506572Y-13474690D02*
X10525619Y-13484214D01*
X10525619Y-13484214D02*
X10535143Y-13503262D01*
X10535143Y-13503262D02*
X10535143Y-13608024D01*
X10535143Y-13503262D02*
X10544667Y-13484214D01*
X10544667Y-13484214D02*
X10563714Y-13474690D01*
X10563714Y-13474690D02*
X10592286Y-13474690D01*
X10592286Y-13474690D02*
X10611333Y-13484214D01*
X10611333Y-13484214D02*
X10620857Y-13503262D01*
X10620857Y-13503262D02*
X10620857Y-13608024D01*
X11011333Y-13398500D02*
X10839905Y-13655643D01*
X11268476Y-13408024D02*
X11287524Y-13408024D01*
X11287524Y-13408024D02*
X11306572Y-13417548D01*
X11306572Y-13417548D02*
X11316095Y-13427071D01*
X11316095Y-13427071D02*
X11325619Y-13446119D01*
X11325619Y-13446119D02*
X11335143Y-13484214D01*
X11335143Y-13484214D02*
X11335143Y-13531833D01*
X11335143Y-13531833D02*
X11325619Y-13569928D01*
X11325619Y-13569928D02*
X11316095Y-13588976D01*
X11316095Y-13588976D02*
X11306572Y-13598500D01*
X11306572Y-13598500D02*
X11287524Y-13608024D01*
X11287524Y-13608024D02*
X11268476Y-13608024D01*
X11268476Y-13608024D02*
X11249429Y-13598500D01*
X11249429Y-13598500D02*
X11239905Y-13588976D01*
X11239905Y-13588976D02*
X11230381Y-13569928D01*
X11230381Y-13569928D02*
X11220857Y-13531833D01*
X11220857Y-13531833D02*
X11220857Y-13484214D01*
X11220857Y-13484214D02*
X11230381Y-13446119D01*
X11230381Y-13446119D02*
X11239905Y-13427071D01*
X11239905Y-13427071D02*
X11249429Y-13417548D01*
X11249429Y-13417548D02*
X11268476Y-13408024D01*
X11420857Y-13588976D02*
X11430381Y-13598500D01*
X11430381Y-13598500D02*
X11420857Y-13608024D01*
X11420857Y-13608024D02*
X11411333Y-13598500D01*
X11411333Y-13598500D02*
X11420857Y-13588976D01*
X11420857Y-13588976D02*
X11420857Y-13608024D01*
X11554191Y-13408024D02*
X11573238Y-13408024D01*
X11573238Y-13408024D02*
X11592286Y-13417548D01*
X11592286Y-13417548D02*
X11601810Y-13427071D01*
X11601810Y-13427071D02*
X11611333Y-13446119D01*
X11611333Y-13446119D02*
X11620857Y-13484214D01*
X11620857Y-13484214D02*
X11620857Y-13531833D01*
X11620857Y-13531833D02*
X11611333Y-13569928D01*
X11611333Y-13569928D02*
X11601810Y-13588976D01*
X11601810Y-13588976D02*
X11592286Y-13598500D01*
X11592286Y-13598500D02*
X11573238Y-13608024D01*
X11573238Y-13608024D02*
X11554191Y-13608024D01*
X11554191Y-13608024D02*
X11535143Y-13598500D01*
X11535143Y-13598500D02*
X11525619Y-13588976D01*
X11525619Y-13588976D02*
X11516095Y-13569928D01*
X11516095Y-13569928D02*
X11506572Y-13531833D01*
X11506572Y-13531833D02*
X11506572Y-13484214D01*
X11506572Y-13484214D02*
X11516095Y-13446119D01*
X11516095Y-13446119D02*
X11525619Y-13427071D01*
X11525619Y-13427071D02*
X11535143Y-13417548D01*
X11535143Y-13417548D02*
X11554191Y-13408024D01*
X11811333Y-13608024D02*
X11697048Y-13608024D01*
X11754191Y-13608024D02*
X11754191Y-13408024D01*
X11754191Y-13408024D02*
X11735143Y-13436595D01*
X11735143Y-13436595D02*
X11716095Y-13455643D01*
X11716095Y-13455643D02*
X11697048Y-13465167D01*
X11992286Y-13408024D02*
X11897048Y-13408024D01*
X11897048Y-13408024D02*
X11887524Y-13503262D01*
X11887524Y-13503262D02*
X11897048Y-13493738D01*
X11897048Y-13493738D02*
X11916095Y-13484214D01*
X11916095Y-13484214D02*
X11963714Y-13484214D01*
X11963714Y-13484214D02*
X11982762Y-13493738D01*
X11982762Y-13493738D02*
X11992286Y-13503262D01*
X11992286Y-13503262D02*
X12001810Y-13522309D01*
X12001810Y-13522309D02*
X12001810Y-13569928D01*
X12001810Y-13569928D02*
X11992286Y-13588976D01*
X11992286Y-13588976D02*
X11982762Y-13598500D01*
X11982762Y-13598500D02*
X11963714Y-13608024D01*
X11963714Y-13608024D02*
X11916095Y-13608024D01*
X11916095Y-13608024D02*
X11897048Y-13598500D01*
X11897048Y-13598500D02*
X11887524Y-13588976D01*
X12068476Y-13408024D02*
X12201810Y-13408024D01*
X12201810Y-13408024D02*
X12116095Y-13608024D01*
X12268476Y-13408024D02*
X12268476Y-13446119D01*
X12344667Y-13408024D02*
X12344667Y-13446119D01*
X12639905Y-13684214D02*
X12630381Y-13674690D01*
X12630381Y-13674690D02*
X12611334Y-13646119D01*
X12611334Y-13646119D02*
X12601810Y-13627071D01*
X12601810Y-13627071D02*
X12592286Y-13598500D01*
X12592286Y-13598500D02*
X12582762Y-13550881D01*
X12582762Y-13550881D02*
X12582762Y-13512786D01*
X12582762Y-13512786D02*
X12592286Y-13465167D01*
X12592286Y-13465167D02*
X12601810Y-13436595D01*
X12601810Y-13436595D02*
X12611334Y-13417548D01*
X12611334Y-13417548D02*
X12630381Y-13388976D01*
X12630381Y-13388976D02*
X12639905Y-13379452D01*
X12706572Y-13427071D02*
X12716095Y-13417548D01*
X12716095Y-13417548D02*
X12735143Y-13408024D01*
X12735143Y-13408024D02*
X12782762Y-13408024D01*
X12782762Y-13408024D02*
X12801810Y-13417548D01*
X12801810Y-13417548D02*
X12811334Y-13427071D01*
X12811334Y-13427071D02*
X12820857Y-13446119D01*
X12820857Y-13446119D02*
X12820857Y-13465167D01*
X12820857Y-13465167D02*
X12811334Y-13493738D01*
X12811334Y-13493738D02*
X12697048Y-13608024D01*
X12697048Y-13608024D02*
X12820857Y-13608024D01*
X13011334Y-13608024D02*
X12897048Y-13608024D01*
X12954191Y-13608024D02*
X12954191Y-13408024D01*
X12954191Y-13408024D02*
X12935143Y-13436595D01*
X12935143Y-13436595D02*
X12916095Y-13455643D01*
X12916095Y-13455643D02*
X12897048Y-13465167D01*
X13249429Y-13608024D02*
X13249429Y-13408024D01*
X13335143Y-13608024D02*
X13335143Y-13503262D01*
X13335143Y-13503262D02*
X13325619Y-13484214D01*
X13325619Y-13484214D02*
X13306572Y-13474690D01*
X13306572Y-13474690D02*
X13278000Y-13474690D01*
X13278000Y-13474690D02*
X13258953Y-13484214D01*
X13258953Y-13484214D02*
X13249429Y-13493738D01*
X13458953Y-13608024D02*
X13439905Y-13598500D01*
X13439905Y-13598500D02*
X13430381Y-13588976D01*
X13430381Y-13588976D02*
X13420857Y-13569928D01*
X13420857Y-13569928D02*
X13420857Y-13512786D01*
X13420857Y-13512786D02*
X13430381Y-13493738D01*
X13430381Y-13493738D02*
X13439905Y-13484214D01*
X13439905Y-13484214D02*
X13458953Y-13474690D01*
X13458953Y-13474690D02*
X13487524Y-13474690D01*
X13487524Y-13474690D02*
X13506572Y-13484214D01*
X13506572Y-13484214D02*
X13516096Y-13493738D01*
X13516096Y-13493738D02*
X13525619Y-13512786D01*
X13525619Y-13512786D02*
X13525619Y-13569928D01*
X13525619Y-13569928D02*
X13516096Y-13588976D01*
X13516096Y-13588976D02*
X13506572Y-13598500D01*
X13506572Y-13598500D02*
X13487524Y-13608024D01*
X13487524Y-13608024D02*
X13458953Y-13608024D01*
X13639905Y-13608024D02*
X13620857Y-13598500D01*
X13620857Y-13598500D02*
X13611334Y-13579452D01*
X13611334Y-13579452D02*
X13611334Y-13408024D01*
X13792286Y-13598500D02*
X13773238Y-13608024D01*
X13773238Y-13608024D02*
X13735143Y-13608024D01*
X13735143Y-13608024D02*
X13716096Y-13598500D01*
X13716096Y-13598500D02*
X13706572Y-13579452D01*
X13706572Y-13579452D02*
X13706572Y-13503262D01*
X13706572Y-13503262D02*
X13716096Y-13484214D01*
X13716096Y-13484214D02*
X13735143Y-13474690D01*
X13735143Y-13474690D02*
X13773238Y-13474690D01*
X13773238Y-13474690D02*
X13792286Y-13484214D01*
X13792286Y-13484214D02*
X13801810Y-13503262D01*
X13801810Y-13503262D02*
X13801810Y-13522309D01*
X13801810Y-13522309D02*
X13706572Y-13541357D01*
X13878000Y-13598500D02*
X13897048Y-13608024D01*
X13897048Y-13608024D02*
X13935143Y-13608024D01*
X13935143Y-13608024D02*
X13954191Y-13598500D01*
X13954191Y-13598500D02*
X13963715Y-13579452D01*
X13963715Y-13579452D02*
X13963715Y-13569928D01*
X13963715Y-13569928D02*
X13954191Y-13550881D01*
X13954191Y-13550881D02*
X13935143Y-13541357D01*
X13935143Y-13541357D02*
X13906572Y-13541357D01*
X13906572Y-13541357D02*
X13887524Y-13531833D01*
X13887524Y-13531833D02*
X13878000Y-13512786D01*
X13878000Y-13512786D02*
X13878000Y-13503262D01*
X13878000Y-13503262D02*
X13887524Y-13484214D01*
X13887524Y-13484214D02*
X13906572Y-13474690D01*
X13906572Y-13474690D02*
X13935143Y-13474690D01*
X13935143Y-13474690D02*
X13954191Y-13484214D01*
X14030381Y-13684214D02*
X14039905Y-13674690D01*
X14039905Y-13674690D02*
X14058953Y-13646119D01*
X14058953Y-13646119D02*
X14068477Y-13627071D01*
X14068477Y-13627071D02*
X14078000Y-13598500D01*
X14078000Y-13598500D02*
X14087524Y-13550881D01*
X14087524Y-13550881D02*
X14087524Y-13512786D01*
X14087524Y-13512786D02*
X14078000Y-13465167D01*
X14078000Y-13465167D02*
X14068477Y-13436595D01*
X14068477Y-13436595D02*
X14058953Y-13417548D01*
X14058953Y-13417548D02*
X14039905Y-13388976D01*
X14039905Y-13388976D02*
X14030381Y-13379452D01*
D13*
X9078000Y-13779500D02*
G75*
G03*
X9078000Y-13779500I-32500J0D01*
G01*
D10*
X9363714Y-13672024D02*
X9382762Y-13672024D01*
X9382762Y-13672024D02*
X9401810Y-13681548D01*
X9401810Y-13681548D02*
X9411333Y-13691071D01*
X9411333Y-13691071D02*
X9420857Y-13710119D01*
X9420857Y-13710119D02*
X9430381Y-13748214D01*
X9430381Y-13748214D02*
X9430381Y-13795833D01*
X9430381Y-13795833D02*
X9420857Y-13833928D01*
X9420857Y-13833928D02*
X9411333Y-13852976D01*
X9411333Y-13852976D02*
X9401810Y-13862500D01*
X9401810Y-13862500D02*
X9382762Y-13872024D01*
X9382762Y-13872024D02*
X9363714Y-13872024D01*
X9363714Y-13872024D02*
X9344667Y-13862500D01*
X9344667Y-13862500D02*
X9335143Y-13852976D01*
X9335143Y-13852976D02*
X9325619Y-13833928D01*
X9325619Y-13833928D02*
X9316095Y-13795833D01*
X9316095Y-13795833D02*
X9316095Y-13748214D01*
X9316095Y-13748214D02*
X9325619Y-13710119D01*
X9325619Y-13710119D02*
X9335143Y-13691071D01*
X9335143Y-13691071D02*
X9344667Y-13681548D01*
X9344667Y-13681548D02*
X9363714Y-13672024D01*
X9516095Y-13852976D02*
X9525619Y-13862500D01*
X9525619Y-13862500D02*
X9516095Y-13872024D01*
X9516095Y-13872024D02*
X9506571Y-13862500D01*
X9506571Y-13862500D02*
X9516095Y-13852976D01*
X9516095Y-13852976D02*
X9516095Y-13872024D01*
X9697048Y-13672024D02*
X9658952Y-13672024D01*
X9658952Y-13672024D02*
X9639905Y-13681548D01*
X9639905Y-13681548D02*
X9630381Y-13691071D01*
X9630381Y-13691071D02*
X9611333Y-13719643D01*
X9611333Y-13719643D02*
X9601810Y-13757738D01*
X9601810Y-13757738D02*
X9601810Y-13833928D01*
X9601810Y-13833928D02*
X9611333Y-13852976D01*
X9611333Y-13852976D02*
X9620857Y-13862500D01*
X9620857Y-13862500D02*
X9639905Y-13872024D01*
X9639905Y-13872024D02*
X9678000Y-13872024D01*
X9678000Y-13872024D02*
X9697048Y-13862500D01*
X9697048Y-13862500D02*
X9706571Y-13852976D01*
X9706571Y-13852976D02*
X9716095Y-13833928D01*
X9716095Y-13833928D02*
X9716095Y-13786309D01*
X9716095Y-13786309D02*
X9706571Y-13767262D01*
X9706571Y-13767262D02*
X9697048Y-13757738D01*
X9697048Y-13757738D02*
X9678000Y-13748214D01*
X9678000Y-13748214D02*
X9639905Y-13748214D01*
X9639905Y-13748214D02*
X9620857Y-13757738D01*
X9620857Y-13757738D02*
X9611333Y-13767262D01*
X9611333Y-13767262D02*
X9601810Y-13786309D01*
X9897048Y-13672024D02*
X9801810Y-13672024D01*
X9801810Y-13672024D02*
X9792286Y-13767262D01*
X9792286Y-13767262D02*
X9801810Y-13757738D01*
X9801810Y-13757738D02*
X9820857Y-13748214D01*
X9820857Y-13748214D02*
X9868476Y-13748214D01*
X9868476Y-13748214D02*
X9887524Y-13757738D01*
X9887524Y-13757738D02*
X9897048Y-13767262D01*
X9897048Y-13767262D02*
X9906571Y-13786309D01*
X9906571Y-13786309D02*
X9906571Y-13833928D01*
X9906571Y-13833928D02*
X9897048Y-13852976D01*
X9897048Y-13852976D02*
X9887524Y-13862500D01*
X9887524Y-13862500D02*
X9868476Y-13872024D01*
X9868476Y-13872024D02*
X9820857Y-13872024D01*
X9820857Y-13872024D02*
X9801810Y-13862500D01*
X9801810Y-13862500D02*
X9792286Y-13852976D01*
X10030381Y-13672024D02*
X10049429Y-13672024D01*
X10049429Y-13672024D02*
X10068476Y-13681548D01*
X10068476Y-13681548D02*
X10078000Y-13691071D01*
X10078000Y-13691071D02*
X10087524Y-13710119D01*
X10087524Y-13710119D02*
X10097048Y-13748214D01*
X10097048Y-13748214D02*
X10097048Y-13795833D01*
X10097048Y-13795833D02*
X10087524Y-13833928D01*
X10087524Y-13833928D02*
X10078000Y-13852976D01*
X10078000Y-13852976D02*
X10068476Y-13862500D01*
X10068476Y-13862500D02*
X10049429Y-13872024D01*
X10049429Y-13872024D02*
X10030381Y-13872024D01*
X10030381Y-13872024D02*
X10011333Y-13862500D01*
X10011333Y-13862500D02*
X10001810Y-13852976D01*
X10001810Y-13852976D02*
X9992286Y-13833928D01*
X9992286Y-13833928D02*
X9982762Y-13795833D01*
X9982762Y-13795833D02*
X9982762Y-13748214D01*
X9982762Y-13748214D02*
X9992286Y-13710119D01*
X9992286Y-13710119D02*
X10001810Y-13691071D01*
X10001810Y-13691071D02*
X10011333Y-13681548D01*
X10011333Y-13681548D02*
X10030381Y-13672024D01*
X10182762Y-13872024D02*
X10182762Y-13738690D01*
X10182762Y-13757738D02*
X10192286Y-13748214D01*
X10192286Y-13748214D02*
X10211333Y-13738690D01*
X10211333Y-13738690D02*
X10239905Y-13738690D01*
X10239905Y-13738690D02*
X10258952Y-13748214D01*
X10258952Y-13748214D02*
X10268476Y-13767262D01*
X10268476Y-13767262D02*
X10268476Y-13872024D01*
X10268476Y-13767262D02*
X10278000Y-13748214D01*
X10278000Y-13748214D02*
X10297048Y-13738690D01*
X10297048Y-13738690D02*
X10325619Y-13738690D01*
X10325619Y-13738690D02*
X10344667Y-13748214D01*
X10344667Y-13748214D02*
X10354191Y-13767262D01*
X10354191Y-13767262D02*
X10354191Y-13872024D01*
X10449429Y-13872024D02*
X10449429Y-13738690D01*
X10449429Y-13757738D02*
X10458952Y-13748214D01*
X10458952Y-13748214D02*
X10478000Y-13738690D01*
X10478000Y-13738690D02*
X10506572Y-13738690D01*
X10506572Y-13738690D02*
X10525619Y-13748214D01*
X10525619Y-13748214D02*
X10535143Y-13767262D01*
X10535143Y-13767262D02*
X10535143Y-13872024D01*
X10535143Y-13767262D02*
X10544667Y-13748214D01*
X10544667Y-13748214D02*
X10563714Y-13738690D01*
X10563714Y-13738690D02*
X10592286Y-13738690D01*
X10592286Y-13738690D02*
X10611333Y-13748214D01*
X10611333Y-13748214D02*
X10620857Y-13767262D01*
X10620857Y-13767262D02*
X10620857Y-13872024D01*
X11011333Y-13662500D02*
X10839905Y-13919643D01*
X11268476Y-13672024D02*
X11287524Y-13672024D01*
X11287524Y-13672024D02*
X11306572Y-13681548D01*
X11306572Y-13681548D02*
X11316095Y-13691071D01*
X11316095Y-13691071D02*
X11325619Y-13710119D01*
X11325619Y-13710119D02*
X11335143Y-13748214D01*
X11335143Y-13748214D02*
X11335143Y-13795833D01*
X11335143Y-13795833D02*
X11325619Y-13833928D01*
X11325619Y-13833928D02*
X11316095Y-13852976D01*
X11316095Y-13852976D02*
X11306572Y-13862500D01*
X11306572Y-13862500D02*
X11287524Y-13872024D01*
X11287524Y-13872024D02*
X11268476Y-13872024D01*
X11268476Y-13872024D02*
X11249429Y-13862500D01*
X11249429Y-13862500D02*
X11239905Y-13852976D01*
X11239905Y-13852976D02*
X11230381Y-13833928D01*
X11230381Y-13833928D02*
X11220857Y-13795833D01*
X11220857Y-13795833D02*
X11220857Y-13748214D01*
X11220857Y-13748214D02*
X11230381Y-13710119D01*
X11230381Y-13710119D02*
X11239905Y-13691071D01*
X11239905Y-13691071D02*
X11249429Y-13681548D01*
X11249429Y-13681548D02*
X11268476Y-13672024D01*
X11420857Y-13852976D02*
X11430381Y-13862500D01*
X11430381Y-13862500D02*
X11420857Y-13872024D01*
X11420857Y-13872024D02*
X11411333Y-13862500D01*
X11411333Y-13862500D02*
X11420857Y-13852976D01*
X11420857Y-13852976D02*
X11420857Y-13872024D01*
X11554191Y-13672024D02*
X11573238Y-13672024D01*
X11573238Y-13672024D02*
X11592286Y-13681548D01*
X11592286Y-13681548D02*
X11601810Y-13691071D01*
X11601810Y-13691071D02*
X11611333Y-13710119D01*
X11611333Y-13710119D02*
X11620857Y-13748214D01*
X11620857Y-13748214D02*
X11620857Y-13795833D01*
X11620857Y-13795833D02*
X11611333Y-13833928D01*
X11611333Y-13833928D02*
X11601810Y-13852976D01*
X11601810Y-13852976D02*
X11592286Y-13862500D01*
X11592286Y-13862500D02*
X11573238Y-13872024D01*
X11573238Y-13872024D02*
X11554191Y-13872024D01*
X11554191Y-13872024D02*
X11535143Y-13862500D01*
X11535143Y-13862500D02*
X11525619Y-13852976D01*
X11525619Y-13852976D02*
X11516095Y-13833928D01*
X11516095Y-13833928D02*
X11506572Y-13795833D01*
X11506572Y-13795833D02*
X11506572Y-13748214D01*
X11506572Y-13748214D02*
X11516095Y-13710119D01*
X11516095Y-13710119D02*
X11525619Y-13691071D01*
X11525619Y-13691071D02*
X11535143Y-13681548D01*
X11535143Y-13681548D02*
X11554191Y-13672024D01*
X11697048Y-13691071D02*
X11706572Y-13681548D01*
X11706572Y-13681548D02*
X11725619Y-13672024D01*
X11725619Y-13672024D02*
X11773238Y-13672024D01*
X11773238Y-13672024D02*
X11792286Y-13681548D01*
X11792286Y-13681548D02*
X11801810Y-13691071D01*
X11801810Y-13691071D02*
X11811333Y-13710119D01*
X11811333Y-13710119D02*
X11811333Y-13729167D01*
X11811333Y-13729167D02*
X11801810Y-13757738D01*
X11801810Y-13757738D02*
X11687524Y-13872024D01*
X11687524Y-13872024D02*
X11811333Y-13872024D01*
X11992286Y-13672024D02*
X11897048Y-13672024D01*
X11897048Y-13672024D02*
X11887524Y-13767262D01*
X11887524Y-13767262D02*
X11897048Y-13757738D01*
X11897048Y-13757738D02*
X11916095Y-13748214D01*
X11916095Y-13748214D02*
X11963714Y-13748214D01*
X11963714Y-13748214D02*
X11982762Y-13757738D01*
X11982762Y-13757738D02*
X11992286Y-13767262D01*
X11992286Y-13767262D02*
X12001810Y-13786309D01*
X12001810Y-13786309D02*
X12001810Y-13833928D01*
X12001810Y-13833928D02*
X11992286Y-13852976D01*
X11992286Y-13852976D02*
X11982762Y-13862500D01*
X11982762Y-13862500D02*
X11963714Y-13872024D01*
X11963714Y-13872024D02*
X11916095Y-13872024D01*
X11916095Y-13872024D02*
X11897048Y-13862500D01*
X11897048Y-13862500D02*
X11887524Y-13852976D01*
X12173238Y-13672024D02*
X12135143Y-13672024D01*
X12135143Y-13672024D02*
X12116095Y-13681548D01*
X12116095Y-13681548D02*
X12106572Y-13691071D01*
X12106572Y-13691071D02*
X12087524Y-13719643D01*
X12087524Y-13719643D02*
X12078000Y-13757738D01*
X12078000Y-13757738D02*
X12078000Y-13833928D01*
X12078000Y-13833928D02*
X12087524Y-13852976D01*
X12087524Y-13852976D02*
X12097048Y-13862500D01*
X12097048Y-13862500D02*
X12116095Y-13872024D01*
X12116095Y-13872024D02*
X12154191Y-13872024D01*
X12154191Y-13872024D02*
X12173238Y-13862500D01*
X12173238Y-13862500D02*
X12182762Y-13852976D01*
X12182762Y-13852976D02*
X12192286Y-13833928D01*
X12192286Y-13833928D02*
X12192286Y-13786309D01*
X12192286Y-13786309D02*
X12182762Y-13767262D01*
X12182762Y-13767262D02*
X12173238Y-13757738D01*
X12173238Y-13757738D02*
X12154191Y-13748214D01*
X12154191Y-13748214D02*
X12116095Y-13748214D01*
X12116095Y-13748214D02*
X12097048Y-13757738D01*
X12097048Y-13757738D02*
X12087524Y-13767262D01*
X12087524Y-13767262D02*
X12078000Y-13786309D01*
X12268476Y-13672024D02*
X12268476Y-13710119D01*
X12344667Y-13672024D02*
X12344667Y-13710119D01*
X12639905Y-13948214D02*
X12630381Y-13938690D01*
X12630381Y-13938690D02*
X12611334Y-13910119D01*
X12611334Y-13910119D02*
X12601810Y-13891071D01*
X12601810Y-13891071D02*
X12592286Y-13862500D01*
X12592286Y-13862500D02*
X12582762Y-13814881D01*
X12582762Y-13814881D02*
X12582762Y-13776786D01*
X12582762Y-13776786D02*
X12592286Y-13729167D01*
X12592286Y-13729167D02*
X12601810Y-13700595D01*
X12601810Y-13700595D02*
X12611334Y-13681548D01*
X12611334Y-13681548D02*
X12630381Y-13652976D01*
X12630381Y-13652976D02*
X12639905Y-13643452D01*
X12706572Y-13691071D02*
X12716095Y-13681548D01*
X12716095Y-13681548D02*
X12735143Y-13672024D01*
X12735143Y-13672024D02*
X12782762Y-13672024D01*
X12782762Y-13672024D02*
X12801810Y-13681548D01*
X12801810Y-13681548D02*
X12811334Y-13691071D01*
X12811334Y-13691071D02*
X12820857Y-13710119D01*
X12820857Y-13710119D02*
X12820857Y-13729167D01*
X12820857Y-13729167D02*
X12811334Y-13757738D01*
X12811334Y-13757738D02*
X12697048Y-13872024D01*
X12697048Y-13872024D02*
X12820857Y-13872024D01*
X13058953Y-13872024D02*
X13058953Y-13672024D01*
X13144667Y-13872024D02*
X13144667Y-13767262D01*
X13144667Y-13767262D02*
X13135143Y-13748214D01*
X13135143Y-13748214D02*
X13116096Y-13738690D01*
X13116096Y-13738690D02*
X13087524Y-13738690D01*
X13087524Y-13738690D02*
X13068476Y-13748214D01*
X13068476Y-13748214D02*
X13058953Y-13757738D01*
X13268476Y-13872024D02*
X13249429Y-13862500D01*
X13249429Y-13862500D02*
X13239905Y-13852976D01*
X13239905Y-13852976D02*
X13230381Y-13833928D01*
X13230381Y-13833928D02*
X13230381Y-13776786D01*
X13230381Y-13776786D02*
X13239905Y-13757738D01*
X13239905Y-13757738D02*
X13249429Y-13748214D01*
X13249429Y-13748214D02*
X13268476Y-13738690D01*
X13268476Y-13738690D02*
X13297048Y-13738690D01*
X13297048Y-13738690D02*
X13316096Y-13748214D01*
X13316096Y-13748214D02*
X13325619Y-13757738D01*
X13325619Y-13757738D02*
X13335143Y-13776786D01*
X13335143Y-13776786D02*
X13335143Y-13833928D01*
X13335143Y-13833928D02*
X13325619Y-13852976D01*
X13325619Y-13852976D02*
X13316096Y-13862500D01*
X13316096Y-13862500D02*
X13297048Y-13872024D01*
X13297048Y-13872024D02*
X13268476Y-13872024D01*
X13449429Y-13872024D02*
X13430381Y-13862500D01*
X13430381Y-13862500D02*
X13420857Y-13843452D01*
X13420857Y-13843452D02*
X13420857Y-13672024D01*
X13601810Y-13862500D02*
X13582762Y-13872024D01*
X13582762Y-13872024D02*
X13544667Y-13872024D01*
X13544667Y-13872024D02*
X13525619Y-13862500D01*
X13525619Y-13862500D02*
X13516096Y-13843452D01*
X13516096Y-13843452D02*
X13516096Y-13767262D01*
X13516096Y-13767262D02*
X13525619Y-13748214D01*
X13525619Y-13748214D02*
X13544667Y-13738690D01*
X13544667Y-13738690D02*
X13582762Y-13738690D01*
X13582762Y-13738690D02*
X13601810Y-13748214D01*
X13601810Y-13748214D02*
X13611334Y-13767262D01*
X13611334Y-13767262D02*
X13611334Y-13786309D01*
X13611334Y-13786309D02*
X13516096Y-13805357D01*
X13687524Y-13862500D02*
X13706572Y-13872024D01*
X13706572Y-13872024D02*
X13744667Y-13872024D01*
X13744667Y-13872024D02*
X13763715Y-13862500D01*
X13763715Y-13862500D02*
X13773238Y-13843452D01*
X13773238Y-13843452D02*
X13773238Y-13833928D01*
X13773238Y-13833928D02*
X13763715Y-13814881D01*
X13763715Y-13814881D02*
X13744667Y-13805357D01*
X13744667Y-13805357D02*
X13716096Y-13805357D01*
X13716096Y-13805357D02*
X13697048Y-13795833D01*
X13697048Y-13795833D02*
X13687524Y-13776786D01*
X13687524Y-13776786D02*
X13687524Y-13767262D01*
X13687524Y-13767262D02*
X13697048Y-13748214D01*
X13697048Y-13748214D02*
X13716096Y-13738690D01*
X13716096Y-13738690D02*
X13744667Y-13738690D01*
X13744667Y-13738690D02*
X13763715Y-13748214D01*
X13839905Y-13948214D02*
X13849429Y-13938690D01*
X13849429Y-13938690D02*
X13868477Y-13910119D01*
X13868477Y-13910119D02*
X13878000Y-13891071D01*
X13878000Y-13891071D02*
X13887524Y-13862500D01*
X13887524Y-13862500D02*
X13897048Y-13814881D01*
X13897048Y-13814881D02*
X13897048Y-13776786D01*
X13897048Y-13776786D02*
X13887524Y-13729167D01*
X13887524Y-13729167D02*
X13878000Y-13700595D01*
X13878000Y-13700595D02*
X13868477Y-13681548D01*
X13868477Y-13681548D02*
X13849429Y-13652976D01*
X13849429Y-13652976D02*
X13839905Y-13643452D01*
D14*
X9038000Y-14003500D02*
X9038000Y-14083500D01*
X8998000Y-14043500D02*
X9078000Y-14043500D01*
D10*
X9363714Y-13936024D02*
X9382762Y-13936024D01*
X9382762Y-13936024D02*
X9401810Y-13945548D01*
X9401810Y-13945548D02*
X9411333Y-13955071D01*
X9411333Y-13955071D02*
X9420857Y-13974119D01*
X9420857Y-13974119D02*
X9430381Y-14012214D01*
X9430381Y-14012214D02*
X9430381Y-14059833D01*
X9430381Y-14059833D02*
X9420857Y-14097928D01*
X9420857Y-14097928D02*
X9411333Y-14116976D01*
X9411333Y-14116976D02*
X9401810Y-14126500D01*
X9401810Y-14126500D02*
X9382762Y-14136024D01*
X9382762Y-14136024D02*
X9363714Y-14136024D01*
X9363714Y-14136024D02*
X9344667Y-14126500D01*
X9344667Y-14126500D02*
X9335143Y-14116976D01*
X9335143Y-14116976D02*
X9325619Y-14097928D01*
X9325619Y-14097928D02*
X9316095Y-14059833D01*
X9316095Y-14059833D02*
X9316095Y-14012214D01*
X9316095Y-14012214D02*
X9325619Y-13974119D01*
X9325619Y-13974119D02*
X9335143Y-13955071D01*
X9335143Y-13955071D02*
X9344667Y-13945548D01*
X9344667Y-13945548D02*
X9363714Y-13936024D01*
X9516095Y-14116976D02*
X9525619Y-14126500D01*
X9525619Y-14126500D02*
X9516095Y-14136024D01*
X9516095Y-14136024D02*
X9506571Y-14126500D01*
X9506571Y-14126500D02*
X9516095Y-14116976D01*
X9516095Y-14116976D02*
X9516095Y-14136024D01*
X9639905Y-14021738D02*
X9620857Y-14012214D01*
X9620857Y-14012214D02*
X9611333Y-14002690D01*
X9611333Y-14002690D02*
X9601810Y-13983643D01*
X9601810Y-13983643D02*
X9601810Y-13974119D01*
X9601810Y-13974119D02*
X9611333Y-13955071D01*
X9611333Y-13955071D02*
X9620857Y-13945548D01*
X9620857Y-13945548D02*
X9639905Y-13936024D01*
X9639905Y-13936024D02*
X9678000Y-13936024D01*
X9678000Y-13936024D02*
X9697048Y-13945548D01*
X9697048Y-13945548D02*
X9706571Y-13955071D01*
X9706571Y-13955071D02*
X9716095Y-13974119D01*
X9716095Y-13974119D02*
X9716095Y-13983643D01*
X9716095Y-13983643D02*
X9706571Y-14002690D01*
X9706571Y-14002690D02*
X9697048Y-14012214D01*
X9697048Y-14012214D02*
X9678000Y-14021738D01*
X9678000Y-14021738D02*
X9639905Y-14021738D01*
X9639905Y-14021738D02*
X9620857Y-14031262D01*
X9620857Y-14031262D02*
X9611333Y-14040786D01*
X9611333Y-14040786D02*
X9601810Y-14059833D01*
X9601810Y-14059833D02*
X9601810Y-14097928D01*
X9601810Y-14097928D02*
X9611333Y-14116976D01*
X9611333Y-14116976D02*
X9620857Y-14126500D01*
X9620857Y-14126500D02*
X9639905Y-14136024D01*
X9639905Y-14136024D02*
X9678000Y-14136024D01*
X9678000Y-14136024D02*
X9697048Y-14126500D01*
X9697048Y-14126500D02*
X9706571Y-14116976D01*
X9706571Y-14116976D02*
X9716095Y-14097928D01*
X9716095Y-14097928D02*
X9716095Y-14059833D01*
X9716095Y-14059833D02*
X9706571Y-14040786D01*
X9706571Y-14040786D02*
X9697048Y-14031262D01*
X9697048Y-14031262D02*
X9678000Y-14021738D01*
X9839905Y-13936024D02*
X9858952Y-13936024D01*
X9858952Y-13936024D02*
X9878000Y-13945548D01*
X9878000Y-13945548D02*
X9887524Y-13955071D01*
X9887524Y-13955071D02*
X9897048Y-13974119D01*
X9897048Y-13974119D02*
X9906571Y-14012214D01*
X9906571Y-14012214D02*
X9906571Y-14059833D01*
X9906571Y-14059833D02*
X9897048Y-14097928D01*
X9897048Y-14097928D02*
X9887524Y-14116976D01*
X9887524Y-14116976D02*
X9878000Y-14126500D01*
X9878000Y-14126500D02*
X9858952Y-14136024D01*
X9858952Y-14136024D02*
X9839905Y-14136024D01*
X9839905Y-14136024D02*
X9820857Y-14126500D01*
X9820857Y-14126500D02*
X9811333Y-14116976D01*
X9811333Y-14116976D02*
X9801810Y-14097928D01*
X9801810Y-14097928D02*
X9792286Y-14059833D01*
X9792286Y-14059833D02*
X9792286Y-14012214D01*
X9792286Y-14012214D02*
X9801810Y-13974119D01*
X9801810Y-13974119D02*
X9811333Y-13955071D01*
X9811333Y-13955071D02*
X9820857Y-13945548D01*
X9820857Y-13945548D02*
X9839905Y-13936024D01*
X10030381Y-13936024D02*
X10049429Y-13936024D01*
X10049429Y-13936024D02*
X10068476Y-13945548D01*
X10068476Y-13945548D02*
X10078000Y-13955071D01*
X10078000Y-13955071D02*
X10087524Y-13974119D01*
X10087524Y-13974119D02*
X10097048Y-14012214D01*
X10097048Y-14012214D02*
X10097048Y-14059833D01*
X10097048Y-14059833D02*
X10087524Y-14097928D01*
X10087524Y-14097928D02*
X10078000Y-14116976D01*
X10078000Y-14116976D02*
X10068476Y-14126500D01*
X10068476Y-14126500D02*
X10049429Y-14136024D01*
X10049429Y-14136024D02*
X10030381Y-14136024D01*
X10030381Y-14136024D02*
X10011333Y-14126500D01*
X10011333Y-14126500D02*
X10001810Y-14116976D01*
X10001810Y-14116976D02*
X9992286Y-14097928D01*
X9992286Y-14097928D02*
X9982762Y-14059833D01*
X9982762Y-14059833D02*
X9982762Y-14012214D01*
X9982762Y-14012214D02*
X9992286Y-13974119D01*
X9992286Y-13974119D02*
X10001810Y-13955071D01*
X10001810Y-13955071D02*
X10011333Y-13945548D01*
X10011333Y-13945548D02*
X10030381Y-13936024D01*
X10182762Y-14136024D02*
X10182762Y-14002690D01*
X10182762Y-14021738D02*
X10192286Y-14012214D01*
X10192286Y-14012214D02*
X10211333Y-14002690D01*
X10211333Y-14002690D02*
X10239905Y-14002690D01*
X10239905Y-14002690D02*
X10258952Y-14012214D01*
X10258952Y-14012214D02*
X10268476Y-14031262D01*
X10268476Y-14031262D02*
X10268476Y-14136024D01*
X10268476Y-14031262D02*
X10278000Y-14012214D01*
X10278000Y-14012214D02*
X10297048Y-14002690D01*
X10297048Y-14002690D02*
X10325619Y-14002690D01*
X10325619Y-14002690D02*
X10344667Y-14012214D01*
X10344667Y-14012214D02*
X10354191Y-14031262D01*
X10354191Y-14031262D02*
X10354191Y-14136024D01*
X10449429Y-14136024D02*
X10449429Y-14002690D01*
X10449429Y-14021738D02*
X10458952Y-14012214D01*
X10458952Y-14012214D02*
X10478000Y-14002690D01*
X10478000Y-14002690D02*
X10506572Y-14002690D01*
X10506572Y-14002690D02*
X10525619Y-14012214D01*
X10525619Y-14012214D02*
X10535143Y-14031262D01*
X10535143Y-14031262D02*
X10535143Y-14136024D01*
X10535143Y-14031262D02*
X10544667Y-14012214D01*
X10544667Y-14012214D02*
X10563714Y-14002690D01*
X10563714Y-14002690D02*
X10592286Y-14002690D01*
X10592286Y-14002690D02*
X10611333Y-14012214D01*
X10611333Y-14012214D02*
X10620857Y-14031262D01*
X10620857Y-14031262D02*
X10620857Y-14136024D01*
X11011333Y-13926500D02*
X10839905Y-14183643D01*
X11268476Y-13936024D02*
X11287524Y-13936024D01*
X11287524Y-13936024D02*
X11306572Y-13945548D01*
X11306572Y-13945548D02*
X11316095Y-13955071D01*
X11316095Y-13955071D02*
X11325619Y-13974119D01*
X11325619Y-13974119D02*
X11335143Y-14012214D01*
X11335143Y-14012214D02*
X11335143Y-14059833D01*
X11335143Y-14059833D02*
X11325619Y-14097928D01*
X11325619Y-14097928D02*
X11316095Y-14116976D01*
X11316095Y-14116976D02*
X11306572Y-14126500D01*
X11306572Y-14126500D02*
X11287524Y-14136024D01*
X11287524Y-14136024D02*
X11268476Y-14136024D01*
X11268476Y-14136024D02*
X11249429Y-14126500D01*
X11249429Y-14126500D02*
X11239905Y-14116976D01*
X11239905Y-14116976D02*
X11230381Y-14097928D01*
X11230381Y-14097928D02*
X11220857Y-14059833D01*
X11220857Y-14059833D02*
X11220857Y-14012214D01*
X11220857Y-14012214D02*
X11230381Y-13974119D01*
X11230381Y-13974119D02*
X11239905Y-13955071D01*
X11239905Y-13955071D02*
X11249429Y-13945548D01*
X11249429Y-13945548D02*
X11268476Y-13936024D01*
X11420857Y-14116976D02*
X11430381Y-14126500D01*
X11430381Y-14126500D02*
X11420857Y-14136024D01*
X11420857Y-14136024D02*
X11411333Y-14126500D01*
X11411333Y-14126500D02*
X11420857Y-14116976D01*
X11420857Y-14116976D02*
X11420857Y-14136024D01*
X11554191Y-13936024D02*
X11573238Y-13936024D01*
X11573238Y-13936024D02*
X11592286Y-13945548D01*
X11592286Y-13945548D02*
X11601810Y-13955071D01*
X11601810Y-13955071D02*
X11611333Y-13974119D01*
X11611333Y-13974119D02*
X11620857Y-14012214D01*
X11620857Y-14012214D02*
X11620857Y-14059833D01*
X11620857Y-14059833D02*
X11611333Y-14097928D01*
X11611333Y-14097928D02*
X11601810Y-14116976D01*
X11601810Y-14116976D02*
X11592286Y-14126500D01*
X11592286Y-14126500D02*
X11573238Y-14136024D01*
X11573238Y-14136024D02*
X11554191Y-14136024D01*
X11554191Y-14136024D02*
X11535143Y-14126500D01*
X11535143Y-14126500D02*
X11525619Y-14116976D01*
X11525619Y-14116976D02*
X11516095Y-14097928D01*
X11516095Y-14097928D02*
X11506572Y-14059833D01*
X11506572Y-14059833D02*
X11506572Y-14012214D01*
X11506572Y-14012214D02*
X11516095Y-13974119D01*
X11516095Y-13974119D02*
X11525619Y-13955071D01*
X11525619Y-13955071D02*
X11535143Y-13945548D01*
X11535143Y-13945548D02*
X11554191Y-13936024D01*
X11687524Y-13936024D02*
X11811333Y-13936024D01*
X11811333Y-13936024D02*
X11744667Y-14012214D01*
X11744667Y-14012214D02*
X11773238Y-14012214D01*
X11773238Y-14012214D02*
X11792286Y-14021738D01*
X11792286Y-14021738D02*
X11801810Y-14031262D01*
X11801810Y-14031262D02*
X11811333Y-14050309D01*
X11811333Y-14050309D02*
X11811333Y-14097928D01*
X11811333Y-14097928D02*
X11801810Y-14116976D01*
X11801810Y-14116976D02*
X11792286Y-14126500D01*
X11792286Y-14126500D02*
X11773238Y-14136024D01*
X11773238Y-14136024D02*
X11716095Y-14136024D01*
X11716095Y-14136024D02*
X11697048Y-14126500D01*
X11697048Y-14126500D02*
X11687524Y-14116976D01*
X12001810Y-14136024D02*
X11887524Y-14136024D01*
X11944667Y-14136024D02*
X11944667Y-13936024D01*
X11944667Y-13936024D02*
X11925619Y-13964595D01*
X11925619Y-13964595D02*
X11906572Y-13983643D01*
X11906572Y-13983643D02*
X11887524Y-13993167D01*
X12182762Y-13936024D02*
X12087524Y-13936024D01*
X12087524Y-13936024D02*
X12078000Y-14031262D01*
X12078000Y-14031262D02*
X12087524Y-14021738D01*
X12087524Y-14021738D02*
X12106572Y-14012214D01*
X12106572Y-14012214D02*
X12154191Y-14012214D01*
X12154191Y-14012214D02*
X12173238Y-14021738D01*
X12173238Y-14021738D02*
X12182762Y-14031262D01*
X12182762Y-14031262D02*
X12192286Y-14050309D01*
X12192286Y-14050309D02*
X12192286Y-14097928D01*
X12192286Y-14097928D02*
X12182762Y-14116976D01*
X12182762Y-14116976D02*
X12173238Y-14126500D01*
X12173238Y-14126500D02*
X12154191Y-14136024D01*
X12154191Y-14136024D02*
X12106572Y-14136024D01*
X12106572Y-14136024D02*
X12087524Y-14126500D01*
X12087524Y-14126500D02*
X12078000Y-14116976D01*
X12268476Y-13936024D02*
X12268476Y-13974119D01*
X12344667Y-13936024D02*
X12344667Y-13974119D01*
X12639905Y-14212214D02*
X12630381Y-14202690D01*
X12630381Y-14202690D02*
X12611334Y-14174119D01*
X12611334Y-14174119D02*
X12601810Y-14155071D01*
X12601810Y-14155071D02*
X12592286Y-14126500D01*
X12592286Y-14126500D02*
X12582762Y-14078881D01*
X12582762Y-14078881D02*
X12582762Y-14040786D01*
X12582762Y-14040786D02*
X12592286Y-13993167D01*
X12592286Y-13993167D02*
X12601810Y-13964595D01*
X12601810Y-13964595D02*
X12611334Y-13945548D01*
X12611334Y-13945548D02*
X12630381Y-13916976D01*
X12630381Y-13916976D02*
X12639905Y-13907452D01*
X12820857Y-14136024D02*
X12706572Y-14136024D01*
X12763714Y-14136024D02*
X12763714Y-13936024D01*
X12763714Y-13936024D02*
X12744667Y-13964595D01*
X12744667Y-13964595D02*
X12725619Y-13983643D01*
X12725619Y-13983643D02*
X12706572Y-13993167D01*
X12944667Y-13936024D02*
X12963715Y-13936024D01*
X12963715Y-13936024D02*
X12982762Y-13945548D01*
X12982762Y-13945548D02*
X12992286Y-13955071D01*
X12992286Y-13955071D02*
X13001810Y-13974119D01*
X13001810Y-13974119D02*
X13011334Y-14012214D01*
X13011334Y-14012214D02*
X13011334Y-14059833D01*
X13011334Y-14059833D02*
X13001810Y-14097928D01*
X13001810Y-14097928D02*
X12992286Y-14116976D01*
X12992286Y-14116976D02*
X12982762Y-14126500D01*
X12982762Y-14126500D02*
X12963715Y-14136024D01*
X12963715Y-14136024D02*
X12944667Y-14136024D01*
X12944667Y-14136024D02*
X12925619Y-14126500D01*
X12925619Y-14126500D02*
X12916095Y-14116976D01*
X12916095Y-14116976D02*
X12906572Y-14097928D01*
X12906572Y-14097928D02*
X12897048Y-14059833D01*
X12897048Y-14059833D02*
X12897048Y-14012214D01*
X12897048Y-14012214D02*
X12906572Y-13974119D01*
X12906572Y-13974119D02*
X12916095Y-13955071D01*
X12916095Y-13955071D02*
X12925619Y-13945548D01*
X12925619Y-13945548D02*
X12944667Y-13936024D01*
X13087524Y-13955071D02*
X13097048Y-13945548D01*
X13097048Y-13945548D02*
X13116095Y-13936024D01*
X13116095Y-13936024D02*
X13163715Y-13936024D01*
X13163715Y-13936024D02*
X13182762Y-13945548D01*
X13182762Y-13945548D02*
X13192286Y-13955071D01*
X13192286Y-13955071D02*
X13201810Y-13974119D01*
X13201810Y-13974119D02*
X13201810Y-13993167D01*
X13201810Y-13993167D02*
X13192286Y-14021738D01*
X13192286Y-14021738D02*
X13078000Y-14136024D01*
X13078000Y-14136024D02*
X13201810Y-14136024D01*
X13439905Y-14136024D02*
X13439905Y-13936024D01*
X13525619Y-14136024D02*
X13525619Y-14031262D01*
X13525619Y-14031262D02*
X13516096Y-14012214D01*
X13516096Y-14012214D02*
X13497048Y-14002690D01*
X13497048Y-14002690D02*
X13468476Y-14002690D01*
X13468476Y-14002690D02*
X13449429Y-14012214D01*
X13449429Y-14012214D02*
X13439905Y-14021738D01*
X13649429Y-14136024D02*
X13630381Y-14126500D01*
X13630381Y-14126500D02*
X13620857Y-14116976D01*
X13620857Y-14116976D02*
X13611334Y-14097928D01*
X13611334Y-14097928D02*
X13611334Y-14040786D01*
X13611334Y-14040786D02*
X13620857Y-14021738D01*
X13620857Y-14021738D02*
X13630381Y-14012214D01*
X13630381Y-14012214D02*
X13649429Y-14002690D01*
X13649429Y-14002690D02*
X13678000Y-14002690D01*
X13678000Y-14002690D02*
X13697048Y-14012214D01*
X13697048Y-14012214D02*
X13706572Y-14021738D01*
X13706572Y-14021738D02*
X13716096Y-14040786D01*
X13716096Y-14040786D02*
X13716096Y-14097928D01*
X13716096Y-14097928D02*
X13706572Y-14116976D01*
X13706572Y-14116976D02*
X13697048Y-14126500D01*
X13697048Y-14126500D02*
X13678000Y-14136024D01*
X13678000Y-14136024D02*
X13649429Y-14136024D01*
X13830381Y-14136024D02*
X13811334Y-14126500D01*
X13811334Y-14126500D02*
X13801810Y-14107452D01*
X13801810Y-14107452D02*
X13801810Y-13936024D01*
X13982762Y-14126500D02*
X13963715Y-14136024D01*
X13963715Y-14136024D02*
X13925619Y-14136024D01*
X13925619Y-14136024D02*
X13906572Y-14126500D01*
X13906572Y-14126500D02*
X13897048Y-14107452D01*
X13897048Y-14107452D02*
X13897048Y-14031262D01*
X13897048Y-14031262D02*
X13906572Y-14012214D01*
X13906572Y-14012214D02*
X13925619Y-14002690D01*
X13925619Y-14002690D02*
X13963715Y-14002690D01*
X13963715Y-14002690D02*
X13982762Y-14012214D01*
X13982762Y-14012214D02*
X13992286Y-14031262D01*
X13992286Y-14031262D02*
X13992286Y-14050309D01*
X13992286Y-14050309D02*
X13897048Y-14069357D01*
X14068477Y-14126500D02*
X14087524Y-14136024D01*
X14087524Y-14136024D02*
X14125619Y-14136024D01*
X14125619Y-14136024D02*
X14144667Y-14126500D01*
X14144667Y-14126500D02*
X14154191Y-14107452D01*
X14154191Y-14107452D02*
X14154191Y-14097928D01*
X14154191Y-14097928D02*
X14144667Y-14078881D01*
X14144667Y-14078881D02*
X14125619Y-14069357D01*
X14125619Y-14069357D02*
X14097048Y-14069357D01*
X14097048Y-14069357D02*
X14078000Y-14059833D01*
X14078000Y-14059833D02*
X14068477Y-14040786D01*
X14068477Y-14040786D02*
X14068477Y-14031262D01*
X14068477Y-14031262D02*
X14078000Y-14012214D01*
X14078000Y-14012214D02*
X14097048Y-14002690D01*
X14097048Y-14002690D02*
X14125619Y-14002690D01*
X14125619Y-14002690D02*
X14144667Y-14012214D01*
X14220858Y-14212214D02*
X14230381Y-14202690D01*
X14230381Y-14202690D02*
X14249429Y-14174119D01*
X14249429Y-14174119D02*
X14258953Y-14155071D01*
X14258953Y-14155071D02*
X14268477Y-14126500D01*
X14268477Y-14126500D02*
X14278000Y-14078881D01*
X14278000Y-14078881D02*
X14278000Y-14040786D01*
X14278000Y-14040786D02*
X14268477Y-13993167D01*
X14268477Y-13993167D02*
X14258953Y-13964595D01*
X14258953Y-13964595D02*
X14249429Y-13945548D01*
X14249429Y-13945548D02*
X14230381Y-13916976D01*
X14230381Y-13916976D02*
X14220858Y-13907452D01*
D15*
X9064820Y-14339320D02*
X9064820Y-14275680D01*
X9001180Y-14275680D01*
X9001180Y-14339320D01*
X9064820Y-14339320D01*
D10*
X9363714Y-14200024D02*
X9382762Y-14200024D01*
X9382762Y-14200024D02*
X9401810Y-14209548D01*
X9401810Y-14209548D02*
X9411333Y-14219071D01*
X9411333Y-14219071D02*
X9420857Y-14238119D01*
X9420857Y-14238119D02*
X9430381Y-14276214D01*
X9430381Y-14276214D02*
X9430381Y-14323833D01*
X9430381Y-14323833D02*
X9420857Y-14361928D01*
X9420857Y-14361928D02*
X9411333Y-14380976D01*
X9411333Y-14380976D02*
X9401810Y-14390500D01*
X9401810Y-14390500D02*
X9382762Y-14400024D01*
X9382762Y-14400024D02*
X9363714Y-14400024D01*
X9363714Y-14400024D02*
X9344667Y-14390500D01*
X9344667Y-14390500D02*
X9335143Y-14380976D01*
X9335143Y-14380976D02*
X9325619Y-14361928D01*
X9325619Y-14361928D02*
X9316095Y-14323833D01*
X9316095Y-14323833D02*
X9316095Y-14276214D01*
X9316095Y-14276214D02*
X9325619Y-14238119D01*
X9325619Y-14238119D02*
X9335143Y-14219071D01*
X9335143Y-14219071D02*
X9344667Y-14209548D01*
X9344667Y-14209548D02*
X9363714Y-14200024D01*
X9516095Y-14380976D02*
X9525619Y-14390500D01*
X9525619Y-14390500D02*
X9516095Y-14400024D01*
X9516095Y-14400024D02*
X9506571Y-14390500D01*
X9506571Y-14390500D02*
X9516095Y-14380976D01*
X9516095Y-14380976D02*
X9516095Y-14400024D01*
X9620857Y-14400024D02*
X9658952Y-14400024D01*
X9658952Y-14400024D02*
X9678000Y-14390500D01*
X9678000Y-14390500D02*
X9687524Y-14380976D01*
X9687524Y-14380976D02*
X9706571Y-14352405D01*
X9706571Y-14352405D02*
X9716095Y-14314309D01*
X9716095Y-14314309D02*
X9716095Y-14238119D01*
X9716095Y-14238119D02*
X9706571Y-14219071D01*
X9706571Y-14219071D02*
X9697048Y-14209548D01*
X9697048Y-14209548D02*
X9678000Y-14200024D01*
X9678000Y-14200024D02*
X9639905Y-14200024D01*
X9639905Y-14200024D02*
X9620857Y-14209548D01*
X9620857Y-14209548D02*
X9611333Y-14219071D01*
X9611333Y-14219071D02*
X9601810Y-14238119D01*
X9601810Y-14238119D02*
X9601810Y-14285738D01*
X9601810Y-14285738D02*
X9611333Y-14304786D01*
X9611333Y-14304786D02*
X9620857Y-14314309D01*
X9620857Y-14314309D02*
X9639905Y-14323833D01*
X9639905Y-14323833D02*
X9678000Y-14323833D01*
X9678000Y-14323833D02*
X9697048Y-14314309D01*
X9697048Y-14314309D02*
X9706571Y-14304786D01*
X9706571Y-14304786D02*
X9716095Y-14285738D01*
X9839905Y-14200024D02*
X9858952Y-14200024D01*
X9858952Y-14200024D02*
X9878000Y-14209548D01*
X9878000Y-14209548D02*
X9887524Y-14219071D01*
X9887524Y-14219071D02*
X9897048Y-14238119D01*
X9897048Y-14238119D02*
X9906571Y-14276214D01*
X9906571Y-14276214D02*
X9906571Y-14323833D01*
X9906571Y-14323833D02*
X9897048Y-14361928D01*
X9897048Y-14361928D02*
X9887524Y-14380976D01*
X9887524Y-14380976D02*
X9878000Y-14390500D01*
X9878000Y-14390500D02*
X9858952Y-14400024D01*
X9858952Y-14400024D02*
X9839905Y-14400024D01*
X9839905Y-14400024D02*
X9820857Y-14390500D01*
X9820857Y-14390500D02*
X9811333Y-14380976D01*
X9811333Y-14380976D02*
X9801810Y-14361928D01*
X9801810Y-14361928D02*
X9792286Y-14323833D01*
X9792286Y-14323833D02*
X9792286Y-14276214D01*
X9792286Y-14276214D02*
X9801810Y-14238119D01*
X9801810Y-14238119D02*
X9811333Y-14219071D01*
X9811333Y-14219071D02*
X9820857Y-14209548D01*
X9820857Y-14209548D02*
X9839905Y-14200024D01*
X10030381Y-14200024D02*
X10049429Y-14200024D01*
X10049429Y-14200024D02*
X10068476Y-14209548D01*
X10068476Y-14209548D02*
X10078000Y-14219071D01*
X10078000Y-14219071D02*
X10087524Y-14238119D01*
X10087524Y-14238119D02*
X10097048Y-14276214D01*
X10097048Y-14276214D02*
X10097048Y-14323833D01*
X10097048Y-14323833D02*
X10087524Y-14361928D01*
X10087524Y-14361928D02*
X10078000Y-14380976D01*
X10078000Y-14380976D02*
X10068476Y-14390500D01*
X10068476Y-14390500D02*
X10049429Y-14400024D01*
X10049429Y-14400024D02*
X10030381Y-14400024D01*
X10030381Y-14400024D02*
X10011333Y-14390500D01*
X10011333Y-14390500D02*
X10001810Y-14380976D01*
X10001810Y-14380976D02*
X9992286Y-14361928D01*
X9992286Y-14361928D02*
X9982762Y-14323833D01*
X9982762Y-14323833D02*
X9982762Y-14276214D01*
X9982762Y-14276214D02*
X9992286Y-14238119D01*
X9992286Y-14238119D02*
X10001810Y-14219071D01*
X10001810Y-14219071D02*
X10011333Y-14209548D01*
X10011333Y-14209548D02*
X10030381Y-14200024D01*
X10182762Y-14400024D02*
X10182762Y-14266690D01*
X10182762Y-14285738D02*
X10192286Y-14276214D01*
X10192286Y-14276214D02*
X10211333Y-14266690D01*
X10211333Y-14266690D02*
X10239905Y-14266690D01*
X10239905Y-14266690D02*
X10258952Y-14276214D01*
X10258952Y-14276214D02*
X10268476Y-14295262D01*
X10268476Y-14295262D02*
X10268476Y-14400024D01*
X10268476Y-14295262D02*
X10278000Y-14276214D01*
X10278000Y-14276214D02*
X10297048Y-14266690D01*
X10297048Y-14266690D02*
X10325619Y-14266690D01*
X10325619Y-14266690D02*
X10344667Y-14276214D01*
X10344667Y-14276214D02*
X10354191Y-14295262D01*
X10354191Y-14295262D02*
X10354191Y-14400024D01*
X10449429Y-14400024D02*
X10449429Y-14266690D01*
X10449429Y-14285738D02*
X10458952Y-14276214D01*
X10458952Y-14276214D02*
X10478000Y-14266690D01*
X10478000Y-14266690D02*
X10506572Y-14266690D01*
X10506572Y-14266690D02*
X10525619Y-14276214D01*
X10525619Y-14276214D02*
X10535143Y-14295262D01*
X10535143Y-14295262D02*
X10535143Y-14400024D01*
X10535143Y-14295262D02*
X10544667Y-14276214D01*
X10544667Y-14276214D02*
X10563714Y-14266690D01*
X10563714Y-14266690D02*
X10592286Y-14266690D01*
X10592286Y-14266690D02*
X10611333Y-14276214D01*
X10611333Y-14276214D02*
X10620857Y-14295262D01*
X10620857Y-14295262D02*
X10620857Y-14400024D01*
X11011333Y-14190500D02*
X10839905Y-14447643D01*
X11268476Y-14200024D02*
X11287524Y-14200024D01*
X11287524Y-14200024D02*
X11306572Y-14209548D01*
X11306572Y-14209548D02*
X11316095Y-14219071D01*
X11316095Y-14219071D02*
X11325619Y-14238119D01*
X11325619Y-14238119D02*
X11335143Y-14276214D01*
X11335143Y-14276214D02*
X11335143Y-14323833D01*
X11335143Y-14323833D02*
X11325619Y-14361928D01*
X11325619Y-14361928D02*
X11316095Y-14380976D01*
X11316095Y-14380976D02*
X11306572Y-14390500D01*
X11306572Y-14390500D02*
X11287524Y-14400024D01*
X11287524Y-14400024D02*
X11268476Y-14400024D01*
X11268476Y-14400024D02*
X11249429Y-14390500D01*
X11249429Y-14390500D02*
X11239905Y-14380976D01*
X11239905Y-14380976D02*
X11230381Y-14361928D01*
X11230381Y-14361928D02*
X11220857Y-14323833D01*
X11220857Y-14323833D02*
X11220857Y-14276214D01*
X11220857Y-14276214D02*
X11230381Y-14238119D01*
X11230381Y-14238119D02*
X11239905Y-14219071D01*
X11239905Y-14219071D02*
X11249429Y-14209548D01*
X11249429Y-14209548D02*
X11268476Y-14200024D01*
X11420857Y-14380976D02*
X11430381Y-14390500D01*
X11430381Y-14390500D02*
X11420857Y-14400024D01*
X11420857Y-14400024D02*
X11411333Y-14390500D01*
X11411333Y-14390500D02*
X11420857Y-14380976D01*
X11420857Y-14380976D02*
X11420857Y-14400024D01*
X11554191Y-14200024D02*
X11573238Y-14200024D01*
X11573238Y-14200024D02*
X11592286Y-14209548D01*
X11592286Y-14209548D02*
X11601810Y-14219071D01*
X11601810Y-14219071D02*
X11611333Y-14238119D01*
X11611333Y-14238119D02*
X11620857Y-14276214D01*
X11620857Y-14276214D02*
X11620857Y-14323833D01*
X11620857Y-14323833D02*
X11611333Y-14361928D01*
X11611333Y-14361928D02*
X11601810Y-14380976D01*
X11601810Y-14380976D02*
X11592286Y-14390500D01*
X11592286Y-14390500D02*
X11573238Y-14400024D01*
X11573238Y-14400024D02*
X11554191Y-14400024D01*
X11554191Y-14400024D02*
X11535143Y-14390500D01*
X11535143Y-14390500D02*
X11525619Y-14380976D01*
X11525619Y-14380976D02*
X11516095Y-14361928D01*
X11516095Y-14361928D02*
X11506572Y-14323833D01*
X11506572Y-14323833D02*
X11506572Y-14276214D01*
X11506572Y-14276214D02*
X11516095Y-14238119D01*
X11516095Y-14238119D02*
X11525619Y-14219071D01*
X11525619Y-14219071D02*
X11535143Y-14209548D01*
X11535143Y-14209548D02*
X11554191Y-14200024D01*
X11687524Y-14200024D02*
X11811333Y-14200024D01*
X11811333Y-14200024D02*
X11744667Y-14276214D01*
X11744667Y-14276214D02*
X11773238Y-14276214D01*
X11773238Y-14276214D02*
X11792286Y-14285738D01*
X11792286Y-14285738D02*
X11801810Y-14295262D01*
X11801810Y-14295262D02*
X11811333Y-14314309D01*
X11811333Y-14314309D02*
X11811333Y-14361928D01*
X11811333Y-14361928D02*
X11801810Y-14380976D01*
X11801810Y-14380976D02*
X11792286Y-14390500D01*
X11792286Y-14390500D02*
X11773238Y-14400024D01*
X11773238Y-14400024D02*
X11716095Y-14400024D01*
X11716095Y-14400024D02*
X11697048Y-14390500D01*
X11697048Y-14390500D02*
X11687524Y-14380976D01*
X11992286Y-14200024D02*
X11897048Y-14200024D01*
X11897048Y-14200024D02*
X11887524Y-14295262D01*
X11887524Y-14295262D02*
X11897048Y-14285738D01*
X11897048Y-14285738D02*
X11916095Y-14276214D01*
X11916095Y-14276214D02*
X11963714Y-14276214D01*
X11963714Y-14276214D02*
X11982762Y-14285738D01*
X11982762Y-14285738D02*
X11992286Y-14295262D01*
X11992286Y-14295262D02*
X12001810Y-14314309D01*
X12001810Y-14314309D02*
X12001810Y-14361928D01*
X12001810Y-14361928D02*
X11992286Y-14380976D01*
X11992286Y-14380976D02*
X11982762Y-14390500D01*
X11982762Y-14390500D02*
X11963714Y-14400024D01*
X11963714Y-14400024D02*
X11916095Y-14400024D01*
X11916095Y-14400024D02*
X11897048Y-14390500D01*
X11897048Y-14390500D02*
X11887524Y-14380976D01*
X12173238Y-14266690D02*
X12173238Y-14400024D01*
X12125619Y-14190500D02*
X12078000Y-14333357D01*
X12078000Y-14333357D02*
X12201810Y-14333357D01*
X12268476Y-14200024D02*
X12268476Y-14238119D01*
X12344667Y-14200024D02*
X12344667Y-14238119D01*
X12639905Y-14476214D02*
X12630381Y-14466690D01*
X12630381Y-14466690D02*
X12611334Y-14438119D01*
X12611334Y-14438119D02*
X12601810Y-14419071D01*
X12601810Y-14419071D02*
X12592286Y-14390500D01*
X12592286Y-14390500D02*
X12582762Y-14342881D01*
X12582762Y-14342881D02*
X12582762Y-14304786D01*
X12582762Y-14304786D02*
X12592286Y-14257167D01*
X12592286Y-14257167D02*
X12601810Y-14228595D01*
X12601810Y-14228595D02*
X12611334Y-14209548D01*
X12611334Y-14209548D02*
X12630381Y-14180976D01*
X12630381Y-14180976D02*
X12639905Y-14171452D01*
X12706572Y-14219071D02*
X12716095Y-14209548D01*
X12716095Y-14209548D02*
X12735143Y-14200024D01*
X12735143Y-14200024D02*
X12782762Y-14200024D01*
X12782762Y-14200024D02*
X12801810Y-14209548D01*
X12801810Y-14209548D02*
X12811334Y-14219071D01*
X12811334Y-14219071D02*
X12820857Y-14238119D01*
X12820857Y-14238119D02*
X12820857Y-14257167D01*
X12820857Y-14257167D02*
X12811334Y-14285738D01*
X12811334Y-14285738D02*
X12697048Y-14400024D01*
X12697048Y-14400024D02*
X12820857Y-14400024D01*
X13058953Y-14400024D02*
X13058953Y-14200024D01*
X13144667Y-14400024D02*
X13144667Y-14295262D01*
X13144667Y-14295262D02*
X13135143Y-14276214D01*
X13135143Y-14276214D02*
X13116096Y-14266690D01*
X13116096Y-14266690D02*
X13087524Y-14266690D01*
X13087524Y-14266690D02*
X13068476Y-14276214D01*
X13068476Y-14276214D02*
X13058953Y-14285738D01*
X13268476Y-14400024D02*
X13249429Y-14390500D01*
X13249429Y-14390500D02*
X13239905Y-14380976D01*
X13239905Y-14380976D02*
X13230381Y-14361928D01*
X13230381Y-14361928D02*
X13230381Y-14304786D01*
X13230381Y-14304786D02*
X13239905Y-14285738D01*
X13239905Y-14285738D02*
X13249429Y-14276214D01*
X13249429Y-14276214D02*
X13268476Y-14266690D01*
X13268476Y-14266690D02*
X13297048Y-14266690D01*
X13297048Y-14266690D02*
X13316096Y-14276214D01*
X13316096Y-14276214D02*
X13325619Y-14285738D01*
X13325619Y-14285738D02*
X13335143Y-14304786D01*
X13335143Y-14304786D02*
X13335143Y-14361928D01*
X13335143Y-14361928D02*
X13325619Y-14380976D01*
X13325619Y-14380976D02*
X13316096Y-14390500D01*
X13316096Y-14390500D02*
X13297048Y-14400024D01*
X13297048Y-14400024D02*
X13268476Y-14400024D01*
X13449429Y-14400024D02*
X13430381Y-14390500D01*
X13430381Y-14390500D02*
X13420857Y-14371452D01*
X13420857Y-14371452D02*
X13420857Y-14200024D01*
X13601810Y-14390500D02*
X13582762Y-14400024D01*
X13582762Y-14400024D02*
X13544667Y-14400024D01*
X13544667Y-14400024D02*
X13525619Y-14390500D01*
X13525619Y-14390500D02*
X13516096Y-14371452D01*
X13516096Y-14371452D02*
X13516096Y-14295262D01*
X13516096Y-14295262D02*
X13525619Y-14276214D01*
X13525619Y-14276214D02*
X13544667Y-14266690D01*
X13544667Y-14266690D02*
X13582762Y-14266690D01*
X13582762Y-14266690D02*
X13601810Y-14276214D01*
X13601810Y-14276214D02*
X13611334Y-14295262D01*
X13611334Y-14295262D02*
X13611334Y-14314309D01*
X13611334Y-14314309D02*
X13516096Y-14333357D01*
X13687524Y-14390500D02*
X13706572Y-14400024D01*
X13706572Y-14400024D02*
X13744667Y-14400024D01*
X13744667Y-14400024D02*
X13763715Y-14390500D01*
X13763715Y-14390500D02*
X13773238Y-14371452D01*
X13773238Y-14371452D02*
X13773238Y-14361928D01*
X13773238Y-14361928D02*
X13763715Y-14342881D01*
X13763715Y-14342881D02*
X13744667Y-14333357D01*
X13744667Y-14333357D02*
X13716096Y-14333357D01*
X13716096Y-14333357D02*
X13697048Y-14323833D01*
X13697048Y-14323833D02*
X13687524Y-14304786D01*
X13687524Y-14304786D02*
X13687524Y-14295262D01*
X13687524Y-14295262D02*
X13697048Y-14276214D01*
X13697048Y-14276214D02*
X13716096Y-14266690D01*
X13716096Y-14266690D02*
X13744667Y-14266690D01*
X13744667Y-14266690D02*
X13763715Y-14276214D01*
X13839905Y-14476214D02*
X13849429Y-14466690D01*
X13849429Y-14466690D02*
X13868477Y-14438119D01*
X13868477Y-14438119D02*
X13878000Y-14419071D01*
X13878000Y-14419071D02*
X13887524Y-14390500D01*
X13887524Y-14390500D02*
X13897048Y-14342881D01*
X13897048Y-14342881D02*
X13897048Y-14304786D01*
X13897048Y-14304786D02*
X13887524Y-14257167D01*
X13887524Y-14257167D02*
X13878000Y-14228595D01*
X13878000Y-14228595D02*
X13868477Y-14209548D01*
X13868477Y-14209548D02*
X13849429Y-14180976D01*
X13849429Y-14180976D02*
X13839905Y-14171452D01*
D11*
X9028000Y-14621500D02*
X9078000Y-14571500D01*
X9028000Y-14521500D01*
X8978000Y-14571500D01*
X9028000Y-14621500D01*
D10*
X9430381Y-14664024D02*
X9316095Y-14664024D01*
X9373238Y-14664024D02*
X9373238Y-14464024D01*
X9373238Y-14464024D02*
X9354190Y-14492595D01*
X9354190Y-14492595D02*
X9335143Y-14511643D01*
X9335143Y-14511643D02*
X9316095Y-14521167D01*
X9516095Y-14644976D02*
X9525619Y-14654500D01*
X9525619Y-14654500D02*
X9516095Y-14664024D01*
X9516095Y-14664024D02*
X9506571Y-14654500D01*
X9506571Y-14654500D02*
X9516095Y-14644976D01*
X9516095Y-14644976D02*
X9516095Y-14664024D01*
X9649429Y-14464024D02*
X9668476Y-14464024D01*
X9668476Y-14464024D02*
X9687524Y-14473548D01*
X9687524Y-14473548D02*
X9697048Y-14483071D01*
X9697048Y-14483071D02*
X9706571Y-14502119D01*
X9706571Y-14502119D02*
X9716095Y-14540214D01*
X9716095Y-14540214D02*
X9716095Y-14587833D01*
X9716095Y-14587833D02*
X9706571Y-14625928D01*
X9706571Y-14625928D02*
X9697048Y-14644976D01*
X9697048Y-14644976D02*
X9687524Y-14654500D01*
X9687524Y-14654500D02*
X9668476Y-14664024D01*
X9668476Y-14664024D02*
X9649429Y-14664024D01*
X9649429Y-14664024D02*
X9630381Y-14654500D01*
X9630381Y-14654500D02*
X9620857Y-14644976D01*
X9620857Y-14644976D02*
X9611333Y-14625928D01*
X9611333Y-14625928D02*
X9601810Y-14587833D01*
X9601810Y-14587833D02*
X9601810Y-14540214D01*
X9601810Y-14540214D02*
X9611333Y-14502119D01*
X9611333Y-14502119D02*
X9620857Y-14483071D01*
X9620857Y-14483071D02*
X9630381Y-14473548D01*
X9630381Y-14473548D02*
X9649429Y-14464024D01*
X9839905Y-14464024D02*
X9858952Y-14464024D01*
X9858952Y-14464024D02*
X9878000Y-14473548D01*
X9878000Y-14473548D02*
X9887524Y-14483071D01*
X9887524Y-14483071D02*
X9897048Y-14502119D01*
X9897048Y-14502119D02*
X9906571Y-14540214D01*
X9906571Y-14540214D02*
X9906571Y-14587833D01*
X9906571Y-14587833D02*
X9897048Y-14625928D01*
X9897048Y-14625928D02*
X9887524Y-14644976D01*
X9887524Y-14644976D02*
X9878000Y-14654500D01*
X9878000Y-14654500D02*
X9858952Y-14664024D01*
X9858952Y-14664024D02*
X9839905Y-14664024D01*
X9839905Y-14664024D02*
X9820857Y-14654500D01*
X9820857Y-14654500D02*
X9811333Y-14644976D01*
X9811333Y-14644976D02*
X9801810Y-14625928D01*
X9801810Y-14625928D02*
X9792286Y-14587833D01*
X9792286Y-14587833D02*
X9792286Y-14540214D01*
X9792286Y-14540214D02*
X9801810Y-14502119D01*
X9801810Y-14502119D02*
X9811333Y-14483071D01*
X9811333Y-14483071D02*
X9820857Y-14473548D01*
X9820857Y-14473548D02*
X9839905Y-14464024D01*
X10030381Y-14464024D02*
X10049429Y-14464024D01*
X10049429Y-14464024D02*
X10068476Y-14473548D01*
X10068476Y-14473548D02*
X10078000Y-14483071D01*
X10078000Y-14483071D02*
X10087524Y-14502119D01*
X10087524Y-14502119D02*
X10097048Y-14540214D01*
X10097048Y-14540214D02*
X10097048Y-14587833D01*
X10097048Y-14587833D02*
X10087524Y-14625928D01*
X10087524Y-14625928D02*
X10078000Y-14644976D01*
X10078000Y-14644976D02*
X10068476Y-14654500D01*
X10068476Y-14654500D02*
X10049429Y-14664024D01*
X10049429Y-14664024D02*
X10030381Y-14664024D01*
X10030381Y-14664024D02*
X10011333Y-14654500D01*
X10011333Y-14654500D02*
X10001810Y-14644976D01*
X10001810Y-14644976D02*
X9992286Y-14625928D01*
X9992286Y-14625928D02*
X9982762Y-14587833D01*
X9982762Y-14587833D02*
X9982762Y-14540214D01*
X9982762Y-14540214D02*
X9992286Y-14502119D01*
X9992286Y-14502119D02*
X10001810Y-14483071D01*
X10001810Y-14483071D02*
X10011333Y-14473548D01*
X10011333Y-14473548D02*
X10030381Y-14464024D01*
X10182762Y-14664024D02*
X10182762Y-14530690D01*
X10182762Y-14549738D02*
X10192286Y-14540214D01*
X10192286Y-14540214D02*
X10211333Y-14530690D01*
X10211333Y-14530690D02*
X10239905Y-14530690D01*
X10239905Y-14530690D02*
X10258952Y-14540214D01*
X10258952Y-14540214D02*
X10268476Y-14559262D01*
X10268476Y-14559262D02*
X10268476Y-14664024D01*
X10268476Y-14559262D02*
X10278000Y-14540214D01*
X10278000Y-14540214D02*
X10297048Y-14530690D01*
X10297048Y-14530690D02*
X10325619Y-14530690D01*
X10325619Y-14530690D02*
X10344667Y-14540214D01*
X10344667Y-14540214D02*
X10354191Y-14559262D01*
X10354191Y-14559262D02*
X10354191Y-14664024D01*
X10449429Y-14664024D02*
X10449429Y-14530690D01*
X10449429Y-14549738D02*
X10458952Y-14540214D01*
X10458952Y-14540214D02*
X10478000Y-14530690D01*
X10478000Y-14530690D02*
X10506572Y-14530690D01*
X10506572Y-14530690D02*
X10525619Y-14540214D01*
X10525619Y-14540214D02*
X10535143Y-14559262D01*
X10535143Y-14559262D02*
X10535143Y-14664024D01*
X10535143Y-14559262D02*
X10544667Y-14540214D01*
X10544667Y-14540214D02*
X10563714Y-14530690D01*
X10563714Y-14530690D02*
X10592286Y-14530690D01*
X10592286Y-14530690D02*
X10611333Y-14540214D01*
X10611333Y-14540214D02*
X10620857Y-14559262D01*
X10620857Y-14559262D02*
X10620857Y-14664024D01*
X11011333Y-14454500D02*
X10839905Y-14711643D01*
X11268476Y-14464024D02*
X11287524Y-14464024D01*
X11287524Y-14464024D02*
X11306572Y-14473548D01*
X11306572Y-14473548D02*
X11316095Y-14483071D01*
X11316095Y-14483071D02*
X11325619Y-14502119D01*
X11325619Y-14502119D02*
X11335143Y-14540214D01*
X11335143Y-14540214D02*
X11335143Y-14587833D01*
X11335143Y-14587833D02*
X11325619Y-14625928D01*
X11325619Y-14625928D02*
X11316095Y-14644976D01*
X11316095Y-14644976D02*
X11306572Y-14654500D01*
X11306572Y-14654500D02*
X11287524Y-14664024D01*
X11287524Y-14664024D02*
X11268476Y-14664024D01*
X11268476Y-14664024D02*
X11249429Y-14654500D01*
X11249429Y-14654500D02*
X11239905Y-14644976D01*
X11239905Y-14644976D02*
X11230381Y-14625928D01*
X11230381Y-14625928D02*
X11220857Y-14587833D01*
X11220857Y-14587833D02*
X11220857Y-14540214D01*
X11220857Y-14540214D02*
X11230381Y-14502119D01*
X11230381Y-14502119D02*
X11239905Y-14483071D01*
X11239905Y-14483071D02*
X11249429Y-14473548D01*
X11249429Y-14473548D02*
X11268476Y-14464024D01*
X11420857Y-14644976D02*
X11430381Y-14654500D01*
X11430381Y-14654500D02*
X11420857Y-14664024D01*
X11420857Y-14664024D02*
X11411333Y-14654500D01*
X11411333Y-14654500D02*
X11420857Y-14644976D01*
X11420857Y-14644976D02*
X11420857Y-14664024D01*
X11554191Y-14464024D02*
X11573238Y-14464024D01*
X11573238Y-14464024D02*
X11592286Y-14473548D01*
X11592286Y-14473548D02*
X11601810Y-14483071D01*
X11601810Y-14483071D02*
X11611333Y-14502119D01*
X11611333Y-14502119D02*
X11620857Y-14540214D01*
X11620857Y-14540214D02*
X11620857Y-14587833D01*
X11620857Y-14587833D02*
X11611333Y-14625928D01*
X11611333Y-14625928D02*
X11601810Y-14644976D01*
X11601810Y-14644976D02*
X11592286Y-14654500D01*
X11592286Y-14654500D02*
X11573238Y-14664024D01*
X11573238Y-14664024D02*
X11554191Y-14664024D01*
X11554191Y-14664024D02*
X11535143Y-14654500D01*
X11535143Y-14654500D02*
X11525619Y-14644976D01*
X11525619Y-14644976D02*
X11516095Y-14625928D01*
X11516095Y-14625928D02*
X11506572Y-14587833D01*
X11506572Y-14587833D02*
X11506572Y-14540214D01*
X11506572Y-14540214D02*
X11516095Y-14502119D01*
X11516095Y-14502119D02*
X11525619Y-14483071D01*
X11525619Y-14483071D02*
X11535143Y-14473548D01*
X11535143Y-14473548D02*
X11554191Y-14464024D01*
X11687524Y-14464024D02*
X11811333Y-14464024D01*
X11811333Y-14464024D02*
X11744667Y-14540214D01*
X11744667Y-14540214D02*
X11773238Y-14540214D01*
X11773238Y-14540214D02*
X11792286Y-14549738D01*
X11792286Y-14549738D02*
X11801810Y-14559262D01*
X11801810Y-14559262D02*
X11811333Y-14578309D01*
X11811333Y-14578309D02*
X11811333Y-14625928D01*
X11811333Y-14625928D02*
X11801810Y-14644976D01*
X11801810Y-14644976D02*
X11792286Y-14654500D01*
X11792286Y-14654500D02*
X11773238Y-14664024D01*
X11773238Y-14664024D02*
X11716095Y-14664024D01*
X11716095Y-14664024D02*
X11697048Y-14654500D01*
X11697048Y-14654500D02*
X11687524Y-14644976D01*
X11906572Y-14664024D02*
X11944667Y-14664024D01*
X11944667Y-14664024D02*
X11963714Y-14654500D01*
X11963714Y-14654500D02*
X11973238Y-14644976D01*
X11973238Y-14644976D02*
X11992286Y-14616405D01*
X11992286Y-14616405D02*
X12001810Y-14578309D01*
X12001810Y-14578309D02*
X12001810Y-14502119D01*
X12001810Y-14502119D02*
X11992286Y-14483071D01*
X11992286Y-14483071D02*
X11982762Y-14473548D01*
X11982762Y-14473548D02*
X11963714Y-14464024D01*
X11963714Y-14464024D02*
X11925619Y-14464024D01*
X11925619Y-14464024D02*
X11906572Y-14473548D01*
X11906572Y-14473548D02*
X11897048Y-14483071D01*
X11897048Y-14483071D02*
X11887524Y-14502119D01*
X11887524Y-14502119D02*
X11887524Y-14549738D01*
X11887524Y-14549738D02*
X11897048Y-14568786D01*
X11897048Y-14568786D02*
X11906572Y-14578309D01*
X11906572Y-14578309D02*
X11925619Y-14587833D01*
X11925619Y-14587833D02*
X11963714Y-14587833D01*
X11963714Y-14587833D02*
X11982762Y-14578309D01*
X11982762Y-14578309D02*
X11992286Y-14568786D01*
X11992286Y-14568786D02*
X12001810Y-14549738D01*
X12173238Y-14530690D02*
X12173238Y-14664024D01*
X12125619Y-14454500D02*
X12078000Y-14597357D01*
X12078000Y-14597357D02*
X12201810Y-14597357D01*
X12268476Y-14464024D02*
X12268476Y-14502119D01*
X12344667Y-14464024D02*
X12344667Y-14502119D01*
X12639905Y-14740214D02*
X12630381Y-14730690D01*
X12630381Y-14730690D02*
X12611334Y-14702119D01*
X12611334Y-14702119D02*
X12601810Y-14683071D01*
X12601810Y-14683071D02*
X12592286Y-14654500D01*
X12592286Y-14654500D02*
X12582762Y-14606881D01*
X12582762Y-14606881D02*
X12582762Y-14568786D01*
X12582762Y-14568786D02*
X12592286Y-14521167D01*
X12592286Y-14521167D02*
X12601810Y-14492595D01*
X12601810Y-14492595D02*
X12611334Y-14473548D01*
X12611334Y-14473548D02*
X12630381Y-14444976D01*
X12630381Y-14444976D02*
X12639905Y-14435452D01*
X12801810Y-14464024D02*
X12763714Y-14464024D01*
X12763714Y-14464024D02*
X12744667Y-14473548D01*
X12744667Y-14473548D02*
X12735143Y-14483071D01*
X12735143Y-14483071D02*
X12716095Y-14511643D01*
X12716095Y-14511643D02*
X12706572Y-14549738D01*
X12706572Y-14549738D02*
X12706572Y-14625928D01*
X12706572Y-14625928D02*
X12716095Y-14644976D01*
X12716095Y-14644976D02*
X12725619Y-14654500D01*
X12725619Y-14654500D02*
X12744667Y-14664024D01*
X12744667Y-14664024D02*
X12782762Y-14664024D01*
X12782762Y-14664024D02*
X12801810Y-14654500D01*
X12801810Y-14654500D02*
X12811334Y-14644976D01*
X12811334Y-14644976D02*
X12820857Y-14625928D01*
X12820857Y-14625928D02*
X12820857Y-14578309D01*
X12820857Y-14578309D02*
X12811334Y-14559262D01*
X12811334Y-14559262D02*
X12801810Y-14549738D01*
X12801810Y-14549738D02*
X12782762Y-14540214D01*
X12782762Y-14540214D02*
X12744667Y-14540214D01*
X12744667Y-14540214D02*
X12725619Y-14549738D01*
X12725619Y-14549738D02*
X12716095Y-14559262D01*
X12716095Y-14559262D02*
X12706572Y-14578309D01*
X13011334Y-14664024D02*
X12897048Y-14664024D01*
X12954191Y-14664024D02*
X12954191Y-14464024D01*
X12954191Y-14464024D02*
X12935143Y-14492595D01*
X12935143Y-14492595D02*
X12916095Y-14511643D01*
X12916095Y-14511643D02*
X12897048Y-14521167D01*
X13249429Y-14664024D02*
X13249429Y-14464024D01*
X13335143Y-14664024D02*
X13335143Y-14559262D01*
X13335143Y-14559262D02*
X13325619Y-14540214D01*
X13325619Y-14540214D02*
X13306572Y-14530690D01*
X13306572Y-14530690D02*
X13278000Y-14530690D01*
X13278000Y-14530690D02*
X13258953Y-14540214D01*
X13258953Y-14540214D02*
X13249429Y-14549738D01*
X13458953Y-14664024D02*
X13439905Y-14654500D01*
X13439905Y-14654500D02*
X13430381Y-14644976D01*
X13430381Y-14644976D02*
X13420857Y-14625928D01*
X13420857Y-14625928D02*
X13420857Y-14568786D01*
X13420857Y-14568786D02*
X13430381Y-14549738D01*
X13430381Y-14549738D02*
X13439905Y-14540214D01*
X13439905Y-14540214D02*
X13458953Y-14530690D01*
X13458953Y-14530690D02*
X13487524Y-14530690D01*
X13487524Y-14530690D02*
X13506572Y-14540214D01*
X13506572Y-14540214D02*
X13516096Y-14549738D01*
X13516096Y-14549738D02*
X13525619Y-14568786D01*
X13525619Y-14568786D02*
X13525619Y-14625928D01*
X13525619Y-14625928D02*
X13516096Y-14644976D01*
X13516096Y-14644976D02*
X13506572Y-14654500D01*
X13506572Y-14654500D02*
X13487524Y-14664024D01*
X13487524Y-14664024D02*
X13458953Y-14664024D01*
X13639905Y-14664024D02*
X13620857Y-14654500D01*
X13620857Y-14654500D02*
X13611334Y-14635452D01*
X13611334Y-14635452D02*
X13611334Y-14464024D01*
X13792286Y-14654500D02*
X13773238Y-14664024D01*
X13773238Y-14664024D02*
X13735143Y-14664024D01*
X13735143Y-14664024D02*
X13716096Y-14654500D01*
X13716096Y-14654500D02*
X13706572Y-14635452D01*
X13706572Y-14635452D02*
X13706572Y-14559262D01*
X13706572Y-14559262D02*
X13716096Y-14540214D01*
X13716096Y-14540214D02*
X13735143Y-14530690D01*
X13735143Y-14530690D02*
X13773238Y-14530690D01*
X13773238Y-14530690D02*
X13792286Y-14540214D01*
X13792286Y-14540214D02*
X13801810Y-14559262D01*
X13801810Y-14559262D02*
X13801810Y-14578309D01*
X13801810Y-14578309D02*
X13706572Y-14597357D01*
X13878000Y-14654500D02*
X13897048Y-14664024D01*
X13897048Y-14664024D02*
X13935143Y-14664024D01*
X13935143Y-14664024D02*
X13954191Y-14654500D01*
X13954191Y-14654500D02*
X13963715Y-14635452D01*
X13963715Y-14635452D02*
X13963715Y-14625928D01*
X13963715Y-14625928D02*
X13954191Y-14606881D01*
X13954191Y-14606881D02*
X13935143Y-14597357D01*
X13935143Y-14597357D02*
X13906572Y-14597357D01*
X13906572Y-14597357D02*
X13887524Y-14587833D01*
X13887524Y-14587833D02*
X13878000Y-14568786D01*
X13878000Y-14568786D02*
X13878000Y-14559262D01*
X13878000Y-14559262D02*
X13887524Y-14540214D01*
X13887524Y-14540214D02*
X13906572Y-14530690D01*
X13906572Y-14530690D02*
X13935143Y-14530690D01*
X13935143Y-14530690D02*
X13954191Y-14540214D01*
X14030381Y-14740214D02*
X14039905Y-14730690D01*
X14039905Y-14730690D02*
X14058953Y-14702119D01*
X14058953Y-14702119D02*
X14068477Y-14683071D01*
X14068477Y-14683071D02*
X14078000Y-14654500D01*
X14078000Y-14654500D02*
X14087524Y-14606881D01*
X14087524Y-14606881D02*
X14087524Y-14568786D01*
X14087524Y-14568786D02*
X14078000Y-14521167D01*
X14078000Y-14521167D02*
X14068477Y-14492595D01*
X14068477Y-14492595D02*
X14058953Y-14473548D01*
X14058953Y-14473548D02*
X14039905Y-14444976D01*
X14039905Y-14444976D02*
X14030381Y-14435452D01*
M02*
