%TF.GenerationSoftware,KiCad,Pcbnew,7.0.1*%
%TF.CreationDate,2023-09-27T13:26:46+00:00*%
%TF.ProjectId,Control_Board,436f6e74-726f-46c5-9f42-6f6172642e6b,rev?*%
%TF.SameCoordinates,Original*%
%TF.FileFunction,Drillmap*%
%TF.FilePolarity,Positive*%
%FSLAX45Y45*%
G04 Gerber Fmt 4.5, Leading zero omitted, Abs format (unit mm)*
G04 Created by KiCad (PCBNEW 7.0.1) date 2023-09-27 13:26:46*
%MOMM*%
%LPD*%
G01*
G04 APERTURE LIST*
%ADD10C,0.200000*%
%ADD11C,0.100000*%
G04 APERTURE END LIST*
D10*
X17458041Y-7912500D02*
G75*
G03*
X17458041Y-7912500I-150541J0D01*
G01*
D11*
X16832500Y-8047000D02*
G75*
G03*
X16832500Y-8047000I-141532J0D01*
G01*
X10029032Y-8047000D02*
G75*
G03*
X10029032Y-8047000I-141532J0D01*
G01*
D10*
X9592500Y-11850000D02*
G75*
G03*
X9592500Y-11850000I-150541J0D01*
G01*
X17460541Y-7499459D02*
G75*
G03*
X17460541Y-7499459I-150541J0D01*
G01*
X9600541Y-7915000D02*
G75*
G03*
X9600541Y-7915000I-150541J0D01*
G01*
X17458041Y-11847500D02*
G75*
G03*
X17458041Y-11847500I-150541J0D01*
G01*
D11*
X10075000Y-11957000D02*
G75*
G03*
X10075000Y-11957000I-141532J0D01*
G01*
D10*
X17473041Y-12616959D02*
G75*
G03*
X17473041Y-12616959I-150541J0D01*
G01*
D11*
X11542500Y-10990000D02*
X14832500Y-10990000D01*
X14832500Y-11145000D01*
X11542500Y-11145000D01*
X11542500Y-10990000D01*
D10*
X9607500Y-12619459D02*
G75*
G03*
X9607500Y-12619459I-150541J0D01*
G01*
D11*
X16833000Y-11969500D02*
G75*
G03*
X16833000Y-11969500I-141532J0D01*
G01*
D10*
X9603041Y-7501959D02*
G75*
G03*
X9603041Y-7501959I-150541J0D01*
G01*
D11*
X9083000Y-7272500D02*
X17678500Y-7272500D01*
X17678500Y-12870500D01*
X9083000Y-12870500D01*
X9083000Y-7272500D01*
D10*
X9325619Y-13188024D02*
X9325619Y-12988024D01*
X9325619Y-12988024D02*
X9373238Y-12988024D01*
X9373238Y-12988024D02*
X9401810Y-12997548D01*
X9401810Y-12997548D02*
X9420857Y-13016595D01*
X9420857Y-13016595D02*
X9430381Y-13035643D01*
X9430381Y-13035643D02*
X9439905Y-13073738D01*
X9439905Y-13073738D02*
X9439905Y-13102309D01*
X9439905Y-13102309D02*
X9430381Y-13140405D01*
X9430381Y-13140405D02*
X9420857Y-13159452D01*
X9420857Y-13159452D02*
X9401810Y-13178500D01*
X9401810Y-13178500D02*
X9373238Y-13188024D01*
X9373238Y-13188024D02*
X9325619Y-13188024D01*
X9525619Y-13188024D02*
X9525619Y-13054690D01*
X9525619Y-13092786D02*
X9535143Y-13073738D01*
X9535143Y-13073738D02*
X9544667Y-13064214D01*
X9544667Y-13064214D02*
X9563714Y-13054690D01*
X9563714Y-13054690D02*
X9582762Y-13054690D01*
X9649429Y-13188024D02*
X9649429Y-13054690D01*
X9649429Y-12988024D02*
X9639905Y-12997548D01*
X9639905Y-12997548D02*
X9649429Y-13007071D01*
X9649429Y-13007071D02*
X9658952Y-12997548D01*
X9658952Y-12997548D02*
X9649429Y-12988024D01*
X9649429Y-12988024D02*
X9649429Y-13007071D01*
X9773238Y-13188024D02*
X9754190Y-13178500D01*
X9754190Y-13178500D02*
X9744667Y-13159452D01*
X9744667Y-13159452D02*
X9744667Y-12988024D01*
X9878000Y-13188024D02*
X9858952Y-13178500D01*
X9858952Y-13178500D02*
X9849429Y-13159452D01*
X9849429Y-13159452D02*
X9849429Y-12988024D01*
X10106571Y-13188024D02*
X10106571Y-12988024D01*
X10106571Y-12988024D02*
X10173238Y-13130881D01*
X10173238Y-13130881D02*
X10239905Y-12988024D01*
X10239905Y-12988024D02*
X10239905Y-13188024D01*
X10420857Y-13188024D02*
X10420857Y-13083262D01*
X10420857Y-13083262D02*
X10411333Y-13064214D01*
X10411333Y-13064214D02*
X10392286Y-13054690D01*
X10392286Y-13054690D02*
X10354190Y-13054690D01*
X10354190Y-13054690D02*
X10335143Y-13064214D01*
X10420857Y-13178500D02*
X10401810Y-13188024D01*
X10401810Y-13188024D02*
X10354190Y-13188024D01*
X10354190Y-13188024D02*
X10335143Y-13178500D01*
X10335143Y-13178500D02*
X10325619Y-13159452D01*
X10325619Y-13159452D02*
X10325619Y-13140405D01*
X10325619Y-13140405D02*
X10335143Y-13121357D01*
X10335143Y-13121357D02*
X10354190Y-13111833D01*
X10354190Y-13111833D02*
X10401810Y-13111833D01*
X10401810Y-13111833D02*
X10420857Y-13102309D01*
X10516095Y-13054690D02*
X10516095Y-13254690D01*
X10516095Y-13064214D02*
X10535143Y-13054690D01*
X10535143Y-13054690D02*
X10573238Y-13054690D01*
X10573238Y-13054690D02*
X10592286Y-13064214D01*
X10592286Y-13064214D02*
X10601810Y-13073738D01*
X10601810Y-13073738D02*
X10611333Y-13092786D01*
X10611333Y-13092786D02*
X10611333Y-13149928D01*
X10611333Y-13149928D02*
X10601810Y-13168976D01*
X10601810Y-13168976D02*
X10592286Y-13178500D01*
X10592286Y-13178500D02*
X10573238Y-13188024D01*
X10573238Y-13188024D02*
X10535143Y-13188024D01*
X10535143Y-13188024D02*
X10516095Y-13178500D01*
X10697048Y-13168976D02*
X10706571Y-13178500D01*
X10706571Y-13178500D02*
X10697048Y-13188024D01*
X10697048Y-13188024D02*
X10687524Y-13178500D01*
X10687524Y-13178500D02*
X10697048Y-13168976D01*
X10697048Y-13168976D02*
X10697048Y-13188024D01*
X10697048Y-13064214D02*
X10706571Y-13073738D01*
X10706571Y-13073738D02*
X10697048Y-13083262D01*
X10697048Y-13083262D02*
X10687524Y-13073738D01*
X10687524Y-13073738D02*
X10697048Y-13064214D01*
X10697048Y-13064214D02*
X10697048Y-13083262D01*
M02*
