%TF.GenerationSoftware,KiCad,Pcbnew,7.0.1*%
%TF.CreationDate,2023-09-27T13:27:15+00:00*%
%TF.ProjectId,Control_Board,436f6e74-726f-46c5-9f42-6f6172642e6b,rev?*%
%TF.SameCoordinates,Original*%
%TF.FileFunction,Copper,L2,Bot*%
%TF.FilePolarity,Positive*%
%FSLAX45Y45*%
G04 Gerber Fmt 4.5, Leading zero omitted, Abs format (unit mm)*
G04 Created by KiCad (PCBNEW 7.0.1) date 2023-09-27 13:27:15*
%MOMM*%
%LPD*%
G01*
G04 APERTURE LIST*
G04 Aperture macros list*
%AMRoundRect*
0 Rectangle with rounded corners*
0 $1 Rounding radius*
0 $2 $3 $4 $5 $6 $7 $8 $9 X,Y pos of 4 corners*
0 Add a 4 corners polygon primitive as box body*
4,1,4,$2,$3,$4,$5,$6,$7,$8,$9,$2,$3,0*
0 Add four circle primitives for the rounded corners*
1,1,$1+$1,$2,$3*
1,1,$1+$1,$4,$5*
1,1,$1+$1,$6,$7*
1,1,$1+$1,$8,$9*
0 Add four rect primitives between the rounded corners*
20,1,$1+$1,$2,$3,$4,$5,0*
20,1,$1+$1,$4,$5,$6,$7,0*
20,1,$1+$1,$6,$7,$8,$9,0*
20,1,$1+$1,$8,$9,$2,$3,0*%
G04 Aperture macros list end*
%ADD10C,0.100000*%
%ADD11C,0.150000*%
%ADD12C,0.300000*%
%ADD13C,0.400000*%
%TA.AperFunction,ComponentPad*%
%ADD14R,1.600000X1.600000*%
%TD*%
%TA.AperFunction,ComponentPad*%
%ADD15O,1.600000X1.600000*%
%TD*%
%TA.AperFunction,ComponentPad*%
%ADD16R,1.800000X1.800000*%
%TD*%
%TA.AperFunction,ComponentPad*%
%ADD17C,1.800000*%
%TD*%
%TA.AperFunction,ComponentPad*%
%ADD18R,1.700000X1.700000*%
%TD*%
%TA.AperFunction,ComponentPad*%
%ADD19O,1.700000X1.700000*%
%TD*%
%TA.AperFunction,ComponentPad*%
%ADD20R,1.000000X1.000000*%
%TD*%
%TA.AperFunction,ComponentPad*%
%ADD21O,1.000000X1.000000*%
%TD*%
%TA.AperFunction,ComponentPad*%
%ADD22C,1.676400*%
%TD*%
%TA.AperFunction,SMDPad,CuDef*%
%ADD23RoundRect,0.250000X-0.625000X0.312500X-0.625000X-0.312500X0.625000X-0.312500X0.625000X0.312500X0*%
%TD*%
%TA.AperFunction,SMDPad,CuDef*%
%ADD24RoundRect,0.250000X-0.375000X-0.625000X0.375000X-0.625000X0.375000X0.625000X-0.375000X0.625000X0*%
%TD*%
%TA.AperFunction,SMDPad,CuDef*%
%ADD25RoundRect,0.250000X0.625000X-0.312500X0.625000X0.312500X-0.625000X0.312500X-0.625000X-0.312500X0*%
%TD*%
%TA.AperFunction,ViaPad*%
%ADD26C,0.800000*%
%TD*%
%TA.AperFunction,Conductor*%
%ADD27C,2.000000*%
%TD*%
%TA.AperFunction,Conductor*%
%ADD28C,1.800000*%
%TD*%
%TA.AperFunction,Conductor*%
%ADD29C,1.500000*%
%TD*%
%TA.AperFunction,Conductor*%
%ADD30C,0.200000*%
%TD*%
%TA.AperFunction,Conductor*%
%ADD31C,2.500000*%
%TD*%
%TA.AperFunction,Conductor*%
%ADD32C,1.000000*%
%TD*%
%TA.AperFunction,Conductor*%
%ADD33C,0.800000*%
%TD*%
%TA.AperFunction,Conductor*%
%ADD34C,1.200000*%
%TD*%
%TA.AperFunction,Conductor*%
%ADD35C,0.500000*%
%TD*%
G04 APERTURE END LIST*
D10*
D11*
X17700220Y-16600720D02*
X28500220Y-16600720D01*
X28500220Y-19800720D01*
X17700220Y-19800720D01*
X17700220Y-16600720D01*
D10*
D11*
X1000000Y-1000000D02*
X28700220Y-1000000D01*
X28700220Y-20000720D01*
X1000000Y-20000720D01*
X1000000Y-1000000D01*
D10*
D11*
X1200000Y-1200000D02*
X28500220Y-1200000D01*
X28500220Y-19800720D01*
X1200000Y-19800720D01*
X1200000Y-1200000D01*
D10*
D11*
X6000000Y-1200000D02*
X6000000Y-1000000D01*
D10*
D11*
X11000000Y-1200000D02*
X11000000Y-1000000D01*
D10*
D11*
X16000000Y-1200000D02*
X16000000Y-1000000D01*
D10*
D11*
X21000000Y-1200000D02*
X21000000Y-1000000D01*
D10*
D11*
X26000000Y-1200000D02*
X26000000Y-1000000D01*
D10*
D11*
X3599048Y-1160140D02*
X3524762Y-1160140D01*
X3561905Y-1160140D02*
X3561905Y-1030140D01*
X3561905Y-1030140D02*
X3549524Y-1048712D01*
X3549524Y-1048712D02*
X3537143Y-1061093D01*
X3537143Y-1061093D02*
X3524762Y-1067283D01*
D10*
D11*
X8524762Y-1042521D02*
X8530952Y-1036331D01*
X8530952Y-1036331D02*
X8543333Y-1030140D01*
X8543333Y-1030140D02*
X8574286Y-1030140D01*
X8574286Y-1030140D02*
X8586667Y-1036331D01*
X8586667Y-1036331D02*
X8592857Y-1042521D01*
X8592857Y-1042521D02*
X8599048Y-1054902D01*
X8599048Y-1054902D02*
X8599048Y-1067283D01*
X8599048Y-1067283D02*
X8592857Y-1085855D01*
X8592857Y-1085855D02*
X8518571Y-1160140D01*
X8518571Y-1160140D02*
X8599048Y-1160140D01*
D10*
D11*
X13518571Y-1030140D02*
X13599048Y-1030140D01*
X13599048Y-1030140D02*
X13555714Y-1079664D01*
X13555714Y-1079664D02*
X13574286Y-1079664D01*
X13574286Y-1079664D02*
X13586667Y-1085855D01*
X13586667Y-1085855D02*
X13592857Y-1092045D01*
X13592857Y-1092045D02*
X13599048Y-1104426D01*
X13599048Y-1104426D02*
X13599048Y-1135379D01*
X13599048Y-1135379D02*
X13592857Y-1147760D01*
X13592857Y-1147760D02*
X13586667Y-1153950D01*
X13586667Y-1153950D02*
X13574286Y-1160140D01*
X13574286Y-1160140D02*
X13537143Y-1160140D01*
X13537143Y-1160140D02*
X13524762Y-1153950D01*
X13524762Y-1153950D02*
X13518571Y-1147760D01*
D10*
D11*
X18586667Y-1073474D02*
X18586667Y-1160140D01*
X18555714Y-1023950D02*
X18524762Y-1116807D01*
X18524762Y-1116807D02*
X18605238Y-1116807D01*
D10*
D11*
X23592857Y-1030140D02*
X23530952Y-1030140D01*
X23530952Y-1030140D02*
X23524762Y-1092045D01*
X23524762Y-1092045D02*
X23530952Y-1085855D01*
X23530952Y-1085855D02*
X23543333Y-1079664D01*
X23543333Y-1079664D02*
X23574286Y-1079664D01*
X23574286Y-1079664D02*
X23586667Y-1085855D01*
X23586667Y-1085855D02*
X23592857Y-1092045D01*
X23592857Y-1092045D02*
X23599048Y-1104426D01*
X23599048Y-1104426D02*
X23599048Y-1135379D01*
X23599048Y-1135379D02*
X23592857Y-1147760D01*
X23592857Y-1147760D02*
X23586667Y-1153950D01*
X23586667Y-1153950D02*
X23574286Y-1160140D01*
X23574286Y-1160140D02*
X23543333Y-1160140D01*
X23543333Y-1160140D02*
X23530952Y-1153950D01*
X23530952Y-1153950D02*
X23524762Y-1147760D01*
D10*
D11*
X28586667Y-1030140D02*
X28561905Y-1030140D01*
X28561905Y-1030140D02*
X28549524Y-1036331D01*
X28549524Y-1036331D02*
X28543333Y-1042521D01*
X28543333Y-1042521D02*
X28530952Y-1061093D01*
X28530952Y-1061093D02*
X28524762Y-1085855D01*
X28524762Y-1085855D02*
X28524762Y-1135379D01*
X28524762Y-1135379D02*
X28530952Y-1147760D01*
X28530952Y-1147760D02*
X28537143Y-1153950D01*
X28537143Y-1153950D02*
X28549524Y-1160140D01*
X28549524Y-1160140D02*
X28574286Y-1160140D01*
X28574286Y-1160140D02*
X28586667Y-1153950D01*
X28586667Y-1153950D02*
X28592857Y-1147760D01*
X28592857Y-1147760D02*
X28599048Y-1135379D01*
X28599048Y-1135379D02*
X28599048Y-1104426D01*
X28599048Y-1104426D02*
X28592857Y-1092045D01*
X28592857Y-1092045D02*
X28586667Y-1085855D01*
X28586667Y-1085855D02*
X28574286Y-1079664D01*
X28574286Y-1079664D02*
X28549524Y-1079664D01*
X28549524Y-1079664D02*
X28537143Y-1085855D01*
X28537143Y-1085855D02*
X28530952Y-1092045D01*
X28530952Y-1092045D02*
X28524762Y-1104426D01*
D10*
D11*
X6000000Y-19800720D02*
X6000000Y-20000720D01*
D10*
D11*
X11000000Y-19800720D02*
X11000000Y-20000720D01*
D10*
D11*
X16000000Y-19800720D02*
X16000000Y-20000720D01*
D10*
D11*
X21000000Y-19800720D02*
X21000000Y-20000720D01*
D10*
D11*
X26000000Y-19800720D02*
X26000000Y-20000720D01*
D10*
D11*
X3599048Y-19960860D02*
X3524762Y-19960860D01*
X3561905Y-19960860D02*
X3561905Y-19830860D01*
X3561905Y-19830860D02*
X3549524Y-19849432D01*
X3549524Y-19849432D02*
X3537143Y-19861813D01*
X3537143Y-19861813D02*
X3524762Y-19868003D01*
D10*
D11*
X8524762Y-19843241D02*
X8530952Y-19837051D01*
X8530952Y-19837051D02*
X8543333Y-19830860D01*
X8543333Y-19830860D02*
X8574286Y-19830860D01*
X8574286Y-19830860D02*
X8586667Y-19837051D01*
X8586667Y-19837051D02*
X8592857Y-19843241D01*
X8592857Y-19843241D02*
X8599048Y-19855622D01*
X8599048Y-19855622D02*
X8599048Y-19868003D01*
X8599048Y-19868003D02*
X8592857Y-19886575D01*
X8592857Y-19886575D02*
X8518571Y-19960860D01*
X8518571Y-19960860D02*
X8599048Y-19960860D01*
D10*
D11*
X13518571Y-19830860D02*
X13599048Y-19830860D01*
X13599048Y-19830860D02*
X13555714Y-19880384D01*
X13555714Y-19880384D02*
X13574286Y-19880384D01*
X13574286Y-19880384D02*
X13586667Y-19886575D01*
X13586667Y-19886575D02*
X13592857Y-19892765D01*
X13592857Y-19892765D02*
X13599048Y-19905146D01*
X13599048Y-19905146D02*
X13599048Y-19936099D01*
X13599048Y-19936099D02*
X13592857Y-19948480D01*
X13592857Y-19948480D02*
X13586667Y-19954670D01*
X13586667Y-19954670D02*
X13574286Y-19960860D01*
X13574286Y-19960860D02*
X13537143Y-19960860D01*
X13537143Y-19960860D02*
X13524762Y-19954670D01*
X13524762Y-19954670D02*
X13518571Y-19948480D01*
D10*
D11*
X18586667Y-19874194D02*
X18586667Y-19960860D01*
X18555714Y-19824670D02*
X18524762Y-19917527D01*
X18524762Y-19917527D02*
X18605238Y-19917527D01*
D10*
D11*
X23592857Y-19830860D02*
X23530952Y-19830860D01*
X23530952Y-19830860D02*
X23524762Y-19892765D01*
X23524762Y-19892765D02*
X23530952Y-19886575D01*
X23530952Y-19886575D02*
X23543333Y-19880384D01*
X23543333Y-19880384D02*
X23574286Y-19880384D01*
X23574286Y-19880384D02*
X23586667Y-19886575D01*
X23586667Y-19886575D02*
X23592857Y-19892765D01*
X23592857Y-19892765D02*
X23599048Y-19905146D01*
X23599048Y-19905146D02*
X23599048Y-19936099D01*
X23599048Y-19936099D02*
X23592857Y-19948480D01*
X23592857Y-19948480D02*
X23586667Y-19954670D01*
X23586667Y-19954670D02*
X23574286Y-19960860D01*
X23574286Y-19960860D02*
X23543333Y-19960860D01*
X23543333Y-19960860D02*
X23530952Y-19954670D01*
X23530952Y-19954670D02*
X23524762Y-19948480D01*
D10*
D11*
X28586667Y-19830860D02*
X28561905Y-19830860D01*
X28561905Y-19830860D02*
X28549524Y-19837051D01*
X28549524Y-19837051D02*
X28543333Y-19843241D01*
X28543333Y-19843241D02*
X28530952Y-19861813D01*
X28530952Y-19861813D02*
X28524762Y-19886575D01*
X28524762Y-19886575D02*
X28524762Y-19936099D01*
X28524762Y-19936099D02*
X28530952Y-19948480D01*
X28530952Y-19948480D02*
X28537143Y-19954670D01*
X28537143Y-19954670D02*
X28549524Y-19960860D01*
X28549524Y-19960860D02*
X28574286Y-19960860D01*
X28574286Y-19960860D02*
X28586667Y-19954670D01*
X28586667Y-19954670D02*
X28592857Y-19948480D01*
X28592857Y-19948480D02*
X28599048Y-19936099D01*
X28599048Y-19936099D02*
X28599048Y-19905146D01*
X28599048Y-19905146D02*
X28592857Y-19892765D01*
X28592857Y-19892765D02*
X28586667Y-19886575D01*
X28586667Y-19886575D02*
X28574286Y-19880384D01*
X28574286Y-19880384D02*
X28549524Y-19880384D01*
X28549524Y-19880384D02*
X28537143Y-19886575D01*
X28537143Y-19886575D02*
X28530952Y-19892765D01*
X28530952Y-19892765D02*
X28524762Y-19905146D01*
D10*
D11*
X1000000Y-6000000D02*
X1200000Y-6000000D01*
D10*
D11*
X1000000Y-11000000D02*
X1200000Y-11000000D01*
D10*
D11*
X1000000Y-16000000D02*
X1200000Y-16000000D01*
D10*
D11*
X1069048Y-3522998D02*
X1130952Y-3522998D01*
X1056667Y-3560140D02*
X1100000Y-3430140D01*
X1100000Y-3430140D02*
X1143333Y-3560140D01*
D10*
D11*
X1109286Y-8492045D02*
X1127857Y-8498236D01*
X1127857Y-8498236D02*
X1134048Y-8504426D01*
X1134048Y-8504426D02*
X1140238Y-8516807D01*
X1140238Y-8516807D02*
X1140238Y-8535379D01*
X1140238Y-8535379D02*
X1134048Y-8547760D01*
X1134048Y-8547760D02*
X1127857Y-8553950D01*
X1127857Y-8553950D02*
X1115476Y-8560140D01*
X1115476Y-8560140D02*
X1065952Y-8560140D01*
X1065952Y-8560140D02*
X1065952Y-8430140D01*
X1065952Y-8430140D02*
X1109286Y-8430140D01*
X1109286Y-8430140D02*
X1121667Y-8436331D01*
X1121667Y-8436331D02*
X1127857Y-8442521D01*
X1127857Y-8442521D02*
X1134048Y-8454902D01*
X1134048Y-8454902D02*
X1134048Y-8467283D01*
X1134048Y-8467283D02*
X1127857Y-8479664D01*
X1127857Y-8479664D02*
X1121667Y-8485855D01*
X1121667Y-8485855D02*
X1109286Y-8492045D01*
X1109286Y-8492045D02*
X1065952Y-8492045D01*
D10*
D11*
X1140238Y-13547759D02*
X1134048Y-13553950D01*
X1134048Y-13553950D02*
X1115476Y-13560140D01*
X1115476Y-13560140D02*
X1103095Y-13560140D01*
X1103095Y-13560140D02*
X1084524Y-13553950D01*
X1084524Y-13553950D02*
X1072143Y-13541569D01*
X1072143Y-13541569D02*
X1065952Y-13529188D01*
X1065952Y-13529188D02*
X1059762Y-13504426D01*
X1059762Y-13504426D02*
X1059762Y-13485855D01*
X1059762Y-13485855D02*
X1065952Y-13461093D01*
X1065952Y-13461093D02*
X1072143Y-13448712D01*
X1072143Y-13448712D02*
X1084524Y-13436331D01*
X1084524Y-13436331D02*
X1103095Y-13430140D01*
X1103095Y-13430140D02*
X1115476Y-13430140D01*
X1115476Y-13430140D02*
X1134048Y-13436331D01*
X1134048Y-13436331D02*
X1140238Y-13442521D01*
D10*
D11*
X1065952Y-18560140D02*
X1065952Y-18430140D01*
X1065952Y-18430140D02*
X1096905Y-18430140D01*
X1096905Y-18430140D02*
X1115476Y-18436331D01*
X1115476Y-18436331D02*
X1127857Y-18448712D01*
X1127857Y-18448712D02*
X1134048Y-18461093D01*
X1134048Y-18461093D02*
X1140238Y-18485855D01*
X1140238Y-18485855D02*
X1140238Y-18504426D01*
X1140238Y-18504426D02*
X1134048Y-18529188D01*
X1134048Y-18529188D02*
X1127857Y-18541569D01*
X1127857Y-18541569D02*
X1115476Y-18553950D01*
X1115476Y-18553950D02*
X1096905Y-18560140D01*
X1096905Y-18560140D02*
X1065952Y-18560140D01*
D10*
D11*
X28700220Y-6000000D02*
X28500220Y-6000000D01*
D10*
D11*
X28700220Y-11000000D02*
X28500220Y-11000000D01*
D10*
D11*
X28700220Y-16000000D02*
X28500220Y-16000000D01*
D10*
D11*
X28569268Y-3522998D02*
X28631172Y-3522998D01*
X28556887Y-3560140D02*
X28600220Y-3430140D01*
X28600220Y-3430140D02*
X28643553Y-3560140D01*
D10*
D11*
X28609506Y-8492045D02*
X28628077Y-8498236D01*
X28628077Y-8498236D02*
X28634268Y-8504426D01*
X28634268Y-8504426D02*
X28640458Y-8516807D01*
X28640458Y-8516807D02*
X28640458Y-8535379D01*
X28640458Y-8535379D02*
X28634268Y-8547760D01*
X28634268Y-8547760D02*
X28628077Y-8553950D01*
X28628077Y-8553950D02*
X28615696Y-8560140D01*
X28615696Y-8560140D02*
X28566172Y-8560140D01*
X28566172Y-8560140D02*
X28566172Y-8430140D01*
X28566172Y-8430140D02*
X28609506Y-8430140D01*
X28609506Y-8430140D02*
X28621887Y-8436331D01*
X28621887Y-8436331D02*
X28628077Y-8442521D01*
X28628077Y-8442521D02*
X28634268Y-8454902D01*
X28634268Y-8454902D02*
X28634268Y-8467283D01*
X28634268Y-8467283D02*
X28628077Y-8479664D01*
X28628077Y-8479664D02*
X28621887Y-8485855D01*
X28621887Y-8485855D02*
X28609506Y-8492045D01*
X28609506Y-8492045D02*
X28566172Y-8492045D01*
D10*
D11*
X28640458Y-13547759D02*
X28634268Y-13553950D01*
X28634268Y-13553950D02*
X28615696Y-13560140D01*
X28615696Y-13560140D02*
X28603315Y-13560140D01*
X28603315Y-13560140D02*
X28584744Y-13553950D01*
X28584744Y-13553950D02*
X28572363Y-13541569D01*
X28572363Y-13541569D02*
X28566172Y-13529188D01*
X28566172Y-13529188D02*
X28559982Y-13504426D01*
X28559982Y-13504426D02*
X28559982Y-13485855D01*
X28559982Y-13485855D02*
X28566172Y-13461093D01*
X28566172Y-13461093D02*
X28572363Y-13448712D01*
X28572363Y-13448712D02*
X28584744Y-13436331D01*
X28584744Y-13436331D02*
X28603315Y-13430140D01*
X28603315Y-13430140D02*
X28615696Y-13430140D01*
X28615696Y-13430140D02*
X28634268Y-13436331D01*
X28634268Y-13436331D02*
X28640458Y-13442521D01*
D10*
D11*
X28566172Y-18560140D02*
X28566172Y-18430140D01*
X28566172Y-18430140D02*
X28597125Y-18430140D01*
X28597125Y-18430140D02*
X28615696Y-18436331D01*
X28615696Y-18436331D02*
X28628077Y-18448712D01*
X28628077Y-18448712D02*
X28634268Y-18461093D01*
X28634268Y-18461093D02*
X28640458Y-18485855D01*
X28640458Y-18485855D02*
X28640458Y-18504426D01*
X28640458Y-18504426D02*
X28634268Y-18529188D01*
X28634268Y-18529188D02*
X28628077Y-18541569D01*
X28628077Y-18541569D02*
X28615696Y-18553950D01*
X28615696Y-18553950D02*
X28597125Y-18560140D01*
X28597125Y-18560140D02*
X28566172Y-18560140D01*
D10*
D11*
X20035934Y-19380113D02*
X20035934Y-19230113D01*
X20035934Y-19230113D02*
X20071649Y-19230113D01*
X20071649Y-19230113D02*
X20093077Y-19237256D01*
X20093077Y-19237256D02*
X20107363Y-19251541D01*
X20107363Y-19251541D02*
X20114506Y-19265827D01*
X20114506Y-19265827D02*
X20121649Y-19294399D01*
X20121649Y-19294399D02*
X20121649Y-19315827D01*
X20121649Y-19315827D02*
X20114506Y-19344399D01*
X20114506Y-19344399D02*
X20107363Y-19358684D01*
X20107363Y-19358684D02*
X20093077Y-19372970D01*
X20093077Y-19372970D02*
X20071649Y-19380113D01*
X20071649Y-19380113D02*
X20035934Y-19380113D01*
X20250220Y-19380113D02*
X20250220Y-19301541D01*
X20250220Y-19301541D02*
X20243077Y-19287256D01*
X20243077Y-19287256D02*
X20228791Y-19280113D01*
X20228791Y-19280113D02*
X20200220Y-19280113D01*
X20200220Y-19280113D02*
X20185934Y-19287256D01*
X20250220Y-19372970D02*
X20235934Y-19380113D01*
X20235934Y-19380113D02*
X20200220Y-19380113D01*
X20200220Y-19380113D02*
X20185934Y-19372970D01*
X20185934Y-19372970D02*
X20178791Y-19358684D01*
X20178791Y-19358684D02*
X20178791Y-19344399D01*
X20178791Y-19344399D02*
X20185934Y-19330113D01*
X20185934Y-19330113D02*
X20200220Y-19322970D01*
X20200220Y-19322970D02*
X20235934Y-19322970D01*
X20235934Y-19322970D02*
X20250220Y-19315827D01*
X20300220Y-19280113D02*
X20357363Y-19280113D01*
X20321649Y-19230113D02*
X20321649Y-19358684D01*
X20321649Y-19358684D02*
X20328791Y-19372970D01*
X20328791Y-19372970D02*
X20343077Y-19380113D01*
X20343077Y-19380113D02*
X20357363Y-19380113D01*
X20464506Y-19372970D02*
X20450220Y-19380113D01*
X20450220Y-19380113D02*
X20421649Y-19380113D01*
X20421649Y-19380113D02*
X20407363Y-19372970D01*
X20407363Y-19372970D02*
X20400220Y-19358684D01*
X20400220Y-19358684D02*
X20400220Y-19301541D01*
X20400220Y-19301541D02*
X20407363Y-19287256D01*
X20407363Y-19287256D02*
X20421649Y-19280113D01*
X20421649Y-19280113D02*
X20450220Y-19280113D01*
X20450220Y-19280113D02*
X20464506Y-19287256D01*
X20464506Y-19287256D02*
X20471649Y-19301541D01*
X20471649Y-19301541D02*
X20471649Y-19315827D01*
X20471649Y-19315827D02*
X20400220Y-19330113D01*
X20535934Y-19365827D02*
X20543077Y-19372970D01*
X20543077Y-19372970D02*
X20535934Y-19380113D01*
X20535934Y-19380113D02*
X20528791Y-19372970D01*
X20528791Y-19372970D02*
X20535934Y-19365827D01*
X20535934Y-19365827D02*
X20535934Y-19380113D01*
X20535934Y-19287256D02*
X20543077Y-19294399D01*
X20543077Y-19294399D02*
X20535934Y-19301541D01*
X20535934Y-19301541D02*
X20528791Y-19294399D01*
X20528791Y-19294399D02*
X20535934Y-19287256D01*
X20535934Y-19287256D02*
X20535934Y-19301541D01*
D10*
D11*
X17700220Y-19450720D02*
X28500220Y-19450720D01*
D10*
D11*
X17835934Y-19660113D02*
X17835934Y-19510113D01*
X17921649Y-19660113D02*
X17857363Y-19574399D01*
X17921649Y-19510113D02*
X17835934Y-19595827D01*
X17985934Y-19660113D02*
X17985934Y-19560113D01*
X17985934Y-19510113D02*
X17978791Y-19517256D01*
X17978791Y-19517256D02*
X17985934Y-19524399D01*
X17985934Y-19524399D02*
X17993077Y-19517256D01*
X17993077Y-19517256D02*
X17985934Y-19510113D01*
X17985934Y-19510113D02*
X17985934Y-19524399D01*
X18143077Y-19645827D02*
X18135934Y-19652970D01*
X18135934Y-19652970D02*
X18114506Y-19660113D01*
X18114506Y-19660113D02*
X18100220Y-19660113D01*
X18100220Y-19660113D02*
X18078791Y-19652970D01*
X18078791Y-19652970D02*
X18064506Y-19638684D01*
X18064506Y-19638684D02*
X18057363Y-19624399D01*
X18057363Y-19624399D02*
X18050220Y-19595827D01*
X18050220Y-19595827D02*
X18050220Y-19574399D01*
X18050220Y-19574399D02*
X18057363Y-19545827D01*
X18057363Y-19545827D02*
X18064506Y-19531541D01*
X18064506Y-19531541D02*
X18078791Y-19517256D01*
X18078791Y-19517256D02*
X18100220Y-19510113D01*
X18100220Y-19510113D02*
X18114506Y-19510113D01*
X18114506Y-19510113D02*
X18135934Y-19517256D01*
X18135934Y-19517256D02*
X18143077Y-19524399D01*
X18271649Y-19660113D02*
X18271649Y-19581541D01*
X18271649Y-19581541D02*
X18264506Y-19567256D01*
X18264506Y-19567256D02*
X18250220Y-19560113D01*
X18250220Y-19560113D02*
X18221649Y-19560113D01*
X18221649Y-19560113D02*
X18207363Y-19567256D01*
X18271649Y-19652970D02*
X18257363Y-19660113D01*
X18257363Y-19660113D02*
X18221649Y-19660113D01*
X18221649Y-19660113D02*
X18207363Y-19652970D01*
X18207363Y-19652970D02*
X18200220Y-19638684D01*
X18200220Y-19638684D02*
X18200220Y-19624399D01*
X18200220Y-19624399D02*
X18207363Y-19610113D01*
X18207363Y-19610113D02*
X18221649Y-19602970D01*
X18221649Y-19602970D02*
X18257363Y-19602970D01*
X18257363Y-19602970D02*
X18271649Y-19595827D01*
X18407363Y-19660113D02*
X18407363Y-19510113D01*
X18407363Y-19652970D02*
X18393077Y-19660113D01*
X18393077Y-19660113D02*
X18364506Y-19660113D01*
X18364506Y-19660113D02*
X18350220Y-19652970D01*
X18350220Y-19652970D02*
X18343077Y-19645827D01*
X18343077Y-19645827D02*
X18335934Y-19631541D01*
X18335934Y-19631541D02*
X18335934Y-19588684D01*
X18335934Y-19588684D02*
X18343077Y-19574399D01*
X18343077Y-19574399D02*
X18350220Y-19567256D01*
X18350220Y-19567256D02*
X18364506Y-19560113D01*
X18364506Y-19560113D02*
X18393077Y-19560113D01*
X18393077Y-19560113D02*
X18407363Y-19567256D01*
X18593077Y-19581541D02*
X18643077Y-19581541D01*
X18664506Y-19660113D02*
X18593077Y-19660113D01*
X18593077Y-19660113D02*
X18593077Y-19510113D01*
X18593077Y-19510113D02*
X18664506Y-19510113D01*
X18728791Y-19645827D02*
X18735934Y-19652970D01*
X18735934Y-19652970D02*
X18728791Y-19660113D01*
X18728791Y-19660113D02*
X18721649Y-19652970D01*
X18721649Y-19652970D02*
X18728791Y-19645827D01*
X18728791Y-19645827D02*
X18728791Y-19660113D01*
X18800220Y-19660113D02*
X18800220Y-19510113D01*
X18800220Y-19510113D02*
X18835934Y-19510113D01*
X18835934Y-19510113D02*
X18857363Y-19517256D01*
X18857363Y-19517256D02*
X18871649Y-19531541D01*
X18871649Y-19531541D02*
X18878792Y-19545827D01*
X18878792Y-19545827D02*
X18885934Y-19574399D01*
X18885934Y-19574399D02*
X18885934Y-19595827D01*
X18885934Y-19595827D02*
X18878792Y-19624399D01*
X18878792Y-19624399D02*
X18871649Y-19638684D01*
X18871649Y-19638684D02*
X18857363Y-19652970D01*
X18857363Y-19652970D02*
X18835934Y-19660113D01*
X18835934Y-19660113D02*
X18800220Y-19660113D01*
X18950220Y-19645827D02*
X18957363Y-19652970D01*
X18957363Y-19652970D02*
X18950220Y-19660113D01*
X18950220Y-19660113D02*
X18943077Y-19652970D01*
X18943077Y-19652970D02*
X18950220Y-19645827D01*
X18950220Y-19645827D02*
X18950220Y-19660113D01*
X19014506Y-19617256D02*
X19085934Y-19617256D01*
X19000220Y-19660113D02*
X19050220Y-19510113D01*
X19050220Y-19510113D02*
X19100220Y-19660113D01*
X19150220Y-19645827D02*
X19157363Y-19652970D01*
X19157363Y-19652970D02*
X19150220Y-19660113D01*
X19150220Y-19660113D02*
X19143077Y-19652970D01*
X19143077Y-19652970D02*
X19150220Y-19645827D01*
X19150220Y-19645827D02*
X19150220Y-19660113D01*
X19450220Y-19660113D02*
X19450220Y-19510113D01*
X19464506Y-19602970D02*
X19507363Y-19660113D01*
X19507363Y-19560113D02*
X19450220Y-19617256D01*
X19571649Y-19660113D02*
X19571649Y-19560113D01*
X19571649Y-19510113D02*
X19564506Y-19517256D01*
X19564506Y-19517256D02*
X19571649Y-19524399D01*
X19571649Y-19524399D02*
X19578792Y-19517256D01*
X19578792Y-19517256D02*
X19571649Y-19510113D01*
X19571649Y-19510113D02*
X19571649Y-19524399D01*
X19707363Y-19652970D02*
X19693077Y-19660113D01*
X19693077Y-19660113D02*
X19664506Y-19660113D01*
X19664506Y-19660113D02*
X19650220Y-19652970D01*
X19650220Y-19652970D02*
X19643077Y-19645827D01*
X19643077Y-19645827D02*
X19635934Y-19631541D01*
X19635934Y-19631541D02*
X19635934Y-19588684D01*
X19635934Y-19588684D02*
X19643077Y-19574399D01*
X19643077Y-19574399D02*
X19650220Y-19567256D01*
X19650220Y-19567256D02*
X19664506Y-19560113D01*
X19664506Y-19560113D02*
X19693077Y-19560113D01*
X19693077Y-19560113D02*
X19707363Y-19567256D01*
X19835934Y-19660113D02*
X19835934Y-19581541D01*
X19835934Y-19581541D02*
X19828792Y-19567256D01*
X19828792Y-19567256D02*
X19814506Y-19560113D01*
X19814506Y-19560113D02*
X19785934Y-19560113D01*
X19785934Y-19560113D02*
X19771649Y-19567256D01*
X19835934Y-19652970D02*
X19821649Y-19660113D01*
X19821649Y-19660113D02*
X19785934Y-19660113D01*
X19785934Y-19660113D02*
X19771649Y-19652970D01*
X19771649Y-19652970D02*
X19764506Y-19638684D01*
X19764506Y-19638684D02*
X19764506Y-19624399D01*
X19764506Y-19624399D02*
X19771649Y-19610113D01*
X19771649Y-19610113D02*
X19785934Y-19602970D01*
X19785934Y-19602970D02*
X19821649Y-19602970D01*
X19821649Y-19602970D02*
X19835934Y-19595827D01*
X19971649Y-19660113D02*
X19971649Y-19510113D01*
X19971649Y-19652970D02*
X19957363Y-19660113D01*
X19957363Y-19660113D02*
X19928792Y-19660113D01*
X19928792Y-19660113D02*
X19914506Y-19652970D01*
X19914506Y-19652970D02*
X19907363Y-19645827D01*
X19907363Y-19645827D02*
X19900220Y-19631541D01*
X19900220Y-19631541D02*
X19900220Y-19588684D01*
X19900220Y-19588684D02*
X19907363Y-19574399D01*
X19907363Y-19574399D02*
X19914506Y-19567256D01*
X19914506Y-19567256D02*
X19928792Y-19560113D01*
X19928792Y-19560113D02*
X19957363Y-19560113D01*
X19957363Y-19560113D02*
X19971649Y-19567256D01*
X20143077Y-19510113D02*
X20243077Y-19510113D01*
X20243077Y-19510113D02*
X20178792Y-19660113D01*
X20300220Y-19645827D02*
X20307363Y-19652970D01*
X20307363Y-19652970D02*
X20300220Y-19660113D01*
X20300220Y-19660113D02*
X20293077Y-19652970D01*
X20293077Y-19652970D02*
X20300220Y-19645827D01*
X20300220Y-19645827D02*
X20300220Y-19660113D01*
X20400220Y-19510113D02*
X20414506Y-19510113D01*
X20414506Y-19510113D02*
X20428792Y-19517256D01*
X20428792Y-19517256D02*
X20435934Y-19524399D01*
X20435934Y-19524399D02*
X20443077Y-19538684D01*
X20443077Y-19538684D02*
X20450220Y-19567256D01*
X20450220Y-19567256D02*
X20450220Y-19602970D01*
X20450220Y-19602970D02*
X20443077Y-19631541D01*
X20443077Y-19631541D02*
X20435934Y-19645827D01*
X20435934Y-19645827D02*
X20428792Y-19652970D01*
X20428792Y-19652970D02*
X20414506Y-19660113D01*
X20414506Y-19660113D02*
X20400220Y-19660113D01*
X20400220Y-19660113D02*
X20385934Y-19652970D01*
X20385934Y-19652970D02*
X20378792Y-19645827D01*
X20378792Y-19645827D02*
X20371649Y-19631541D01*
X20371649Y-19631541D02*
X20364506Y-19602970D01*
X20364506Y-19602970D02*
X20364506Y-19567256D01*
X20364506Y-19567256D02*
X20371649Y-19538684D01*
X20371649Y-19538684D02*
X20378792Y-19524399D01*
X20378792Y-19524399D02*
X20385934Y-19517256D01*
X20385934Y-19517256D02*
X20400220Y-19510113D01*
X20514506Y-19645827D02*
X20521649Y-19652970D01*
X20521649Y-19652970D02*
X20514506Y-19660113D01*
X20514506Y-19660113D02*
X20507363Y-19652970D01*
X20507363Y-19652970D02*
X20514506Y-19645827D01*
X20514506Y-19645827D02*
X20514506Y-19660113D01*
X20664506Y-19660113D02*
X20578792Y-19660113D01*
X20621649Y-19660113D02*
X20621649Y-19510113D01*
X20621649Y-19510113D02*
X20607363Y-19531541D01*
X20607363Y-19531541D02*
X20593077Y-19545827D01*
X20593077Y-19545827D02*
X20578792Y-19552970D01*
D10*
D11*
X17700220Y-19150720D02*
X28500220Y-19150720D01*
D10*
D12*
X26421648Y-19380113D02*
X26371648Y-19308684D01*
X26335934Y-19380113D02*
X26335934Y-19230113D01*
X26335934Y-19230113D02*
X26393077Y-19230113D01*
X26393077Y-19230113D02*
X26407363Y-19237256D01*
X26407363Y-19237256D02*
X26414506Y-19244399D01*
X26414506Y-19244399D02*
X26421648Y-19258684D01*
X26421648Y-19258684D02*
X26421648Y-19280113D01*
X26421648Y-19280113D02*
X26414506Y-19294399D01*
X26414506Y-19294399D02*
X26407363Y-19301541D01*
X26407363Y-19301541D02*
X26393077Y-19308684D01*
X26393077Y-19308684D02*
X26335934Y-19308684D01*
X26543077Y-19372970D02*
X26528791Y-19380113D01*
X26528791Y-19380113D02*
X26500220Y-19380113D01*
X26500220Y-19380113D02*
X26485934Y-19372970D01*
X26485934Y-19372970D02*
X26478791Y-19358684D01*
X26478791Y-19358684D02*
X26478791Y-19301541D01*
X26478791Y-19301541D02*
X26485934Y-19287256D01*
X26485934Y-19287256D02*
X26500220Y-19280113D01*
X26500220Y-19280113D02*
X26528791Y-19280113D01*
X26528791Y-19280113D02*
X26543077Y-19287256D01*
X26543077Y-19287256D02*
X26550220Y-19301541D01*
X26550220Y-19301541D02*
X26550220Y-19315827D01*
X26550220Y-19315827D02*
X26478791Y-19330113D01*
X26600220Y-19280113D02*
X26635934Y-19380113D01*
X26635934Y-19380113D02*
X26671648Y-19280113D01*
X26728791Y-19365827D02*
X26735934Y-19372970D01*
X26735934Y-19372970D02*
X26728791Y-19380113D01*
X26728791Y-19380113D02*
X26721648Y-19372970D01*
X26721648Y-19372970D02*
X26728791Y-19365827D01*
X26728791Y-19365827D02*
X26728791Y-19380113D01*
X26728791Y-19287256D02*
X26735934Y-19294399D01*
X26735934Y-19294399D02*
X26728791Y-19301541D01*
X26728791Y-19301541D02*
X26721648Y-19294399D01*
X26721648Y-19294399D02*
X26728791Y-19287256D01*
X26728791Y-19287256D02*
X26728791Y-19301541D01*
D10*
D11*
X17828791Y-19372970D02*
X17850220Y-19380113D01*
X17850220Y-19380113D02*
X17885934Y-19380113D01*
X17885934Y-19380113D02*
X17900220Y-19372970D01*
X17900220Y-19372970D02*
X17907363Y-19365827D01*
X17907363Y-19365827D02*
X17914506Y-19351541D01*
X17914506Y-19351541D02*
X17914506Y-19337256D01*
X17914506Y-19337256D02*
X17907363Y-19322970D01*
X17907363Y-19322970D02*
X17900220Y-19315827D01*
X17900220Y-19315827D02*
X17885934Y-19308684D01*
X17885934Y-19308684D02*
X17857363Y-19301541D01*
X17857363Y-19301541D02*
X17843077Y-19294399D01*
X17843077Y-19294399D02*
X17835934Y-19287256D01*
X17835934Y-19287256D02*
X17828791Y-19272970D01*
X17828791Y-19272970D02*
X17828791Y-19258684D01*
X17828791Y-19258684D02*
X17835934Y-19244399D01*
X17835934Y-19244399D02*
X17843077Y-19237256D01*
X17843077Y-19237256D02*
X17857363Y-19230113D01*
X17857363Y-19230113D02*
X17893077Y-19230113D01*
X17893077Y-19230113D02*
X17914506Y-19237256D01*
X17978791Y-19380113D02*
X17978791Y-19280113D01*
X17978791Y-19230113D02*
X17971649Y-19237256D01*
X17971649Y-19237256D02*
X17978791Y-19244399D01*
X17978791Y-19244399D02*
X17985934Y-19237256D01*
X17985934Y-19237256D02*
X17978791Y-19230113D01*
X17978791Y-19230113D02*
X17978791Y-19244399D01*
X18035934Y-19280113D02*
X18114506Y-19280113D01*
X18114506Y-19280113D02*
X18035934Y-19380113D01*
X18035934Y-19380113D02*
X18114506Y-19380113D01*
X18228791Y-19372970D02*
X18214506Y-19380113D01*
X18214506Y-19380113D02*
X18185934Y-19380113D01*
X18185934Y-19380113D02*
X18171649Y-19372970D01*
X18171649Y-19372970D02*
X18164506Y-19358684D01*
X18164506Y-19358684D02*
X18164506Y-19301541D01*
X18164506Y-19301541D02*
X18171649Y-19287256D01*
X18171649Y-19287256D02*
X18185934Y-19280113D01*
X18185934Y-19280113D02*
X18214506Y-19280113D01*
X18214506Y-19280113D02*
X18228791Y-19287256D01*
X18228791Y-19287256D02*
X18235934Y-19301541D01*
X18235934Y-19301541D02*
X18235934Y-19315827D01*
X18235934Y-19315827D02*
X18164506Y-19330113D01*
X18300220Y-19365827D02*
X18307363Y-19372970D01*
X18307363Y-19372970D02*
X18300220Y-19380113D01*
X18300220Y-19380113D02*
X18293077Y-19372970D01*
X18293077Y-19372970D02*
X18300220Y-19365827D01*
X18300220Y-19365827D02*
X18300220Y-19380113D01*
X18300220Y-19287256D02*
X18307363Y-19294399D01*
X18307363Y-19294399D02*
X18300220Y-19301541D01*
X18300220Y-19301541D02*
X18293077Y-19294399D01*
X18293077Y-19294399D02*
X18300220Y-19287256D01*
X18300220Y-19287256D02*
X18300220Y-19301541D01*
X18478791Y-19337256D02*
X18550220Y-19337256D01*
X18464506Y-19380113D02*
X18514506Y-19230113D01*
X18514506Y-19230113D02*
X18564506Y-19380113D01*
X18678791Y-19280113D02*
X18678791Y-19380113D01*
X18643077Y-19222970D02*
X18607363Y-19330113D01*
X18607363Y-19330113D02*
X18700220Y-19330113D01*
D10*
D11*
X26335934Y-19660113D02*
X26335934Y-19510113D01*
X26471649Y-19660113D02*
X26471649Y-19510113D01*
X26471649Y-19652970D02*
X26457363Y-19660113D01*
X26457363Y-19660113D02*
X26428791Y-19660113D01*
X26428791Y-19660113D02*
X26414506Y-19652970D01*
X26414506Y-19652970D02*
X26407363Y-19645827D01*
X26407363Y-19645827D02*
X26400220Y-19631541D01*
X26400220Y-19631541D02*
X26400220Y-19588684D01*
X26400220Y-19588684D02*
X26407363Y-19574399D01*
X26407363Y-19574399D02*
X26414506Y-19567256D01*
X26414506Y-19567256D02*
X26428791Y-19560113D01*
X26428791Y-19560113D02*
X26457363Y-19560113D01*
X26457363Y-19560113D02*
X26471649Y-19567256D01*
X26543077Y-19645827D02*
X26550220Y-19652970D01*
X26550220Y-19652970D02*
X26543077Y-19660113D01*
X26543077Y-19660113D02*
X26535934Y-19652970D01*
X26535934Y-19652970D02*
X26543077Y-19645827D01*
X26543077Y-19645827D02*
X26543077Y-19660113D01*
X26543077Y-19567256D02*
X26550220Y-19574399D01*
X26550220Y-19574399D02*
X26543077Y-19581541D01*
X26543077Y-19581541D02*
X26535934Y-19574399D01*
X26535934Y-19574399D02*
X26543077Y-19567256D01*
X26543077Y-19567256D02*
X26543077Y-19581541D01*
X26807363Y-19660113D02*
X26721649Y-19660113D01*
X26764506Y-19660113D02*
X26764506Y-19510113D01*
X26764506Y-19510113D02*
X26750220Y-19531541D01*
X26750220Y-19531541D02*
X26735934Y-19545827D01*
X26735934Y-19545827D02*
X26721649Y-19552970D01*
X26978791Y-19502970D02*
X26850220Y-19695827D01*
X27107363Y-19660113D02*
X27021649Y-19660113D01*
X27064506Y-19660113D02*
X27064506Y-19510113D01*
X27064506Y-19510113D02*
X27050220Y-19531541D01*
X27050220Y-19531541D02*
X27035934Y-19545827D01*
X27035934Y-19545827D02*
X27021649Y-19552970D01*
D10*
D11*
X17700220Y-18750720D02*
X28500220Y-18750720D01*
D10*
D13*
X17843077Y-18823244D02*
X17957363Y-18823244D01*
X17875220Y-19023244D02*
X17900220Y-18823244D01*
X17997839Y-19023244D02*
X18014506Y-18889910D01*
X18022839Y-18823244D02*
X18012125Y-18832768D01*
X18012125Y-18832768D02*
X18020458Y-18842291D01*
X18020458Y-18842291D02*
X18031172Y-18832768D01*
X18031172Y-18832768D02*
X18022839Y-18823244D01*
X18022839Y-18823244D02*
X18020458Y-18842291D01*
X18079982Y-18889910D02*
X18156172Y-18889910D01*
X18116887Y-18823244D02*
X18095458Y-18994672D01*
X18095458Y-18994672D02*
X18102601Y-19013720D01*
X18102601Y-19013720D02*
X18120458Y-19023244D01*
X18120458Y-19023244D02*
X18139506Y-19023244D01*
X18233553Y-19023244D02*
X18215696Y-19013720D01*
X18215696Y-19013720D02*
X18208553Y-18994672D01*
X18208553Y-18994672D02*
X18229982Y-18823244D01*
X18385934Y-19013720D02*
X18365696Y-19023244D01*
X18365696Y-19023244D02*
X18327601Y-19023244D01*
X18327601Y-19023244D02*
X18309744Y-19013720D01*
X18309744Y-19013720D02*
X18302601Y-18994672D01*
X18302601Y-18994672D02*
X18312125Y-18918482D01*
X18312125Y-18918482D02*
X18324029Y-18899434D01*
X18324029Y-18899434D02*
X18344268Y-18889910D01*
X18344268Y-18889910D02*
X18382363Y-18889910D01*
X18382363Y-18889910D02*
X18400220Y-18899434D01*
X18400220Y-18899434D02*
X18407363Y-18918482D01*
X18407363Y-18918482D02*
X18404982Y-18937530D01*
X18404982Y-18937530D02*
X18307363Y-18956577D01*
X18481172Y-19004196D02*
X18489506Y-19013720D01*
X18489506Y-19013720D02*
X18478791Y-19023244D01*
X18478791Y-19023244D02*
X18470458Y-19013720D01*
X18470458Y-19013720D02*
X18481172Y-19004196D01*
X18481172Y-19004196D02*
X18478791Y-19023244D01*
X18494268Y-18899434D02*
X18502601Y-18908958D01*
X18502601Y-18908958D02*
X18491887Y-18918482D01*
X18491887Y-18918482D02*
X18483553Y-18908958D01*
X18483553Y-18908958D02*
X18494268Y-18899434D01*
X18494268Y-18899434D02*
X18491887Y-18918482D01*
D10*
D11*
X17885934Y-18561541D02*
X17835934Y-18561541D01*
X17835934Y-18640113D02*
X17835934Y-18490113D01*
X17835934Y-18490113D02*
X17907363Y-18490113D01*
X17964506Y-18640113D02*
X17964506Y-18540113D01*
X17964506Y-18490113D02*
X17957363Y-18497256D01*
X17957363Y-18497256D02*
X17964506Y-18504399D01*
X17964506Y-18504399D02*
X17971649Y-18497256D01*
X17971649Y-18497256D02*
X17964506Y-18490113D01*
X17964506Y-18490113D02*
X17964506Y-18504399D01*
X18057363Y-18640113D02*
X18043077Y-18632970D01*
X18043077Y-18632970D02*
X18035934Y-18618684D01*
X18035934Y-18618684D02*
X18035934Y-18490113D01*
X18171649Y-18632970D02*
X18157363Y-18640113D01*
X18157363Y-18640113D02*
X18128791Y-18640113D01*
X18128791Y-18640113D02*
X18114506Y-18632970D01*
X18114506Y-18632970D02*
X18107363Y-18618684D01*
X18107363Y-18618684D02*
X18107363Y-18561541D01*
X18107363Y-18561541D02*
X18114506Y-18547256D01*
X18114506Y-18547256D02*
X18128791Y-18540113D01*
X18128791Y-18540113D02*
X18157363Y-18540113D01*
X18157363Y-18540113D02*
X18171649Y-18547256D01*
X18171649Y-18547256D02*
X18178791Y-18561541D01*
X18178791Y-18561541D02*
X18178791Y-18575827D01*
X18178791Y-18575827D02*
X18107363Y-18590113D01*
X18243077Y-18625827D02*
X18250220Y-18632970D01*
X18250220Y-18632970D02*
X18243077Y-18640113D01*
X18243077Y-18640113D02*
X18235934Y-18632970D01*
X18235934Y-18632970D02*
X18243077Y-18625827D01*
X18243077Y-18625827D02*
X18243077Y-18640113D01*
X18243077Y-18547256D02*
X18250220Y-18554399D01*
X18250220Y-18554399D02*
X18243077Y-18561541D01*
X18243077Y-18561541D02*
X18235934Y-18554399D01*
X18235934Y-18554399D02*
X18243077Y-18547256D01*
X18243077Y-18547256D02*
X18243077Y-18561541D01*
X18514506Y-18625827D02*
X18507363Y-18632970D01*
X18507363Y-18632970D02*
X18485934Y-18640113D01*
X18485934Y-18640113D02*
X18471649Y-18640113D01*
X18471649Y-18640113D02*
X18450220Y-18632970D01*
X18450220Y-18632970D02*
X18435934Y-18618684D01*
X18435934Y-18618684D02*
X18428791Y-18604399D01*
X18428791Y-18604399D02*
X18421649Y-18575827D01*
X18421649Y-18575827D02*
X18421649Y-18554399D01*
X18421649Y-18554399D02*
X18428791Y-18525827D01*
X18428791Y-18525827D02*
X18435934Y-18511541D01*
X18435934Y-18511541D02*
X18450220Y-18497256D01*
X18450220Y-18497256D02*
X18471649Y-18490113D01*
X18471649Y-18490113D02*
X18485934Y-18490113D01*
X18485934Y-18490113D02*
X18507363Y-18497256D01*
X18507363Y-18497256D02*
X18514506Y-18504399D01*
X18600220Y-18640113D02*
X18585934Y-18632970D01*
X18585934Y-18632970D02*
X18578791Y-18625827D01*
X18578791Y-18625827D02*
X18571649Y-18611541D01*
X18571649Y-18611541D02*
X18571649Y-18568684D01*
X18571649Y-18568684D02*
X18578791Y-18554399D01*
X18578791Y-18554399D02*
X18585934Y-18547256D01*
X18585934Y-18547256D02*
X18600220Y-18540113D01*
X18600220Y-18540113D02*
X18621649Y-18540113D01*
X18621649Y-18540113D02*
X18635934Y-18547256D01*
X18635934Y-18547256D02*
X18643077Y-18554399D01*
X18643077Y-18554399D02*
X18650220Y-18568684D01*
X18650220Y-18568684D02*
X18650220Y-18611541D01*
X18650220Y-18611541D02*
X18643077Y-18625827D01*
X18643077Y-18625827D02*
X18635934Y-18632970D01*
X18635934Y-18632970D02*
X18621649Y-18640113D01*
X18621649Y-18640113D02*
X18600220Y-18640113D01*
X18714506Y-18540113D02*
X18714506Y-18640113D01*
X18714506Y-18554399D02*
X18721649Y-18547256D01*
X18721649Y-18547256D02*
X18735934Y-18540113D01*
X18735934Y-18540113D02*
X18757363Y-18540113D01*
X18757363Y-18540113D02*
X18771649Y-18547256D01*
X18771649Y-18547256D02*
X18778791Y-18561541D01*
X18778791Y-18561541D02*
X18778791Y-18640113D01*
X18828791Y-18540113D02*
X18885934Y-18540113D01*
X18850220Y-18490113D02*
X18850220Y-18618684D01*
X18850220Y-18618684D02*
X18857363Y-18632970D01*
X18857363Y-18632970D02*
X18871649Y-18640113D01*
X18871649Y-18640113D02*
X18885934Y-18640113D01*
X18935934Y-18640113D02*
X18935934Y-18540113D01*
X18935934Y-18568684D02*
X18943077Y-18554399D01*
X18943077Y-18554399D02*
X18950220Y-18547256D01*
X18950220Y-18547256D02*
X18964506Y-18540113D01*
X18964506Y-18540113D02*
X18978791Y-18540113D01*
X19050220Y-18640113D02*
X19035934Y-18632970D01*
X19035934Y-18632970D02*
X19028791Y-18625827D01*
X19028791Y-18625827D02*
X19021649Y-18611541D01*
X19021649Y-18611541D02*
X19021649Y-18568684D01*
X19021649Y-18568684D02*
X19028791Y-18554399D01*
X19028791Y-18554399D02*
X19035934Y-18547256D01*
X19035934Y-18547256D02*
X19050220Y-18540113D01*
X19050220Y-18540113D02*
X19071649Y-18540113D01*
X19071649Y-18540113D02*
X19085934Y-18547256D01*
X19085934Y-18547256D02*
X19093077Y-18554399D01*
X19093077Y-18554399D02*
X19100220Y-18568684D01*
X19100220Y-18568684D02*
X19100220Y-18611541D01*
X19100220Y-18611541D02*
X19093077Y-18625827D01*
X19093077Y-18625827D02*
X19085934Y-18632970D01*
X19085934Y-18632970D02*
X19071649Y-18640113D01*
X19071649Y-18640113D02*
X19050220Y-18640113D01*
X19185934Y-18640113D02*
X19171649Y-18632970D01*
X19171649Y-18632970D02*
X19164506Y-18618684D01*
X19164506Y-18618684D02*
X19164506Y-18490113D01*
X19207363Y-18654399D02*
X19321649Y-18654399D01*
X19407363Y-18561541D02*
X19428791Y-18568684D01*
X19428791Y-18568684D02*
X19435934Y-18575827D01*
X19435934Y-18575827D02*
X19443077Y-18590113D01*
X19443077Y-18590113D02*
X19443077Y-18611541D01*
X19443077Y-18611541D02*
X19435934Y-18625827D01*
X19435934Y-18625827D02*
X19428791Y-18632970D01*
X19428791Y-18632970D02*
X19414506Y-18640113D01*
X19414506Y-18640113D02*
X19357363Y-18640113D01*
X19357363Y-18640113D02*
X19357363Y-18490113D01*
X19357363Y-18490113D02*
X19407363Y-18490113D01*
X19407363Y-18490113D02*
X19421649Y-18497256D01*
X19421649Y-18497256D02*
X19428791Y-18504399D01*
X19428791Y-18504399D02*
X19435934Y-18518684D01*
X19435934Y-18518684D02*
X19435934Y-18532970D01*
X19435934Y-18532970D02*
X19428791Y-18547256D01*
X19428791Y-18547256D02*
X19421649Y-18554399D01*
X19421649Y-18554399D02*
X19407363Y-18561541D01*
X19407363Y-18561541D02*
X19357363Y-18561541D01*
X19528791Y-18640113D02*
X19514506Y-18632970D01*
X19514506Y-18632970D02*
X19507363Y-18625827D01*
X19507363Y-18625827D02*
X19500220Y-18611541D01*
X19500220Y-18611541D02*
X19500220Y-18568684D01*
X19500220Y-18568684D02*
X19507363Y-18554399D01*
X19507363Y-18554399D02*
X19514506Y-18547256D01*
X19514506Y-18547256D02*
X19528791Y-18540113D01*
X19528791Y-18540113D02*
X19550220Y-18540113D01*
X19550220Y-18540113D02*
X19564506Y-18547256D01*
X19564506Y-18547256D02*
X19571649Y-18554399D01*
X19571649Y-18554399D02*
X19578791Y-18568684D01*
X19578791Y-18568684D02*
X19578791Y-18611541D01*
X19578791Y-18611541D02*
X19571649Y-18625827D01*
X19571649Y-18625827D02*
X19564506Y-18632970D01*
X19564506Y-18632970D02*
X19550220Y-18640113D01*
X19550220Y-18640113D02*
X19528791Y-18640113D01*
X19707363Y-18640113D02*
X19707363Y-18561541D01*
X19707363Y-18561541D02*
X19700220Y-18547256D01*
X19700220Y-18547256D02*
X19685934Y-18540113D01*
X19685934Y-18540113D02*
X19657363Y-18540113D01*
X19657363Y-18540113D02*
X19643077Y-18547256D01*
X19707363Y-18632970D02*
X19693077Y-18640113D01*
X19693077Y-18640113D02*
X19657363Y-18640113D01*
X19657363Y-18640113D02*
X19643077Y-18632970D01*
X19643077Y-18632970D02*
X19635934Y-18618684D01*
X19635934Y-18618684D02*
X19635934Y-18604399D01*
X19635934Y-18604399D02*
X19643077Y-18590113D01*
X19643077Y-18590113D02*
X19657363Y-18582970D01*
X19657363Y-18582970D02*
X19693077Y-18582970D01*
X19693077Y-18582970D02*
X19707363Y-18575827D01*
X19778791Y-18640113D02*
X19778791Y-18540113D01*
X19778791Y-18568684D02*
X19785934Y-18554399D01*
X19785934Y-18554399D02*
X19793077Y-18547256D01*
X19793077Y-18547256D02*
X19807363Y-18540113D01*
X19807363Y-18540113D02*
X19821649Y-18540113D01*
X19935934Y-18640113D02*
X19935934Y-18490113D01*
X19935934Y-18632970D02*
X19921648Y-18640113D01*
X19921648Y-18640113D02*
X19893077Y-18640113D01*
X19893077Y-18640113D02*
X19878791Y-18632970D01*
X19878791Y-18632970D02*
X19871648Y-18625827D01*
X19871648Y-18625827D02*
X19864506Y-18611541D01*
X19864506Y-18611541D02*
X19864506Y-18568684D01*
X19864506Y-18568684D02*
X19871648Y-18554399D01*
X19871648Y-18554399D02*
X19878791Y-18547256D01*
X19878791Y-18547256D02*
X19893077Y-18540113D01*
X19893077Y-18540113D02*
X19921648Y-18540113D01*
X19921648Y-18540113D02*
X19935934Y-18547256D01*
X20007363Y-18625827D02*
X20014506Y-18632970D01*
X20014506Y-18632970D02*
X20007363Y-18640113D01*
X20007363Y-18640113D02*
X20000220Y-18632970D01*
X20000220Y-18632970D02*
X20007363Y-18625827D01*
X20007363Y-18625827D02*
X20007363Y-18640113D01*
X20078791Y-18640113D02*
X20078791Y-18490113D01*
X20093077Y-18582970D02*
X20135934Y-18640113D01*
X20135934Y-18540113D02*
X20078791Y-18597256D01*
X20200220Y-18640113D02*
X20200220Y-18540113D01*
X20200220Y-18490113D02*
X20193077Y-18497256D01*
X20193077Y-18497256D02*
X20200220Y-18504399D01*
X20200220Y-18504399D02*
X20207363Y-18497256D01*
X20207363Y-18497256D02*
X20200220Y-18490113D01*
X20200220Y-18490113D02*
X20200220Y-18504399D01*
X20335934Y-18632970D02*
X20321649Y-18640113D01*
X20321649Y-18640113D02*
X20293077Y-18640113D01*
X20293077Y-18640113D02*
X20278791Y-18632970D01*
X20278791Y-18632970D02*
X20271649Y-18625827D01*
X20271649Y-18625827D02*
X20264506Y-18611541D01*
X20264506Y-18611541D02*
X20264506Y-18568684D01*
X20264506Y-18568684D02*
X20271649Y-18554399D01*
X20271649Y-18554399D02*
X20278791Y-18547256D01*
X20278791Y-18547256D02*
X20293077Y-18540113D01*
X20293077Y-18540113D02*
X20321649Y-18540113D01*
X20321649Y-18540113D02*
X20335934Y-18547256D01*
X20464506Y-18640113D02*
X20464506Y-18561541D01*
X20464506Y-18561541D02*
X20457363Y-18547256D01*
X20457363Y-18547256D02*
X20443077Y-18540113D01*
X20443077Y-18540113D02*
X20414506Y-18540113D01*
X20414506Y-18540113D02*
X20400220Y-18547256D01*
X20464506Y-18632970D02*
X20450220Y-18640113D01*
X20450220Y-18640113D02*
X20414506Y-18640113D01*
X20414506Y-18640113D02*
X20400220Y-18632970D01*
X20400220Y-18632970D02*
X20393077Y-18618684D01*
X20393077Y-18618684D02*
X20393077Y-18604399D01*
X20393077Y-18604399D02*
X20400220Y-18590113D01*
X20400220Y-18590113D02*
X20414506Y-18582970D01*
X20414506Y-18582970D02*
X20450220Y-18582970D01*
X20450220Y-18582970D02*
X20464506Y-18575827D01*
X20600220Y-18640113D02*
X20600220Y-18490113D01*
X20600220Y-18632970D02*
X20585934Y-18640113D01*
X20585934Y-18640113D02*
X20557363Y-18640113D01*
X20557363Y-18640113D02*
X20543077Y-18632970D01*
X20543077Y-18632970D02*
X20535934Y-18625827D01*
X20535934Y-18625827D02*
X20528791Y-18611541D01*
X20528791Y-18611541D02*
X20528791Y-18568684D01*
X20528791Y-18568684D02*
X20535934Y-18554399D01*
X20535934Y-18554399D02*
X20543077Y-18547256D01*
X20543077Y-18547256D02*
X20557363Y-18540113D01*
X20557363Y-18540113D02*
X20585934Y-18540113D01*
X20585934Y-18540113D02*
X20600220Y-18547256D01*
X20635934Y-18654399D02*
X20750220Y-18654399D01*
X20785934Y-18540113D02*
X20785934Y-18690113D01*
X20785934Y-18547256D02*
X20800220Y-18540113D01*
X20800220Y-18540113D02*
X20828791Y-18540113D01*
X20828791Y-18540113D02*
X20843077Y-18547256D01*
X20843077Y-18547256D02*
X20850220Y-18554399D01*
X20850220Y-18554399D02*
X20857363Y-18568684D01*
X20857363Y-18568684D02*
X20857363Y-18611541D01*
X20857363Y-18611541D02*
X20850220Y-18625827D01*
X20850220Y-18625827D02*
X20843077Y-18632970D01*
X20843077Y-18632970D02*
X20828791Y-18640113D01*
X20828791Y-18640113D02*
X20800220Y-18640113D01*
X20800220Y-18640113D02*
X20785934Y-18632970D01*
X20985934Y-18632970D02*
X20971649Y-18640113D01*
X20971649Y-18640113D02*
X20943077Y-18640113D01*
X20943077Y-18640113D02*
X20928791Y-18632970D01*
X20928791Y-18632970D02*
X20921649Y-18625827D01*
X20921649Y-18625827D02*
X20914506Y-18611541D01*
X20914506Y-18611541D02*
X20914506Y-18568684D01*
X20914506Y-18568684D02*
X20921649Y-18554399D01*
X20921649Y-18554399D02*
X20928791Y-18547256D01*
X20928791Y-18547256D02*
X20943077Y-18540113D01*
X20943077Y-18540113D02*
X20971649Y-18540113D01*
X20971649Y-18540113D02*
X20985934Y-18547256D01*
X21050220Y-18640113D02*
X21050220Y-18490113D01*
X21050220Y-18547256D02*
X21064506Y-18540113D01*
X21064506Y-18540113D02*
X21093077Y-18540113D01*
X21093077Y-18540113D02*
X21107363Y-18547256D01*
X21107363Y-18547256D02*
X21114506Y-18554399D01*
X21114506Y-18554399D02*
X21121649Y-18568684D01*
X21121649Y-18568684D02*
X21121649Y-18611541D01*
X21121649Y-18611541D02*
X21114506Y-18625827D01*
X21114506Y-18625827D02*
X21107363Y-18632970D01*
X21107363Y-18632970D02*
X21093077Y-18640113D01*
X21093077Y-18640113D02*
X21064506Y-18640113D01*
X21064506Y-18640113D02*
X21050220Y-18632970D01*
D10*
D11*
X17700220Y-18150720D02*
X28500220Y-18150720D01*
D10*
D11*
X17828791Y-18362970D02*
X17850220Y-18370113D01*
X17850220Y-18370113D02*
X17885934Y-18370113D01*
X17885934Y-18370113D02*
X17900220Y-18362970D01*
X17900220Y-18362970D02*
X17907363Y-18355827D01*
X17907363Y-18355827D02*
X17914506Y-18341541D01*
X17914506Y-18341541D02*
X17914506Y-18327256D01*
X17914506Y-18327256D02*
X17907363Y-18312970D01*
X17907363Y-18312970D02*
X17900220Y-18305827D01*
X17900220Y-18305827D02*
X17885934Y-18298684D01*
X17885934Y-18298684D02*
X17857363Y-18291541D01*
X17857363Y-18291541D02*
X17843077Y-18284399D01*
X17843077Y-18284399D02*
X17835934Y-18277256D01*
X17835934Y-18277256D02*
X17828791Y-18262970D01*
X17828791Y-18262970D02*
X17828791Y-18248684D01*
X17828791Y-18248684D02*
X17835934Y-18234399D01*
X17835934Y-18234399D02*
X17843077Y-18227256D01*
X17843077Y-18227256D02*
X17857363Y-18220113D01*
X17857363Y-18220113D02*
X17893077Y-18220113D01*
X17893077Y-18220113D02*
X17914506Y-18227256D01*
X17978791Y-18370113D02*
X17978791Y-18220113D01*
X18043077Y-18370113D02*
X18043077Y-18291541D01*
X18043077Y-18291541D02*
X18035934Y-18277256D01*
X18035934Y-18277256D02*
X18021649Y-18270113D01*
X18021649Y-18270113D02*
X18000220Y-18270113D01*
X18000220Y-18270113D02*
X17985934Y-18277256D01*
X17985934Y-18277256D02*
X17978791Y-18284399D01*
X18171649Y-18362970D02*
X18157363Y-18370113D01*
X18157363Y-18370113D02*
X18128791Y-18370113D01*
X18128791Y-18370113D02*
X18114506Y-18362970D01*
X18114506Y-18362970D02*
X18107363Y-18348684D01*
X18107363Y-18348684D02*
X18107363Y-18291541D01*
X18107363Y-18291541D02*
X18114506Y-18277256D01*
X18114506Y-18277256D02*
X18128791Y-18270113D01*
X18128791Y-18270113D02*
X18157363Y-18270113D01*
X18157363Y-18270113D02*
X18171649Y-18277256D01*
X18171649Y-18277256D02*
X18178791Y-18291541D01*
X18178791Y-18291541D02*
X18178791Y-18305827D01*
X18178791Y-18305827D02*
X18107363Y-18320113D01*
X18300220Y-18362970D02*
X18285934Y-18370113D01*
X18285934Y-18370113D02*
X18257363Y-18370113D01*
X18257363Y-18370113D02*
X18243077Y-18362970D01*
X18243077Y-18362970D02*
X18235934Y-18348684D01*
X18235934Y-18348684D02*
X18235934Y-18291541D01*
X18235934Y-18291541D02*
X18243077Y-18277256D01*
X18243077Y-18277256D02*
X18257363Y-18270113D01*
X18257363Y-18270113D02*
X18285934Y-18270113D01*
X18285934Y-18270113D02*
X18300220Y-18277256D01*
X18300220Y-18277256D02*
X18307363Y-18291541D01*
X18307363Y-18291541D02*
X18307363Y-18305827D01*
X18307363Y-18305827D02*
X18235934Y-18320113D01*
X18350220Y-18270113D02*
X18407363Y-18270113D01*
X18371648Y-18220113D02*
X18371648Y-18348684D01*
X18371648Y-18348684D02*
X18378791Y-18362970D01*
X18378791Y-18362970D02*
X18393077Y-18370113D01*
X18393077Y-18370113D02*
X18407363Y-18370113D01*
X18457363Y-18355827D02*
X18464506Y-18362970D01*
X18464506Y-18362970D02*
X18457363Y-18370113D01*
X18457363Y-18370113D02*
X18450220Y-18362970D01*
X18450220Y-18362970D02*
X18457363Y-18355827D01*
X18457363Y-18355827D02*
X18457363Y-18370113D01*
X18457363Y-18277256D02*
X18464506Y-18284399D01*
X18464506Y-18284399D02*
X18457363Y-18291541D01*
X18457363Y-18291541D02*
X18450220Y-18284399D01*
X18450220Y-18284399D02*
X18457363Y-18277256D01*
X18457363Y-18277256D02*
X18457363Y-18291541D01*
D10*
D12*
D10*
D11*
D10*
D11*
D10*
D11*
D10*
D11*
D10*
D11*
X19700220Y-19150720D02*
X19700220Y-19450720D01*
D10*
D11*
X26100220Y-19150720D02*
X26100220Y-19800720D01*
D14*
%TO.P,U2,1,OFLT_C*%
%TO.N,Net-(U2-OFLT_C)*%
X16118968Y-10315000D03*
D15*
%TO.P,U2,2,LP_FLT_C*%
%TO.N,Net-(U2-LP_FLT_C)*%
X16118968Y-10569000D03*
%TO.P,U2,3,INPUT*%
%TO.N,Net-(U2-INPUT)*%
X16118968Y-10823000D03*
%TO.P,U2,4,VCC*%
%TO.N,+5V*%
X16118968Y-11077000D03*
%TO.P,U2,5,TIM_R*%
%TO.N,Net-(U2-TIM_R)*%
X16880968Y-11077000D03*
%TO.P,U2,6,TIM_RC*%
%TO.N,Net-(U2-TIM_RC)*%
X16880968Y-10823000D03*
%TO.P,U2,7,GND*%
%TO.N,GND*%
X16880968Y-10569000D03*
%TO.P,U2,8,OUTPUT*%
%TO.N,DECODER*%
X16880968Y-10315000D03*
%TD*%
D14*
%TO.P,U3,1,~{CS}*%
%TO.N,A2_CS*%
X16121468Y-9177000D03*
D15*
%TO.P,U3,2,SCK*%
%TO.N,A2_SCL*%
X16121468Y-9431000D03*
%TO.P,U3,3,SI*%
%TO.N,A2_SI*%
X16121468Y-9685000D03*
%TO.P,U3,4,VSS*%
%TO.N,GND*%
X16121468Y-9939000D03*
%TO.P,U3,5,PA0*%
%TO.N,Net-(U2-TIM_R)*%
X16883468Y-9939000D03*
%TO.P,U3,6,PW0*%
%TO.N,Net-(U2-TIM_RC)*%
X16883468Y-9685000D03*
%TO.P,U3,7,PB0*%
X16883468Y-9431000D03*
%TO.P,U3,8,VDD*%
%TO.N,+5V*%
X16883468Y-9177000D03*
%TD*%
D16*
%TO.P,D3,1,K*%
%TO.N,DECODER*%
X17330000Y-8279000D03*
D17*
%TO.P,D3,2,A*%
%TO.N,Net-(D3-A)*%
X17330000Y-8533000D03*
%TD*%
D18*
%TO.P,J12,1,Pin_1*%
%TO.N,Sleep*%
X11795000Y-9457500D03*
D19*
%TO.P,J12,2,Pin_2*%
%TO.N,Mute*%
X12049000Y-9457500D03*
%TO.P,J12,3,Pin_3*%
%TO.N,Wp*%
X12303000Y-9457500D03*
%TO.P,J12,4,Pin_4*%
%TO.N,I2C-SW*%
X12557000Y-9457500D03*
%TO.P,J12,5,Pin_5*%
%TO.N,A_SDA*%
X12811000Y-9457500D03*
%TO.P,J12,6,Pin_6*%
%TO.N,A_SCL*%
X13065000Y-9457500D03*
%TO.P,J12,7,Pin_7*%
%TO.N,A_SEN*%
X13319000Y-9457500D03*
%TO.P,J12,8,Pin_8*%
%TO.N,A_RST*%
X13573000Y-9457500D03*
%TO.P,J12,9,Pin_9*%
%TO.N,GND*%
X13827000Y-9457500D03*
%TO.P,J12,10,Pin_10*%
%TO.N,+3V3*%
X14081000Y-9457500D03*
%TO.P,J12,11,Pin_11*%
%TO.N,+5V*%
X14335000Y-9457500D03*
%TO.P,J12,12,Pin_12*%
%TO.N,12V*%
X14589000Y-9457500D03*
%TD*%
D18*
%TO.P,J1,1,Pin_1*%
%TO.N,SSD1309_CS*%
X9938468Y-9239500D03*
D19*
%TO.P,J1,2,Pin_2*%
%TO.N,SSD1309_DC*%
X9938468Y-9493500D03*
%TO.P,J1,3,Pin_3*%
%TO.N,SSD1309_RST*%
X9938468Y-9747500D03*
%TO.P,J1,4,Pin_4*%
%TO.N,SSD1309_SDA*%
X9938468Y-10001500D03*
%TO.P,J1,5,Pin_5*%
%TO.N,SSD1309_SCL*%
X9938468Y-10255500D03*
%TO.P,J1,6,Pin_6*%
%TO.N,VCC_5V*%
X9938468Y-10509500D03*
%TO.P,J1,7,Pin_7*%
%TO.N,GND*%
X9938468Y-10763500D03*
%TD*%
D20*
%TO.P,J3,1,Pin_1*%
%TO.N,Net-(J3-Pin_1)*%
X10667500Y-9365000D03*
D21*
%TO.P,J3,2,Pin_2*%
%TO.N,GND*%
X10667500Y-9238000D03*
%TD*%
D22*
%TO.P,U1,3V3_1,3V3*%
%TO.N,3.3V*%
X14731468Y-8374000D03*
%TO.P,U1,3V3_2,3V3*%
X14731468Y-8628000D03*
%TO.P,U1,5V_1,5V*%
%TO.N,VCC_5V*%
X14985468Y-8374000D03*
%TO.P,U1,5V_2,5V*%
X14985468Y-8628000D03*
%TO.P,U1,5V_3,5V*%
X10413468Y-10152000D03*
%TO.P,U1,A0,A0*%
%TO.N,A0*%
X14223468Y-11930000D03*
%TO.P,U1,A1,A1*%
%TO.N,unconnected-(U1-PadA1)*%
X14223468Y-11676000D03*
%TO.P,U1,A2,A2*%
%TO.N,unconnected-(U1-PadA2)*%
X13969468Y-11930000D03*
%TO.P,U1,A3,A3*%
%TO.N,unconnected-(U1-PadA3)*%
X13969468Y-11676000D03*
%TO.P,U1,A4,A4*%
%TO.N,unconnected-(U1-PadA4)*%
X13715468Y-11930000D03*
%TO.P,U1,A5,A5*%
%TO.N,unconnected-(U1-PadA5)*%
X13715468Y-11676000D03*
%TO.P,U1,A6,A6*%
%TO.N,unconnected-(U1-PadA6)*%
X13461468Y-11930000D03*
%TO.P,U1,A7,A7*%
%TO.N,unconnected-(U1-PadA7)*%
X13461468Y-11676000D03*
%TO.P,U1,A8,A8*%
%TO.N,unconnected-(U1-PadA8)*%
X13207468Y-11930000D03*
%TO.P,U1,A9,A9*%
%TO.N,unconnected-(U1-PadA9)*%
X13207468Y-11676000D03*
%TO.P,U1,A10,A10*%
%TO.N,unconnected-(U1-PadA10)*%
X12953468Y-11930000D03*
%TO.P,U1,A11,A11*%
%TO.N,unconnected-(U1-PadA11)*%
X12953468Y-11676000D03*
%TO.P,U1,A12,A12*%
%TO.N,unconnected-(U1-PadA12)*%
X12699468Y-11930000D03*
%TO.P,U1,A13,A13*%
%TO.N,unconnected-(U1-PadA13)*%
X12699468Y-11676000D03*
%TO.P,U1,A14,A14*%
%TO.N,unconnected-(U1-PadA14)*%
X12445468Y-11930000D03*
%TO.P,U1,A15,A15*%
%TO.N,unconnected-(U1-PadA15)*%
X12445468Y-11676000D03*
%TO.P,U1,AREF,AREF*%
%TO.N,unconnected-(U1-PadAREF)*%
X14477468Y-8628000D03*
%TO.P,U1,D2,D2*%
%TO.N,DECODER*%
X13969468Y-8628000D03*
%TO.P,U1,D3,D3*%
%TO.N,ENC_P*%
X13969468Y-8374000D03*
%TO.P,U1,D4,D4*%
%TO.N,D4*%
X13715468Y-8628000D03*
%TO.P,U1,D5,D5*%
%TO.N,D5*%
X13715468Y-8374000D03*
%TO.P,U1,D6,D6*%
%TO.N,D6*%
X13461468Y-8628000D03*
%TO.P,U1,D7,D7*%
%TO.N,D7*%
X13461468Y-8374000D03*
%TO.P,U1,D8,D8*%
%TO.N,D8*%
X13207468Y-8628000D03*
%TO.P,U1,D9,D9*%
%TO.N,D9*%
X13207468Y-8374000D03*
%TO.P,U1,D10,D10*%
%TO.N,D10*%
X12953468Y-8628000D03*
%TO.P,U1,D11,D11*%
%TO.N,D11*%
X12953468Y-8374000D03*
%TO.P,U1,D12,D12*%
%TO.N,D12*%
X12699468Y-8628000D03*
%TO.P,U1,D13,D13*%
%TO.N,D13*%
X12699468Y-8374000D03*
%TO.P,U1,D14,D14*%
%TO.N,D14*%
X12445468Y-8628000D03*
%TO.P,U1,D15,D15*%
%TO.N,D15*%
X12445468Y-8374000D03*
%TO.P,U1,D16,D16*%
%TO.N,unconnected-(U1-PadD16)*%
X12191468Y-8628000D03*
%TO.P,U1,D17,D17*%
%TO.N,unconnected-(U1-PadD17)*%
X12191468Y-8374000D03*
%TO.P,U1,D18,D18*%
%TO.N,ENC_A*%
X11937468Y-8628000D03*
%TO.P,U1,D19,D19*%
%TO.N,ENC_B*%
X11937468Y-8374000D03*
%TO.P,U1,D20,D20*%
%TO.N,A_SDA*%
X11683468Y-8628000D03*
%TO.P,U1,D21,D21*%
%TO.N,A_SCL*%
X11683468Y-8374000D03*
%TO.P,U1,D22,D22*%
%TO.N,A_RST*%
X11429468Y-8628000D03*
%TO.P,U1,D23,D23*%
%TO.N,A_SEN*%
X11429468Y-8374000D03*
%TO.P,U1,D24,D24*%
%TO.N,A2_CS*%
X11175468Y-8628000D03*
%TO.P,U1,D25,D25*%
%TO.N,A2_SCL*%
X11175468Y-8374000D03*
%TO.P,U1,D26,D26*%
%TO.N,unconnected-(U1-PadD26)*%
X10921468Y-8628000D03*
%TO.P,U1,D27,D27*%
%TO.N,A2_SI*%
X10921468Y-8374000D03*
%TO.P,U1,D28,D28*%
%TO.N,I2C-SW*%
X10667468Y-8628000D03*
%TO.P,U1,D29,D29*%
%TO.N,Wp*%
X10667468Y-8374000D03*
%TO.P,U1,D30,D30*%
%TO.N,Sleep*%
X10413468Y-8628000D03*
%TO.P,U1,D31,D31*%
%TO.N,Mute*%
X10413468Y-8374000D03*
%TO.P,U1,D32,D32*%
%TO.N,unconnected-(U1-PadD32)*%
X12191468Y-11930000D03*
%TO.P,U1,D33,D33*%
%TO.N,D33*%
X12191468Y-11676000D03*
%TO.P,U1,D34,D34*%
%TO.N,D34*%
X11937468Y-11930000D03*
%TO.P,U1,D35,D35*%
%TO.N,D35*%
X11937468Y-11676000D03*
%TO.P,U1,D36,D36*%
%TO.N,D36*%
X11683468Y-11930000D03*
%TO.P,U1,D37,D37*%
%TO.N,D37*%
X11683468Y-11676000D03*
%TO.P,U1,D38,D38*%
%TO.N,D38*%
X11429468Y-11930000D03*
%TO.P,U1,D39,D39*%
%TO.N,D39*%
X11429468Y-11676000D03*
%TO.P,U1,D40,D40*%
%TO.N,D40*%
X11175468Y-11930000D03*
%TO.P,U1,D41,D41*%
%TO.N,D41*%
X11175468Y-11676000D03*
%TO.P,U1,D42,D42*%
%TO.N,D42*%
X10921468Y-11930000D03*
%TO.P,U1,D43,D43*%
%TO.N,D43*%
X10921468Y-11676000D03*
%TO.P,U1,D44,D44*%
%TO.N,D44*%
X10667468Y-11930000D03*
%TO.P,U1,D45,D45*%
%TO.N,unconnected-(U1-PadD45)*%
X10667468Y-11676000D03*
%TO.P,U1,D46,D46*%
%TO.N,SSD1309_DC*%
X10413468Y-11930000D03*
%TO.P,U1,D47,D47*%
%TO.N,unconnected-(U1-PadD47)*%
X10413468Y-11676000D03*
%TO.P,U1,D48,D48*%
%TO.N,SSD1309_RST*%
X10413468Y-11422000D03*
%TO.P,U1,D49,D49*%
%TO.N,unconnected-(U1-PadD49)*%
X10667468Y-11422000D03*
%TO.P,U1,D50,D50*%
%TO.N,unconnected-(U1-PadD50)*%
X10413468Y-11168000D03*
%TO.P,U1,D51,D51*%
%TO.N,SSD1309_SDA*%
X10667468Y-11168000D03*
%TO.P,U1,D52,D52*%
%TO.N,SSD1309_SCL*%
X10413468Y-10914000D03*
%TO.P,U1,D53,D53*%
%TO.N,SSD1309_CS*%
X10667468Y-10914000D03*
%TO.P,U1,GND_1,GND*%
%TO.N,GND*%
X15239468Y-8374000D03*
%TO.P,U1,GND_2,GND*%
X15239468Y-8628000D03*
%TO.P,U1,GND_3,GND*%
X10413468Y-9644000D03*
%TO.P,U1,MISO,MISO*%
%TO.N,unconnected-(U1-PadMISO)*%
X10667468Y-10152000D03*
%TO.P,U1,MOSI,MOSI*%
%TO.N,unconnected-(U1-PadMOSI)*%
X10413468Y-9898000D03*
%TO.P,U1,RESET,RESET*%
%TO.N,Net-(J3-Pin_1)*%
X10667468Y-9644000D03*
%TO.P,U1,RST,RST*%
%TO.N,unconnected-(U1-PadRST)*%
X14477468Y-8374000D03*
%TO.P,U1,RX,RX*%
%TO.N,unconnected-(U1-PadRX)*%
X14223468Y-8628000D03*
%TO.P,U1,SCK,SCK*%
%TO.N,unconnected-(U1-PadSCK)*%
X10667468Y-9898000D03*
%TO.P,U1,TX,TX*%
%TO.N,unconnected-(U1-PadTX)*%
X14223468Y-8374000D03*
%TO.P,U1,VIN_1,VIN*%
%TO.N,12V*%
X15493468Y-8374000D03*
%TO.P,U1,VIN_2,VIN*%
X15493468Y-8628000D03*
%TD*%
D23*
%TO.P,R1,1*%
%TO.N,12V*%
X14846468Y-11642000D03*
%TO.P,R1,2*%
%TO.N,A0*%
X14846468Y-11934500D03*
%TD*%
D24*
%TO.P,D2,1,K*%
%TO.N,+5V*%
X14387500Y-9150000D03*
%TO.P,D2,2,A*%
%TO.N,VCC_5V*%
X14667500Y-9150000D03*
%TD*%
D18*
%TO.P,J6,1,Pin_1*%
%TO.N,VCC_5V*%
X10198468Y-7709500D03*
D19*
%TO.P,J6,2,Pin_2*%
%TO.N,ENC_A*%
X10452468Y-7709500D03*
%TO.P,J6,3,Pin_3*%
%TO.N,ENC_B*%
X10706468Y-7709500D03*
%TO.P,J6,4,Pin_4*%
%TO.N,ENC_P*%
X10960468Y-7709500D03*
%TO.P,J6,5,Pin_5*%
%TO.N,GND*%
X11214468Y-7709500D03*
%TD*%
D18*
%TO.P,SW1,1,A*%
%TO.N,Net-(J9-Pin_1)*%
X16686968Y-7669500D03*
D19*
%TO.P,SW1,2,B*%
%TO.N,12V*%
X16940968Y-7669500D03*
%TD*%
D18*
%TO.P,J7,1,Pin_1*%
%TO.N,Net-(J7-Pin_1)*%
X16055500Y-12440000D03*
D19*
%TO.P,J7,2,Pin_2*%
%TO.N,GND*%
X15801500Y-12440000D03*
%TO.P,J7,3,Pin_3*%
%TO.N,Net-(J7-Pin_3)*%
X15547500Y-12440000D03*
%TD*%
D18*
%TO.P,J2,1,Pin_1*%
%TO.N,D44*%
X10207500Y-12450000D03*
D19*
%TO.P,J2,2,Pin_2*%
%TO.N,D43*%
X10461500Y-12450000D03*
%TO.P,J2,3,Pin_3*%
%TO.N,D42*%
X10715500Y-12450000D03*
%TO.P,J2,4,Pin_4*%
%TO.N,D41*%
X10969500Y-12450000D03*
%TO.P,J2,5,Pin_5*%
%TO.N,D40*%
X11223500Y-12450000D03*
%TO.P,J2,6,Pin_6*%
%TO.N,D39*%
X11477500Y-12450000D03*
%TO.P,J2,7,Pin_7*%
%TO.N,D38*%
X11731500Y-12450000D03*
%TO.P,J2,8,Pin_8*%
%TO.N,D37*%
X11985500Y-12450000D03*
%TO.P,J2,9,Pin_9*%
%TO.N,D36*%
X12239500Y-12450000D03*
%TO.P,J2,10,Pin_10*%
%TO.N,D35*%
X12493500Y-12450000D03*
%TO.P,J2,11,Pin_11*%
%TO.N,D34*%
X12747500Y-12450000D03*
%TO.P,J2,12,Pin_12*%
%TO.N,D33*%
X13001500Y-12450000D03*
%TO.P,J2,13,Pin_13*%
%TO.N,GND*%
X13255500Y-12450000D03*
%TO.P,J2,14,Pin_14*%
%TO.N,VCC_5V*%
X13509500Y-12450000D03*
%TD*%
D18*
%TO.P,J9,1,Pin_1*%
%TO.N,Net-(J9-Pin_1)*%
X16329968Y-7667000D03*
D19*
%TO.P,J9,2,Pin_2*%
%TO.N,GND*%
X16075968Y-7667000D03*
%TD*%
D25*
%TO.P,R2,1*%
%TO.N,A0*%
X14628968Y-11929500D03*
%TO.P,R2,2*%
%TO.N,GND*%
X14628968Y-11637000D03*
%TD*%
D18*
%TO.P,J4,1,Pin_1*%
%TO.N,D14*%
X11685000Y-7695000D03*
D19*
%TO.P,J4,2,Pin_2*%
%TO.N,D15*%
X11939000Y-7695000D03*
%TO.P,J4,3,Pin_3*%
%TO.N,D12*%
X12193000Y-7695000D03*
%TO.P,J4,4,Pin_4*%
%TO.N,D13*%
X12447000Y-7695000D03*
%TO.P,J4,5,Pin_5*%
%TO.N,D10*%
X12701000Y-7695000D03*
%TO.P,J4,6,Pin_6*%
%TO.N,D11*%
X12955000Y-7695000D03*
%TO.P,J4,7,Pin_7*%
%TO.N,D8*%
X13209000Y-7695000D03*
%TO.P,J4,8,Pin_8*%
%TO.N,D9*%
X13463000Y-7695000D03*
%TO.P,J4,9,Pin_9*%
%TO.N,D6*%
X13717000Y-7695000D03*
%TO.P,J4,10,Pin_10*%
%TO.N,D7*%
X13971000Y-7695000D03*
%TO.P,J4,11,Pin_11*%
%TO.N,D4*%
X14225000Y-7695000D03*
%TO.P,J4,12,Pin_12*%
%TO.N,D5*%
X14479000Y-7695000D03*
%TO.P,J4,13,Pin_13*%
%TO.N,GND*%
X14733000Y-7695000D03*
%TO.P,J4,14,Pin_14*%
%TO.N,VCC_5V*%
X14987000Y-7695000D03*
%TD*%
D18*
%TO.P,J10,1,Pin_1*%
%TO.N,12V*%
X15492468Y-7667500D03*
D19*
%TO.P,J10,2,Pin_2*%
%TO.N,GND*%
X15746468Y-7667500D03*
%TD*%
D24*
%TO.P,D1,1,K*%
%TO.N,+3V3*%
X14388468Y-8917000D03*
%TO.P,D1,2,A*%
%TO.N,3.3V*%
X14668468Y-8917000D03*
%TD*%
D26*
%TO.N,GND*%
X14885000Y-9712500D03*
X11237500Y-10237500D03*
X11262500Y-11102500D03*
X13150000Y-8937500D03*
X12810000Y-9717500D03*
X16035000Y-8755000D03*
X11845000Y-8932500D03*
X11210000Y-7915000D03*
X12452500Y-8937500D03*
%TO.N,I2C-SW*%
X12560968Y-9704000D03*
%TO.N,A_SDA*%
X12815468Y-9086500D03*
%TO.N,A_SCL*%
X13068968Y-9160500D03*
%TO.N,A_SEN*%
X13324802Y-9225116D03*
%TO.N,A_RST*%
X13575468Y-9221500D03*
%TO.N,Mute*%
X12050968Y-9846500D03*
%TO.N,Sleep*%
X11802968Y-9774000D03*
%TO.N,A2_SI*%
X11225000Y-10007500D03*
X11225000Y-10007500D03*
%TO.N,Wp*%
X12305968Y-9691500D03*
%TO.N,A2_SCL*%
X11221250Y-9866250D03*
%TO.N,A2_CS*%
X11225000Y-9717500D03*
%TD*%
D27*
%TO.N,GND*%
X15239468Y-8374000D02*
X15239468Y-8628000D01*
X13830468Y-9373500D02*
X13830468Y-9658500D01*
D28*
X15801500Y-12425032D02*
X15805968Y-12429500D01*
D29*
X14542500Y-11460000D02*
X14542500Y-11733797D01*
D27*
X15239468Y-8143000D02*
X15138468Y-8042000D01*
D28*
X16073718Y-7906750D02*
X15736000Y-7906750D01*
D30*
X10437000Y-9238000D02*
X10413468Y-9261532D01*
D27*
X14753468Y-8042000D02*
X14731468Y-8020000D01*
D29*
X14622500Y-11727766D02*
X14628968Y-11721297D01*
D28*
X15807500Y-12301968D02*
X15807500Y-12593032D01*
D29*
X14628968Y-11721297D02*
X14628968Y-11488702D01*
D27*
X13830468Y-9471500D02*
X13830468Y-9373500D01*
D28*
X16075468Y-7667500D02*
X16075968Y-7667000D01*
D27*
X10414000Y-9467000D02*
X10414000Y-9652000D01*
X13830468Y-9373500D02*
X13833468Y-9370500D01*
D29*
X10102000Y-10737500D02*
X9728000Y-10737500D01*
D31*
X16121468Y-9939000D02*
X15943000Y-9939000D01*
D28*
X15956000Y-7669250D02*
X15956000Y-7906750D01*
D32*
X10667500Y-9238000D02*
X10437000Y-9238000D01*
D28*
X16075968Y-7904500D02*
X16073718Y-7906750D01*
X11370000Y-7870750D02*
X11370000Y-7714250D01*
X15736000Y-7669250D02*
X15736000Y-7906750D01*
D29*
X14545000Y-11462500D02*
X14542500Y-11460000D01*
X10104000Y-10867500D02*
X9730000Y-10867500D01*
X10482500Y-9192500D02*
X10437000Y-9238000D01*
D31*
X16880968Y-10569000D02*
X16729000Y-10569000D01*
D29*
X14642500Y-11736297D02*
X14642500Y-11503702D01*
D27*
X13833468Y-9370500D02*
X13833468Y-9257000D01*
D28*
X11368250Y-7707500D02*
X11211750Y-7707500D01*
D29*
X14646297Y-11462500D02*
X14545000Y-11462500D01*
D31*
X17066000Y-10569000D02*
X17075000Y-10578000D01*
D29*
X10757500Y-9192500D02*
X10482500Y-9192500D01*
D31*
X16121468Y-9939000D02*
X16244000Y-9939000D01*
X17066000Y-10569000D02*
X16880968Y-10569000D01*
D28*
X11310000Y-7863250D02*
X11310000Y-7706750D01*
D29*
X13830468Y-9658500D02*
X13830468Y-9471500D01*
D28*
X13200000Y-12330000D02*
X13200000Y-12567500D01*
D33*
X15746968Y-7667000D02*
X15746468Y-7667500D01*
D29*
X10413468Y-9261532D02*
X10413468Y-9644000D01*
D31*
X16244000Y-9939000D02*
X16248000Y-9943000D01*
D27*
X14731468Y-8020000D02*
X14731468Y-7683000D01*
D28*
X16075968Y-7667000D02*
X16075968Y-7904500D01*
D27*
X15138468Y-8042000D02*
X14753468Y-8042000D01*
D30*
X14731468Y-7683000D02*
X14731468Y-7880000D01*
D28*
X13250968Y-12324500D02*
X13250968Y-12562000D01*
X13317500Y-12332500D02*
X13317500Y-12570000D01*
X15746468Y-7667500D02*
X16075468Y-7667500D01*
D29*
X14643149Y-11767500D02*
X14541851Y-11767500D01*
D28*
X11368250Y-7882500D02*
X11211750Y-7882500D01*
D27*
X15239468Y-8374000D02*
X15239468Y-8143000D01*
D28*
X11214468Y-7866000D02*
X11214468Y-7709500D01*
D30*
X14731468Y-7880000D02*
X14730468Y-7881000D01*
D32*
X10780250Y-9242500D02*
X10549750Y-9242500D01*
D29*
X10099500Y-10805000D02*
X9725500Y-10805000D01*
D28*
X15833000Y-7668500D02*
X15833000Y-7906000D01*
X11210968Y-7869500D02*
X11214468Y-7866000D01*
D30*
X16102968Y-7667500D02*
X16112468Y-7677000D01*
X10470968Y-9417000D02*
X10413468Y-9474500D01*
D29*
%TO.N,+5V*%
X14328468Y-9204500D02*
X14328468Y-9470000D01*
X16295968Y-11077000D02*
X16480968Y-10892000D01*
X16883468Y-9177000D02*
X16728468Y-9177000D01*
X16728468Y-9177000D02*
X16480968Y-9424500D01*
X16480968Y-10892000D02*
X16480968Y-9424500D01*
X16118968Y-11077000D02*
X16295968Y-11077000D01*
X14383468Y-9149500D02*
X14328468Y-9204500D01*
D30*
%TO.N,ENC_P*%
X13870968Y-8017000D02*
X13969468Y-8115500D01*
D28*
X10958468Y-7734500D02*
X10958468Y-7775500D01*
D30*
X10960468Y-7709500D02*
X10960468Y-8001500D01*
X13969468Y-8115500D02*
X13969468Y-8374000D01*
D29*
X13969468Y-8252000D02*
X13969468Y-8374000D01*
D30*
X10975968Y-8017000D02*
X13870968Y-8017000D01*
X10960468Y-8001500D02*
X10975968Y-8017000D01*
%TO.N,D33*%
X12077648Y-12074500D02*
X12077648Y-11789820D01*
D28*
X13000968Y-12439500D02*
X13000968Y-12398500D01*
X12190968Y-11687000D02*
X12171968Y-11706000D01*
X12190968Y-11681000D02*
X12190968Y-11687000D01*
D30*
X12999968Y-12286000D02*
X12788468Y-12074500D01*
X12788468Y-12074500D02*
X12077648Y-12074500D01*
X12999968Y-12452000D02*
X12999968Y-12286000D01*
X12077648Y-11789820D02*
X12191468Y-11676000D01*
%TO.N,I2C-SW*%
X12560968Y-9526500D02*
X12560968Y-9422000D01*
D27*
X12560468Y-9526000D02*
X12560968Y-9526500D01*
D30*
X12560968Y-9704000D02*
X12560968Y-9526500D01*
D27*
X12560468Y-9471500D02*
X12560468Y-9526000D01*
%TO.N,A_SDA*%
X12814468Y-9471500D02*
X12815468Y-9470500D01*
D30*
X12819968Y-9478500D02*
X12820468Y-9478000D01*
D27*
X12815468Y-9470500D02*
X12815468Y-9422000D01*
D30*
X12815468Y-9422000D02*
X12815468Y-9086500D01*
D27*
%TO.N,A_SCL*%
X13068468Y-9471500D02*
X13068468Y-9416500D01*
D30*
X13068468Y-9161000D02*
X13068468Y-9416500D01*
X13068968Y-9160500D02*
X13068468Y-9161000D01*
D27*
%TO.N,A_SEN*%
X13322468Y-9471500D02*
X13322968Y-9471000D01*
D30*
X13322968Y-9226950D02*
X13322968Y-9406000D01*
X13322968Y-9406000D02*
X13322968Y-9424500D01*
D27*
X13322968Y-9471000D02*
X13322968Y-9406000D01*
D30*
X13324802Y-9225116D02*
X13322968Y-9226950D01*
D27*
%TO.N,A_RST*%
X13576468Y-9471500D02*
X13575468Y-9470500D01*
X13575468Y-9470500D02*
X13575468Y-9413500D01*
D30*
X13576968Y-9472000D02*
X13575468Y-9470500D01*
X13575468Y-9413500D02*
X13575468Y-9221500D01*
%TO.N,Mute*%
X12050968Y-9846500D02*
X12052468Y-9845000D01*
X12052468Y-9845000D02*
X12052468Y-9543000D01*
D27*
X12052468Y-9471500D02*
X12052468Y-9543000D01*
%TO.N,Sleep*%
X11798468Y-9471500D02*
X11798468Y-9546500D01*
D30*
X11798968Y-9490000D02*
X11803468Y-9494500D01*
X11798468Y-9769500D02*
X11798468Y-9546500D01*
X11802968Y-9774000D02*
X11803968Y-9775000D01*
X11802968Y-9774000D02*
X11798468Y-9769500D01*
%TO.N,A2_SI*%
X10921468Y-8374000D02*
X10805000Y-8490468D01*
X10805000Y-8490468D02*
X10805000Y-8855000D01*
X10805000Y-8855000D02*
X11100000Y-9150000D01*
D29*
X10861500Y-8428500D02*
X10927500Y-8362500D01*
D30*
X11100000Y-9882500D02*
X11222500Y-10005000D01*
X11100000Y-9150000D02*
X11100000Y-9882500D01*
X11222500Y-10005000D02*
X11225000Y-10005000D01*
D33*
%TO.N,DECODER*%
X17072968Y-10315000D02*
X17250968Y-10137000D01*
D30*
X13969468Y-8705000D02*
X13965968Y-8708500D01*
D33*
X16880968Y-10315000D02*
X17072968Y-10315000D01*
X17520000Y-8650000D02*
X17520000Y-8367500D01*
X17431500Y-8279000D02*
X17330000Y-8279000D01*
X17250968Y-8919032D02*
X17520000Y-8650000D01*
X17250968Y-10137000D02*
X17250968Y-8919032D01*
D29*
X16939250Y-10313000D02*
X16880000Y-10313000D01*
D33*
X17520000Y-8367500D02*
X17431500Y-8279000D01*
%TO.N,A0*%
X14223468Y-11930000D02*
X14628468Y-11930000D01*
D29*
X14841968Y-11930000D02*
X14846468Y-11934500D01*
D33*
X14841468Y-11929500D02*
X14846468Y-11934500D01*
X14628468Y-11930000D02*
X14628968Y-11929500D01*
D29*
X14223468Y-11930000D02*
X14841968Y-11930000D01*
D33*
X14628968Y-11929500D02*
X14841468Y-11929500D01*
D30*
%TO.N,D34*%
X12588468Y-12127000D02*
X12000968Y-12127000D01*
D28*
X12745968Y-12397000D02*
X12745968Y-12438000D01*
D30*
X12745968Y-12452000D02*
X12745968Y-12284500D01*
X12745968Y-12284500D02*
X12588468Y-12127000D01*
X11937468Y-12063500D02*
X11937468Y-11930000D01*
D28*
X11938468Y-11936000D02*
X11938468Y-11977000D01*
D30*
X12000968Y-12127000D02*
X11937468Y-12063500D01*
%TO.N,D35*%
X12490968Y-12451000D02*
X12490968Y-12252000D01*
X11810968Y-12027000D02*
X11810968Y-11802500D01*
X12491968Y-12452000D02*
X12490968Y-12451000D01*
X11810968Y-11802500D02*
X11937468Y-11676000D01*
D28*
X11935968Y-11692000D02*
X11916968Y-11711000D01*
X12493468Y-12437000D02*
X12493468Y-12396000D01*
D30*
X11958468Y-12174500D02*
X11810968Y-12027000D01*
X12413468Y-12174500D02*
X11958468Y-12174500D01*
X12490968Y-12252000D02*
X12413468Y-12174500D01*
D28*
X11935968Y-11686000D02*
X11935968Y-11692000D01*
%TO.N,D36*%
X11683468Y-11931000D02*
X11683468Y-11972000D01*
X12240968Y-12437000D02*
X12240968Y-12396000D01*
D30*
X12205968Y-12219500D02*
X11855968Y-12219500D01*
X12237968Y-12251500D02*
X12205968Y-12219500D01*
X12237968Y-12452000D02*
X12237968Y-12251500D01*
X11683468Y-12047000D02*
X11683468Y-11930000D01*
X11855968Y-12219500D02*
X11683468Y-12047000D01*
%TO.N,D37*%
X11983968Y-12321250D02*
X11983968Y-12452000D01*
D28*
X11670968Y-11691000D02*
X11670968Y-11697000D01*
D30*
X11683468Y-11676000D02*
X11563468Y-11796000D01*
D28*
X11980968Y-12399500D02*
X11980968Y-12440500D01*
D30*
X11800968Y-12274500D02*
X11937218Y-12274500D01*
D28*
X11683468Y-11676000D02*
X11682468Y-11677000D01*
X11670968Y-11697000D02*
X11651968Y-11716000D01*
D30*
X11937218Y-12274500D02*
X11983968Y-12321250D01*
X11563468Y-12037000D02*
X11800968Y-12274500D01*
X11563468Y-11796000D02*
X11563468Y-12037000D01*
%TO.N,D38*%
X11729968Y-12452000D02*
X11728468Y-12450500D01*
X11550968Y-12127000D02*
X11478468Y-12127000D01*
D28*
X11730968Y-12402000D02*
X11730968Y-12443000D01*
D30*
X11478468Y-12127000D02*
X11429468Y-12078000D01*
D28*
X11428468Y-11980500D02*
X11428468Y-11939500D01*
D30*
X11728468Y-12304500D02*
X11550968Y-12127000D01*
X11429468Y-12078000D02*
X11429468Y-11930000D01*
X11728468Y-12450500D02*
X11728468Y-12304500D01*
D34*
%TO.N,Net-(J3-Pin_1)*%
X10667468Y-9365032D02*
X10667500Y-9365000D01*
D30*
X10667500Y-9643968D02*
X10667468Y-9644000D01*
D34*
X10667468Y-9644000D02*
X10667468Y-9365032D01*
D30*
X10667500Y-9365000D02*
X10667500Y-9394500D01*
X10667500Y-9394500D02*
X10669000Y-9396000D01*
D29*
%TO.N,3.3V*%
X14731468Y-8374000D02*
X14731468Y-8628000D01*
X14731468Y-8628000D02*
X14731468Y-8854000D01*
X14731468Y-8854000D02*
X14668468Y-8917000D01*
%TO.N,12V*%
X15492468Y-7667500D02*
X15492468Y-8373000D01*
X16940968Y-7669500D02*
X16940968Y-7520968D01*
X15158468Y-10144500D02*
X15493468Y-9809500D01*
X14846468Y-11642000D02*
X14846468Y-11561032D01*
X15492468Y-8373000D02*
X15493468Y-8374000D01*
X15493468Y-9481000D02*
X15493468Y-9809500D01*
X15493468Y-9462000D02*
X15483968Y-9471500D01*
X15493468Y-8628000D02*
X15493468Y-9462000D01*
X15492500Y-7667468D02*
X15492468Y-7667500D01*
X16897500Y-7477500D02*
X15495000Y-7477500D01*
X15492500Y-7480000D02*
X15492500Y-7667468D01*
X15483968Y-9471500D02*
X15493468Y-9481000D01*
X15492468Y-7667500D02*
X15492468Y-8627000D01*
X15158468Y-11249032D02*
X15158468Y-10144500D01*
D27*
X14736468Y-9457000D02*
X14593468Y-9457000D01*
D29*
X15474468Y-9462000D02*
X15483968Y-9471500D01*
D33*
X15493468Y-8628000D02*
X15493468Y-9809500D01*
D29*
X14846468Y-11561032D02*
X15158468Y-11249032D01*
X15492468Y-8627000D02*
X15493468Y-8628000D01*
X15493468Y-8374000D02*
X15493468Y-8628000D01*
X15495000Y-7477500D02*
X15492500Y-7480000D01*
D33*
X14592468Y-9471500D02*
X15483968Y-9471500D01*
D27*
X14593468Y-9457000D02*
X14588468Y-9462000D01*
D29*
X14588468Y-9462000D02*
X15474468Y-9462000D01*
X16940968Y-7520968D02*
X16897500Y-7477500D01*
D30*
%TO.N,Wp*%
X12306468Y-9691000D02*
X12306468Y-9531000D01*
D27*
X12306468Y-9471500D02*
X12306468Y-9531000D01*
D30*
X12305968Y-9691500D02*
X12306468Y-9691000D01*
D29*
%TO.N,Net-(J9-Pin_1)*%
X16683968Y-7672500D02*
X16686968Y-7669500D01*
D33*
X16684468Y-7667000D02*
X16686968Y-7669500D01*
D28*
X16334968Y-7672000D02*
X16684468Y-7672000D01*
X16684468Y-7672000D02*
X16686968Y-7669500D01*
X16329968Y-7667000D02*
X16334968Y-7672000D01*
D30*
%TO.N,A2_SCL*%
X11152500Y-8852500D02*
X11057500Y-8757500D01*
X11221250Y-9866250D02*
X11152500Y-9797500D01*
X11057500Y-8535000D02*
X11175468Y-8417032D01*
X11057500Y-8757500D02*
X11057500Y-8535000D01*
X11175468Y-8417032D02*
X11175468Y-8374000D01*
X11152500Y-9797500D02*
X11152500Y-8852500D01*
%TO.N,A2_CS*%
X11225000Y-9717500D02*
X11222500Y-9715000D01*
X11222500Y-9715000D02*
X11222500Y-8857032D01*
X11222500Y-8857032D02*
X11175468Y-8810000D01*
X11175468Y-8810000D02*
X11175468Y-8628000D01*
X11222500Y-9715000D02*
X11222500Y-9572500D01*
D29*
%TO.N,+3V3*%
X14388468Y-8917000D02*
X14230968Y-8917000D01*
X14084468Y-9063500D02*
X14084468Y-9471500D01*
X14230968Y-8917000D02*
X14084468Y-9063500D01*
%TO.N,VCC_5V*%
X14903468Y-9149500D02*
X14985468Y-9067500D01*
X9938468Y-10509500D02*
X9598468Y-10509500D01*
D35*
X10198468Y-7709500D02*
X10198468Y-7874500D01*
D29*
X14987000Y-7582000D02*
X14987000Y-7695000D01*
X9567500Y-10478532D02*
X9567500Y-8765468D01*
X14887500Y-7482500D02*
X14987000Y-7582000D01*
X10198468Y-7709500D02*
X10198468Y-7569032D01*
X9943468Y-10504500D02*
X10335500Y-10504500D01*
X9598468Y-10509500D02*
X9567500Y-10478532D01*
X9938468Y-10509500D02*
X9943468Y-10504500D01*
X10198468Y-7569032D02*
X10285000Y-7482500D01*
X10335500Y-10504500D02*
X10413468Y-10426532D01*
X9567500Y-8765468D02*
X10198468Y-8134500D01*
X14663468Y-9149500D02*
X14903468Y-9149500D01*
X10198468Y-8134500D02*
X10198468Y-7709500D01*
X10413468Y-10426532D02*
X10413468Y-10152000D01*
X14985468Y-9067500D02*
X14985468Y-8628000D01*
X14985468Y-8628000D02*
X14985468Y-8374000D01*
X10285000Y-7482500D02*
X14887500Y-7482500D01*
D33*
X10198468Y-7932000D02*
X10198468Y-7874500D01*
%TD*%
%TA.AperFunction,Conductor*%
%TO.N,GND*%
G36*
X17668796Y-7274212D02*
G01*
X17673335Y-7278753D01*
X17674994Y-7284955D01*
X17673511Y-10604586D01*
X17672506Y-12855098D01*
X17670841Y-12861298D01*
X17666300Y-12865835D01*
X17660098Y-12867493D01*
X9095443Y-12862507D01*
X9089246Y-12860844D01*
X9084710Y-12856305D01*
X9083050Y-12850107D01*
X9083050Y-12619459D01*
X9305903Y-12619459D01*
X9307763Y-12643090D01*
X9313296Y-12666138D01*
X9319016Y-12679948D01*
X9322367Y-12688037D01*
X9334752Y-12708248D01*
X9350146Y-12726272D01*
X9368171Y-12741666D01*
X9388381Y-12754051D01*
X9402946Y-12760084D01*
X9410280Y-12763122D01*
X9417562Y-12764870D01*
X9433329Y-12768656D01*
X9456959Y-12770516D01*
X9480590Y-12768656D01*
X9503638Y-12763122D01*
X9525538Y-12754051D01*
X9545748Y-12741666D01*
X9563772Y-12726272D01*
X9579167Y-12708248D01*
X9591552Y-12688037D01*
X9600623Y-12666138D01*
X9606156Y-12643090D01*
X9608016Y-12619459D01*
X9607819Y-12616959D01*
X17171444Y-12616959D01*
X17173303Y-12640590D01*
X17178837Y-12663638D01*
X17179800Y-12665963D01*
X17187908Y-12685537D01*
X17200293Y-12705748D01*
X17215687Y-12723772D01*
X17233711Y-12739166D01*
X17253922Y-12751551D01*
X17270101Y-12758253D01*
X17275821Y-12760622D01*
X17283102Y-12762370D01*
X17298870Y-12766156D01*
X17322500Y-12768016D01*
X17346130Y-12766156D01*
X17369179Y-12760622D01*
X17391078Y-12751551D01*
X17411289Y-12739166D01*
X17429313Y-12723772D01*
X17444707Y-12705748D01*
X17457092Y-12685537D01*
X17466163Y-12663638D01*
X17471697Y-12640590D01*
X17473556Y-12616959D01*
X17471697Y-12593329D01*
X17466163Y-12570280D01*
X17457092Y-12548381D01*
X17444707Y-12528171D01*
X17429313Y-12510146D01*
X17411289Y-12494752D01*
X17391078Y-12482367D01*
X17380746Y-12478087D01*
X17369179Y-12473296D01*
X17346131Y-12467763D01*
X17322500Y-12465903D01*
X17298869Y-12467763D01*
X17275821Y-12473296D01*
X17253922Y-12482367D01*
X17233711Y-12494752D01*
X17215687Y-12510146D01*
X17200293Y-12528171D01*
X17187908Y-12548381D01*
X17178837Y-12570280D01*
X17173303Y-12593329D01*
X17171444Y-12616959D01*
X9607819Y-12616959D01*
X9606156Y-12595829D01*
X9600623Y-12572780D01*
X9591552Y-12550881D01*
X9583030Y-12536975D01*
X10102450Y-12536975D01*
X10103613Y-12542823D01*
X10108045Y-12549455D01*
X10114677Y-12553887D01*
X10120525Y-12555050D01*
X10120525Y-12555050D01*
X10294475Y-12555050D01*
X10294475Y-12555050D01*
X10297399Y-12554468D01*
X10300323Y-12553887D01*
X10306955Y-12549455D01*
X10311387Y-12542823D01*
X10312550Y-12536975D01*
X10312550Y-12450000D01*
X10355942Y-12450000D01*
X10356103Y-12451638D01*
X10357970Y-12470593D01*
X10359834Y-12476739D01*
X10363977Y-12490395D01*
X10373732Y-12508645D01*
X10378652Y-12514641D01*
X10386859Y-12524641D01*
X10394611Y-12531003D01*
X10402855Y-12537768D01*
X10421105Y-12547523D01*
X10440907Y-12553530D01*
X10461500Y-12555558D01*
X10482093Y-12553530D01*
X10501895Y-12547523D01*
X10520145Y-12537768D01*
X10536141Y-12524641D01*
X10549269Y-12508645D01*
X10559023Y-12490395D01*
X10565030Y-12470593D01*
X10567058Y-12450000D01*
X10609942Y-12450000D01*
X10610103Y-12451638D01*
X10611970Y-12470593D01*
X10613834Y-12476739D01*
X10617977Y-12490395D01*
X10627732Y-12508645D01*
X10632652Y-12514641D01*
X10640859Y-12524641D01*
X10648611Y-12531003D01*
X10656855Y-12537768D01*
X10675105Y-12547523D01*
X10694907Y-12553530D01*
X10715500Y-12555558D01*
X10736093Y-12553530D01*
X10755895Y-12547523D01*
X10774145Y-12537768D01*
X10790141Y-12524641D01*
X10803269Y-12508645D01*
X10813023Y-12490395D01*
X10819030Y-12470593D01*
X10821058Y-12450000D01*
X10863942Y-12450000D01*
X10864103Y-12451638D01*
X10865970Y-12470593D01*
X10867834Y-12476739D01*
X10871977Y-12490395D01*
X10881732Y-12508645D01*
X10886652Y-12514641D01*
X10894859Y-12524641D01*
X10902611Y-12531003D01*
X10910855Y-12537768D01*
X10929105Y-12547523D01*
X10948907Y-12553530D01*
X10969500Y-12555558D01*
X10990093Y-12553530D01*
X11009895Y-12547523D01*
X11028145Y-12537768D01*
X11044141Y-12524641D01*
X11057269Y-12508645D01*
X11067023Y-12490395D01*
X11073030Y-12470593D01*
X11075058Y-12450000D01*
X11117942Y-12450000D01*
X11118103Y-12451638D01*
X11119970Y-12470593D01*
X11121834Y-12476739D01*
X11125977Y-12490395D01*
X11135732Y-12508645D01*
X11140652Y-12514641D01*
X11148859Y-12524641D01*
X11156611Y-12531003D01*
X11164855Y-12537768D01*
X11183105Y-12547523D01*
X11202907Y-12553530D01*
X11223500Y-12555558D01*
X11244093Y-12553530D01*
X11263895Y-12547523D01*
X11282145Y-12537768D01*
X11298141Y-12524641D01*
X11311268Y-12508645D01*
X11321023Y-12490395D01*
X11327030Y-12470593D01*
X11329058Y-12450000D01*
X11371942Y-12450000D01*
X11372103Y-12451638D01*
X11373970Y-12470593D01*
X11375834Y-12476739D01*
X11379977Y-12490395D01*
X11389731Y-12508645D01*
X11394652Y-12514641D01*
X11402859Y-12524641D01*
X11410611Y-12531003D01*
X11418855Y-12537768D01*
X11437105Y-12547523D01*
X11456907Y-12553530D01*
X11477500Y-12555558D01*
X11498093Y-12553530D01*
X11517895Y-12547523D01*
X11536145Y-12537768D01*
X11552141Y-12524641D01*
X11565268Y-12508645D01*
X11575023Y-12490395D01*
X11581030Y-12470593D01*
X11583058Y-12450000D01*
X11581030Y-12429407D01*
X11575023Y-12409605D01*
X11565268Y-12391355D01*
X11557790Y-12382242D01*
X11552141Y-12375359D01*
X11542387Y-12367354D01*
X11536145Y-12362231D01*
X11517895Y-12352477D01*
X11502619Y-12347843D01*
X11498093Y-12346470D01*
X11477500Y-12344442D01*
X11456907Y-12346470D01*
X11437104Y-12352477D01*
X11418855Y-12362231D01*
X11402859Y-12375359D01*
X11389731Y-12391355D01*
X11379977Y-12409604D01*
X11373970Y-12429407D01*
X11372115Y-12448242D01*
X11371942Y-12450000D01*
X11329058Y-12450000D01*
X11327030Y-12429407D01*
X11321023Y-12409605D01*
X11311268Y-12391355D01*
X11303790Y-12382242D01*
X11298141Y-12375359D01*
X11288387Y-12367354D01*
X11282145Y-12362231D01*
X11263895Y-12352477D01*
X11248619Y-12347843D01*
X11244093Y-12346470D01*
X11223500Y-12344442D01*
X11202907Y-12346470D01*
X11183104Y-12352477D01*
X11164855Y-12362231D01*
X11148859Y-12375359D01*
X11135731Y-12391355D01*
X11125977Y-12409604D01*
X11119970Y-12429407D01*
X11118115Y-12448242D01*
X11117942Y-12450000D01*
X11075058Y-12450000D01*
X11073030Y-12429407D01*
X11067023Y-12409605D01*
X11057269Y-12391355D01*
X11049790Y-12382242D01*
X11044141Y-12375359D01*
X11034387Y-12367354D01*
X11028145Y-12362231D01*
X11009895Y-12352477D01*
X10994619Y-12347843D01*
X10990093Y-12346470D01*
X10969500Y-12344442D01*
X10948907Y-12346470D01*
X10929104Y-12352477D01*
X10910855Y-12362231D01*
X10894859Y-12375359D01*
X10881731Y-12391355D01*
X10871977Y-12409604D01*
X10865970Y-12429407D01*
X10864115Y-12448242D01*
X10863942Y-12450000D01*
X10821058Y-12450000D01*
X10819030Y-12429407D01*
X10813023Y-12409605D01*
X10803269Y-12391355D01*
X10795790Y-12382242D01*
X10790141Y-12375359D01*
X10780387Y-12367354D01*
X10774145Y-12362231D01*
X10755895Y-12352477D01*
X10740619Y-12347843D01*
X10736093Y-12346470D01*
X10715500Y-12344442D01*
X10694907Y-12346470D01*
X10675104Y-12352477D01*
X10656855Y-12362231D01*
X10640859Y-12375359D01*
X10627731Y-12391355D01*
X10617977Y-12409604D01*
X10611970Y-12429407D01*
X10610115Y-12448242D01*
X10609942Y-12450000D01*
X10567058Y-12450000D01*
X10565030Y-12429407D01*
X10559023Y-12409605D01*
X10549269Y-12391355D01*
X10541790Y-12382242D01*
X10536141Y-12375359D01*
X10526387Y-12367354D01*
X10520145Y-12362231D01*
X10501895Y-12352477D01*
X10486619Y-12347843D01*
X10482093Y-12346470D01*
X10461500Y-12344442D01*
X10440907Y-12346470D01*
X10421104Y-12352477D01*
X10402855Y-12362231D01*
X10386859Y-12375359D01*
X10373731Y-12391355D01*
X10363977Y-12409604D01*
X10357970Y-12429407D01*
X10356115Y-12448242D01*
X10355942Y-12450000D01*
X10312550Y-12450000D01*
X10312550Y-12363025D01*
X10311387Y-12357177D01*
X10310542Y-12355913D01*
X10306955Y-12350545D01*
X10300323Y-12346113D01*
X10294475Y-12344950D01*
X10294475Y-12344950D01*
X10120525Y-12344950D01*
X10120525Y-12344950D01*
X10114677Y-12346113D01*
X10108045Y-12350545D01*
X10103613Y-12357177D01*
X10102450Y-12363025D01*
X10102450Y-12536975D01*
X9583030Y-12536975D01*
X9579167Y-12530671D01*
X9563772Y-12512646D01*
X9545748Y-12497252D01*
X9525538Y-12484867D01*
X9515205Y-12480587D01*
X9503638Y-12475796D01*
X9480590Y-12470263D01*
X9456959Y-12468403D01*
X9433329Y-12470263D01*
X9410280Y-12475796D01*
X9393200Y-12482871D01*
X9388745Y-12484716D01*
X9388381Y-12484867D01*
X9368171Y-12497252D01*
X9350146Y-12512646D01*
X9334752Y-12530671D01*
X9322367Y-12550881D01*
X9313296Y-12572780D01*
X9307763Y-12595829D01*
X9305903Y-12619459D01*
X9083050Y-12619459D01*
X9083050Y-11850000D01*
X9290903Y-11850000D01*
X9292763Y-11873630D01*
X9298296Y-11896679D01*
X9304016Y-11910489D01*
X9307367Y-11918578D01*
X9319752Y-11938789D01*
X9335146Y-11956813D01*
X9353171Y-11972207D01*
X9373381Y-11984592D01*
X9387946Y-11990625D01*
X9395280Y-11993663D01*
X9402562Y-11995411D01*
X9418329Y-11999197D01*
X9441959Y-12001056D01*
X9465590Y-11999197D01*
X9488638Y-11993663D01*
X9510538Y-11984592D01*
X9530748Y-11972207D01*
X9548554Y-11957000D01*
X9791401Y-11957000D01*
X9793339Y-11980383D01*
X9793339Y-11980383D01*
X9793339Y-11980383D01*
X9799099Y-12003129D01*
X9802339Y-12010515D01*
X9808524Y-12024616D01*
X9808524Y-12024616D01*
X9821358Y-12044259D01*
X9837249Y-12061522D01*
X9855765Y-12075934D01*
X9876401Y-12087101D01*
X9880282Y-12088433D01*
X9898593Y-12094720D01*
X9898593Y-12094720D01*
X9898593Y-12094720D01*
X9921737Y-12098582D01*
X9945200Y-12098582D01*
X9945200Y-12098582D01*
X9968344Y-12094720D01*
X9990536Y-12087101D01*
X10011172Y-12075934D01*
X10029688Y-12061522D01*
X10045579Y-12044259D01*
X10058413Y-12024616D01*
X10067838Y-12003129D01*
X10073598Y-11980383D01*
X10075535Y-11957000D01*
X10073598Y-11933616D01*
X10067838Y-11910871D01*
X10058413Y-11889384D01*
X10045579Y-11869741D01*
X10029688Y-11852478D01*
X10011172Y-11838066D01*
X9990536Y-11826899D01*
X9990536Y-11826899D01*
X9990536Y-11826899D01*
X9968344Y-11819280D01*
X9948695Y-11816001D01*
X9945200Y-11815418D01*
X9921737Y-11815418D01*
X9918242Y-11816001D01*
X9898593Y-11819280D01*
X9876401Y-11826899D01*
X9876401Y-11826899D01*
X9876401Y-11826899D01*
X9864593Y-11833289D01*
X9855765Y-11838066D01*
X9837249Y-11852478D01*
X9825346Y-11865408D01*
X9821358Y-11869741D01*
X9818874Y-11873542D01*
X9808524Y-11889384D01*
X9803041Y-11901884D01*
X9799099Y-11910871D01*
X9793339Y-11933616D01*
X9793339Y-11933617D01*
X9791401Y-11957000D01*
X9548554Y-11957000D01*
X9548772Y-11956813D01*
X9564167Y-11938789D01*
X9576552Y-11918578D01*
X9585623Y-11896679D01*
X9591156Y-11873630D01*
X9593016Y-11850000D01*
X9591156Y-11826370D01*
X9585623Y-11803321D01*
X9576552Y-11781422D01*
X9564167Y-11761211D01*
X9548772Y-11743187D01*
X9530748Y-11727793D01*
X9510538Y-11715408D01*
X9502448Y-11712057D01*
X9488638Y-11706337D01*
X9465590Y-11700803D01*
X9441959Y-11698944D01*
X9418329Y-11700803D01*
X9395280Y-11706337D01*
X9373381Y-11715408D01*
X9353171Y-11727793D01*
X9335146Y-11743187D01*
X9319752Y-11761211D01*
X9307367Y-11781422D01*
X9298296Y-11803321D01*
X9292763Y-11826369D01*
X9290903Y-11850000D01*
X9083050Y-11850000D01*
X9083050Y-10788500D01*
X9805405Y-10788500D01*
X9811125Y-10809849D01*
X9821108Y-10831258D01*
X9834658Y-10850608D01*
X9851360Y-10867311D01*
X9870711Y-10880860D01*
X9892119Y-10890843D01*
X9913468Y-10896564D01*
X9913468Y-10896564D01*
X9913468Y-10788500D01*
X9963468Y-10788500D01*
X9963468Y-10896564D01*
X9984818Y-10890843D01*
X10006226Y-10880860D01*
X10025576Y-10867311D01*
X10042279Y-10850608D01*
X10055828Y-10831258D01*
X10065811Y-10809849D01*
X10071532Y-10788500D01*
X9963468Y-10788500D01*
X9913468Y-10788500D01*
X9805405Y-10788500D01*
X9083050Y-10788500D01*
X9083050Y-8767889D01*
X9471991Y-8767889D01*
X9472351Y-8770716D01*
X9472450Y-8772283D01*
X9472450Y-10477169D01*
X9472446Y-10477483D01*
X9472236Y-10485786D01*
X9473220Y-10491279D01*
X9473351Y-10492211D01*
X9473916Y-10497764D01*
X9474769Y-10500484D01*
X9475143Y-10502008D01*
X9475646Y-10504815D01*
X9477716Y-10509996D01*
X9478032Y-10510884D01*
X9479703Y-10516209D01*
X9481086Y-10518701D01*
X9481759Y-10520119D01*
X9482817Y-10522767D01*
X9485888Y-10527426D01*
X9486376Y-10528232D01*
X9489084Y-10533111D01*
X9490941Y-10535274D01*
X9491887Y-10536528D01*
X9493455Y-10538908D01*
X9497400Y-10542853D01*
X9498040Y-10543544D01*
X9501676Y-10547779D01*
X9503930Y-10549523D01*
X9505108Y-10550561D01*
X9530294Y-10575747D01*
X9530509Y-10575968D01*
X9536236Y-10581992D01*
X9540817Y-10585180D01*
X9541567Y-10585746D01*
X9545893Y-10589273D01*
X9548421Y-10590594D01*
X9549763Y-10591407D01*
X9552103Y-10593035D01*
X9557231Y-10595236D01*
X9558081Y-10595640D01*
X9563028Y-10598224D01*
X9565768Y-10599008D01*
X9567246Y-10599534D01*
X9569867Y-10600659D01*
X9569867Y-10600659D01*
X9569867Y-10600659D01*
X9572447Y-10601189D01*
X9575334Y-10601782D01*
X9576245Y-10602006D01*
X9581613Y-10603542D01*
X9584458Y-10603758D01*
X9586009Y-10603976D01*
X9588803Y-10604550D01*
X9594383Y-10604550D01*
X9595324Y-10604586D01*
X9600889Y-10605010D01*
X9602460Y-10604809D01*
X9609334Y-10605903D01*
X9614536Y-10610530D01*
X9616426Y-10617230D01*
X9615968Y-10664500D01*
X9615968Y-10664500D01*
X9615968Y-10664500D01*
X9820342Y-10662659D01*
X9826815Y-10664414D01*
X9831427Y-10669283D01*
X9832829Y-10675841D01*
X9830611Y-10682170D01*
X9821108Y-10695742D01*
X9811125Y-10717151D01*
X9805405Y-10738500D01*
X9805405Y-10738500D01*
X10071532Y-10738500D01*
X10071532Y-10738500D01*
X10065811Y-10717151D01*
X10055828Y-10695742D01*
X10044846Y-10680058D01*
X10042632Y-10673784D01*
X10043979Y-10667269D01*
X10048499Y-10662388D01*
X10054891Y-10660546D01*
X10170968Y-10659500D01*
X10170968Y-10611950D01*
X10172630Y-10605750D01*
X10177168Y-10601211D01*
X10183368Y-10599550D01*
X10262531Y-10599550D01*
X10268731Y-10601212D01*
X10273270Y-10605751D01*
X10274931Y-10611951D01*
X10274843Y-11531689D01*
X10273181Y-11537888D01*
X10268644Y-11542426D01*
X10262445Y-11544088D01*
X10215013Y-11544096D01*
X10215013Y-11544096D01*
X10214110Y-12056759D01*
X10214013Y-12112096D01*
X11416001Y-12112165D01*
X11420746Y-12113109D01*
X11424768Y-12115797D01*
X11452323Y-12143352D01*
X11453319Y-12144736D01*
X11457499Y-12148546D01*
X11457913Y-12148942D01*
X11459257Y-12150286D01*
X11460402Y-12151193D01*
X11462375Y-12152992D01*
X11463020Y-12153241D01*
X11465549Y-12154574D01*
X11466120Y-12154966D01*
X11468720Y-12155577D01*
X11470359Y-12156085D01*
X11472851Y-12157050D01*
X11473543Y-12157050D01*
X11476382Y-12157379D01*
X11477056Y-12157538D01*
X11479701Y-12157169D01*
X11481415Y-12157050D01*
X11533385Y-12157050D01*
X11538130Y-12157994D01*
X11542153Y-12160682D01*
X11672359Y-12290888D01*
X11675234Y-12295391D01*
X11675948Y-12300687D01*
X11674366Y-12305792D01*
X11670783Y-12309756D01*
X11658573Y-12318451D01*
X11644070Y-12333662D01*
X11632707Y-12351342D01*
X11624896Y-12370854D01*
X11620993Y-12391105D01*
X11620918Y-12391491D01*
X11620918Y-12448242D01*
X11621421Y-12453509D01*
X11622415Y-12463922D01*
X11628337Y-12484087D01*
X11637967Y-12502768D01*
X11650959Y-12519289D01*
X11655380Y-12523120D01*
X11656845Y-12524624D01*
X11656859Y-12524641D01*
X11660670Y-12527768D01*
X11661970Y-12528835D01*
X11662224Y-12529050D01*
X11666842Y-12533052D01*
X11666856Y-12533060D01*
X11668523Y-12534213D01*
X11670022Y-12535444D01*
X11672855Y-12537768D01*
X11691105Y-12547523D01*
X11710907Y-12553530D01*
X11731500Y-12555558D01*
X11752093Y-12553530D01*
X11771895Y-12547523D01*
X11790145Y-12537768D01*
X11806141Y-12524641D01*
X11811772Y-12517779D01*
X11812381Y-12517090D01*
X11817867Y-12511338D01*
X11826024Y-12498645D01*
X11829229Y-12493657D01*
X11830338Y-12490888D01*
X11837041Y-12474146D01*
X11841018Y-12453508D01*
X11841018Y-12396757D01*
X11839521Y-12381078D01*
X11833600Y-12360912D01*
X11823969Y-12342232D01*
X11822643Y-12340545D01*
X11810246Y-12324781D01*
X11810470Y-12324604D01*
X11808246Y-12321449D01*
X11807482Y-12315537D01*
X11809566Y-12309951D01*
X11814015Y-12305983D01*
X11819802Y-12304550D01*
X11890488Y-12304550D01*
X11896064Y-12305875D01*
X11900450Y-12309566D01*
X11902706Y-12314835D01*
X11902351Y-12320556D01*
X11899462Y-12325507D01*
X11894070Y-12331162D01*
X11882707Y-12348842D01*
X11874896Y-12368354D01*
X11871111Y-12387991D01*
X11870918Y-12388991D01*
X11870918Y-12445742D01*
X11871428Y-12451076D01*
X11872415Y-12461422D01*
X11878337Y-12481587D01*
X11878337Y-12481587D01*
X11880027Y-12484867D01*
X11887967Y-12500268D01*
X11900959Y-12516788D01*
X11900959Y-12516789D01*
X11908265Y-12523120D01*
X11916843Y-12530552D01*
X11920073Y-12532417D01*
X11921739Y-12533570D01*
X11926855Y-12537768D01*
X11945105Y-12547523D01*
X11964907Y-12553530D01*
X11985500Y-12555558D01*
X12006093Y-12553530D01*
X12025895Y-12547523D01*
X12044145Y-12537768D01*
X12060141Y-12524641D01*
X12073268Y-12508645D01*
X12083023Y-12490395D01*
X12089030Y-12470593D01*
X12090841Y-12452208D01*
X12091005Y-12451076D01*
X12091018Y-12451008D01*
X12091018Y-12451008D01*
X12091019Y-12451006D01*
X12091068Y-12450000D01*
X12091018Y-12448985D01*
X12091018Y-12394258D01*
X12091018Y-12394257D01*
X12089521Y-12378578D01*
X12083600Y-12358412D01*
X12073969Y-12339732D01*
X12073183Y-12338731D01*
X12060978Y-12323211D01*
X12060318Y-12322640D01*
X12049714Y-12313451D01*
X12045094Y-12309448D01*
X12026893Y-12298940D01*
X12007032Y-12292065D01*
X11999728Y-12291015D01*
X11995943Y-12289830D01*
X11992725Y-12287510D01*
X11975933Y-12270718D01*
X11972908Y-12265782D01*
X11972454Y-12260010D01*
X11974670Y-12254661D01*
X11979072Y-12250901D01*
X11984702Y-12249550D01*
X12188385Y-12249550D01*
X12193130Y-12250494D01*
X12197153Y-12253182D01*
X12204286Y-12260315D01*
X12206974Y-12264338D01*
X12207918Y-12269083D01*
X12207918Y-12282141D01*
X12205950Y-12288845D01*
X12200669Y-12293421D01*
X12185693Y-12300260D01*
X12168573Y-12312451D01*
X12154070Y-12327662D01*
X12142707Y-12345342D01*
X12134896Y-12364854D01*
X12131195Y-12384054D01*
X12130918Y-12385491D01*
X12130918Y-12442242D01*
X12131659Y-12450000D01*
X12132415Y-12457922D01*
X12135558Y-12468624D01*
X12135888Y-12470324D01*
X12137474Y-12475552D01*
X12141977Y-12490395D01*
X12151731Y-12508645D01*
X12156652Y-12514641D01*
X12164859Y-12524641D01*
X12172611Y-12531003D01*
X12180855Y-12537768D01*
X12199105Y-12547523D01*
X12218907Y-12553530D01*
X12239500Y-12555558D01*
X12260093Y-12553530D01*
X12279895Y-12547523D01*
X12298145Y-12537768D01*
X12314141Y-12524641D01*
X12327268Y-12508645D01*
X12334582Y-12494962D01*
X12335084Y-12494108D01*
X12339230Y-12487657D01*
X12347041Y-12468146D01*
X12350344Y-12451008D01*
X12351018Y-12447509D01*
X12351018Y-12390758D01*
X12351018Y-12390757D01*
X12349521Y-12375078D01*
X12343600Y-12354912D01*
X12333969Y-12336232D01*
X12333936Y-12336189D01*
X12320978Y-12319711D01*
X12319523Y-12318451D01*
X12312018Y-12311948D01*
X12305094Y-12305948D01*
X12286893Y-12295440D01*
X12277144Y-12292065D01*
X12276362Y-12291795D01*
X12272005Y-12289186D01*
X12269058Y-12285049D01*
X12268018Y-12280077D01*
X12268018Y-12258424D01*
X12268293Y-12256742D01*
X12268245Y-12255724D01*
X12268246Y-12255723D01*
X12268031Y-12251092D01*
X12268018Y-12250519D01*
X12268018Y-12248618D01*
X12267850Y-12247168D01*
X12267727Y-12244501D01*
X12267447Y-12243867D01*
X12266602Y-12241137D01*
X12266474Y-12240457D01*
X12265069Y-12238187D01*
X12264268Y-12236668D01*
X12263193Y-12234234D01*
X12263189Y-12234223D01*
X12262699Y-12233734D01*
X12260925Y-12231493D01*
X12260560Y-12230905D01*
X12260560Y-12230905D01*
X12258429Y-12229295D01*
X12257133Y-12228168D01*
X12254684Y-12225718D01*
X12251659Y-12220782D01*
X12251204Y-12215010D01*
X12253420Y-12209661D01*
X12257822Y-12205901D01*
X12263452Y-12204550D01*
X12395885Y-12204550D01*
X12400630Y-12205494D01*
X12404653Y-12208182D01*
X12457286Y-12260815D01*
X12459974Y-12264838D01*
X12460918Y-12269583D01*
X12460918Y-12281913D01*
X12460030Y-12286522D01*
X12457493Y-12290470D01*
X12453669Y-12293192D01*
X12438193Y-12300260D01*
X12421073Y-12312451D01*
X12406570Y-12327662D01*
X12395207Y-12345342D01*
X12387396Y-12364854D01*
X12383695Y-12384054D01*
X12383418Y-12385491D01*
X12383418Y-12442242D01*
X12384159Y-12450000D01*
X12384915Y-12457922D01*
X12390837Y-12478087D01*
X12393737Y-12483714D01*
X12394581Y-12485796D01*
X12395977Y-12490395D01*
X12405731Y-12508645D01*
X12418859Y-12524641D01*
X12426611Y-12531003D01*
X12434855Y-12537768D01*
X12453105Y-12547523D01*
X12472907Y-12553530D01*
X12493500Y-12555558D01*
X12514093Y-12553530D01*
X12533895Y-12547523D01*
X12552145Y-12537768D01*
X12568141Y-12524641D01*
X12581268Y-12508645D01*
X12591023Y-12490395D01*
X12592087Y-12486887D01*
X12592441Y-12485880D01*
X12599541Y-12468146D01*
X12603234Y-12448985D01*
X12603518Y-12447509D01*
X12603518Y-12390758D01*
X12603518Y-12390757D01*
X12602021Y-12375078D01*
X12596100Y-12354912D01*
X12586469Y-12336232D01*
X12586436Y-12336189D01*
X12573478Y-12319711D01*
X12572023Y-12318451D01*
X12564518Y-12311948D01*
X12557594Y-12305948D01*
X12546285Y-12299419D01*
X12539393Y-12295440D01*
X12529363Y-12291968D01*
X12525005Y-12289359D01*
X12522059Y-12285222D01*
X12521018Y-12280250D01*
X12521018Y-12258925D01*
X12521293Y-12257242D01*
X12521246Y-12256224D01*
X12521246Y-12256224D01*
X12521031Y-12251590D01*
X12521018Y-12251017D01*
X12521018Y-12249118D01*
X12520850Y-12247670D01*
X12520727Y-12245001D01*
X12520447Y-12244367D01*
X12519601Y-12241636D01*
X12519527Y-12241239D01*
X12519474Y-12240957D01*
X12518068Y-12238686D01*
X12517268Y-12237167D01*
X12516189Y-12234723D01*
X12515699Y-12234234D01*
X12513925Y-12231993D01*
X12513560Y-12231405D01*
X12511428Y-12229795D01*
X12510133Y-12228668D01*
X12459683Y-12178218D01*
X12456658Y-12173282D01*
X12456204Y-12167510D01*
X12458420Y-12162161D01*
X12462822Y-12158401D01*
X12468452Y-12157050D01*
X12570885Y-12157050D01*
X12575630Y-12157994D01*
X12579653Y-12160682D01*
X12698342Y-12279371D01*
X12701408Y-12284434D01*
X12701777Y-12290341D01*
X12699367Y-12295746D01*
X12694726Y-12299419D01*
X12690693Y-12301260D01*
X12673573Y-12313451D01*
X12659070Y-12328662D01*
X12647707Y-12346342D01*
X12639896Y-12365854D01*
X12636111Y-12385491D01*
X12635918Y-12386491D01*
X12635918Y-12443242D01*
X12636899Y-12453508D01*
X12637415Y-12458922D01*
X12643337Y-12479087D01*
X12652967Y-12497768D01*
X12653657Y-12498645D01*
X12654933Y-12500268D01*
X12655260Y-12500683D01*
X12656449Y-12502503D01*
X12656830Y-12503217D01*
X12659731Y-12508645D01*
X12664652Y-12514641D01*
X12672859Y-12524641D01*
X12680611Y-12531003D01*
X12688855Y-12537768D01*
X12707105Y-12547523D01*
X12726907Y-12553530D01*
X12747500Y-12555558D01*
X12768093Y-12553530D01*
X12787895Y-12547523D01*
X12806145Y-12537768D01*
X12822141Y-12524641D01*
X12835268Y-12508645D01*
X12845023Y-12490395D01*
X12845096Y-12490157D01*
X12847998Y-12480587D01*
X12849526Y-12475551D01*
X12849879Y-12474544D01*
X12852041Y-12469146D01*
X12855809Y-12449594D01*
X12856018Y-12448509D01*
X12856018Y-12391758D01*
X12855993Y-12391491D01*
X12854521Y-12376078D01*
X12848600Y-12355912D01*
X12838969Y-12337232D01*
X12838370Y-12336470D01*
X12825978Y-12320711D01*
X12824823Y-12319711D01*
X12813559Y-12309951D01*
X12810094Y-12306948D01*
X12791893Y-12296440D01*
X12784363Y-12293833D01*
X12780005Y-12291224D01*
X12777058Y-12287087D01*
X12776018Y-12282115D01*
X12776018Y-12281618D01*
X12775850Y-12280168D01*
X12775813Y-12279371D01*
X12775727Y-12277501D01*
X12775447Y-12276867D01*
X12774602Y-12274137D01*
X12774474Y-12273457D01*
X12773069Y-12271187D01*
X12772268Y-12269668D01*
X12772010Y-12269083D01*
X12771189Y-12267223D01*
X12770699Y-12266734D01*
X12768925Y-12264493D01*
X12768560Y-12263905D01*
X12768560Y-12263905D01*
X12766429Y-12262295D01*
X12765133Y-12261168D01*
X12708515Y-12204550D01*
X12637369Y-12133404D01*
X12634344Y-12128467D01*
X12633890Y-12122696D01*
X12636106Y-12117347D01*
X12640508Y-12113587D01*
X12646138Y-12112236D01*
X12778579Y-12112243D01*
X12783324Y-12113187D01*
X12787346Y-12115875D01*
X12952656Y-12281185D01*
X12955721Y-12286247D01*
X12956091Y-12292154D01*
X12953680Y-12297560D01*
X12949039Y-12301232D01*
X12945693Y-12302760D01*
X12928573Y-12314951D01*
X12914070Y-12330162D01*
X12902707Y-12347842D01*
X12894896Y-12367354D01*
X12891400Y-12385491D01*
X12890918Y-12387991D01*
X12890918Y-12444742D01*
X12891631Y-12452208D01*
X12892415Y-12460422D01*
X12898337Y-12480587D01*
X12907967Y-12499268D01*
X12909641Y-12501397D01*
X12910830Y-12503217D01*
X12913731Y-12508645D01*
X12926859Y-12524641D01*
X12934611Y-12531003D01*
X12942855Y-12537768D01*
X12961105Y-12547523D01*
X12980907Y-12553530D01*
X13001500Y-12555558D01*
X13022093Y-12553530D01*
X13041895Y-12547523D01*
X13060145Y-12537768D01*
X13076141Y-12524641D01*
X13089268Y-12508645D01*
X13098525Y-12491327D01*
X13099029Y-12490469D01*
X13099076Y-12490396D01*
X13099230Y-12490157D01*
X13101718Y-12483941D01*
X13105335Y-12478988D01*
X13110883Y-12476374D01*
X13117005Y-12476739D01*
X13122204Y-12479993D01*
X13125207Y-12485341D01*
X13128157Y-12496349D01*
X13138140Y-12517758D01*
X13151689Y-12537108D01*
X13168392Y-12553811D01*
X13187742Y-12567360D01*
X13209151Y-12577343D01*
X13230500Y-12583063D01*
X13230500Y-12583064D01*
X13230500Y-12316936D01*
X13280500Y-12316936D01*
X13280500Y-12583063D01*
X13301849Y-12577343D01*
X13323258Y-12567360D01*
X13342608Y-12553811D01*
X13359311Y-12537108D01*
X13372860Y-12517758D01*
X13382843Y-12496349D01*
X13386116Y-12484135D01*
X13389268Y-12478634D01*
X13394727Y-12475410D01*
X13401067Y-12475306D01*
X13406629Y-12478350D01*
X13409959Y-12483745D01*
X13411977Y-12490395D01*
X13418590Y-12502768D01*
X13421731Y-12508645D01*
X13426652Y-12514641D01*
X13434859Y-12524641D01*
X13442611Y-12531003D01*
X13450855Y-12537768D01*
X13469105Y-12547523D01*
X13488907Y-12553530D01*
X13509500Y-12555558D01*
X13530093Y-12553530D01*
X13549895Y-12547523D01*
X13568145Y-12537768D01*
X13584141Y-12524641D01*
X13597268Y-12508645D01*
X13607023Y-12490395D01*
X13613030Y-12470593D01*
X13615058Y-12450000D01*
X13614073Y-12440000D01*
X15441942Y-12440000D01*
X15443970Y-12460593D01*
X15446406Y-12468624D01*
X15449442Y-12478634D01*
X15449977Y-12480396D01*
X15452908Y-12485879D01*
X15459731Y-12498645D01*
X15461064Y-12500268D01*
X15472859Y-12514641D01*
X15480857Y-12521205D01*
X15488855Y-12527768D01*
X15507105Y-12537523D01*
X15526907Y-12543530D01*
X15547500Y-12545558D01*
X15568093Y-12543530D01*
X15587895Y-12537523D01*
X15606145Y-12527768D01*
X15622141Y-12514641D01*
X15635268Y-12498645D01*
X15645023Y-12480395D01*
X15647041Y-12473745D01*
X15650371Y-12468350D01*
X15655933Y-12465306D01*
X15662272Y-12465410D01*
X15667732Y-12468634D01*
X15670884Y-12474135D01*
X15674157Y-12486349D01*
X15684140Y-12507758D01*
X15697689Y-12527108D01*
X15714392Y-12543811D01*
X15733742Y-12557360D01*
X15755151Y-12567343D01*
X15776500Y-12573063D01*
X15776500Y-12573064D01*
X15776500Y-12306936D01*
X15826500Y-12306936D01*
X15826500Y-12573063D01*
X15847849Y-12567343D01*
X15869258Y-12557360D01*
X15888608Y-12543811D01*
X15905311Y-12527108D01*
X15918860Y-12507758D01*
X15926812Y-12490705D01*
X15931116Y-12485666D01*
X15937401Y-12483563D01*
X15943871Y-12484997D01*
X15948679Y-12489559D01*
X15950450Y-12495946D01*
X15950450Y-12526975D01*
X15951613Y-12532823D01*
X15956045Y-12539455D01*
X15962677Y-12543887D01*
X15968525Y-12545050D01*
X15968525Y-12545050D01*
X16142475Y-12545050D01*
X16142475Y-12545050D01*
X16145399Y-12544468D01*
X16148323Y-12543887D01*
X16154955Y-12539455D01*
X16159387Y-12532823D01*
X16160312Y-12528171D01*
X16160550Y-12526975D01*
X16160550Y-12353025D01*
X16159387Y-12347177D01*
X16154955Y-12340545D01*
X16148323Y-12336113D01*
X16142475Y-12334950D01*
X16142475Y-12334950D01*
X15968525Y-12334950D01*
X15968525Y-12334950D01*
X15962677Y-12336113D01*
X15956045Y-12340545D01*
X15951613Y-12347177D01*
X15950450Y-12353025D01*
X15950450Y-12384054D01*
X15948679Y-12390441D01*
X15943871Y-12395003D01*
X15937401Y-12396437D01*
X15931116Y-12394334D01*
X15926812Y-12389295D01*
X15918860Y-12372242D01*
X15905311Y-12352892D01*
X15888608Y-12336189D01*
X15869258Y-12322640D01*
X15847849Y-12312657D01*
X15826500Y-12306936D01*
X15776500Y-12306936D01*
X15776500Y-12306936D01*
X15755151Y-12312657D01*
X15733742Y-12322640D01*
X15714392Y-12336189D01*
X15697689Y-12352892D01*
X15684140Y-12372242D01*
X15674157Y-12393651D01*
X15670884Y-12405865D01*
X15667732Y-12411366D01*
X15662272Y-12414590D01*
X15655933Y-12414694D01*
X15650371Y-12411650D01*
X15647041Y-12406255D01*
X15645023Y-12399605D01*
X15635268Y-12381355D01*
X15626651Y-12370854D01*
X15622141Y-12365359D01*
X15612171Y-12357177D01*
X15606145Y-12352231D01*
X15587895Y-12342477D01*
X15577994Y-12339473D01*
X15568093Y-12336470D01*
X15547500Y-12334442D01*
X15526907Y-12336470D01*
X15507104Y-12342477D01*
X15488855Y-12352231D01*
X15472859Y-12365359D01*
X15459731Y-12381355D01*
X15449977Y-12399604D01*
X15443970Y-12419407D01*
X15441942Y-12440000D01*
X13614073Y-12440000D01*
X13613030Y-12429407D01*
X13607023Y-12409605D01*
X13597268Y-12391355D01*
X13589790Y-12382242D01*
X13584141Y-12375359D01*
X13574387Y-12367354D01*
X13568145Y-12362231D01*
X13549895Y-12352477D01*
X13534619Y-12347843D01*
X13530093Y-12346470D01*
X13509500Y-12344442D01*
X13488907Y-12346470D01*
X13469104Y-12352477D01*
X13450855Y-12362231D01*
X13434859Y-12375359D01*
X13421731Y-12391355D01*
X13411977Y-12409605D01*
X13409959Y-12416255D01*
X13406629Y-12421650D01*
X13401067Y-12424694D01*
X13394727Y-12424590D01*
X13389268Y-12421366D01*
X13386116Y-12415865D01*
X13382843Y-12403651D01*
X13372860Y-12382242D01*
X13359311Y-12362892D01*
X13342608Y-12346189D01*
X13323258Y-12332640D01*
X13301849Y-12322657D01*
X13280500Y-12316936D01*
X13230500Y-12316936D01*
X13230500Y-12316936D01*
X13209151Y-12322657D01*
X13187742Y-12332640D01*
X13168392Y-12346189D01*
X13151689Y-12362892D01*
X13138140Y-12382242D01*
X13134007Y-12391105D01*
X13129897Y-12396011D01*
X13123888Y-12398214D01*
X13117582Y-12397128D01*
X13112656Y-12393041D01*
X13110425Y-12387044D01*
X13109521Y-12377578D01*
X13103600Y-12357412D01*
X13093969Y-12338732D01*
X13092789Y-12337231D01*
X13080978Y-12322211D01*
X13079068Y-12320556D01*
X13066828Y-12309951D01*
X13065094Y-12308448D01*
X13046893Y-12297940D01*
X13038363Y-12294987D01*
X13034005Y-12292378D01*
X13031058Y-12288241D01*
X13030243Y-12284344D01*
X13030230Y-12284346D01*
X13030113Y-12283721D01*
X13030018Y-12283269D01*
X13030018Y-12283118D01*
X13029850Y-12281668D01*
X13029828Y-12281185D01*
X13029727Y-12279001D01*
X13029447Y-12278367D01*
X13028601Y-12275637D01*
X13028474Y-12274957D01*
X13028474Y-12274957D01*
X13027068Y-12272685D01*
X13026268Y-12271167D01*
X13025189Y-12268723D01*
X13024699Y-12268234D01*
X13022925Y-12265993D01*
X13022560Y-12265405D01*
X13020428Y-12263795D01*
X13019133Y-12262668D01*
X12889884Y-12133418D01*
X12886859Y-12128482D01*
X12886404Y-12122710D01*
X12888620Y-12117361D01*
X12893023Y-12113601D01*
X12898652Y-12112250D01*
X14467472Y-12112340D01*
X14467472Y-12037450D01*
X14469133Y-12031250D01*
X14473672Y-12026711D01*
X14479872Y-12025050D01*
X14815671Y-12025050D01*
X14819082Y-12025528D01*
X14829613Y-12028542D01*
X14848889Y-12030009D01*
X14868065Y-12027567D01*
X14886357Y-12021315D01*
X14901308Y-12012514D01*
X14907598Y-12010800D01*
X14914395Y-12010800D01*
X14915916Y-12010657D01*
X14917438Y-12010515D01*
X14930256Y-12006029D01*
X14930256Y-12006029D01*
X14930257Y-12006029D01*
X14941183Y-11997965D01*
X14949247Y-11987038D01*
X14949248Y-11987038D01*
X14953733Y-11974220D01*
X14954018Y-11971177D01*
X14954018Y-11969500D01*
X16549401Y-11969500D01*
X16551339Y-11992883D01*
X16551339Y-11992883D01*
X16551339Y-11992883D01*
X16557099Y-12015629D01*
X16559593Y-12021315D01*
X16566524Y-12037116D01*
X16567017Y-12037872D01*
X16579357Y-12056759D01*
X16595249Y-12074022D01*
X16613765Y-12088434D01*
X16634401Y-12099601D01*
X16645497Y-12103410D01*
X16656592Y-12107220D01*
X16656593Y-12107220D01*
X16656593Y-12107220D01*
X16679736Y-12111082D01*
X16703200Y-12111082D01*
X16703200Y-12111082D01*
X16726344Y-12107220D01*
X16748536Y-12099601D01*
X16769172Y-12088434D01*
X16787688Y-12074022D01*
X16803579Y-12056759D01*
X16816413Y-12037116D01*
X16825838Y-12015629D01*
X16831598Y-11992883D01*
X16833535Y-11969500D01*
X16831598Y-11946116D01*
X16825838Y-11923371D01*
X16816413Y-11901884D01*
X16803579Y-11882241D01*
X16787688Y-11864978D01*
X16769172Y-11850566D01*
X16763506Y-11847500D01*
X17156444Y-11847500D01*
X17158303Y-11871130D01*
X17163837Y-11894179D01*
X17167144Y-11902162D01*
X17172908Y-11916078D01*
X17185293Y-11936289D01*
X17200687Y-11954313D01*
X17218711Y-11969707D01*
X17238922Y-11982092D01*
X17255101Y-11988794D01*
X17260821Y-11991163D01*
X17267585Y-11992787D01*
X17283870Y-11996697D01*
X17307500Y-11998556D01*
X17331130Y-11996697D01*
X17354179Y-11991163D01*
X17376078Y-11982092D01*
X17396289Y-11969707D01*
X17414313Y-11954313D01*
X17429707Y-11936289D01*
X17442092Y-11916078D01*
X17451163Y-11894179D01*
X17456697Y-11871130D01*
X17458556Y-11847500D01*
X17456697Y-11823870D01*
X17451163Y-11800821D01*
X17442092Y-11778922D01*
X17429707Y-11758711D01*
X17414313Y-11740687D01*
X17396289Y-11725293D01*
X17376078Y-11712908D01*
X17367989Y-11709557D01*
X17354179Y-11703837D01*
X17331131Y-11698303D01*
X17307500Y-11696444D01*
X17283869Y-11698303D01*
X17260821Y-11703837D01*
X17238922Y-11712908D01*
X17218711Y-11725293D01*
X17200687Y-11740687D01*
X17185293Y-11758711D01*
X17172908Y-11778922D01*
X17163837Y-11800821D01*
X17158303Y-11823869D01*
X17156444Y-11847500D01*
X16763506Y-11847500D01*
X16748536Y-11839399D01*
X16748536Y-11839399D01*
X16748535Y-11839399D01*
X16726344Y-11831780D01*
X16706695Y-11828501D01*
X16703200Y-11827918D01*
X16679736Y-11827918D01*
X16676242Y-11828501D01*
X16656592Y-11831780D01*
X16634401Y-11839399D01*
X16634401Y-11839399D01*
X16634401Y-11839399D01*
X16632380Y-11840492D01*
X16613765Y-11850566D01*
X16595249Y-11864978D01*
X16589585Y-11871130D01*
X16579357Y-11882241D01*
X16575080Y-11888788D01*
X16566524Y-11901884D01*
X16559201Y-11918578D01*
X16557099Y-11923371D01*
X16553912Y-11935956D01*
X16551339Y-11946117D01*
X16549401Y-11969500D01*
X14954018Y-11969500D01*
X14954018Y-11897823D01*
X14953733Y-11894780D01*
X14949545Y-11882812D01*
X14949247Y-11881961D01*
X14941183Y-11871035D01*
X14930257Y-11862971D01*
X14917438Y-11858485D01*
X14914395Y-11858200D01*
X14914395Y-11858200D01*
X14909085Y-11858200D01*
X14905373Y-11857631D01*
X14902001Y-11855977D01*
X14899620Y-11854320D01*
X14898868Y-11853753D01*
X14894543Y-11850227D01*
X14894543Y-11850227D01*
X14892016Y-11848906D01*
X14890674Y-11848094D01*
X14888334Y-11846465D01*
X14888334Y-11846464D01*
X14888334Y-11846464D01*
X14883206Y-11844264D01*
X14882355Y-11843860D01*
X14877409Y-11841276D01*
X14877409Y-11841276D01*
X14874667Y-11840492D01*
X14873190Y-11839966D01*
X14870569Y-11838841D01*
X14870569Y-11838841D01*
X14865103Y-11837718D01*
X14864189Y-11837493D01*
X14858823Y-11835958D01*
X14858823Y-11835958D01*
X14855981Y-11835742D01*
X14854426Y-11835524D01*
X14851634Y-11834950D01*
X14846054Y-11834950D01*
X14845112Y-11834914D01*
X14844244Y-11834848D01*
X14839548Y-11834490D01*
X14839548Y-11834490D01*
X14836721Y-11834851D01*
X14835154Y-11834950D01*
X14479872Y-11834950D01*
X14473672Y-11833289D01*
X14469133Y-11828750D01*
X14467472Y-11822550D01*
X14467472Y-11681744D01*
X14469029Y-11675727D01*
X14473311Y-11671222D01*
X14479241Y-11669360D01*
X14485329Y-11670610D01*
X14490047Y-11674657D01*
X14492208Y-11680484D01*
X14492518Y-11683519D01*
X14498032Y-11700162D01*
X14507237Y-11715084D01*
X14519634Y-11727482D01*
X14534556Y-11736686D01*
X14551199Y-11742201D01*
X14561470Y-11743250D01*
X14603968Y-11743250D01*
X14603968Y-11530750D01*
X14561470Y-11530750D01*
X14551199Y-11531799D01*
X14534556Y-11537314D01*
X14519634Y-11546518D01*
X14507237Y-11558915D01*
X14498032Y-11573838D01*
X14492518Y-11590480D01*
X14492208Y-11593515D01*
X14490046Y-11599343D01*
X14485329Y-11603390D01*
X14479241Y-11604639D01*
X14473311Y-11602777D01*
X14469029Y-11598272D01*
X14467472Y-11592255D01*
X14467472Y-11543340D01*
X10835796Y-11543986D01*
X10829597Y-11542327D01*
X10825058Y-11537791D01*
X10823394Y-11531594D01*
X10823130Y-11145000D01*
X11542446Y-11145000D01*
X11542450Y-11145010D01*
X11542462Y-11145038D01*
X11542462Y-11145038D01*
X11542481Y-11145046D01*
X11542500Y-11145054D01*
X11542500Y-11145054D01*
X11544962Y-11145052D01*
X11544962Y-11145053D01*
X11544976Y-11145050D01*
X14830024Y-11145050D01*
X14830038Y-11145053D01*
X14830038Y-11145052D01*
X14832500Y-11145054D01*
X14832500Y-11145054D01*
X14832538Y-11145038D01*
X14832550Y-11145010D01*
X14832554Y-11145000D01*
X14832554Y-11142545D01*
X14832550Y-11142524D01*
X14832550Y-10992476D01*
X14832553Y-10992462D01*
X14832552Y-10992462D01*
X14832554Y-10990000D01*
X14832554Y-10990000D01*
X14832546Y-10989981D01*
X14832538Y-10989962D01*
X14832538Y-10989961D01*
X14832519Y-10989954D01*
X14832500Y-10989946D01*
X14830045Y-10989946D01*
X14830024Y-10989950D01*
X11544976Y-10989950D01*
X11544955Y-10989946D01*
X11542500Y-10989946D01*
X11542481Y-10989954D01*
X11542462Y-10989962D01*
X11542461Y-10989962D01*
X11542446Y-10990000D01*
X11542448Y-10992462D01*
X11542447Y-10992462D01*
X11542450Y-10992476D01*
X11542450Y-11142524D01*
X11542446Y-11142545D01*
X11542446Y-11145000D01*
X10823130Y-11145000D01*
X10822570Y-10322172D01*
X10823512Y-10317423D01*
X10824099Y-10316544D01*
X10824099Y-10315500D01*
X10823526Y-9490911D01*
X10823526Y-9490911D01*
X10823237Y-9490911D01*
X10759938Y-9491013D01*
X10753730Y-9489358D01*
X10749183Y-9484819D01*
X10747518Y-9478613D01*
X10747518Y-9375555D01*
X10747550Y-9375274D01*
X10747550Y-9355981D01*
X10747223Y-9354550D01*
X10746629Y-9351944D01*
X10746396Y-9350573D01*
X10746005Y-9347107D01*
X10746005Y-9347106D01*
X10744852Y-9343812D01*
X10744468Y-9342478D01*
X10743536Y-9338394D01*
X10741719Y-9334621D01*
X10741187Y-9333336D01*
X10740858Y-9332398D01*
X10740047Y-9330080D01*
X10739451Y-9329130D01*
X10737550Y-9322533D01*
X10737550Y-9314712D01*
X10738275Y-9310534D01*
X10740365Y-9306845D01*
X10751049Y-9293826D01*
X10760335Y-9276453D01*
X10764416Y-9263000D01*
X10764416Y-9263000D01*
X10570584Y-9263000D01*
X10570584Y-9263000D01*
X10574665Y-9276453D01*
X10583951Y-9293826D01*
X10594635Y-9306845D01*
X10596725Y-9310534D01*
X10597450Y-9314712D01*
X10597450Y-9322432D01*
X10595550Y-9329029D01*
X10595486Y-9329130D01*
X10594889Y-9330080D01*
X10593625Y-9333693D01*
X10593093Y-9334977D01*
X10591432Y-9338426D01*
X10590580Y-9342159D01*
X10590195Y-9343494D01*
X10588931Y-9347106D01*
X10588503Y-9350910D01*
X10588270Y-9352280D01*
X10587418Y-9356012D01*
X10587418Y-9478909D01*
X10585760Y-9485104D01*
X10581230Y-9489642D01*
X10575038Y-9491309D01*
X10496328Y-9491436D01*
X10273439Y-9491793D01*
X10273011Y-10316218D01*
X10274015Y-10317722D01*
X10274958Y-10322465D01*
X10274951Y-10397051D01*
X10273289Y-10403251D01*
X10268751Y-10407789D01*
X10262551Y-10409450D01*
X10183368Y-10409450D01*
X10177168Y-10407789D01*
X10172630Y-10403250D01*
X10170968Y-10397050D01*
X10170968Y-9213000D01*
X10570584Y-9213000D01*
X10570584Y-9213000D01*
X10642500Y-9213000D01*
X10692500Y-9213000D01*
X10764416Y-9213000D01*
X10764416Y-9213000D01*
X10760335Y-9199547D01*
X10751049Y-9182174D01*
X10738553Y-9166947D01*
X10723326Y-9154451D01*
X10705953Y-9145165D01*
X10692500Y-9141084D01*
X10692500Y-9141084D01*
X10692500Y-9213000D01*
X10642500Y-9213000D01*
X10642500Y-9141084D01*
X10642500Y-9141084D01*
X10629047Y-9145165D01*
X10611674Y-9154451D01*
X10596447Y-9166947D01*
X10583951Y-9182174D01*
X10574665Y-9199547D01*
X10570584Y-9213000D01*
X10170968Y-9213000D01*
X10170968Y-9114500D01*
X9674950Y-9114500D01*
X9668750Y-9112839D01*
X9664211Y-9108300D01*
X9662550Y-9102100D01*
X9662550Y-8809976D01*
X9663494Y-8805230D01*
X9666182Y-8801207D01*
X9787105Y-8680284D01*
X10149977Y-8317412D01*
X10154917Y-8314386D01*
X10160693Y-8313934D01*
X10166044Y-8316156D01*
X10169801Y-8320566D01*
X10171145Y-8326201D01*
X10170360Y-8789866D01*
X10170360Y-8789866D01*
X10762550Y-8789881D01*
X10768750Y-8791542D01*
X10773289Y-8796081D01*
X10774950Y-8802281D01*
X10774950Y-8848076D01*
X10774676Y-8849758D01*
X10774937Y-8855408D01*
X10774950Y-8855981D01*
X10774950Y-8857882D01*
X10775118Y-8859331D01*
X10775242Y-8861999D01*
X10775521Y-8862633D01*
X10776367Y-8865363D01*
X10776494Y-8866043D01*
X10777900Y-8868314D01*
X10778700Y-8869833D01*
X10779779Y-8872276D01*
X10780269Y-8872766D01*
X10782043Y-8875006D01*
X10782408Y-8875595D01*
X10782408Y-8875595D01*
X10784540Y-8877205D01*
X10785835Y-8878332D01*
X11066318Y-9158815D01*
X11069006Y-9162838D01*
X11069950Y-9167583D01*
X11069950Y-9875576D01*
X11069676Y-9877258D01*
X11069937Y-9882908D01*
X11069950Y-9883481D01*
X11069950Y-9885382D01*
X11070118Y-9886831D01*
X11070242Y-9889499D01*
X11070521Y-9890133D01*
X11071367Y-9892863D01*
X11071494Y-9893543D01*
X11072900Y-9895814D01*
X11073700Y-9897333D01*
X11074779Y-9899776D01*
X11075269Y-9900266D01*
X11077043Y-9902506D01*
X11077408Y-9903095D01*
X11079540Y-9904705D01*
X11080835Y-9905832D01*
X11162210Y-9987207D01*
X11165184Y-9991990D01*
X11165736Y-9997594D01*
X11164432Y-10007500D01*
X11166496Y-10023176D01*
X11172546Y-10037784D01*
X11182172Y-10050328D01*
X11194716Y-10059954D01*
X11209324Y-10066004D01*
X11225000Y-10068068D01*
X11240676Y-10066004D01*
X11255284Y-10059954D01*
X11267828Y-10050328D01*
X11277454Y-10037784D01*
X11283504Y-10023176D01*
X11285568Y-10007500D01*
X11283504Y-9991824D01*
X11277454Y-9977216D01*
X11277453Y-9977216D01*
X11267828Y-9964672D01*
X11255284Y-9955046D01*
X11240676Y-9948996D01*
X11239303Y-9948815D01*
X11233373Y-9946358D01*
X11229466Y-9941266D01*
X11228628Y-9934902D01*
X11231084Y-9928972D01*
X11236177Y-9925065D01*
X11236926Y-9924754D01*
X11236926Y-9924754D01*
X11251534Y-9918704D01*
X11264078Y-9909078D01*
X11273704Y-9896534D01*
X11279754Y-9881926D01*
X11281818Y-9866250D01*
X11279754Y-9850574D01*
X11273704Y-9835966D01*
X11264078Y-9823422D01*
X11251534Y-9813796D01*
X11236926Y-9807746D01*
X11221250Y-9805682D01*
X11211344Y-9806986D01*
X11205739Y-9806434D01*
X11200957Y-9803460D01*
X11192251Y-9794754D01*
X11188962Y-9788881D01*
X11189226Y-9782155D01*
X11192966Y-9776557D01*
X11199080Y-9773739D01*
X11205765Y-9774530D01*
X11209324Y-9776004D01*
X11225000Y-9778068D01*
X11240676Y-9776004D01*
X11255284Y-9769954D01*
X11267828Y-9760328D01*
X11277454Y-9747784D01*
X11283504Y-9733176D01*
X11285568Y-9717500D01*
X11283504Y-9701824D01*
X11277454Y-9687216D01*
X11268712Y-9675824D01*
X11267828Y-9674672D01*
X11257401Y-9666671D01*
X11253829Y-9662318D01*
X11252550Y-9656833D01*
X11252550Y-8863956D01*
X11252824Y-8862274D01*
X11252777Y-8861255D01*
X11252777Y-8861255D01*
X11252563Y-8856624D01*
X11252550Y-8856051D01*
X11252550Y-8854150D01*
X11252382Y-8852700D01*
X11252258Y-8850033D01*
X11251979Y-8849399D01*
X11251133Y-8846668D01*
X11251006Y-8845989D01*
X11251006Y-8845988D01*
X11249600Y-8843717D01*
X11248799Y-8842199D01*
X11247721Y-8839755D01*
X11247231Y-8839266D01*
X11245456Y-8837025D01*
X11245092Y-8836437D01*
X11242960Y-8834827D01*
X11241665Y-8833699D01*
X11219025Y-8811060D01*
X11216000Y-8806124D01*
X11215546Y-8800352D01*
X11217762Y-8795003D01*
X11222164Y-8791243D01*
X11227794Y-8789892D01*
X14326011Y-8789968D01*
X14332608Y-8791868D01*
X14337182Y-8796988D01*
X14338332Y-8803756D01*
X14335705Y-8810099D01*
X14330106Y-8814072D01*
X14329680Y-8814221D01*
X14322490Y-8819527D01*
X14319003Y-8821329D01*
X14315127Y-8821950D01*
X14232331Y-8821950D01*
X14232017Y-8821946D01*
X14223714Y-8821736D01*
X14218221Y-8822720D01*
X14217289Y-8822851D01*
X14211736Y-8823415D01*
X14209016Y-8824269D01*
X14207492Y-8824643D01*
X14204686Y-8825146D01*
X14199502Y-8827216D01*
X14198615Y-8827532D01*
X14193291Y-8829203D01*
X14190799Y-8830586D01*
X14189382Y-8831259D01*
X14186734Y-8832317D01*
X14182074Y-8835388D01*
X14181269Y-8835876D01*
X14176389Y-8838584D01*
X14174226Y-8840441D01*
X14172973Y-8841386D01*
X14171202Y-8842553D01*
X14170592Y-8842955D01*
X14166647Y-8846900D01*
X14165956Y-8847540D01*
X14161721Y-8851176D01*
X14159976Y-8853431D01*
X14158939Y-8854608D01*
X14018223Y-8995324D01*
X14017999Y-8995543D01*
X14011976Y-9001268D01*
X14010372Y-9003573D01*
X14008788Y-9005849D01*
X14008221Y-9006600D01*
X14004695Y-9010925D01*
X14003375Y-9013452D01*
X14002562Y-9014794D01*
X14000933Y-9017134D01*
X13998732Y-9022262D01*
X13998328Y-9023113D01*
X13995744Y-9028060D01*
X13994960Y-9030800D01*
X13994434Y-9032278D01*
X13993310Y-9034899D01*
X13992186Y-9040365D01*
X13991962Y-9041280D01*
X13990426Y-9046645D01*
X13990210Y-9049488D01*
X13989992Y-9051042D01*
X13989418Y-9053834D01*
X13989418Y-9059415D01*
X13989382Y-9060356D01*
X13988959Y-9065920D01*
X13989319Y-9068748D01*
X13989418Y-9070314D01*
X13989418Y-9271062D01*
X13987751Y-9277272D01*
X13983198Y-9281812D01*
X13976982Y-9283461D01*
X13629495Y-9282456D01*
X13622960Y-9280572D01*
X13618402Y-9275525D01*
X13617191Y-9268832D01*
X13619693Y-9262508D01*
X13627922Y-9251784D01*
X13633973Y-9237176D01*
X13636036Y-9221500D01*
X13633973Y-9205824D01*
X13627922Y-9191216D01*
X13623107Y-9184940D01*
X13618296Y-9178672D01*
X13605752Y-9169046D01*
X13591144Y-9162996D01*
X13575468Y-9160932D01*
X13559792Y-9162996D01*
X13545184Y-9169046D01*
X13532640Y-9178672D01*
X13523015Y-9191216D01*
X13516964Y-9205824D01*
X13514900Y-9221500D01*
X13516964Y-9237176D01*
X13523015Y-9251784D01*
X13531003Y-9262194D01*
X13533506Y-9268537D01*
X13532278Y-9275244D01*
X13527690Y-9280287D01*
X13521129Y-9282143D01*
X13382152Y-9281741D01*
X13375617Y-9279857D01*
X13371059Y-9274809D01*
X13369849Y-9268117D01*
X13372351Y-9261793D01*
X13377256Y-9255400D01*
X13383307Y-9240792D01*
X13385370Y-9225116D01*
X13385370Y-9225113D01*
X13384101Y-9215473D01*
X13383307Y-9209440D01*
X13377256Y-9194832D01*
X13374481Y-9191216D01*
X13367630Y-9182288D01*
X13355086Y-9172662D01*
X13340478Y-9166612D01*
X13324802Y-9164548D01*
X13309126Y-9166612D01*
X13294518Y-9172662D01*
X13281974Y-9182288D01*
X13272348Y-9194832D01*
X13266298Y-9209440D01*
X13264234Y-9225116D01*
X13266298Y-9240792D01*
X13272348Y-9255400D01*
X13272348Y-9255400D01*
X13272349Y-9255400D01*
X13276998Y-9261460D01*
X13279502Y-9267802D01*
X13278274Y-9274509D01*
X13273686Y-9279553D01*
X13267125Y-9281408D01*
X13155572Y-9281086D01*
X13110882Y-9280956D01*
X13104698Y-9279283D01*
X13100174Y-9274746D01*
X13098518Y-9268557D01*
X13098518Y-9219632D01*
X13099797Y-9214148D01*
X13103370Y-9209794D01*
X13111796Y-9203328D01*
X13113310Y-9201356D01*
X13121422Y-9190784D01*
X13127473Y-9176176D01*
X13129536Y-9160500D01*
X13127473Y-9144824D01*
X13121422Y-9130216D01*
X13121051Y-9129732D01*
X13111796Y-9117672D01*
X13099252Y-9108046D01*
X13084644Y-9101996D01*
X13068968Y-9099932D01*
X13053292Y-9101996D01*
X13038684Y-9108046D01*
X13026140Y-9117672D01*
X13016515Y-9130216D01*
X13010464Y-9144824D01*
X13008400Y-9160500D01*
X13010464Y-9176176D01*
X13016515Y-9190784D01*
X13026140Y-9203328D01*
X13033567Y-9209027D01*
X13037139Y-9213380D01*
X13038418Y-9218865D01*
X13038418Y-9268311D01*
X13036751Y-9274521D01*
X13032198Y-9279061D01*
X13025982Y-9280711D01*
X12950615Y-9280493D01*
X12857882Y-9280225D01*
X12851698Y-9278551D01*
X12847174Y-9274014D01*
X12845518Y-9267825D01*
X12845518Y-9145248D01*
X12846797Y-9139764D01*
X12850370Y-9135411D01*
X12850862Y-9135033D01*
X12858296Y-9129328D01*
X12867922Y-9116784D01*
X12873973Y-9102176D01*
X12876036Y-9086500D01*
X12873973Y-9070824D01*
X12867922Y-9056216D01*
X12866094Y-9053834D01*
X12858296Y-9043672D01*
X12845752Y-9034046D01*
X12831144Y-9027996D01*
X12815468Y-9025932D01*
X12799792Y-9027996D01*
X12785184Y-9034046D01*
X12772640Y-9043672D01*
X12763015Y-9056216D01*
X12756964Y-9070824D01*
X12754900Y-9086500D01*
X12756964Y-9102176D01*
X12763015Y-9116784D01*
X12771547Y-9127904D01*
X12772640Y-9129328D01*
X12780074Y-9135033D01*
X12780567Y-9135411D01*
X12784139Y-9139764D01*
X12785418Y-9145248D01*
X12785418Y-9267579D01*
X12783751Y-9273790D01*
X12779198Y-9278330D01*
X12772982Y-9279979D01*
X11640094Y-9276702D01*
X11640094Y-9276702D01*
X11640968Y-9631500D01*
X11641304Y-9631501D01*
X11708961Y-9631697D01*
X11713421Y-9632540D01*
X11717278Y-9634933D01*
X11722572Y-9639759D01*
X11725812Y-9642713D01*
X11739075Y-9650925D01*
X11744728Y-9654425D01*
X11760498Y-9660534D01*
X11764650Y-9663194D01*
X11767437Y-9667263D01*
X11768418Y-9672097D01*
X11768418Y-9718705D01*
X11767139Y-9724189D01*
X11763567Y-9728542D01*
X11760140Y-9731172D01*
X11750515Y-9743716D01*
X11744464Y-9758324D01*
X11742400Y-9774000D01*
X11744464Y-9789676D01*
X11750515Y-9804284D01*
X11760140Y-9816828D01*
X11768852Y-9823513D01*
X11772684Y-9826454D01*
X11787292Y-9832504D01*
X11802968Y-9834568D01*
X11818644Y-9832504D01*
X11833252Y-9826454D01*
X11845796Y-9816828D01*
X11855422Y-9804284D01*
X11861473Y-9789676D01*
X11863536Y-9774000D01*
X11861473Y-9758324D01*
X11855422Y-9743716D01*
X11845796Y-9731172D01*
X11833370Y-9721636D01*
X11829797Y-9717283D01*
X11828518Y-9711799D01*
X11828518Y-9672097D01*
X11829499Y-9667263D01*
X11832286Y-9663194D01*
X11836439Y-9660534D01*
X11852208Y-9654425D01*
X11871124Y-9642712D01*
X11879091Y-9635450D01*
X11882982Y-9633044D01*
X11887481Y-9632213D01*
X11967621Y-9632445D01*
X11972081Y-9633289D01*
X11975939Y-9635682D01*
X11979812Y-9639212D01*
X11985997Y-9643042D01*
X11998728Y-9650925D01*
X12014498Y-9657034D01*
X12018650Y-9659694D01*
X12021437Y-9663763D01*
X12022418Y-9668597D01*
X12022418Y-9786601D01*
X12021139Y-9792085D01*
X12017567Y-9796438D01*
X12008140Y-9803672D01*
X11998515Y-9816216D01*
X11992464Y-9830824D01*
X11990400Y-9846500D01*
X11992464Y-9862176D01*
X11998515Y-9876784D01*
X12008140Y-9889328D01*
X12017531Y-9896534D01*
X12020684Y-9898954D01*
X12035292Y-9905004D01*
X12050968Y-9907068D01*
X12066644Y-9905004D01*
X12081252Y-9898954D01*
X12093796Y-9889328D01*
X12103422Y-9876784D01*
X12109473Y-9862176D01*
X12111536Y-9846500D01*
X12109473Y-9830824D01*
X12103422Y-9816216D01*
X12093796Y-9803672D01*
X12087370Y-9798740D01*
X12083797Y-9794387D01*
X12082518Y-9788903D01*
X12082518Y-9668597D01*
X12083499Y-9663763D01*
X12086286Y-9659694D01*
X12090439Y-9657034D01*
X12106208Y-9650925D01*
X12125124Y-9639212D01*
X12128460Y-9636171D01*
X12132351Y-9633766D01*
X12136850Y-9632935D01*
X12240045Y-9633234D01*
X12246536Y-9635091D01*
X12253202Y-9639218D01*
X12257789Y-9644262D01*
X12259016Y-9650968D01*
X12256512Y-9657310D01*
X12253515Y-9661216D01*
X12247464Y-9675824D01*
X12245400Y-9691500D01*
X12247464Y-9707176D01*
X12253515Y-9721784D01*
X12263140Y-9734328D01*
X12275374Y-9743716D01*
X12275684Y-9743954D01*
X12290292Y-9750004D01*
X12305968Y-9752068D01*
X12321644Y-9750004D01*
X12336252Y-9743954D01*
X12348796Y-9734328D01*
X12358422Y-9721784D01*
X12364473Y-9707176D01*
X12366536Y-9691500D01*
X12364473Y-9675824D01*
X12358422Y-9661216D01*
X12355722Y-9657698D01*
X12353384Y-9652498D01*
X12353621Y-9646801D01*
X12356381Y-9641812D01*
X12359373Y-9639759D01*
X12359231Y-9639530D01*
X12361434Y-9638166D01*
X12365782Y-9635474D01*
X12372345Y-9633617D01*
X12504070Y-9633998D01*
X12510067Y-9635565D01*
X12512270Y-9636792D01*
X12516371Y-9638166D01*
X12521862Y-9641873D01*
X12524661Y-9647879D01*
X12523967Y-9654469D01*
X12519979Y-9659761D01*
X12518140Y-9661172D01*
X12508515Y-9673716D01*
X12502464Y-9688324D01*
X12500400Y-9704000D01*
X12502464Y-9719676D01*
X12508515Y-9734284D01*
X12518140Y-9746828D01*
X12524969Y-9752068D01*
X12530684Y-9756454D01*
X12545292Y-9762504D01*
X12560968Y-9764568D01*
X12576644Y-9762504D01*
X12591252Y-9756454D01*
X12603796Y-9746828D01*
X12613422Y-9734284D01*
X12619473Y-9719676D01*
X12621536Y-9704000D01*
X12619473Y-9688324D01*
X12613422Y-9673716D01*
X12605901Y-9663914D01*
X12603797Y-9661172D01*
X12601957Y-9659761D01*
X12601901Y-9659717D01*
X12598021Y-9654691D01*
X12597138Y-9648403D01*
X12599483Y-9642503D01*
X12604441Y-9638537D01*
X12610907Y-9635682D01*
X12611590Y-9635380D01*
X12616634Y-9634324D01*
X15019783Y-9641278D01*
X15047646Y-9641359D01*
X15047646Y-9641359D01*
X15047874Y-9569411D01*
X15049549Y-9563227D01*
X15054086Y-9558705D01*
X15060274Y-9557050D01*
X15386018Y-9557050D01*
X15392218Y-9558711D01*
X15396757Y-9563250D01*
X15398418Y-9569450D01*
X15398418Y-9764993D01*
X15397474Y-9769738D01*
X15394786Y-9773761D01*
X15092223Y-10076324D01*
X15091999Y-10076543D01*
X15085976Y-10082268D01*
X15084372Y-10084573D01*
X15082788Y-10086849D01*
X15082221Y-10087600D01*
X15078695Y-10091925D01*
X15077375Y-10094452D01*
X15076562Y-10095794D01*
X15074933Y-10098134D01*
X15072732Y-10103262D01*
X15072328Y-10104113D01*
X15069744Y-10109060D01*
X15068960Y-10111800D01*
X15068434Y-10113278D01*
X15067310Y-10115899D01*
X15066186Y-10121365D01*
X15065962Y-10122280D01*
X15064426Y-10127645D01*
X15064210Y-10130488D01*
X15063992Y-10132042D01*
X15063418Y-10134834D01*
X15063418Y-10140415D01*
X15063382Y-10141356D01*
X15062959Y-10146920D01*
X15063319Y-10149748D01*
X15063418Y-10151314D01*
X15063418Y-11204524D01*
X15062474Y-11209270D01*
X15059786Y-11213293D01*
X14780223Y-11492855D01*
X14779999Y-11493075D01*
X14773976Y-11498799D01*
X14772372Y-11501104D01*
X14770788Y-11503381D01*
X14770221Y-11504131D01*
X14766695Y-11508456D01*
X14765375Y-11510983D01*
X14764562Y-11512325D01*
X14762933Y-11514666D01*
X14760732Y-11519794D01*
X14760328Y-11520645D01*
X14757744Y-11525591D01*
X14756960Y-11528332D01*
X14756434Y-11529810D01*
X14755310Y-11532430D01*
X14754395Y-11536880D01*
X14751868Y-11542208D01*
X14747166Y-11545767D01*
X14741351Y-11546751D01*
X14735739Y-11544937D01*
X14723380Y-11537314D01*
X14706738Y-11531799D01*
X14696466Y-11530750D01*
X14653968Y-11530750D01*
X14653968Y-11743250D01*
X14696466Y-11743250D01*
X14706738Y-11742201D01*
X14723380Y-11736686D01*
X14738302Y-11727482D01*
X14749448Y-11716336D01*
X14755457Y-11713015D01*
X14762311Y-11713400D01*
X14762680Y-11713529D01*
X14775498Y-11718015D01*
X14776716Y-11718129D01*
X14778541Y-11718300D01*
X14778542Y-11718300D01*
X14785518Y-11718300D01*
X14789529Y-11718966D01*
X14793108Y-11720894D01*
X14795931Y-11723080D01*
X14813287Y-11731593D01*
X14832001Y-11736438D01*
X14851307Y-11737418D01*
X14851307Y-11737417D01*
X14851307Y-11737418D01*
X14870416Y-11734490D01*
X14870416Y-11734490D01*
X14888544Y-11727776D01*
X14900736Y-11720177D01*
X14907295Y-11718300D01*
X14914395Y-11718300D01*
X14915916Y-11718157D01*
X14917438Y-11718015D01*
X14930256Y-11713529D01*
X14930256Y-11713529D01*
X14930257Y-11713529D01*
X14941183Y-11705465D01*
X14949247Y-11694538D01*
X14949248Y-11694538D01*
X14953733Y-11681720D01*
X14954018Y-11678677D01*
X14954018Y-11605323D01*
X14953954Y-11604639D01*
X14953733Y-11602280D01*
X14952653Y-11599195D01*
X14952268Y-11592340D01*
X14955589Y-11586332D01*
X15224719Y-11317202D01*
X15224936Y-11316991D01*
X15230960Y-11311264D01*
X15234150Y-11306681D01*
X15234713Y-11305934D01*
X15238242Y-11301607D01*
X15239562Y-11299080D01*
X15240375Y-11297737D01*
X15242003Y-11295398D01*
X15242004Y-11295397D01*
X15244205Y-11290267D01*
X15244608Y-11289419D01*
X15247192Y-11284472D01*
X15247976Y-11281731D01*
X15248502Y-11280254D01*
X15249627Y-11277633D01*
X15250751Y-11272163D01*
X15250974Y-11271253D01*
X15252510Y-11265887D01*
X15252726Y-11263044D01*
X15252944Y-11261490D01*
X15253518Y-11258697D01*
X15253518Y-11253117D01*
X15253554Y-11252175D01*
X15253584Y-11251788D01*
X15253978Y-11246611D01*
X15253618Y-11243784D01*
X15253518Y-11242217D01*
X15253518Y-11077000D01*
X16018434Y-11077000D01*
X16020366Y-11096613D01*
X16026087Y-11115473D01*
X16026087Y-11115473D01*
X16035377Y-11132854D01*
X16047880Y-11148088D01*
X16063114Y-11160591D01*
X16080496Y-11169881D01*
X16099355Y-11175602D01*
X16118968Y-11177534D01*
X16138581Y-11175602D01*
X16144832Y-11173706D01*
X16148532Y-11172584D01*
X16152132Y-11172050D01*
X16294606Y-11172050D01*
X16294920Y-11172054D01*
X16303222Y-11172264D01*
X16303222Y-11172264D01*
X16303223Y-11172264D01*
X16308718Y-11171279D01*
X16309647Y-11171149D01*
X16315200Y-11170585D01*
X16317922Y-11169731D01*
X16319444Y-11169357D01*
X16322251Y-11168854D01*
X16327434Y-11166783D01*
X16328320Y-11166468D01*
X16329854Y-11165987D01*
X16333645Y-11164797D01*
X16336138Y-11163413D01*
X16337555Y-11162741D01*
X16340203Y-11161683D01*
X16344863Y-11158611D01*
X16345668Y-11158124D01*
X16350547Y-11155416D01*
X16350547Y-11155416D01*
X16350547Y-11155416D01*
X16352711Y-11153559D01*
X16353963Y-11152614D01*
X16356344Y-11151045D01*
X16360290Y-11147099D01*
X16360981Y-11146459D01*
X16362619Y-11145052D01*
X16365215Y-11142824D01*
X16366961Y-11140569D01*
X16367997Y-11139392D01*
X16430389Y-11077000D01*
X16780434Y-11077000D01*
X16782366Y-11096613D01*
X16788087Y-11115473D01*
X16788087Y-11115473D01*
X16797377Y-11132854D01*
X16809880Y-11148088D01*
X16825115Y-11160591D01*
X16842496Y-11169881D01*
X16861355Y-11175602D01*
X16880968Y-11177534D01*
X16900582Y-11175602D01*
X16919441Y-11169881D01*
X16936822Y-11160591D01*
X16952057Y-11148088D01*
X16964559Y-11132854D01*
X16973850Y-11115473D01*
X16979571Y-11096613D01*
X16981502Y-11077000D01*
X16979571Y-11057387D01*
X16973850Y-11038527D01*
X16964559Y-11021146D01*
X16952057Y-11005912D01*
X16936822Y-10993409D01*
X16930538Y-10990050D01*
X16919441Y-10984119D01*
X16900582Y-10978398D01*
X16880968Y-10976466D01*
X16861355Y-10978398D01*
X16842496Y-10984119D01*
X16825115Y-10993409D01*
X16809880Y-11005912D01*
X16797377Y-11021146D01*
X16788087Y-11038527D01*
X16782366Y-11057387D01*
X16780434Y-11077000D01*
X16430389Y-11077000D01*
X16547219Y-10960170D01*
X16547436Y-10959959D01*
X16553460Y-10954232D01*
X16556650Y-10949649D01*
X16557214Y-10948901D01*
X16560742Y-10944575D01*
X16562062Y-10942047D01*
X16562874Y-10940707D01*
X16564504Y-10938366D01*
X16566706Y-10933234D01*
X16567107Y-10932390D01*
X16569692Y-10927441D01*
X16570476Y-10924699D01*
X16571003Y-10923221D01*
X16571697Y-10921602D01*
X16572127Y-10920601D01*
X16573250Y-10915133D01*
X16573474Y-10914223D01*
X16575010Y-10908855D01*
X16575226Y-10906011D01*
X16575444Y-10904459D01*
X16576018Y-10901666D01*
X16576018Y-10896085D01*
X16576054Y-10895144D01*
X16576134Y-10894088D01*
X16576478Y-10889580D01*
X16576118Y-10886752D01*
X16576018Y-10885186D01*
X16576018Y-10823000D01*
X16780434Y-10823000D01*
X16782366Y-10842613D01*
X16788087Y-10861473D01*
X16788087Y-10861473D01*
X16797377Y-10878854D01*
X16809880Y-10894088D01*
X16825115Y-10906591D01*
X16842496Y-10915881D01*
X16861355Y-10921602D01*
X16880968Y-10923534D01*
X16900582Y-10921602D01*
X16919441Y-10915881D01*
X16936822Y-10906591D01*
X16952057Y-10894088D01*
X16964559Y-10878854D01*
X16973850Y-10861473D01*
X16979571Y-10842613D01*
X16981502Y-10823000D01*
X16979571Y-10803387D01*
X16973850Y-10784527D01*
X16964559Y-10767146D01*
X16952057Y-10751912D01*
X16936822Y-10739409D01*
X16934577Y-10738209D01*
X16919441Y-10730119D01*
X16900582Y-10724398D01*
X16880968Y-10722466D01*
X16861355Y-10724398D01*
X16842496Y-10730119D01*
X16825115Y-10739409D01*
X16809880Y-10751912D01*
X16797377Y-10767146D01*
X16788087Y-10784527D01*
X16782366Y-10803387D01*
X16780434Y-10823000D01*
X16576018Y-10823000D01*
X16576018Y-10594000D01*
X16753081Y-10594000D01*
X16758342Y-10613633D01*
X16767955Y-10634248D01*
X16781002Y-10652882D01*
X16797086Y-10668966D01*
X16815720Y-10682013D01*
X16836336Y-10691627D01*
X16855968Y-10696887D01*
X16855968Y-10696887D01*
X16855968Y-10594000D01*
X16905968Y-10594000D01*
X16905968Y-10696887D01*
X16925601Y-10691627D01*
X16946216Y-10682013D01*
X16964850Y-10668966D01*
X16980934Y-10652882D01*
X16993982Y-10634248D01*
X17003595Y-10613633D01*
X17008856Y-10594000D01*
X16905968Y-10594000D01*
X16855968Y-10594000D01*
X16753081Y-10594000D01*
X16576018Y-10594000D01*
X16576018Y-10544000D01*
X16753081Y-10544000D01*
X16855968Y-10544000D01*
X16855968Y-10441113D01*
X16905968Y-10441113D01*
X16905968Y-10544000D01*
X17008856Y-10544000D01*
X17008855Y-10544000D01*
X17003595Y-10524367D01*
X16993982Y-10503752D01*
X16980934Y-10485118D01*
X16964850Y-10469034D01*
X16946216Y-10455987D01*
X16925601Y-10446373D01*
X16905968Y-10441113D01*
X16855968Y-10441113D01*
X16855968Y-10441113D01*
X16836336Y-10446373D01*
X16815720Y-10455987D01*
X16797086Y-10469034D01*
X16781002Y-10485118D01*
X16767955Y-10503752D01*
X16758342Y-10524367D01*
X16753081Y-10544000D01*
X16753081Y-10544000D01*
X16576018Y-10544000D01*
X16576018Y-10315000D01*
X16780434Y-10315000D01*
X16780756Y-10318265D01*
X16782366Y-10334613D01*
X16788087Y-10353473D01*
X16792142Y-10361058D01*
X16797377Y-10370854D01*
X16809880Y-10386088D01*
X16825115Y-10398591D01*
X16842496Y-10407881D01*
X16861355Y-10413602D01*
X16880968Y-10415534D01*
X16900582Y-10413602D01*
X16917125Y-10408584D01*
X16920725Y-10408050D01*
X16944070Y-10408050D01*
X16944071Y-10408050D01*
X16958482Y-10406585D01*
X16976927Y-10400797D01*
X16993829Y-10391416D01*
X17008497Y-10378824D01*
X17008497Y-10378824D01*
X17009408Y-10378041D01*
X17013179Y-10375822D01*
X17017485Y-10375050D01*
X17068220Y-10375050D01*
X17069838Y-10375156D01*
X17072968Y-10375568D01*
X17088645Y-10373504D01*
X17103252Y-10367454D01*
X17111587Y-10361058D01*
X17115797Y-10357828D01*
X17117719Y-10355322D01*
X17118787Y-10354104D01*
X17290073Y-10182819D01*
X17291291Y-10181751D01*
X17293797Y-10179828D01*
X17303422Y-10167284D01*
X17309473Y-10152676D01*
X17311018Y-10140936D01*
X17311537Y-10137000D01*
X17311124Y-10133870D01*
X17311018Y-10132251D01*
X17311018Y-8949041D01*
X17311962Y-8944296D01*
X17314650Y-8940273D01*
X17373364Y-8881559D01*
X17559104Y-8695819D01*
X17560322Y-8694751D01*
X17562828Y-8692828D01*
X17572454Y-8680284D01*
X17578504Y-8665676D01*
X17580050Y-8653936D01*
X17580568Y-8650000D01*
X17580156Y-8646870D01*
X17580050Y-8645251D01*
X17580050Y-8372249D01*
X17580156Y-8370630D01*
X17580568Y-8367500D01*
X17580296Y-8365436D01*
X17578504Y-8351824D01*
X17572454Y-8337216D01*
X17565245Y-8327822D01*
X17565245Y-8327822D01*
X17565245Y-8327821D01*
X17562828Y-8324672D01*
X17560323Y-8322749D01*
X17559104Y-8321680D01*
X17477320Y-8239896D01*
X17476250Y-8238677D01*
X17474328Y-8236172D01*
X17461784Y-8226546D01*
X17447705Y-8220714D01*
X17443682Y-8218026D01*
X17440994Y-8214004D01*
X17440050Y-8209258D01*
X17440050Y-8187025D01*
X17438887Y-8181177D01*
X17434455Y-8174545D01*
X17427823Y-8170113D01*
X17421975Y-8168950D01*
X17421975Y-8168950D01*
X17238025Y-8168950D01*
X17238025Y-8168950D01*
X17232177Y-8170113D01*
X17225545Y-8174545D01*
X17221113Y-8181177D01*
X17219950Y-8187025D01*
X17219950Y-8370975D01*
X17221113Y-8376823D01*
X17225545Y-8383455D01*
X17232177Y-8387887D01*
X17238025Y-8389050D01*
X17238025Y-8389050D01*
X17421975Y-8389050D01*
X17421975Y-8389050D01*
X17424899Y-8388468D01*
X17427823Y-8387887D01*
X17434455Y-8383455D01*
X17434455Y-8383455D01*
X17435931Y-8382469D01*
X17441201Y-8380486D01*
X17446806Y-8381038D01*
X17451588Y-8384011D01*
X17456318Y-8388742D01*
X17459006Y-8392764D01*
X17459950Y-8397510D01*
X17459950Y-8498697D01*
X17458564Y-8504394D01*
X17454714Y-8508818D01*
X17449263Y-8510978D01*
X17443429Y-8510392D01*
X17438516Y-8507191D01*
X17435623Y-8502091D01*
X17433058Y-8493075D01*
X17423968Y-8474818D01*
X17411676Y-8458542D01*
X17396604Y-8444802D01*
X17379264Y-8434065D01*
X17360246Y-8426698D01*
X17353563Y-8425448D01*
X17340198Y-8422950D01*
X17319802Y-8422950D01*
X17309778Y-8424824D01*
X17299754Y-8426698D01*
X17280736Y-8434065D01*
X17263396Y-8444802D01*
X17248324Y-8458542D01*
X17236032Y-8474818D01*
X17226942Y-8493075D01*
X17221360Y-8512692D01*
X17219479Y-8533000D01*
X17221360Y-8553308D01*
X17226942Y-8572925D01*
X17236032Y-8591182D01*
X17248324Y-8607458D01*
X17263396Y-8621198D01*
X17275606Y-8628758D01*
X17280736Y-8631935D01*
X17299754Y-8639302D01*
X17319802Y-8643050D01*
X17340197Y-8643050D01*
X17340198Y-8643050D01*
X17360246Y-8639302D01*
X17379264Y-8631935D01*
X17396604Y-8621198D01*
X17411676Y-8607458D01*
X17423967Y-8591182D01*
X17423967Y-8591182D01*
X17423968Y-8591182D01*
X17428531Y-8582016D01*
X17433058Y-8572925D01*
X17435623Y-8563910D01*
X17438516Y-8558809D01*
X17443429Y-8555608D01*
X17449263Y-8555022D01*
X17454714Y-8557182D01*
X17458564Y-8561606D01*
X17459950Y-8567303D01*
X17459950Y-8619990D01*
X17459006Y-8624736D01*
X17456318Y-8628758D01*
X17211865Y-8873212D01*
X17210646Y-8874281D01*
X17208140Y-8876203D01*
X17207372Y-8877205D01*
X17201392Y-8884997D01*
X17198515Y-8888748D01*
X17192464Y-8903355D01*
X17190400Y-8919032D01*
X17190761Y-8921769D01*
X17190799Y-8922063D01*
X17190812Y-8922162D01*
X17190918Y-8923780D01*
X17190918Y-10106990D01*
X17189974Y-10111736D01*
X17187286Y-10115758D01*
X17051727Y-10251318D01*
X17047704Y-10254006D01*
X17042959Y-10254950D01*
X17020532Y-10254950D01*
X17015642Y-10253945D01*
X17011544Y-10251093D01*
X17001482Y-10240508D01*
X16988409Y-10231409D01*
X16985616Y-10229465D01*
X16980285Y-10227177D01*
X16967851Y-10221841D01*
X16952807Y-10218750D01*
X16948916Y-10217950D01*
X16948916Y-10217950D01*
X16907538Y-10217950D01*
X16903939Y-10217416D01*
X16903390Y-10217250D01*
X16900582Y-10216398D01*
X16882727Y-10214639D01*
X16880968Y-10214466D01*
X16880968Y-10214466D01*
X16861355Y-10216398D01*
X16842496Y-10222119D01*
X16825115Y-10231409D01*
X16809880Y-10243912D01*
X16797377Y-10259146D01*
X16788087Y-10276527D01*
X16782366Y-10295387D01*
X16782366Y-10295387D01*
X16782366Y-10295387D01*
X16780434Y-10315000D01*
X16576018Y-10315000D01*
X16576018Y-9939000D01*
X16782934Y-9939000D01*
X16784866Y-9958613D01*
X16790587Y-9977473D01*
X16798133Y-9991590D01*
X16799877Y-9994854D01*
X16812380Y-10010088D01*
X16827615Y-10022591D01*
X16844996Y-10031881D01*
X16863855Y-10037602D01*
X16883468Y-10039534D01*
X16903082Y-10037602D01*
X16921941Y-10031881D01*
X16939322Y-10022591D01*
X16954557Y-10010088D01*
X16967059Y-9994854D01*
X16976350Y-9977473D01*
X16982071Y-9958613D01*
X16984002Y-9939000D01*
X16982071Y-9919387D01*
X16976350Y-9900527D01*
X16967059Y-9883146D01*
X16954557Y-9867912D01*
X16939322Y-9855409D01*
X16930586Y-9850739D01*
X16921941Y-9846119D01*
X16903082Y-9840398D01*
X16883468Y-9838466D01*
X16863855Y-9840398D01*
X16844996Y-9846119D01*
X16827615Y-9855409D01*
X16812380Y-9867912D01*
X16799877Y-9883146D01*
X16790587Y-9900527D01*
X16784866Y-9919387D01*
X16782934Y-9939000D01*
X16576018Y-9939000D01*
X16576018Y-9685000D01*
X16782934Y-9685000D01*
X16784866Y-9704613D01*
X16790587Y-9723473D01*
X16795774Y-9733176D01*
X16799877Y-9740854D01*
X16812380Y-9756088D01*
X16827615Y-9768591D01*
X16844996Y-9777881D01*
X16863855Y-9783602D01*
X16883468Y-9785534D01*
X16903082Y-9783602D01*
X16921941Y-9777881D01*
X16939322Y-9768591D01*
X16954557Y-9756088D01*
X16967059Y-9740854D01*
X16976350Y-9723473D01*
X16982071Y-9704613D01*
X16984002Y-9685000D01*
X16982071Y-9665387D01*
X16976350Y-9646527D01*
X16967059Y-9629146D01*
X16954557Y-9613912D01*
X16939322Y-9601409D01*
X16937077Y-9600209D01*
X16921941Y-9592119D01*
X16903082Y-9586398D01*
X16893275Y-9585432D01*
X16883468Y-9584466D01*
X16883468Y-9584466D01*
X16863855Y-9586398D01*
X16844996Y-9592119D01*
X16827615Y-9601409D01*
X16812380Y-9613912D01*
X16799877Y-9629146D01*
X16790587Y-9646527D01*
X16784866Y-9665387D01*
X16782934Y-9685000D01*
X16576018Y-9685000D01*
X16576018Y-9469007D01*
X16576962Y-9464262D01*
X16579650Y-9460239D01*
X16608889Y-9431000D01*
X16782934Y-9431000D01*
X16784866Y-9450613D01*
X16790587Y-9469473D01*
X16792871Y-9473745D01*
X16799877Y-9486854D01*
X16812380Y-9502088D01*
X16827615Y-9514591D01*
X16844996Y-9523881D01*
X16863855Y-9529602D01*
X16883468Y-9531534D01*
X16903082Y-9529602D01*
X16921941Y-9523881D01*
X16939322Y-9514591D01*
X16954557Y-9502088D01*
X16967059Y-9486854D01*
X16976350Y-9469473D01*
X16982071Y-9450613D01*
X16984002Y-9431000D01*
X16982071Y-9411387D01*
X16976350Y-9392527D01*
X16967059Y-9375146D01*
X16954557Y-9359912D01*
X16939322Y-9347409D01*
X16931998Y-9343494D01*
X16921941Y-9338119D01*
X16903082Y-9332398D01*
X16883468Y-9330466D01*
X16863855Y-9332398D01*
X16844996Y-9338119D01*
X16827615Y-9347409D01*
X16812380Y-9359912D01*
X16799877Y-9375146D01*
X16790587Y-9392527D01*
X16784866Y-9411387D01*
X16782934Y-9431000D01*
X16608889Y-9431000D01*
X16764207Y-9275682D01*
X16768230Y-9272994D01*
X16772975Y-9272050D01*
X16850305Y-9272050D01*
X16853904Y-9272584D01*
X16857879Y-9273790D01*
X16863855Y-9275602D01*
X16883468Y-9277534D01*
X16903082Y-9275602D01*
X16921941Y-9269881D01*
X16939322Y-9260591D01*
X16954557Y-9248088D01*
X16967059Y-9232854D01*
X16976350Y-9215473D01*
X16982071Y-9196613D01*
X16984002Y-9177000D01*
X16982071Y-9157387D01*
X16976350Y-9138527D01*
X16967059Y-9121146D01*
X16954557Y-9105912D01*
X16939322Y-9093409D01*
X16931404Y-9089177D01*
X16921941Y-9084119D01*
X16903082Y-9078398D01*
X16888384Y-9076950D01*
X16883468Y-9076466D01*
X16883468Y-9076466D01*
X16863855Y-9078398D01*
X16853904Y-9081416D01*
X16850305Y-9081950D01*
X16729831Y-9081950D01*
X16729517Y-9081946D01*
X16721214Y-9081736D01*
X16715721Y-9082720D01*
X16714789Y-9082851D01*
X16709236Y-9083415D01*
X16706516Y-9084269D01*
X16704992Y-9084643D01*
X16702186Y-9085146D01*
X16697002Y-9087216D01*
X16696115Y-9087532D01*
X16690791Y-9089203D01*
X16688299Y-9090586D01*
X16686882Y-9091259D01*
X16684233Y-9092317D01*
X16679573Y-9095388D01*
X16678768Y-9095876D01*
X16673889Y-9098584D01*
X16671726Y-9100441D01*
X16670473Y-9101386D01*
X16668092Y-9102955D01*
X16664147Y-9106900D01*
X16663456Y-9107540D01*
X16659221Y-9111176D01*
X16657476Y-9113431D01*
X16656439Y-9114608D01*
X16414723Y-9356324D01*
X16414499Y-9356543D01*
X16408476Y-9362268D01*
X16406872Y-9364573D01*
X16405288Y-9366849D01*
X16404721Y-9367600D01*
X16401195Y-9371925D01*
X16399875Y-9374452D01*
X16399062Y-9375794D01*
X16397433Y-9378134D01*
X16395232Y-9383262D01*
X16394828Y-9384113D01*
X16392244Y-9389060D01*
X16391460Y-9391800D01*
X16390934Y-9393278D01*
X16389810Y-9395899D01*
X16388686Y-9401365D01*
X16388462Y-9402280D01*
X16386926Y-9407645D01*
X16386710Y-9410488D01*
X16386492Y-9412042D01*
X16385918Y-9414834D01*
X16385918Y-9420415D01*
X16385882Y-9421356D01*
X16385459Y-9426920D01*
X16385819Y-9429748D01*
X16385918Y-9431314D01*
X16385918Y-10847493D01*
X16384974Y-10852238D01*
X16382286Y-10856261D01*
X16260229Y-10978318D01*
X16256206Y-10981006D01*
X16251461Y-10981950D01*
X16152132Y-10981950D01*
X16148532Y-10981416D01*
X16138581Y-10978398D01*
X16118968Y-10976466D01*
X16099355Y-10978398D01*
X16080496Y-10984119D01*
X16063115Y-10993409D01*
X16047880Y-11005912D01*
X16035377Y-11021146D01*
X16026087Y-11038527D01*
X16020366Y-11057387D01*
X16018434Y-11077000D01*
X15253518Y-11077000D01*
X15253518Y-10823000D01*
X16018434Y-10823000D01*
X16020366Y-10842613D01*
X16026087Y-10861473D01*
X16026087Y-10861473D01*
X16035377Y-10878854D01*
X16047880Y-10894088D01*
X16063114Y-10906591D01*
X16080496Y-10915881D01*
X16099355Y-10921602D01*
X16118968Y-10923534D01*
X16138581Y-10921602D01*
X16157441Y-10915881D01*
X16174822Y-10906591D01*
X16190057Y-10894088D01*
X16202559Y-10878854D01*
X16211850Y-10861473D01*
X16217571Y-10842613D01*
X16219502Y-10823000D01*
X16217571Y-10803387D01*
X16211850Y-10784527D01*
X16202559Y-10767146D01*
X16190057Y-10751912D01*
X16174822Y-10739409D01*
X16172577Y-10738209D01*
X16157441Y-10730119D01*
X16138582Y-10724398D01*
X16118968Y-10722466D01*
X16099355Y-10724398D01*
X16080496Y-10730119D01*
X16063115Y-10739409D01*
X16047880Y-10751912D01*
X16035377Y-10767146D01*
X16026087Y-10784527D01*
X16020366Y-10803387D01*
X16018434Y-10823000D01*
X15253518Y-10823000D01*
X15253518Y-10569000D01*
X16018434Y-10569000D01*
X16020366Y-10588613D01*
X16026087Y-10607473D01*
X16028481Y-10611951D01*
X16035377Y-10624854D01*
X16047880Y-10640088D01*
X16063114Y-10652591D01*
X16080496Y-10661881D01*
X16099355Y-10667602D01*
X16118968Y-10669534D01*
X16138581Y-10667602D01*
X16157441Y-10661881D01*
X16174822Y-10652591D01*
X16190057Y-10640088D01*
X16202559Y-10624854D01*
X16211850Y-10607473D01*
X16217571Y-10588613D01*
X16219502Y-10569000D01*
X16217571Y-10549387D01*
X16211850Y-10530527D01*
X16202559Y-10513146D01*
X16190057Y-10497912D01*
X16174822Y-10485409D01*
X16159699Y-10477325D01*
X16157441Y-10476119D01*
X16138582Y-10470398D01*
X16118968Y-10468466D01*
X16099355Y-10470398D01*
X16080496Y-10476119D01*
X16063115Y-10485409D01*
X16047880Y-10497912D01*
X16035377Y-10513146D01*
X16026087Y-10530527D01*
X16020366Y-10549387D01*
X16018434Y-10569000D01*
X15253518Y-10569000D01*
X15253518Y-10396975D01*
X16018918Y-10396975D01*
X16020081Y-10402823D01*
X16024513Y-10409455D01*
X16031145Y-10413887D01*
X16036993Y-10415050D01*
X16036993Y-10415050D01*
X16200943Y-10415050D01*
X16200943Y-10415050D01*
X16203867Y-10414468D01*
X16206791Y-10413887D01*
X16213423Y-10409455D01*
X16217855Y-10402823D01*
X16219003Y-10397051D01*
X16219018Y-10396975D01*
X16219018Y-10233025D01*
X16217855Y-10227177D01*
X16213423Y-10220545D01*
X16206791Y-10216113D01*
X16200943Y-10214950D01*
X16200943Y-10214950D01*
X16036993Y-10214950D01*
X16036993Y-10214950D01*
X16031145Y-10216113D01*
X16024513Y-10220545D01*
X16020081Y-10227177D01*
X16018918Y-10233025D01*
X16018918Y-10396975D01*
X15253518Y-10396975D01*
X15253518Y-10189007D01*
X15254462Y-10184262D01*
X15257150Y-10180239D01*
X15330399Y-10106990D01*
X15473389Y-9964000D01*
X15993581Y-9964000D01*
X15998842Y-9983633D01*
X16008455Y-10004248D01*
X16021502Y-10022882D01*
X16037586Y-10038966D01*
X16056220Y-10052013D01*
X16076836Y-10061627D01*
X16096468Y-10066887D01*
X16096468Y-10066887D01*
X16096468Y-9964000D01*
X16146468Y-9964000D01*
X16146468Y-10066887D01*
X16166101Y-10061627D01*
X16186716Y-10052013D01*
X16205350Y-10038966D01*
X16221434Y-10022882D01*
X16234482Y-10004248D01*
X16244095Y-9983633D01*
X16249355Y-9964000D01*
X16146468Y-9964000D01*
X16096468Y-9964000D01*
X15993581Y-9964000D01*
X15473389Y-9964000D01*
X15523389Y-9914000D01*
X15993581Y-9914000D01*
X16096468Y-9914000D01*
X16096468Y-9811113D01*
X16146468Y-9811113D01*
X16146468Y-9914000D01*
X16249355Y-9914000D01*
X16249355Y-9914000D01*
X16244095Y-9894367D01*
X16234482Y-9873752D01*
X16221434Y-9855118D01*
X16205350Y-9839034D01*
X16186716Y-9825987D01*
X16166101Y-9816373D01*
X16146468Y-9811113D01*
X16096468Y-9811113D01*
X16096468Y-9811113D01*
X16076836Y-9816373D01*
X16056220Y-9825987D01*
X16037586Y-9839034D01*
X16021502Y-9855118D01*
X16008455Y-9873752D01*
X15998842Y-9894367D01*
X15993581Y-9914000D01*
X15993581Y-9914000D01*
X15523389Y-9914000D01*
X15559719Y-9877670D01*
X15559936Y-9877459D01*
X15565960Y-9871732D01*
X15567401Y-9869662D01*
X15569148Y-9867152D01*
X15569716Y-9866399D01*
X15569837Y-9866250D01*
X15573242Y-9862075D01*
X15574562Y-9859548D01*
X15575375Y-9858206D01*
X15577003Y-9855866D01*
X15577004Y-9855866D01*
X15579205Y-9850735D01*
X15579608Y-9849888D01*
X15582192Y-9844941D01*
X15582976Y-9842200D01*
X15583502Y-9840723D01*
X15584627Y-9838101D01*
X15585751Y-9832631D01*
X15585974Y-9831722D01*
X15587510Y-9826355D01*
X15587726Y-9823513D01*
X15587944Y-9821959D01*
X15588518Y-9819166D01*
X15588518Y-9813584D01*
X15588554Y-9812643D01*
X15588671Y-9811113D01*
X15588978Y-9807080D01*
X15588618Y-9804253D01*
X15588518Y-9802686D01*
X15588518Y-9685000D01*
X16020934Y-9685000D01*
X16022866Y-9704613D01*
X16028587Y-9723473D01*
X16033773Y-9733176D01*
X16037877Y-9740854D01*
X16050380Y-9756088D01*
X16065614Y-9768591D01*
X16082996Y-9777881D01*
X16101855Y-9783602D01*
X16121468Y-9785534D01*
X16141081Y-9783602D01*
X16159941Y-9777881D01*
X16177322Y-9768591D01*
X16192557Y-9756088D01*
X16205059Y-9740854D01*
X16214350Y-9723473D01*
X16220071Y-9704613D01*
X16222002Y-9685000D01*
X16220071Y-9665387D01*
X16214350Y-9646527D01*
X16205059Y-9629146D01*
X16192557Y-9613912D01*
X16177322Y-9601409D01*
X16175077Y-9600209D01*
X16159941Y-9592119D01*
X16141082Y-9586398D01*
X16131275Y-9585432D01*
X16121468Y-9584466D01*
X16121468Y-9584466D01*
X16101855Y-9586398D01*
X16082996Y-9592119D01*
X16065615Y-9601409D01*
X16050380Y-9613912D01*
X16037877Y-9629146D01*
X16028587Y-9646527D01*
X16022866Y-9665387D01*
X16020934Y-9685000D01*
X15588518Y-9685000D01*
X15588518Y-9482361D01*
X15588522Y-9482047D01*
X15588733Y-9473745D01*
X15588713Y-9473634D01*
X15588518Y-9471447D01*
X15588518Y-9466085D01*
X15588554Y-9465144D01*
X15588651Y-9463871D01*
X15588978Y-9459580D01*
X15588618Y-9456752D01*
X15588518Y-9455186D01*
X15588518Y-9431000D01*
X16020934Y-9431000D01*
X16022866Y-9450613D01*
X16028587Y-9469473D01*
X16030871Y-9473745D01*
X16037877Y-9486854D01*
X16050380Y-9502088D01*
X16065614Y-9514591D01*
X16082996Y-9523881D01*
X16101855Y-9529602D01*
X16121468Y-9531534D01*
X16141081Y-9529602D01*
X16159941Y-9523881D01*
X16177322Y-9514591D01*
X16192557Y-9502088D01*
X16205059Y-9486854D01*
X16214350Y-9469473D01*
X16220071Y-9450613D01*
X16222002Y-9431000D01*
X16220071Y-9411387D01*
X16214350Y-9392527D01*
X16205059Y-9375146D01*
X16192557Y-9359912D01*
X16177322Y-9347409D01*
X16169998Y-9343494D01*
X16159941Y-9338119D01*
X16141082Y-9332398D01*
X16121468Y-9330466D01*
X16101855Y-9332398D01*
X16082996Y-9338119D01*
X16065615Y-9347409D01*
X16050380Y-9359912D01*
X16037877Y-9375146D01*
X16028587Y-9392527D01*
X16022866Y-9411387D01*
X16020934Y-9431000D01*
X15588518Y-9431000D01*
X15588518Y-9258975D01*
X16021418Y-9258975D01*
X16022581Y-9264823D01*
X16027013Y-9271455D01*
X16033645Y-9275887D01*
X16039493Y-9277050D01*
X16039493Y-9277050D01*
X16203443Y-9277050D01*
X16203443Y-9277050D01*
X16206442Y-9276453D01*
X16209291Y-9275887D01*
X16215923Y-9271455D01*
X16220355Y-9264823D01*
X16221518Y-9258975D01*
X16221518Y-9095025D01*
X16220635Y-9090586D01*
X16220355Y-9089177D01*
X16215923Y-9082545D01*
X16209291Y-9078113D01*
X16203443Y-9076950D01*
X16203443Y-9076950D01*
X16039493Y-9076950D01*
X16039493Y-9076950D01*
X16033645Y-9078113D01*
X16027013Y-9082545D01*
X16022581Y-9089177D01*
X16021418Y-9095025D01*
X16021418Y-9258975D01*
X15588518Y-9258975D01*
X15588518Y-8802399D01*
X15590180Y-8796199D01*
X15594718Y-8791660D01*
X15600918Y-8789999D01*
X15658468Y-8790000D01*
X15658468Y-8198500D01*
X15658468Y-8198500D01*
X15599920Y-8198509D01*
X15593719Y-8196849D01*
X15589180Y-8192310D01*
X15587518Y-8186109D01*
X15587518Y-8047000D01*
X16548901Y-8047000D01*
X16550839Y-8070383D01*
X16550839Y-8070383D01*
X16550839Y-8070383D01*
X16556599Y-8093129D01*
X16559906Y-8100668D01*
X16566024Y-8114616D01*
X16566024Y-8114616D01*
X16578857Y-8134259D01*
X16594749Y-8151522D01*
X16613265Y-8165934D01*
X16633901Y-8177101D01*
X16644866Y-8180866D01*
X16656092Y-8184720D01*
X16656093Y-8184720D01*
X16656093Y-8184720D01*
X16679236Y-8188582D01*
X16702700Y-8188582D01*
X16702700Y-8188582D01*
X16725844Y-8184720D01*
X16748036Y-8177101D01*
X16768672Y-8165934D01*
X16787188Y-8151522D01*
X16803079Y-8134259D01*
X16815913Y-8114616D01*
X16825338Y-8093129D01*
X16831098Y-8070383D01*
X16833035Y-8047000D01*
X16831098Y-8023616D01*
X16825338Y-8000871D01*
X16815913Y-7979384D01*
X16803079Y-7959741D01*
X16787188Y-7942478D01*
X16768672Y-7928066D01*
X16748036Y-7916899D01*
X16748036Y-7916899D01*
X16748035Y-7916899D01*
X16735223Y-7912500D01*
X17156444Y-7912500D01*
X17158303Y-7936130D01*
X17163837Y-7959179D01*
X17164800Y-7961504D01*
X17172908Y-7981078D01*
X17185293Y-8001289D01*
X17200687Y-8019313D01*
X17218711Y-8034707D01*
X17238922Y-8047092D01*
X17255101Y-8053794D01*
X17260821Y-8056163D01*
X17268102Y-8057911D01*
X17283870Y-8061697D01*
X17307500Y-8063556D01*
X17331130Y-8061697D01*
X17354179Y-8056163D01*
X17376078Y-8047092D01*
X17396289Y-8034707D01*
X17414313Y-8019313D01*
X17429707Y-8001289D01*
X17442092Y-7981078D01*
X17451163Y-7959179D01*
X17456697Y-7936130D01*
X17458556Y-7912500D01*
X17456697Y-7888870D01*
X17452464Y-7871240D01*
X17451163Y-7865821D01*
X17446684Y-7855007D01*
X17442092Y-7843922D01*
X17429707Y-7823711D01*
X17414313Y-7805687D01*
X17396289Y-7790293D01*
X17376078Y-7777908D01*
X17367989Y-7774557D01*
X17354179Y-7768837D01*
X17331131Y-7763303D01*
X17307500Y-7761444D01*
X17283869Y-7763303D01*
X17260821Y-7768837D01*
X17238922Y-7777908D01*
X17218711Y-7790293D01*
X17200687Y-7805687D01*
X17185293Y-7823711D01*
X17172908Y-7843922D01*
X17163837Y-7865821D01*
X17158303Y-7888869D01*
X17156444Y-7912500D01*
X16735223Y-7912500D01*
X16725844Y-7909280D01*
X16706195Y-7906001D01*
X16702700Y-7905418D01*
X16679236Y-7905418D01*
X16675742Y-7906001D01*
X16656092Y-7909280D01*
X16633901Y-7916899D01*
X16633901Y-7916899D01*
X16633901Y-7916899D01*
X16620143Y-7924344D01*
X16613265Y-7928066D01*
X16594749Y-7942478D01*
X16580027Y-7958470D01*
X16578857Y-7959741D01*
X16577705Y-7961504D01*
X16566024Y-7979384D01*
X16559060Y-7995261D01*
X16556599Y-8000871D01*
X16550839Y-8023616D01*
X16550839Y-8023617D01*
X16548901Y-8047000D01*
X15587518Y-8047000D01*
X15587518Y-7860809D01*
X15589176Y-7854615D01*
X15593705Y-7850078D01*
X15599895Y-7848409D01*
X15648800Y-7848317D01*
X17094973Y-7845594D01*
X17095724Y-7499459D01*
X17158944Y-7499459D01*
X17160803Y-7523090D01*
X17166337Y-7546138D01*
X17171816Y-7559366D01*
X17175408Y-7568037D01*
X17187793Y-7588248D01*
X17203187Y-7606272D01*
X17221211Y-7621666D01*
X17241422Y-7634051D01*
X17257601Y-7640753D01*
X17263321Y-7643122D01*
X17270602Y-7644870D01*
X17286370Y-7648656D01*
X17310000Y-7650516D01*
X17333630Y-7648656D01*
X17356679Y-7643122D01*
X17378578Y-7634051D01*
X17398789Y-7621666D01*
X17416813Y-7606272D01*
X17432207Y-7588248D01*
X17444592Y-7568037D01*
X17453663Y-7546138D01*
X17459197Y-7523090D01*
X17461056Y-7499459D01*
X17459197Y-7475829D01*
X17453663Y-7452780D01*
X17444592Y-7430881D01*
X17432207Y-7410671D01*
X17416813Y-7392646D01*
X17398789Y-7377252D01*
X17378578Y-7364867D01*
X17370489Y-7361516D01*
X17356679Y-7355796D01*
X17333631Y-7350263D01*
X17310000Y-7348403D01*
X17286369Y-7350263D01*
X17263321Y-7355796D01*
X17241422Y-7364867D01*
X17221211Y-7377252D01*
X17203187Y-7392646D01*
X17187793Y-7410671D01*
X17175408Y-7430881D01*
X17166337Y-7452780D01*
X17160803Y-7475829D01*
X17158944Y-7499459D01*
X17095724Y-7499459D01*
X17095968Y-7387000D01*
X17095968Y-7387000D01*
X16930184Y-7387000D01*
X16927372Y-7386422D01*
X16927336Y-7386595D01*
X16920635Y-7385218D01*
X16919721Y-7384993D01*
X16914355Y-7383458D01*
X16914355Y-7383458D01*
X16911512Y-7383242D01*
X16909958Y-7383024D01*
X16907166Y-7382450D01*
X16901585Y-7382450D01*
X16900644Y-7382414D01*
X16898297Y-7382235D01*
X16895080Y-7381990D01*
X16895080Y-7381990D01*
X16892252Y-7382351D01*
X16890686Y-7382450D01*
X15496361Y-7382450D01*
X15496047Y-7382446D01*
X15487745Y-7382235D01*
X15482253Y-7383220D01*
X15481320Y-7383351D01*
X15475767Y-7383915D01*
X15473047Y-7384769D01*
X15471523Y-7385143D01*
X15468717Y-7385646D01*
X15467542Y-7386115D01*
X15462943Y-7387000D01*
X15305968Y-7387000D01*
X15305849Y-7848962D01*
X15305849Y-7848962D01*
X15384995Y-7848813D01*
X15391205Y-7850467D01*
X15395753Y-7855007D01*
X15397418Y-7861213D01*
X15397418Y-8186143D01*
X15395757Y-8192343D01*
X15391219Y-8196881D01*
X15385020Y-8198543D01*
X14666599Y-8198656D01*
X14054727Y-8198753D01*
X14049549Y-8197621D01*
X14045317Y-8194430D01*
X14035292Y-8182753D01*
X14035292Y-8182753D01*
X14020006Y-8170920D01*
X14007462Y-8164767D01*
X14006457Y-8164275D01*
X14001395Y-8159701D01*
X13999518Y-8153142D01*
X13999518Y-8122424D01*
X13999793Y-8120742D01*
X13999745Y-8119724D01*
X13999746Y-8119723D01*
X13999531Y-8115092D01*
X13999518Y-8114519D01*
X13999518Y-8112618D01*
X13999350Y-8111168D01*
X13999227Y-8108501D01*
X13998947Y-8107867D01*
X13998102Y-8105137D01*
X13997974Y-8104457D01*
X13996569Y-8102187D01*
X13995768Y-8100668D01*
X13994926Y-8098761D01*
X13994689Y-8098223D01*
X13994199Y-8097734D01*
X13992425Y-8095493D01*
X13992060Y-8094905D01*
X13992060Y-8094905D01*
X13989929Y-8093295D01*
X13988633Y-8092168D01*
X13943054Y-8046588D01*
X13897113Y-8000648D01*
X13896118Y-7999264D01*
X13891936Y-7995452D01*
X13891522Y-7995057D01*
X13890179Y-7993714D01*
X13889036Y-7992808D01*
X13887062Y-7991008D01*
X13886415Y-7990758D01*
X13883887Y-7989426D01*
X13883316Y-7989034D01*
X13883316Y-7989034D01*
X13883316Y-7989034D01*
X13880717Y-7988423D01*
X13879077Y-7987915D01*
X13876586Y-7986950D01*
X13875893Y-7986950D01*
X13873054Y-7986621D01*
X13872380Y-7986462D01*
X13872380Y-7986462D01*
X13871244Y-7986621D01*
X13869735Y-7986831D01*
X13868022Y-7986950D01*
X11002918Y-7986950D01*
X10996718Y-7985289D01*
X10992180Y-7980750D01*
X10990518Y-7974550D01*
X10990518Y-7889815D01*
X10992487Y-7883111D01*
X10997767Y-7878536D01*
X11004949Y-7875256D01*
X11013744Y-7871240D01*
X11030864Y-7859049D01*
X11045367Y-7843838D01*
X11054665Y-7829369D01*
X11056730Y-7826157D01*
X11056730Y-7826157D01*
X11064541Y-7806646D01*
X11068518Y-7786008D01*
X11068518Y-7771879D01*
X11070289Y-7765493D01*
X11075097Y-7760931D01*
X11081567Y-7759496D01*
X11087852Y-7761599D01*
X11092157Y-7766639D01*
X11097108Y-7777258D01*
X11110658Y-7796608D01*
X11127360Y-7813311D01*
X11146711Y-7826860D01*
X11168119Y-7836843D01*
X11189468Y-7842563D01*
X11189468Y-7842564D01*
X11189468Y-7734500D01*
X11239468Y-7734500D01*
X11239468Y-7842563D01*
X11260817Y-7836843D01*
X11282226Y-7826860D01*
X11301576Y-7813311D01*
X11318279Y-7796608D01*
X11331828Y-7777258D01*
X11341811Y-7755849D01*
X11347532Y-7734500D01*
X11239468Y-7734500D01*
X11189468Y-7734500D01*
X11189468Y-7696900D01*
X11191130Y-7690700D01*
X11195668Y-7686161D01*
X11201868Y-7684500D01*
X11347532Y-7684500D01*
X11347532Y-7684500D01*
X11341811Y-7663151D01*
X11331828Y-7641742D01*
X11318279Y-7622392D01*
X11301576Y-7605689D01*
X11293605Y-7600107D01*
X11289572Y-7595386D01*
X11288334Y-7589301D01*
X11290201Y-7583379D01*
X11294706Y-7579105D01*
X11300717Y-7577550D01*
X11498740Y-7577550D01*
X11504923Y-7579202D01*
X11509460Y-7583718D01*
X11511140Y-7589894D01*
X11512048Y-7790750D01*
X11512295Y-7845594D01*
X11512352Y-7858014D01*
X11512352Y-7858014D01*
X15141468Y-7858000D01*
X15140968Y-7554500D01*
X15140968Y-7554500D01*
X15087075Y-7554463D01*
X15081997Y-7553371D01*
X15077811Y-7550295D01*
X15075253Y-7545775D01*
X15074797Y-7544323D01*
X15073414Y-7541831D01*
X15072740Y-7540413D01*
X15071683Y-7537765D01*
X15068612Y-7533105D01*
X15068124Y-7532300D01*
X15065416Y-7527421D01*
X15063844Y-7525590D01*
X15063559Y-7525257D01*
X15062614Y-7524005D01*
X15061045Y-7521624D01*
X15057100Y-7517679D01*
X15056459Y-7516988D01*
X15052824Y-7512753D01*
X15050570Y-7511008D01*
X15049392Y-7509971D01*
X14955674Y-7416253D01*
X14955459Y-7416032D01*
X14949732Y-7410008D01*
X14945152Y-7406820D01*
X14944400Y-7406253D01*
X14940075Y-7402727D01*
X14940075Y-7402727D01*
X14937548Y-7401406D01*
X14936206Y-7400594D01*
X14933866Y-7398965D01*
X14933865Y-7398964D01*
X14933865Y-7398964D01*
X14928737Y-7396764D01*
X14927886Y-7396360D01*
X14922941Y-7393776D01*
X14922940Y-7393776D01*
X14920199Y-7392992D01*
X14918721Y-7392466D01*
X14916101Y-7391341D01*
X14916101Y-7391341D01*
X14910635Y-7390218D01*
X14909721Y-7389993D01*
X14904355Y-7388458D01*
X14904355Y-7388458D01*
X14901512Y-7388242D01*
X14899958Y-7388024D01*
X14897166Y-7387450D01*
X14891585Y-7387450D01*
X14890644Y-7387414D01*
X14888297Y-7387235D01*
X14885080Y-7386990D01*
X14885080Y-7386990D01*
X14882252Y-7387351D01*
X14880686Y-7387450D01*
X10286363Y-7387450D01*
X10286048Y-7387446D01*
X10277745Y-7387235D01*
X10272253Y-7388220D01*
X10271320Y-7388351D01*
X10265767Y-7388915D01*
X10263047Y-7389769D01*
X10261523Y-7390143D01*
X10258718Y-7390646D01*
X10258717Y-7390646D01*
X10258717Y-7390646D01*
X10253710Y-7392646D01*
X10253535Y-7392716D01*
X10252648Y-7393032D01*
X10247323Y-7394702D01*
X10244830Y-7396086D01*
X10243412Y-7396759D01*
X10240765Y-7397817D01*
X10236106Y-7400888D01*
X10235300Y-7401376D01*
X10230421Y-7404084D01*
X10228258Y-7405941D01*
X10227005Y-7406886D01*
X10224624Y-7408455D01*
X10220679Y-7412400D01*
X10219988Y-7413040D01*
X10215753Y-7416676D01*
X10214008Y-7418931D01*
X10212971Y-7420108D01*
X10132223Y-7500855D01*
X10131999Y-7501075D01*
X10125976Y-7506799D01*
X10124372Y-7509104D01*
X10122788Y-7511381D01*
X10122221Y-7512131D01*
X10118695Y-7516456D01*
X10117375Y-7518983D01*
X10116562Y-7520325D01*
X10114933Y-7522666D01*
X10112732Y-7527794D01*
X10112328Y-7528645D01*
X10109745Y-7533591D01*
X10108960Y-7536332D01*
X10108434Y-7537810D01*
X10107310Y-7540430D01*
X10106186Y-7545897D01*
X10105962Y-7546812D01*
X10104427Y-7552176D01*
X10104210Y-7555019D01*
X10103992Y-7556574D01*
X10103418Y-7559366D01*
X10103418Y-7564946D01*
X10103383Y-7565888D01*
X10102959Y-7571452D01*
X10103319Y-7574279D01*
X10103418Y-7575846D01*
X10103418Y-7600473D01*
X10101954Y-7606319D01*
X10100237Y-7608214D01*
X10094582Y-7616677D01*
X10093418Y-7622525D01*
X10093418Y-7796475D01*
X10094582Y-7802323D01*
X10100237Y-7810786D01*
X10101954Y-7812681D01*
X10103418Y-7818527D01*
X10103418Y-8089993D01*
X10102474Y-8094738D01*
X10099786Y-8098761D01*
X9501255Y-8697292D01*
X9501030Y-8697511D01*
X9495008Y-8703236D01*
X9493404Y-8705541D01*
X9491819Y-8707817D01*
X9491253Y-8708568D01*
X9487727Y-8712893D01*
X9486407Y-8715420D01*
X9485594Y-8716762D01*
X9483965Y-8719103D01*
X9481764Y-8724231D01*
X9481360Y-8725082D01*
X9478776Y-8730028D01*
X9477992Y-8732769D01*
X9477466Y-8734246D01*
X9476341Y-8736867D01*
X9475218Y-8742334D01*
X9474993Y-8743248D01*
X9473458Y-8748613D01*
X9473242Y-8751456D01*
X9473024Y-8753010D01*
X9472450Y-8755803D01*
X9472450Y-8761383D01*
X9472414Y-8762324D01*
X9471991Y-8767889D01*
X9083050Y-8767889D01*
X9083050Y-7915000D01*
X9298944Y-7915000D01*
X9300803Y-7938630D01*
X9306337Y-7961679D01*
X9311668Y-7974550D01*
X9315408Y-7983578D01*
X9327793Y-8003789D01*
X9343187Y-8021813D01*
X9361211Y-8037207D01*
X9381422Y-8049592D01*
X9395987Y-8055625D01*
X9403321Y-8058663D01*
X9410602Y-8060411D01*
X9426370Y-8064197D01*
X9450000Y-8066056D01*
X9473630Y-8064197D01*
X9496679Y-8058663D01*
X9518578Y-8049592D01*
X9522808Y-8047000D01*
X9745433Y-8047000D01*
X9747371Y-8070383D01*
X9747371Y-8070383D01*
X9747371Y-8070383D01*
X9753131Y-8093129D01*
X9756437Y-8100668D01*
X9762556Y-8114616D01*
X9762556Y-8114616D01*
X9775389Y-8134259D01*
X9791281Y-8151522D01*
X9809797Y-8165934D01*
X9830432Y-8177101D01*
X9841398Y-8180866D01*
X9852624Y-8184720D01*
X9852624Y-8184720D01*
X9852625Y-8184720D01*
X9875768Y-8188582D01*
X9899232Y-8188582D01*
X9899232Y-8188582D01*
X9922375Y-8184720D01*
X9944568Y-8177101D01*
X9965203Y-8165934D01*
X9983719Y-8151522D01*
X9999611Y-8134259D01*
X10012444Y-8114616D01*
X10021869Y-8093129D01*
X10027629Y-8070383D01*
X10029567Y-8047000D01*
X10027629Y-8023616D01*
X10021869Y-8000871D01*
X10012444Y-7979384D01*
X9999611Y-7959741D01*
X9983719Y-7942478D01*
X9965203Y-7928066D01*
X9944568Y-7916899D01*
X9944567Y-7916899D01*
X9944567Y-7916899D01*
X9922376Y-7909280D01*
X9902727Y-7906001D01*
X9899232Y-7905418D01*
X9875768Y-7905418D01*
X9872273Y-7906001D01*
X9852624Y-7909280D01*
X9830433Y-7916899D01*
X9830432Y-7916899D01*
X9830432Y-7916899D01*
X9816675Y-7924344D01*
X9809797Y-7928066D01*
X9791281Y-7942478D01*
X9776559Y-7958470D01*
X9775389Y-7959741D01*
X9774237Y-7961504D01*
X9762556Y-7979384D01*
X9755592Y-7995261D01*
X9753131Y-8000871D01*
X9747371Y-8023616D01*
X9747371Y-8023617D01*
X9745433Y-8047000D01*
X9522808Y-8047000D01*
X9538789Y-8037207D01*
X9556813Y-8021813D01*
X9572207Y-8003789D01*
X9584592Y-7983578D01*
X9593663Y-7961679D01*
X9599197Y-7938630D01*
X9601056Y-7915000D01*
X9599197Y-7891370D01*
X9593663Y-7868321D01*
X9592516Y-7865552D01*
X9590552Y-7860809D01*
X9584592Y-7846422D01*
X9572207Y-7826211D01*
X9556813Y-7808187D01*
X9538789Y-7792793D01*
X9518578Y-7780408D01*
X9510489Y-7777057D01*
X9496679Y-7771337D01*
X9473631Y-7765803D01*
X9450000Y-7763944D01*
X9426369Y-7765803D01*
X9403321Y-7771337D01*
X9381422Y-7780408D01*
X9361211Y-7792793D01*
X9343187Y-7808187D01*
X9327793Y-7826211D01*
X9315408Y-7846422D01*
X9306337Y-7868321D01*
X9300803Y-7891369D01*
X9298944Y-7915000D01*
X9083050Y-7915000D01*
X9083050Y-7501959D01*
X9301444Y-7501959D01*
X9303303Y-7525590D01*
X9308837Y-7548638D01*
X9311805Y-7555803D01*
X9317908Y-7570537D01*
X9330293Y-7590748D01*
X9345687Y-7608772D01*
X9363711Y-7624166D01*
X9383922Y-7636551D01*
X9398487Y-7642584D01*
X9405821Y-7645622D01*
X9413102Y-7647370D01*
X9428870Y-7651156D01*
X9452500Y-7653016D01*
X9476130Y-7651156D01*
X9499179Y-7645622D01*
X9521078Y-7636551D01*
X9541289Y-7624166D01*
X9559313Y-7608772D01*
X9574707Y-7590748D01*
X9587092Y-7570537D01*
X9596163Y-7548638D01*
X9601697Y-7525590D01*
X9603556Y-7501959D01*
X9601697Y-7478329D01*
X9596163Y-7455280D01*
X9587092Y-7433381D01*
X9574707Y-7413171D01*
X9559313Y-7395146D01*
X9541289Y-7379752D01*
X9521078Y-7367367D01*
X9512989Y-7364016D01*
X9499179Y-7358296D01*
X9476131Y-7352763D01*
X9452500Y-7350903D01*
X9428869Y-7352763D01*
X9405821Y-7358296D01*
X9383922Y-7367367D01*
X9363711Y-7379752D01*
X9345687Y-7395146D01*
X9330293Y-7413171D01*
X9317908Y-7433381D01*
X9308837Y-7455280D01*
X9303303Y-7478329D01*
X9301444Y-7501959D01*
X9083050Y-7501959D01*
X9083050Y-7284950D01*
X9084711Y-7278750D01*
X9089250Y-7274211D01*
X9095450Y-7272550D01*
X17662595Y-7272550D01*
X17668796Y-7274212D01*
G37*
%TD.AperFunction*%
%TD*%
M02*
