%TF.GenerationSoftware,KiCad,Pcbnew,7.0.1*%
%TF.CreationDate,2023-09-27T13:27:15+00:00*%
%TF.ProjectId,Control_Board,436f6e74-726f-46c5-9f42-6f6172642e6b,rev?*%
%TF.SameCoordinates,Original*%
%TF.FileFunction,Legend,Bot*%
%TF.FilePolarity,Positive*%
%FSLAX45Y45*%
G04 Gerber Fmt 4.5, Leading zero omitted, Abs format (unit mm)*
G04 Created by KiCad (PCBNEW 7.0.1) date 2023-09-27 13:27:15*
%MOMM*%
%LPD*%
G01*
G04 APERTURE LIST*
%ADD10C,0.100000*%
%ADD11C,0.150000*%
%ADD12C,0.300000*%
%ADD13C,0.400000*%
%ADD14C,0.120000*%
G04 APERTURE END LIST*
D10*
D11*
X17700220Y-16600720D02*
X28500220Y-16600720D01*
X28500220Y-19800720D01*
X17700220Y-19800720D01*
X17700220Y-16600720D01*
D10*
D11*
X1000000Y-1000000D02*
X28700220Y-1000000D01*
X28700220Y-20000720D01*
X1000000Y-20000720D01*
X1000000Y-1000000D01*
D10*
D11*
X1200000Y-1200000D02*
X28500220Y-1200000D01*
X28500220Y-19800720D01*
X1200000Y-19800720D01*
X1200000Y-1200000D01*
D10*
D11*
X6000000Y-1200000D02*
X6000000Y-1000000D01*
D10*
D11*
X11000000Y-1200000D02*
X11000000Y-1000000D01*
D10*
D11*
X16000000Y-1200000D02*
X16000000Y-1000000D01*
D10*
D11*
X21000000Y-1200000D02*
X21000000Y-1000000D01*
D10*
D11*
X26000000Y-1200000D02*
X26000000Y-1000000D01*
D10*
D11*
X3599048Y-1160140D02*
X3524762Y-1160140D01*
X3561905Y-1160140D02*
X3561905Y-1030140D01*
X3561905Y-1030140D02*
X3549524Y-1048712D01*
X3549524Y-1048712D02*
X3537143Y-1061093D01*
X3537143Y-1061093D02*
X3524762Y-1067283D01*
D10*
D11*
X8524762Y-1042521D02*
X8530952Y-1036331D01*
X8530952Y-1036331D02*
X8543333Y-1030140D01*
X8543333Y-1030140D02*
X8574286Y-1030140D01*
X8574286Y-1030140D02*
X8586667Y-1036331D01*
X8586667Y-1036331D02*
X8592857Y-1042521D01*
X8592857Y-1042521D02*
X8599048Y-1054902D01*
X8599048Y-1054902D02*
X8599048Y-1067283D01*
X8599048Y-1067283D02*
X8592857Y-1085855D01*
X8592857Y-1085855D02*
X8518571Y-1160140D01*
X8518571Y-1160140D02*
X8599048Y-1160140D01*
D10*
D11*
X13518571Y-1030140D02*
X13599048Y-1030140D01*
X13599048Y-1030140D02*
X13555714Y-1079664D01*
X13555714Y-1079664D02*
X13574286Y-1079664D01*
X13574286Y-1079664D02*
X13586667Y-1085855D01*
X13586667Y-1085855D02*
X13592857Y-1092045D01*
X13592857Y-1092045D02*
X13599048Y-1104426D01*
X13599048Y-1104426D02*
X13599048Y-1135379D01*
X13599048Y-1135379D02*
X13592857Y-1147760D01*
X13592857Y-1147760D02*
X13586667Y-1153950D01*
X13586667Y-1153950D02*
X13574286Y-1160140D01*
X13574286Y-1160140D02*
X13537143Y-1160140D01*
X13537143Y-1160140D02*
X13524762Y-1153950D01*
X13524762Y-1153950D02*
X13518571Y-1147760D01*
D10*
D11*
X18586667Y-1073474D02*
X18586667Y-1160140D01*
X18555714Y-1023950D02*
X18524762Y-1116807D01*
X18524762Y-1116807D02*
X18605238Y-1116807D01*
D10*
D11*
X23592857Y-1030140D02*
X23530952Y-1030140D01*
X23530952Y-1030140D02*
X23524762Y-1092045D01*
X23524762Y-1092045D02*
X23530952Y-1085855D01*
X23530952Y-1085855D02*
X23543333Y-1079664D01*
X23543333Y-1079664D02*
X23574286Y-1079664D01*
X23574286Y-1079664D02*
X23586667Y-1085855D01*
X23586667Y-1085855D02*
X23592857Y-1092045D01*
X23592857Y-1092045D02*
X23599048Y-1104426D01*
X23599048Y-1104426D02*
X23599048Y-1135379D01*
X23599048Y-1135379D02*
X23592857Y-1147760D01*
X23592857Y-1147760D02*
X23586667Y-1153950D01*
X23586667Y-1153950D02*
X23574286Y-1160140D01*
X23574286Y-1160140D02*
X23543333Y-1160140D01*
X23543333Y-1160140D02*
X23530952Y-1153950D01*
X23530952Y-1153950D02*
X23524762Y-1147760D01*
D10*
D11*
X28586667Y-1030140D02*
X28561905Y-1030140D01*
X28561905Y-1030140D02*
X28549524Y-1036331D01*
X28549524Y-1036331D02*
X28543333Y-1042521D01*
X28543333Y-1042521D02*
X28530952Y-1061093D01*
X28530952Y-1061093D02*
X28524762Y-1085855D01*
X28524762Y-1085855D02*
X28524762Y-1135379D01*
X28524762Y-1135379D02*
X28530952Y-1147760D01*
X28530952Y-1147760D02*
X28537143Y-1153950D01*
X28537143Y-1153950D02*
X28549524Y-1160140D01*
X28549524Y-1160140D02*
X28574286Y-1160140D01*
X28574286Y-1160140D02*
X28586667Y-1153950D01*
X28586667Y-1153950D02*
X28592857Y-1147760D01*
X28592857Y-1147760D02*
X28599048Y-1135379D01*
X28599048Y-1135379D02*
X28599048Y-1104426D01*
X28599048Y-1104426D02*
X28592857Y-1092045D01*
X28592857Y-1092045D02*
X28586667Y-1085855D01*
X28586667Y-1085855D02*
X28574286Y-1079664D01*
X28574286Y-1079664D02*
X28549524Y-1079664D01*
X28549524Y-1079664D02*
X28537143Y-1085855D01*
X28537143Y-1085855D02*
X28530952Y-1092045D01*
X28530952Y-1092045D02*
X28524762Y-1104426D01*
D10*
D11*
X6000000Y-19800720D02*
X6000000Y-20000720D01*
D10*
D11*
X11000000Y-19800720D02*
X11000000Y-20000720D01*
D10*
D11*
X16000000Y-19800720D02*
X16000000Y-20000720D01*
D10*
D11*
X21000000Y-19800720D02*
X21000000Y-20000720D01*
D10*
D11*
X26000000Y-19800720D02*
X26000000Y-20000720D01*
D10*
D11*
X3599048Y-19960860D02*
X3524762Y-19960860D01*
X3561905Y-19960860D02*
X3561905Y-19830860D01*
X3561905Y-19830860D02*
X3549524Y-19849432D01*
X3549524Y-19849432D02*
X3537143Y-19861813D01*
X3537143Y-19861813D02*
X3524762Y-19868003D01*
D10*
D11*
X8524762Y-19843241D02*
X8530952Y-19837051D01*
X8530952Y-19837051D02*
X8543333Y-19830860D01*
X8543333Y-19830860D02*
X8574286Y-19830860D01*
X8574286Y-19830860D02*
X8586667Y-19837051D01*
X8586667Y-19837051D02*
X8592857Y-19843241D01*
X8592857Y-19843241D02*
X8599048Y-19855622D01*
X8599048Y-19855622D02*
X8599048Y-19868003D01*
X8599048Y-19868003D02*
X8592857Y-19886575D01*
X8592857Y-19886575D02*
X8518571Y-19960860D01*
X8518571Y-19960860D02*
X8599048Y-19960860D01*
D10*
D11*
X13518571Y-19830860D02*
X13599048Y-19830860D01*
X13599048Y-19830860D02*
X13555714Y-19880384D01*
X13555714Y-19880384D02*
X13574286Y-19880384D01*
X13574286Y-19880384D02*
X13586667Y-19886575D01*
X13586667Y-19886575D02*
X13592857Y-19892765D01*
X13592857Y-19892765D02*
X13599048Y-19905146D01*
X13599048Y-19905146D02*
X13599048Y-19936099D01*
X13599048Y-19936099D02*
X13592857Y-19948480D01*
X13592857Y-19948480D02*
X13586667Y-19954670D01*
X13586667Y-19954670D02*
X13574286Y-19960860D01*
X13574286Y-19960860D02*
X13537143Y-19960860D01*
X13537143Y-19960860D02*
X13524762Y-19954670D01*
X13524762Y-19954670D02*
X13518571Y-19948480D01*
D10*
D11*
X18586667Y-19874194D02*
X18586667Y-19960860D01*
X18555714Y-19824670D02*
X18524762Y-19917527D01*
X18524762Y-19917527D02*
X18605238Y-19917527D01*
D10*
D11*
X23592857Y-19830860D02*
X23530952Y-19830860D01*
X23530952Y-19830860D02*
X23524762Y-19892765D01*
X23524762Y-19892765D02*
X23530952Y-19886575D01*
X23530952Y-19886575D02*
X23543333Y-19880384D01*
X23543333Y-19880384D02*
X23574286Y-19880384D01*
X23574286Y-19880384D02*
X23586667Y-19886575D01*
X23586667Y-19886575D02*
X23592857Y-19892765D01*
X23592857Y-19892765D02*
X23599048Y-19905146D01*
X23599048Y-19905146D02*
X23599048Y-19936099D01*
X23599048Y-19936099D02*
X23592857Y-19948480D01*
X23592857Y-19948480D02*
X23586667Y-19954670D01*
X23586667Y-19954670D02*
X23574286Y-19960860D01*
X23574286Y-19960860D02*
X23543333Y-19960860D01*
X23543333Y-19960860D02*
X23530952Y-19954670D01*
X23530952Y-19954670D02*
X23524762Y-19948480D01*
D10*
D11*
X28586667Y-19830860D02*
X28561905Y-19830860D01*
X28561905Y-19830860D02*
X28549524Y-19837051D01*
X28549524Y-19837051D02*
X28543333Y-19843241D01*
X28543333Y-19843241D02*
X28530952Y-19861813D01*
X28530952Y-19861813D02*
X28524762Y-19886575D01*
X28524762Y-19886575D02*
X28524762Y-19936099D01*
X28524762Y-19936099D02*
X28530952Y-19948480D01*
X28530952Y-19948480D02*
X28537143Y-19954670D01*
X28537143Y-19954670D02*
X28549524Y-19960860D01*
X28549524Y-19960860D02*
X28574286Y-19960860D01*
X28574286Y-19960860D02*
X28586667Y-19954670D01*
X28586667Y-19954670D02*
X28592857Y-19948480D01*
X28592857Y-19948480D02*
X28599048Y-19936099D01*
X28599048Y-19936099D02*
X28599048Y-19905146D01*
X28599048Y-19905146D02*
X28592857Y-19892765D01*
X28592857Y-19892765D02*
X28586667Y-19886575D01*
X28586667Y-19886575D02*
X28574286Y-19880384D01*
X28574286Y-19880384D02*
X28549524Y-19880384D01*
X28549524Y-19880384D02*
X28537143Y-19886575D01*
X28537143Y-19886575D02*
X28530952Y-19892765D01*
X28530952Y-19892765D02*
X28524762Y-19905146D01*
D10*
D11*
X1000000Y-6000000D02*
X1200000Y-6000000D01*
D10*
D11*
X1000000Y-11000000D02*
X1200000Y-11000000D01*
D10*
D11*
X1000000Y-16000000D02*
X1200000Y-16000000D01*
D10*
D11*
X1069048Y-3522998D02*
X1130952Y-3522998D01*
X1056667Y-3560140D02*
X1100000Y-3430140D01*
X1100000Y-3430140D02*
X1143333Y-3560140D01*
D10*
D11*
X1109286Y-8492045D02*
X1127857Y-8498236D01*
X1127857Y-8498236D02*
X1134048Y-8504426D01*
X1134048Y-8504426D02*
X1140238Y-8516807D01*
X1140238Y-8516807D02*
X1140238Y-8535379D01*
X1140238Y-8535379D02*
X1134048Y-8547760D01*
X1134048Y-8547760D02*
X1127857Y-8553950D01*
X1127857Y-8553950D02*
X1115476Y-8560140D01*
X1115476Y-8560140D02*
X1065952Y-8560140D01*
X1065952Y-8560140D02*
X1065952Y-8430140D01*
X1065952Y-8430140D02*
X1109286Y-8430140D01*
X1109286Y-8430140D02*
X1121667Y-8436331D01*
X1121667Y-8436331D02*
X1127857Y-8442521D01*
X1127857Y-8442521D02*
X1134048Y-8454902D01*
X1134048Y-8454902D02*
X1134048Y-8467283D01*
X1134048Y-8467283D02*
X1127857Y-8479664D01*
X1127857Y-8479664D02*
X1121667Y-8485855D01*
X1121667Y-8485855D02*
X1109286Y-8492045D01*
X1109286Y-8492045D02*
X1065952Y-8492045D01*
D10*
D11*
X1140238Y-13547759D02*
X1134048Y-13553950D01*
X1134048Y-13553950D02*
X1115476Y-13560140D01*
X1115476Y-13560140D02*
X1103095Y-13560140D01*
X1103095Y-13560140D02*
X1084524Y-13553950D01*
X1084524Y-13553950D02*
X1072143Y-13541569D01*
X1072143Y-13541569D02*
X1065952Y-13529188D01*
X1065952Y-13529188D02*
X1059762Y-13504426D01*
X1059762Y-13504426D02*
X1059762Y-13485855D01*
X1059762Y-13485855D02*
X1065952Y-13461093D01*
X1065952Y-13461093D02*
X1072143Y-13448712D01*
X1072143Y-13448712D02*
X1084524Y-13436331D01*
X1084524Y-13436331D02*
X1103095Y-13430140D01*
X1103095Y-13430140D02*
X1115476Y-13430140D01*
X1115476Y-13430140D02*
X1134048Y-13436331D01*
X1134048Y-13436331D02*
X1140238Y-13442521D01*
D10*
D11*
X1065952Y-18560140D02*
X1065952Y-18430140D01*
X1065952Y-18430140D02*
X1096905Y-18430140D01*
X1096905Y-18430140D02*
X1115476Y-18436331D01*
X1115476Y-18436331D02*
X1127857Y-18448712D01*
X1127857Y-18448712D02*
X1134048Y-18461093D01*
X1134048Y-18461093D02*
X1140238Y-18485855D01*
X1140238Y-18485855D02*
X1140238Y-18504426D01*
X1140238Y-18504426D02*
X1134048Y-18529188D01*
X1134048Y-18529188D02*
X1127857Y-18541569D01*
X1127857Y-18541569D02*
X1115476Y-18553950D01*
X1115476Y-18553950D02*
X1096905Y-18560140D01*
X1096905Y-18560140D02*
X1065952Y-18560140D01*
D10*
D11*
X28700220Y-6000000D02*
X28500220Y-6000000D01*
D10*
D11*
X28700220Y-11000000D02*
X28500220Y-11000000D01*
D10*
D11*
X28700220Y-16000000D02*
X28500220Y-16000000D01*
D10*
D11*
X28569268Y-3522998D02*
X28631172Y-3522998D01*
X28556887Y-3560140D02*
X28600220Y-3430140D01*
X28600220Y-3430140D02*
X28643553Y-3560140D01*
D10*
D11*
X28609506Y-8492045D02*
X28628077Y-8498236D01*
X28628077Y-8498236D02*
X28634268Y-8504426D01*
X28634268Y-8504426D02*
X28640458Y-8516807D01*
X28640458Y-8516807D02*
X28640458Y-8535379D01*
X28640458Y-8535379D02*
X28634268Y-8547760D01*
X28634268Y-8547760D02*
X28628077Y-8553950D01*
X28628077Y-8553950D02*
X28615696Y-8560140D01*
X28615696Y-8560140D02*
X28566172Y-8560140D01*
X28566172Y-8560140D02*
X28566172Y-8430140D01*
X28566172Y-8430140D02*
X28609506Y-8430140D01*
X28609506Y-8430140D02*
X28621887Y-8436331D01*
X28621887Y-8436331D02*
X28628077Y-8442521D01*
X28628077Y-8442521D02*
X28634268Y-8454902D01*
X28634268Y-8454902D02*
X28634268Y-8467283D01*
X28634268Y-8467283D02*
X28628077Y-8479664D01*
X28628077Y-8479664D02*
X28621887Y-8485855D01*
X28621887Y-8485855D02*
X28609506Y-8492045D01*
X28609506Y-8492045D02*
X28566172Y-8492045D01*
D10*
D11*
X28640458Y-13547759D02*
X28634268Y-13553950D01*
X28634268Y-13553950D02*
X28615696Y-13560140D01*
X28615696Y-13560140D02*
X28603315Y-13560140D01*
X28603315Y-13560140D02*
X28584744Y-13553950D01*
X28584744Y-13553950D02*
X28572363Y-13541569D01*
X28572363Y-13541569D02*
X28566172Y-13529188D01*
X28566172Y-13529188D02*
X28559982Y-13504426D01*
X28559982Y-13504426D02*
X28559982Y-13485855D01*
X28559982Y-13485855D02*
X28566172Y-13461093D01*
X28566172Y-13461093D02*
X28572363Y-13448712D01*
X28572363Y-13448712D02*
X28584744Y-13436331D01*
X28584744Y-13436331D02*
X28603315Y-13430140D01*
X28603315Y-13430140D02*
X28615696Y-13430140D01*
X28615696Y-13430140D02*
X28634268Y-13436331D01*
X28634268Y-13436331D02*
X28640458Y-13442521D01*
D10*
D11*
X28566172Y-18560140D02*
X28566172Y-18430140D01*
X28566172Y-18430140D02*
X28597125Y-18430140D01*
X28597125Y-18430140D02*
X28615696Y-18436331D01*
X28615696Y-18436331D02*
X28628077Y-18448712D01*
X28628077Y-18448712D02*
X28634268Y-18461093D01*
X28634268Y-18461093D02*
X28640458Y-18485855D01*
X28640458Y-18485855D02*
X28640458Y-18504426D01*
X28640458Y-18504426D02*
X28634268Y-18529188D01*
X28634268Y-18529188D02*
X28628077Y-18541569D01*
X28628077Y-18541569D02*
X28615696Y-18553950D01*
X28615696Y-18553950D02*
X28597125Y-18560140D01*
X28597125Y-18560140D02*
X28566172Y-18560140D01*
D10*
D11*
X20035934Y-19380113D02*
X20035934Y-19230113D01*
X20035934Y-19230113D02*
X20071649Y-19230113D01*
X20071649Y-19230113D02*
X20093077Y-19237256D01*
X20093077Y-19237256D02*
X20107363Y-19251541D01*
X20107363Y-19251541D02*
X20114506Y-19265827D01*
X20114506Y-19265827D02*
X20121649Y-19294399D01*
X20121649Y-19294399D02*
X20121649Y-19315827D01*
X20121649Y-19315827D02*
X20114506Y-19344399D01*
X20114506Y-19344399D02*
X20107363Y-19358684D01*
X20107363Y-19358684D02*
X20093077Y-19372970D01*
X20093077Y-19372970D02*
X20071649Y-19380113D01*
X20071649Y-19380113D02*
X20035934Y-19380113D01*
X20250220Y-19380113D02*
X20250220Y-19301541D01*
X20250220Y-19301541D02*
X20243077Y-19287256D01*
X20243077Y-19287256D02*
X20228791Y-19280113D01*
X20228791Y-19280113D02*
X20200220Y-19280113D01*
X20200220Y-19280113D02*
X20185934Y-19287256D01*
X20250220Y-19372970D02*
X20235934Y-19380113D01*
X20235934Y-19380113D02*
X20200220Y-19380113D01*
X20200220Y-19380113D02*
X20185934Y-19372970D01*
X20185934Y-19372970D02*
X20178791Y-19358684D01*
X20178791Y-19358684D02*
X20178791Y-19344399D01*
X20178791Y-19344399D02*
X20185934Y-19330113D01*
X20185934Y-19330113D02*
X20200220Y-19322970D01*
X20200220Y-19322970D02*
X20235934Y-19322970D01*
X20235934Y-19322970D02*
X20250220Y-19315827D01*
X20300220Y-19280113D02*
X20357363Y-19280113D01*
X20321649Y-19230113D02*
X20321649Y-19358684D01*
X20321649Y-19358684D02*
X20328791Y-19372970D01*
X20328791Y-19372970D02*
X20343077Y-19380113D01*
X20343077Y-19380113D02*
X20357363Y-19380113D01*
X20464506Y-19372970D02*
X20450220Y-19380113D01*
X20450220Y-19380113D02*
X20421649Y-19380113D01*
X20421649Y-19380113D02*
X20407363Y-19372970D01*
X20407363Y-19372970D02*
X20400220Y-19358684D01*
X20400220Y-19358684D02*
X20400220Y-19301541D01*
X20400220Y-19301541D02*
X20407363Y-19287256D01*
X20407363Y-19287256D02*
X20421649Y-19280113D01*
X20421649Y-19280113D02*
X20450220Y-19280113D01*
X20450220Y-19280113D02*
X20464506Y-19287256D01*
X20464506Y-19287256D02*
X20471649Y-19301541D01*
X20471649Y-19301541D02*
X20471649Y-19315827D01*
X20471649Y-19315827D02*
X20400220Y-19330113D01*
X20535934Y-19365827D02*
X20543077Y-19372970D01*
X20543077Y-19372970D02*
X20535934Y-19380113D01*
X20535934Y-19380113D02*
X20528791Y-19372970D01*
X20528791Y-19372970D02*
X20535934Y-19365827D01*
X20535934Y-19365827D02*
X20535934Y-19380113D01*
X20535934Y-19287256D02*
X20543077Y-19294399D01*
X20543077Y-19294399D02*
X20535934Y-19301541D01*
X20535934Y-19301541D02*
X20528791Y-19294399D01*
X20528791Y-19294399D02*
X20535934Y-19287256D01*
X20535934Y-19287256D02*
X20535934Y-19301541D01*
D10*
D11*
X17700220Y-19450720D02*
X28500220Y-19450720D01*
D10*
D11*
X17835934Y-19660113D02*
X17835934Y-19510113D01*
X17921649Y-19660113D02*
X17857363Y-19574399D01*
X17921649Y-19510113D02*
X17835934Y-19595827D01*
X17985934Y-19660113D02*
X17985934Y-19560113D01*
X17985934Y-19510113D02*
X17978791Y-19517256D01*
X17978791Y-19517256D02*
X17985934Y-19524399D01*
X17985934Y-19524399D02*
X17993077Y-19517256D01*
X17993077Y-19517256D02*
X17985934Y-19510113D01*
X17985934Y-19510113D02*
X17985934Y-19524399D01*
X18143077Y-19645827D02*
X18135934Y-19652970D01*
X18135934Y-19652970D02*
X18114506Y-19660113D01*
X18114506Y-19660113D02*
X18100220Y-19660113D01*
X18100220Y-19660113D02*
X18078791Y-19652970D01*
X18078791Y-19652970D02*
X18064506Y-19638684D01*
X18064506Y-19638684D02*
X18057363Y-19624399D01*
X18057363Y-19624399D02*
X18050220Y-19595827D01*
X18050220Y-19595827D02*
X18050220Y-19574399D01*
X18050220Y-19574399D02*
X18057363Y-19545827D01*
X18057363Y-19545827D02*
X18064506Y-19531541D01*
X18064506Y-19531541D02*
X18078791Y-19517256D01*
X18078791Y-19517256D02*
X18100220Y-19510113D01*
X18100220Y-19510113D02*
X18114506Y-19510113D01*
X18114506Y-19510113D02*
X18135934Y-19517256D01*
X18135934Y-19517256D02*
X18143077Y-19524399D01*
X18271649Y-19660113D02*
X18271649Y-19581541D01*
X18271649Y-19581541D02*
X18264506Y-19567256D01*
X18264506Y-19567256D02*
X18250220Y-19560113D01*
X18250220Y-19560113D02*
X18221649Y-19560113D01*
X18221649Y-19560113D02*
X18207363Y-19567256D01*
X18271649Y-19652970D02*
X18257363Y-19660113D01*
X18257363Y-19660113D02*
X18221649Y-19660113D01*
X18221649Y-19660113D02*
X18207363Y-19652970D01*
X18207363Y-19652970D02*
X18200220Y-19638684D01*
X18200220Y-19638684D02*
X18200220Y-19624399D01*
X18200220Y-19624399D02*
X18207363Y-19610113D01*
X18207363Y-19610113D02*
X18221649Y-19602970D01*
X18221649Y-19602970D02*
X18257363Y-19602970D01*
X18257363Y-19602970D02*
X18271649Y-19595827D01*
X18407363Y-19660113D02*
X18407363Y-19510113D01*
X18407363Y-19652970D02*
X18393077Y-19660113D01*
X18393077Y-19660113D02*
X18364506Y-19660113D01*
X18364506Y-19660113D02*
X18350220Y-19652970D01*
X18350220Y-19652970D02*
X18343077Y-19645827D01*
X18343077Y-19645827D02*
X18335934Y-19631541D01*
X18335934Y-19631541D02*
X18335934Y-19588684D01*
X18335934Y-19588684D02*
X18343077Y-19574399D01*
X18343077Y-19574399D02*
X18350220Y-19567256D01*
X18350220Y-19567256D02*
X18364506Y-19560113D01*
X18364506Y-19560113D02*
X18393077Y-19560113D01*
X18393077Y-19560113D02*
X18407363Y-19567256D01*
X18593077Y-19581541D02*
X18643077Y-19581541D01*
X18664506Y-19660113D02*
X18593077Y-19660113D01*
X18593077Y-19660113D02*
X18593077Y-19510113D01*
X18593077Y-19510113D02*
X18664506Y-19510113D01*
X18728791Y-19645827D02*
X18735934Y-19652970D01*
X18735934Y-19652970D02*
X18728791Y-19660113D01*
X18728791Y-19660113D02*
X18721649Y-19652970D01*
X18721649Y-19652970D02*
X18728791Y-19645827D01*
X18728791Y-19645827D02*
X18728791Y-19660113D01*
X18800220Y-19660113D02*
X18800220Y-19510113D01*
X18800220Y-19510113D02*
X18835934Y-19510113D01*
X18835934Y-19510113D02*
X18857363Y-19517256D01*
X18857363Y-19517256D02*
X18871649Y-19531541D01*
X18871649Y-19531541D02*
X18878792Y-19545827D01*
X18878792Y-19545827D02*
X18885934Y-19574399D01*
X18885934Y-19574399D02*
X18885934Y-19595827D01*
X18885934Y-19595827D02*
X18878792Y-19624399D01*
X18878792Y-19624399D02*
X18871649Y-19638684D01*
X18871649Y-19638684D02*
X18857363Y-19652970D01*
X18857363Y-19652970D02*
X18835934Y-19660113D01*
X18835934Y-19660113D02*
X18800220Y-19660113D01*
X18950220Y-19645827D02*
X18957363Y-19652970D01*
X18957363Y-19652970D02*
X18950220Y-19660113D01*
X18950220Y-19660113D02*
X18943077Y-19652970D01*
X18943077Y-19652970D02*
X18950220Y-19645827D01*
X18950220Y-19645827D02*
X18950220Y-19660113D01*
X19014506Y-19617256D02*
X19085934Y-19617256D01*
X19000220Y-19660113D02*
X19050220Y-19510113D01*
X19050220Y-19510113D02*
X19100220Y-19660113D01*
X19150220Y-19645827D02*
X19157363Y-19652970D01*
X19157363Y-19652970D02*
X19150220Y-19660113D01*
X19150220Y-19660113D02*
X19143077Y-19652970D01*
X19143077Y-19652970D02*
X19150220Y-19645827D01*
X19150220Y-19645827D02*
X19150220Y-19660113D01*
X19450220Y-19660113D02*
X19450220Y-19510113D01*
X19464506Y-19602970D02*
X19507363Y-19660113D01*
X19507363Y-19560113D02*
X19450220Y-19617256D01*
X19571649Y-19660113D02*
X19571649Y-19560113D01*
X19571649Y-19510113D02*
X19564506Y-19517256D01*
X19564506Y-19517256D02*
X19571649Y-19524399D01*
X19571649Y-19524399D02*
X19578792Y-19517256D01*
X19578792Y-19517256D02*
X19571649Y-19510113D01*
X19571649Y-19510113D02*
X19571649Y-19524399D01*
X19707363Y-19652970D02*
X19693077Y-19660113D01*
X19693077Y-19660113D02*
X19664506Y-19660113D01*
X19664506Y-19660113D02*
X19650220Y-19652970D01*
X19650220Y-19652970D02*
X19643077Y-19645827D01*
X19643077Y-19645827D02*
X19635934Y-19631541D01*
X19635934Y-19631541D02*
X19635934Y-19588684D01*
X19635934Y-19588684D02*
X19643077Y-19574399D01*
X19643077Y-19574399D02*
X19650220Y-19567256D01*
X19650220Y-19567256D02*
X19664506Y-19560113D01*
X19664506Y-19560113D02*
X19693077Y-19560113D01*
X19693077Y-19560113D02*
X19707363Y-19567256D01*
X19835934Y-19660113D02*
X19835934Y-19581541D01*
X19835934Y-19581541D02*
X19828792Y-19567256D01*
X19828792Y-19567256D02*
X19814506Y-19560113D01*
X19814506Y-19560113D02*
X19785934Y-19560113D01*
X19785934Y-19560113D02*
X19771649Y-19567256D01*
X19835934Y-19652970D02*
X19821649Y-19660113D01*
X19821649Y-19660113D02*
X19785934Y-19660113D01*
X19785934Y-19660113D02*
X19771649Y-19652970D01*
X19771649Y-19652970D02*
X19764506Y-19638684D01*
X19764506Y-19638684D02*
X19764506Y-19624399D01*
X19764506Y-19624399D02*
X19771649Y-19610113D01*
X19771649Y-19610113D02*
X19785934Y-19602970D01*
X19785934Y-19602970D02*
X19821649Y-19602970D01*
X19821649Y-19602970D02*
X19835934Y-19595827D01*
X19971649Y-19660113D02*
X19971649Y-19510113D01*
X19971649Y-19652970D02*
X19957363Y-19660113D01*
X19957363Y-19660113D02*
X19928792Y-19660113D01*
X19928792Y-19660113D02*
X19914506Y-19652970D01*
X19914506Y-19652970D02*
X19907363Y-19645827D01*
X19907363Y-19645827D02*
X19900220Y-19631541D01*
X19900220Y-19631541D02*
X19900220Y-19588684D01*
X19900220Y-19588684D02*
X19907363Y-19574399D01*
X19907363Y-19574399D02*
X19914506Y-19567256D01*
X19914506Y-19567256D02*
X19928792Y-19560113D01*
X19928792Y-19560113D02*
X19957363Y-19560113D01*
X19957363Y-19560113D02*
X19971649Y-19567256D01*
X20143077Y-19510113D02*
X20243077Y-19510113D01*
X20243077Y-19510113D02*
X20178792Y-19660113D01*
X20300220Y-19645827D02*
X20307363Y-19652970D01*
X20307363Y-19652970D02*
X20300220Y-19660113D01*
X20300220Y-19660113D02*
X20293077Y-19652970D01*
X20293077Y-19652970D02*
X20300220Y-19645827D01*
X20300220Y-19645827D02*
X20300220Y-19660113D01*
X20400220Y-19510113D02*
X20414506Y-19510113D01*
X20414506Y-19510113D02*
X20428792Y-19517256D01*
X20428792Y-19517256D02*
X20435934Y-19524399D01*
X20435934Y-19524399D02*
X20443077Y-19538684D01*
X20443077Y-19538684D02*
X20450220Y-19567256D01*
X20450220Y-19567256D02*
X20450220Y-19602970D01*
X20450220Y-19602970D02*
X20443077Y-19631541D01*
X20443077Y-19631541D02*
X20435934Y-19645827D01*
X20435934Y-19645827D02*
X20428792Y-19652970D01*
X20428792Y-19652970D02*
X20414506Y-19660113D01*
X20414506Y-19660113D02*
X20400220Y-19660113D01*
X20400220Y-19660113D02*
X20385934Y-19652970D01*
X20385934Y-19652970D02*
X20378792Y-19645827D01*
X20378792Y-19645827D02*
X20371649Y-19631541D01*
X20371649Y-19631541D02*
X20364506Y-19602970D01*
X20364506Y-19602970D02*
X20364506Y-19567256D01*
X20364506Y-19567256D02*
X20371649Y-19538684D01*
X20371649Y-19538684D02*
X20378792Y-19524399D01*
X20378792Y-19524399D02*
X20385934Y-19517256D01*
X20385934Y-19517256D02*
X20400220Y-19510113D01*
X20514506Y-19645827D02*
X20521649Y-19652970D01*
X20521649Y-19652970D02*
X20514506Y-19660113D01*
X20514506Y-19660113D02*
X20507363Y-19652970D01*
X20507363Y-19652970D02*
X20514506Y-19645827D01*
X20514506Y-19645827D02*
X20514506Y-19660113D01*
X20664506Y-19660113D02*
X20578792Y-19660113D01*
X20621649Y-19660113D02*
X20621649Y-19510113D01*
X20621649Y-19510113D02*
X20607363Y-19531541D01*
X20607363Y-19531541D02*
X20593077Y-19545827D01*
X20593077Y-19545827D02*
X20578792Y-19552970D01*
D10*
D11*
X17700220Y-19150720D02*
X28500220Y-19150720D01*
D10*
D12*
X26421648Y-19380113D02*
X26371648Y-19308684D01*
X26335934Y-19380113D02*
X26335934Y-19230113D01*
X26335934Y-19230113D02*
X26393077Y-19230113D01*
X26393077Y-19230113D02*
X26407363Y-19237256D01*
X26407363Y-19237256D02*
X26414506Y-19244399D01*
X26414506Y-19244399D02*
X26421648Y-19258684D01*
X26421648Y-19258684D02*
X26421648Y-19280113D01*
X26421648Y-19280113D02*
X26414506Y-19294399D01*
X26414506Y-19294399D02*
X26407363Y-19301541D01*
X26407363Y-19301541D02*
X26393077Y-19308684D01*
X26393077Y-19308684D02*
X26335934Y-19308684D01*
X26543077Y-19372970D02*
X26528791Y-19380113D01*
X26528791Y-19380113D02*
X26500220Y-19380113D01*
X26500220Y-19380113D02*
X26485934Y-19372970D01*
X26485934Y-19372970D02*
X26478791Y-19358684D01*
X26478791Y-19358684D02*
X26478791Y-19301541D01*
X26478791Y-19301541D02*
X26485934Y-19287256D01*
X26485934Y-19287256D02*
X26500220Y-19280113D01*
X26500220Y-19280113D02*
X26528791Y-19280113D01*
X26528791Y-19280113D02*
X26543077Y-19287256D01*
X26543077Y-19287256D02*
X26550220Y-19301541D01*
X26550220Y-19301541D02*
X26550220Y-19315827D01*
X26550220Y-19315827D02*
X26478791Y-19330113D01*
X26600220Y-19280113D02*
X26635934Y-19380113D01*
X26635934Y-19380113D02*
X26671648Y-19280113D01*
X26728791Y-19365827D02*
X26735934Y-19372970D01*
X26735934Y-19372970D02*
X26728791Y-19380113D01*
X26728791Y-19380113D02*
X26721648Y-19372970D01*
X26721648Y-19372970D02*
X26728791Y-19365827D01*
X26728791Y-19365827D02*
X26728791Y-19380113D01*
X26728791Y-19287256D02*
X26735934Y-19294399D01*
X26735934Y-19294399D02*
X26728791Y-19301541D01*
X26728791Y-19301541D02*
X26721648Y-19294399D01*
X26721648Y-19294399D02*
X26728791Y-19287256D01*
X26728791Y-19287256D02*
X26728791Y-19301541D01*
D10*
D11*
X17828791Y-19372970D02*
X17850220Y-19380113D01*
X17850220Y-19380113D02*
X17885934Y-19380113D01*
X17885934Y-19380113D02*
X17900220Y-19372970D01*
X17900220Y-19372970D02*
X17907363Y-19365827D01*
X17907363Y-19365827D02*
X17914506Y-19351541D01*
X17914506Y-19351541D02*
X17914506Y-19337256D01*
X17914506Y-19337256D02*
X17907363Y-19322970D01*
X17907363Y-19322970D02*
X17900220Y-19315827D01*
X17900220Y-19315827D02*
X17885934Y-19308684D01*
X17885934Y-19308684D02*
X17857363Y-19301541D01*
X17857363Y-19301541D02*
X17843077Y-19294399D01*
X17843077Y-19294399D02*
X17835934Y-19287256D01*
X17835934Y-19287256D02*
X17828791Y-19272970D01*
X17828791Y-19272970D02*
X17828791Y-19258684D01*
X17828791Y-19258684D02*
X17835934Y-19244399D01*
X17835934Y-19244399D02*
X17843077Y-19237256D01*
X17843077Y-19237256D02*
X17857363Y-19230113D01*
X17857363Y-19230113D02*
X17893077Y-19230113D01*
X17893077Y-19230113D02*
X17914506Y-19237256D01*
X17978791Y-19380113D02*
X17978791Y-19280113D01*
X17978791Y-19230113D02*
X17971649Y-19237256D01*
X17971649Y-19237256D02*
X17978791Y-19244399D01*
X17978791Y-19244399D02*
X17985934Y-19237256D01*
X17985934Y-19237256D02*
X17978791Y-19230113D01*
X17978791Y-19230113D02*
X17978791Y-19244399D01*
X18035934Y-19280113D02*
X18114506Y-19280113D01*
X18114506Y-19280113D02*
X18035934Y-19380113D01*
X18035934Y-19380113D02*
X18114506Y-19380113D01*
X18228791Y-19372970D02*
X18214506Y-19380113D01*
X18214506Y-19380113D02*
X18185934Y-19380113D01*
X18185934Y-19380113D02*
X18171649Y-19372970D01*
X18171649Y-19372970D02*
X18164506Y-19358684D01*
X18164506Y-19358684D02*
X18164506Y-19301541D01*
X18164506Y-19301541D02*
X18171649Y-19287256D01*
X18171649Y-19287256D02*
X18185934Y-19280113D01*
X18185934Y-19280113D02*
X18214506Y-19280113D01*
X18214506Y-19280113D02*
X18228791Y-19287256D01*
X18228791Y-19287256D02*
X18235934Y-19301541D01*
X18235934Y-19301541D02*
X18235934Y-19315827D01*
X18235934Y-19315827D02*
X18164506Y-19330113D01*
X18300220Y-19365827D02*
X18307363Y-19372970D01*
X18307363Y-19372970D02*
X18300220Y-19380113D01*
X18300220Y-19380113D02*
X18293077Y-19372970D01*
X18293077Y-19372970D02*
X18300220Y-19365827D01*
X18300220Y-19365827D02*
X18300220Y-19380113D01*
X18300220Y-19287256D02*
X18307363Y-19294399D01*
X18307363Y-19294399D02*
X18300220Y-19301541D01*
X18300220Y-19301541D02*
X18293077Y-19294399D01*
X18293077Y-19294399D02*
X18300220Y-19287256D01*
X18300220Y-19287256D02*
X18300220Y-19301541D01*
X18478791Y-19337256D02*
X18550220Y-19337256D01*
X18464506Y-19380113D02*
X18514506Y-19230113D01*
X18514506Y-19230113D02*
X18564506Y-19380113D01*
X18678791Y-19280113D02*
X18678791Y-19380113D01*
X18643077Y-19222970D02*
X18607363Y-19330113D01*
X18607363Y-19330113D02*
X18700220Y-19330113D01*
D10*
D11*
X26335934Y-19660113D02*
X26335934Y-19510113D01*
X26471649Y-19660113D02*
X26471649Y-19510113D01*
X26471649Y-19652970D02*
X26457363Y-19660113D01*
X26457363Y-19660113D02*
X26428791Y-19660113D01*
X26428791Y-19660113D02*
X26414506Y-19652970D01*
X26414506Y-19652970D02*
X26407363Y-19645827D01*
X26407363Y-19645827D02*
X26400220Y-19631541D01*
X26400220Y-19631541D02*
X26400220Y-19588684D01*
X26400220Y-19588684D02*
X26407363Y-19574399D01*
X26407363Y-19574399D02*
X26414506Y-19567256D01*
X26414506Y-19567256D02*
X26428791Y-19560113D01*
X26428791Y-19560113D02*
X26457363Y-19560113D01*
X26457363Y-19560113D02*
X26471649Y-19567256D01*
X26543077Y-19645827D02*
X26550220Y-19652970D01*
X26550220Y-19652970D02*
X26543077Y-19660113D01*
X26543077Y-19660113D02*
X26535934Y-19652970D01*
X26535934Y-19652970D02*
X26543077Y-19645827D01*
X26543077Y-19645827D02*
X26543077Y-19660113D01*
X26543077Y-19567256D02*
X26550220Y-19574399D01*
X26550220Y-19574399D02*
X26543077Y-19581541D01*
X26543077Y-19581541D02*
X26535934Y-19574399D01*
X26535934Y-19574399D02*
X26543077Y-19567256D01*
X26543077Y-19567256D02*
X26543077Y-19581541D01*
X26807363Y-19660113D02*
X26721649Y-19660113D01*
X26764506Y-19660113D02*
X26764506Y-19510113D01*
X26764506Y-19510113D02*
X26750220Y-19531541D01*
X26750220Y-19531541D02*
X26735934Y-19545827D01*
X26735934Y-19545827D02*
X26721649Y-19552970D01*
X26978791Y-19502970D02*
X26850220Y-19695827D01*
X27107363Y-19660113D02*
X27021649Y-19660113D01*
X27064506Y-19660113D02*
X27064506Y-19510113D01*
X27064506Y-19510113D02*
X27050220Y-19531541D01*
X27050220Y-19531541D02*
X27035934Y-19545827D01*
X27035934Y-19545827D02*
X27021649Y-19552970D01*
D10*
D11*
X17700220Y-18750720D02*
X28500220Y-18750720D01*
D10*
D13*
X17843077Y-18823244D02*
X17957363Y-18823244D01*
X17875220Y-19023244D02*
X17900220Y-18823244D01*
X17997839Y-19023244D02*
X18014506Y-18889910D01*
X18022839Y-18823244D02*
X18012125Y-18832768D01*
X18012125Y-18832768D02*
X18020458Y-18842291D01*
X18020458Y-18842291D02*
X18031172Y-18832768D01*
X18031172Y-18832768D02*
X18022839Y-18823244D01*
X18022839Y-18823244D02*
X18020458Y-18842291D01*
X18079982Y-18889910D02*
X18156172Y-18889910D01*
X18116887Y-18823244D02*
X18095458Y-18994672D01*
X18095458Y-18994672D02*
X18102601Y-19013720D01*
X18102601Y-19013720D02*
X18120458Y-19023244D01*
X18120458Y-19023244D02*
X18139506Y-19023244D01*
X18233553Y-19023244D02*
X18215696Y-19013720D01*
X18215696Y-19013720D02*
X18208553Y-18994672D01*
X18208553Y-18994672D02*
X18229982Y-18823244D01*
X18385934Y-19013720D02*
X18365696Y-19023244D01*
X18365696Y-19023244D02*
X18327601Y-19023244D01*
X18327601Y-19023244D02*
X18309744Y-19013720D01*
X18309744Y-19013720D02*
X18302601Y-18994672D01*
X18302601Y-18994672D02*
X18312125Y-18918482D01*
X18312125Y-18918482D02*
X18324029Y-18899434D01*
X18324029Y-18899434D02*
X18344268Y-18889910D01*
X18344268Y-18889910D02*
X18382363Y-18889910D01*
X18382363Y-18889910D02*
X18400220Y-18899434D01*
X18400220Y-18899434D02*
X18407363Y-18918482D01*
X18407363Y-18918482D02*
X18404982Y-18937530D01*
X18404982Y-18937530D02*
X18307363Y-18956577D01*
X18481172Y-19004196D02*
X18489506Y-19013720D01*
X18489506Y-19013720D02*
X18478791Y-19023244D01*
X18478791Y-19023244D02*
X18470458Y-19013720D01*
X18470458Y-19013720D02*
X18481172Y-19004196D01*
X18481172Y-19004196D02*
X18478791Y-19023244D01*
X18494268Y-18899434D02*
X18502601Y-18908958D01*
X18502601Y-18908958D02*
X18491887Y-18918482D01*
X18491887Y-18918482D02*
X18483553Y-18908958D01*
X18483553Y-18908958D02*
X18494268Y-18899434D01*
X18494268Y-18899434D02*
X18491887Y-18918482D01*
D10*
D11*
X17885934Y-18561541D02*
X17835934Y-18561541D01*
X17835934Y-18640113D02*
X17835934Y-18490113D01*
X17835934Y-18490113D02*
X17907363Y-18490113D01*
X17964506Y-18640113D02*
X17964506Y-18540113D01*
X17964506Y-18490113D02*
X17957363Y-18497256D01*
X17957363Y-18497256D02*
X17964506Y-18504399D01*
X17964506Y-18504399D02*
X17971649Y-18497256D01*
X17971649Y-18497256D02*
X17964506Y-18490113D01*
X17964506Y-18490113D02*
X17964506Y-18504399D01*
X18057363Y-18640113D02*
X18043077Y-18632970D01*
X18043077Y-18632970D02*
X18035934Y-18618684D01*
X18035934Y-18618684D02*
X18035934Y-18490113D01*
X18171649Y-18632970D02*
X18157363Y-18640113D01*
X18157363Y-18640113D02*
X18128791Y-18640113D01*
X18128791Y-18640113D02*
X18114506Y-18632970D01*
X18114506Y-18632970D02*
X18107363Y-18618684D01*
X18107363Y-18618684D02*
X18107363Y-18561541D01*
X18107363Y-18561541D02*
X18114506Y-18547256D01*
X18114506Y-18547256D02*
X18128791Y-18540113D01*
X18128791Y-18540113D02*
X18157363Y-18540113D01*
X18157363Y-18540113D02*
X18171649Y-18547256D01*
X18171649Y-18547256D02*
X18178791Y-18561541D01*
X18178791Y-18561541D02*
X18178791Y-18575827D01*
X18178791Y-18575827D02*
X18107363Y-18590113D01*
X18243077Y-18625827D02*
X18250220Y-18632970D01*
X18250220Y-18632970D02*
X18243077Y-18640113D01*
X18243077Y-18640113D02*
X18235934Y-18632970D01*
X18235934Y-18632970D02*
X18243077Y-18625827D01*
X18243077Y-18625827D02*
X18243077Y-18640113D01*
X18243077Y-18547256D02*
X18250220Y-18554399D01*
X18250220Y-18554399D02*
X18243077Y-18561541D01*
X18243077Y-18561541D02*
X18235934Y-18554399D01*
X18235934Y-18554399D02*
X18243077Y-18547256D01*
X18243077Y-18547256D02*
X18243077Y-18561541D01*
X18514506Y-18625827D02*
X18507363Y-18632970D01*
X18507363Y-18632970D02*
X18485934Y-18640113D01*
X18485934Y-18640113D02*
X18471649Y-18640113D01*
X18471649Y-18640113D02*
X18450220Y-18632970D01*
X18450220Y-18632970D02*
X18435934Y-18618684D01*
X18435934Y-18618684D02*
X18428791Y-18604399D01*
X18428791Y-18604399D02*
X18421649Y-18575827D01*
X18421649Y-18575827D02*
X18421649Y-18554399D01*
X18421649Y-18554399D02*
X18428791Y-18525827D01*
X18428791Y-18525827D02*
X18435934Y-18511541D01*
X18435934Y-18511541D02*
X18450220Y-18497256D01*
X18450220Y-18497256D02*
X18471649Y-18490113D01*
X18471649Y-18490113D02*
X18485934Y-18490113D01*
X18485934Y-18490113D02*
X18507363Y-18497256D01*
X18507363Y-18497256D02*
X18514506Y-18504399D01*
X18600220Y-18640113D02*
X18585934Y-18632970D01*
X18585934Y-18632970D02*
X18578791Y-18625827D01*
X18578791Y-18625827D02*
X18571649Y-18611541D01*
X18571649Y-18611541D02*
X18571649Y-18568684D01*
X18571649Y-18568684D02*
X18578791Y-18554399D01*
X18578791Y-18554399D02*
X18585934Y-18547256D01*
X18585934Y-18547256D02*
X18600220Y-18540113D01*
X18600220Y-18540113D02*
X18621649Y-18540113D01*
X18621649Y-18540113D02*
X18635934Y-18547256D01*
X18635934Y-18547256D02*
X18643077Y-18554399D01*
X18643077Y-18554399D02*
X18650220Y-18568684D01*
X18650220Y-18568684D02*
X18650220Y-18611541D01*
X18650220Y-18611541D02*
X18643077Y-18625827D01*
X18643077Y-18625827D02*
X18635934Y-18632970D01*
X18635934Y-18632970D02*
X18621649Y-18640113D01*
X18621649Y-18640113D02*
X18600220Y-18640113D01*
X18714506Y-18540113D02*
X18714506Y-18640113D01*
X18714506Y-18554399D02*
X18721649Y-18547256D01*
X18721649Y-18547256D02*
X18735934Y-18540113D01*
X18735934Y-18540113D02*
X18757363Y-18540113D01*
X18757363Y-18540113D02*
X18771649Y-18547256D01*
X18771649Y-18547256D02*
X18778791Y-18561541D01*
X18778791Y-18561541D02*
X18778791Y-18640113D01*
X18828791Y-18540113D02*
X18885934Y-18540113D01*
X18850220Y-18490113D02*
X18850220Y-18618684D01*
X18850220Y-18618684D02*
X18857363Y-18632970D01*
X18857363Y-18632970D02*
X18871649Y-18640113D01*
X18871649Y-18640113D02*
X18885934Y-18640113D01*
X18935934Y-18640113D02*
X18935934Y-18540113D01*
X18935934Y-18568684D02*
X18943077Y-18554399D01*
X18943077Y-18554399D02*
X18950220Y-18547256D01*
X18950220Y-18547256D02*
X18964506Y-18540113D01*
X18964506Y-18540113D02*
X18978791Y-18540113D01*
X19050220Y-18640113D02*
X19035934Y-18632970D01*
X19035934Y-18632970D02*
X19028791Y-18625827D01*
X19028791Y-18625827D02*
X19021649Y-18611541D01*
X19021649Y-18611541D02*
X19021649Y-18568684D01*
X19021649Y-18568684D02*
X19028791Y-18554399D01*
X19028791Y-18554399D02*
X19035934Y-18547256D01*
X19035934Y-18547256D02*
X19050220Y-18540113D01*
X19050220Y-18540113D02*
X19071649Y-18540113D01*
X19071649Y-18540113D02*
X19085934Y-18547256D01*
X19085934Y-18547256D02*
X19093077Y-18554399D01*
X19093077Y-18554399D02*
X19100220Y-18568684D01*
X19100220Y-18568684D02*
X19100220Y-18611541D01*
X19100220Y-18611541D02*
X19093077Y-18625827D01*
X19093077Y-18625827D02*
X19085934Y-18632970D01*
X19085934Y-18632970D02*
X19071649Y-18640113D01*
X19071649Y-18640113D02*
X19050220Y-18640113D01*
X19185934Y-18640113D02*
X19171649Y-18632970D01*
X19171649Y-18632970D02*
X19164506Y-18618684D01*
X19164506Y-18618684D02*
X19164506Y-18490113D01*
X19207363Y-18654399D02*
X19321649Y-18654399D01*
X19407363Y-18561541D02*
X19428791Y-18568684D01*
X19428791Y-18568684D02*
X19435934Y-18575827D01*
X19435934Y-18575827D02*
X19443077Y-18590113D01*
X19443077Y-18590113D02*
X19443077Y-18611541D01*
X19443077Y-18611541D02*
X19435934Y-18625827D01*
X19435934Y-18625827D02*
X19428791Y-18632970D01*
X19428791Y-18632970D02*
X19414506Y-18640113D01*
X19414506Y-18640113D02*
X19357363Y-18640113D01*
X19357363Y-18640113D02*
X19357363Y-18490113D01*
X19357363Y-18490113D02*
X19407363Y-18490113D01*
X19407363Y-18490113D02*
X19421649Y-18497256D01*
X19421649Y-18497256D02*
X19428791Y-18504399D01*
X19428791Y-18504399D02*
X19435934Y-18518684D01*
X19435934Y-18518684D02*
X19435934Y-18532970D01*
X19435934Y-18532970D02*
X19428791Y-18547256D01*
X19428791Y-18547256D02*
X19421649Y-18554399D01*
X19421649Y-18554399D02*
X19407363Y-18561541D01*
X19407363Y-18561541D02*
X19357363Y-18561541D01*
X19528791Y-18640113D02*
X19514506Y-18632970D01*
X19514506Y-18632970D02*
X19507363Y-18625827D01*
X19507363Y-18625827D02*
X19500220Y-18611541D01*
X19500220Y-18611541D02*
X19500220Y-18568684D01*
X19500220Y-18568684D02*
X19507363Y-18554399D01*
X19507363Y-18554399D02*
X19514506Y-18547256D01*
X19514506Y-18547256D02*
X19528791Y-18540113D01*
X19528791Y-18540113D02*
X19550220Y-18540113D01*
X19550220Y-18540113D02*
X19564506Y-18547256D01*
X19564506Y-18547256D02*
X19571649Y-18554399D01*
X19571649Y-18554399D02*
X19578791Y-18568684D01*
X19578791Y-18568684D02*
X19578791Y-18611541D01*
X19578791Y-18611541D02*
X19571649Y-18625827D01*
X19571649Y-18625827D02*
X19564506Y-18632970D01*
X19564506Y-18632970D02*
X19550220Y-18640113D01*
X19550220Y-18640113D02*
X19528791Y-18640113D01*
X19707363Y-18640113D02*
X19707363Y-18561541D01*
X19707363Y-18561541D02*
X19700220Y-18547256D01*
X19700220Y-18547256D02*
X19685934Y-18540113D01*
X19685934Y-18540113D02*
X19657363Y-18540113D01*
X19657363Y-18540113D02*
X19643077Y-18547256D01*
X19707363Y-18632970D02*
X19693077Y-18640113D01*
X19693077Y-18640113D02*
X19657363Y-18640113D01*
X19657363Y-18640113D02*
X19643077Y-18632970D01*
X19643077Y-18632970D02*
X19635934Y-18618684D01*
X19635934Y-18618684D02*
X19635934Y-18604399D01*
X19635934Y-18604399D02*
X19643077Y-18590113D01*
X19643077Y-18590113D02*
X19657363Y-18582970D01*
X19657363Y-18582970D02*
X19693077Y-18582970D01*
X19693077Y-18582970D02*
X19707363Y-18575827D01*
X19778791Y-18640113D02*
X19778791Y-18540113D01*
X19778791Y-18568684D02*
X19785934Y-18554399D01*
X19785934Y-18554399D02*
X19793077Y-18547256D01*
X19793077Y-18547256D02*
X19807363Y-18540113D01*
X19807363Y-18540113D02*
X19821649Y-18540113D01*
X19935934Y-18640113D02*
X19935934Y-18490113D01*
X19935934Y-18632970D02*
X19921648Y-18640113D01*
X19921648Y-18640113D02*
X19893077Y-18640113D01*
X19893077Y-18640113D02*
X19878791Y-18632970D01*
X19878791Y-18632970D02*
X19871648Y-18625827D01*
X19871648Y-18625827D02*
X19864506Y-18611541D01*
X19864506Y-18611541D02*
X19864506Y-18568684D01*
X19864506Y-18568684D02*
X19871648Y-18554399D01*
X19871648Y-18554399D02*
X19878791Y-18547256D01*
X19878791Y-18547256D02*
X19893077Y-18540113D01*
X19893077Y-18540113D02*
X19921648Y-18540113D01*
X19921648Y-18540113D02*
X19935934Y-18547256D01*
X20007363Y-18625827D02*
X20014506Y-18632970D01*
X20014506Y-18632970D02*
X20007363Y-18640113D01*
X20007363Y-18640113D02*
X20000220Y-18632970D01*
X20000220Y-18632970D02*
X20007363Y-18625827D01*
X20007363Y-18625827D02*
X20007363Y-18640113D01*
X20078791Y-18640113D02*
X20078791Y-18490113D01*
X20093077Y-18582970D02*
X20135934Y-18640113D01*
X20135934Y-18540113D02*
X20078791Y-18597256D01*
X20200220Y-18640113D02*
X20200220Y-18540113D01*
X20200220Y-18490113D02*
X20193077Y-18497256D01*
X20193077Y-18497256D02*
X20200220Y-18504399D01*
X20200220Y-18504399D02*
X20207363Y-18497256D01*
X20207363Y-18497256D02*
X20200220Y-18490113D01*
X20200220Y-18490113D02*
X20200220Y-18504399D01*
X20335934Y-18632970D02*
X20321649Y-18640113D01*
X20321649Y-18640113D02*
X20293077Y-18640113D01*
X20293077Y-18640113D02*
X20278791Y-18632970D01*
X20278791Y-18632970D02*
X20271649Y-18625827D01*
X20271649Y-18625827D02*
X20264506Y-18611541D01*
X20264506Y-18611541D02*
X20264506Y-18568684D01*
X20264506Y-18568684D02*
X20271649Y-18554399D01*
X20271649Y-18554399D02*
X20278791Y-18547256D01*
X20278791Y-18547256D02*
X20293077Y-18540113D01*
X20293077Y-18540113D02*
X20321649Y-18540113D01*
X20321649Y-18540113D02*
X20335934Y-18547256D01*
X20464506Y-18640113D02*
X20464506Y-18561541D01*
X20464506Y-18561541D02*
X20457363Y-18547256D01*
X20457363Y-18547256D02*
X20443077Y-18540113D01*
X20443077Y-18540113D02*
X20414506Y-18540113D01*
X20414506Y-18540113D02*
X20400220Y-18547256D01*
X20464506Y-18632970D02*
X20450220Y-18640113D01*
X20450220Y-18640113D02*
X20414506Y-18640113D01*
X20414506Y-18640113D02*
X20400220Y-18632970D01*
X20400220Y-18632970D02*
X20393077Y-18618684D01*
X20393077Y-18618684D02*
X20393077Y-18604399D01*
X20393077Y-18604399D02*
X20400220Y-18590113D01*
X20400220Y-18590113D02*
X20414506Y-18582970D01*
X20414506Y-18582970D02*
X20450220Y-18582970D01*
X20450220Y-18582970D02*
X20464506Y-18575827D01*
X20600220Y-18640113D02*
X20600220Y-18490113D01*
X20600220Y-18632970D02*
X20585934Y-18640113D01*
X20585934Y-18640113D02*
X20557363Y-18640113D01*
X20557363Y-18640113D02*
X20543077Y-18632970D01*
X20543077Y-18632970D02*
X20535934Y-18625827D01*
X20535934Y-18625827D02*
X20528791Y-18611541D01*
X20528791Y-18611541D02*
X20528791Y-18568684D01*
X20528791Y-18568684D02*
X20535934Y-18554399D01*
X20535934Y-18554399D02*
X20543077Y-18547256D01*
X20543077Y-18547256D02*
X20557363Y-18540113D01*
X20557363Y-18540113D02*
X20585934Y-18540113D01*
X20585934Y-18540113D02*
X20600220Y-18547256D01*
X20635934Y-18654399D02*
X20750220Y-18654399D01*
X20785934Y-18540113D02*
X20785934Y-18690113D01*
X20785934Y-18547256D02*
X20800220Y-18540113D01*
X20800220Y-18540113D02*
X20828791Y-18540113D01*
X20828791Y-18540113D02*
X20843077Y-18547256D01*
X20843077Y-18547256D02*
X20850220Y-18554399D01*
X20850220Y-18554399D02*
X20857363Y-18568684D01*
X20857363Y-18568684D02*
X20857363Y-18611541D01*
X20857363Y-18611541D02*
X20850220Y-18625827D01*
X20850220Y-18625827D02*
X20843077Y-18632970D01*
X20843077Y-18632970D02*
X20828791Y-18640113D01*
X20828791Y-18640113D02*
X20800220Y-18640113D01*
X20800220Y-18640113D02*
X20785934Y-18632970D01*
X20985934Y-18632970D02*
X20971649Y-18640113D01*
X20971649Y-18640113D02*
X20943077Y-18640113D01*
X20943077Y-18640113D02*
X20928791Y-18632970D01*
X20928791Y-18632970D02*
X20921649Y-18625827D01*
X20921649Y-18625827D02*
X20914506Y-18611541D01*
X20914506Y-18611541D02*
X20914506Y-18568684D01*
X20914506Y-18568684D02*
X20921649Y-18554399D01*
X20921649Y-18554399D02*
X20928791Y-18547256D01*
X20928791Y-18547256D02*
X20943077Y-18540113D01*
X20943077Y-18540113D02*
X20971649Y-18540113D01*
X20971649Y-18540113D02*
X20985934Y-18547256D01*
X21050220Y-18640113D02*
X21050220Y-18490113D01*
X21050220Y-18547256D02*
X21064506Y-18540113D01*
X21064506Y-18540113D02*
X21093077Y-18540113D01*
X21093077Y-18540113D02*
X21107363Y-18547256D01*
X21107363Y-18547256D02*
X21114506Y-18554399D01*
X21114506Y-18554399D02*
X21121649Y-18568684D01*
X21121649Y-18568684D02*
X21121649Y-18611541D01*
X21121649Y-18611541D02*
X21114506Y-18625827D01*
X21114506Y-18625827D02*
X21107363Y-18632970D01*
X21107363Y-18632970D02*
X21093077Y-18640113D01*
X21093077Y-18640113D02*
X21064506Y-18640113D01*
X21064506Y-18640113D02*
X21050220Y-18632970D01*
D10*
D11*
X17700220Y-18150720D02*
X28500220Y-18150720D01*
D10*
D11*
X17828791Y-18362970D02*
X17850220Y-18370113D01*
X17850220Y-18370113D02*
X17885934Y-18370113D01*
X17885934Y-18370113D02*
X17900220Y-18362970D01*
X17900220Y-18362970D02*
X17907363Y-18355827D01*
X17907363Y-18355827D02*
X17914506Y-18341541D01*
X17914506Y-18341541D02*
X17914506Y-18327256D01*
X17914506Y-18327256D02*
X17907363Y-18312970D01*
X17907363Y-18312970D02*
X17900220Y-18305827D01*
X17900220Y-18305827D02*
X17885934Y-18298684D01*
X17885934Y-18298684D02*
X17857363Y-18291541D01*
X17857363Y-18291541D02*
X17843077Y-18284399D01*
X17843077Y-18284399D02*
X17835934Y-18277256D01*
X17835934Y-18277256D02*
X17828791Y-18262970D01*
X17828791Y-18262970D02*
X17828791Y-18248684D01*
X17828791Y-18248684D02*
X17835934Y-18234399D01*
X17835934Y-18234399D02*
X17843077Y-18227256D01*
X17843077Y-18227256D02*
X17857363Y-18220113D01*
X17857363Y-18220113D02*
X17893077Y-18220113D01*
X17893077Y-18220113D02*
X17914506Y-18227256D01*
X17978791Y-18370113D02*
X17978791Y-18220113D01*
X18043077Y-18370113D02*
X18043077Y-18291541D01*
X18043077Y-18291541D02*
X18035934Y-18277256D01*
X18035934Y-18277256D02*
X18021649Y-18270113D01*
X18021649Y-18270113D02*
X18000220Y-18270113D01*
X18000220Y-18270113D02*
X17985934Y-18277256D01*
X17985934Y-18277256D02*
X17978791Y-18284399D01*
X18171649Y-18362970D02*
X18157363Y-18370113D01*
X18157363Y-18370113D02*
X18128791Y-18370113D01*
X18128791Y-18370113D02*
X18114506Y-18362970D01*
X18114506Y-18362970D02*
X18107363Y-18348684D01*
X18107363Y-18348684D02*
X18107363Y-18291541D01*
X18107363Y-18291541D02*
X18114506Y-18277256D01*
X18114506Y-18277256D02*
X18128791Y-18270113D01*
X18128791Y-18270113D02*
X18157363Y-18270113D01*
X18157363Y-18270113D02*
X18171649Y-18277256D01*
X18171649Y-18277256D02*
X18178791Y-18291541D01*
X18178791Y-18291541D02*
X18178791Y-18305827D01*
X18178791Y-18305827D02*
X18107363Y-18320113D01*
X18300220Y-18362970D02*
X18285934Y-18370113D01*
X18285934Y-18370113D02*
X18257363Y-18370113D01*
X18257363Y-18370113D02*
X18243077Y-18362970D01*
X18243077Y-18362970D02*
X18235934Y-18348684D01*
X18235934Y-18348684D02*
X18235934Y-18291541D01*
X18235934Y-18291541D02*
X18243077Y-18277256D01*
X18243077Y-18277256D02*
X18257363Y-18270113D01*
X18257363Y-18270113D02*
X18285934Y-18270113D01*
X18285934Y-18270113D02*
X18300220Y-18277256D01*
X18300220Y-18277256D02*
X18307363Y-18291541D01*
X18307363Y-18291541D02*
X18307363Y-18305827D01*
X18307363Y-18305827D02*
X18235934Y-18320113D01*
X18350220Y-18270113D02*
X18407363Y-18270113D01*
X18371648Y-18220113D02*
X18371648Y-18348684D01*
X18371648Y-18348684D02*
X18378791Y-18362970D01*
X18378791Y-18362970D02*
X18393077Y-18370113D01*
X18393077Y-18370113D02*
X18407363Y-18370113D01*
X18457363Y-18355827D02*
X18464506Y-18362970D01*
X18464506Y-18362970D02*
X18457363Y-18370113D01*
X18457363Y-18370113D02*
X18450220Y-18362970D01*
X18450220Y-18362970D02*
X18457363Y-18355827D01*
X18457363Y-18355827D02*
X18457363Y-18370113D01*
X18457363Y-18277256D02*
X18464506Y-18284399D01*
X18464506Y-18284399D02*
X18457363Y-18291541D01*
X18457363Y-18291541D02*
X18450220Y-18284399D01*
X18450220Y-18284399D02*
X18457363Y-18277256D01*
X18457363Y-18277256D02*
X18457363Y-18291541D01*
D10*
D12*
D10*
D11*
D10*
D11*
D10*
D11*
D10*
D11*
D10*
D11*
X19700220Y-19150720D02*
X19700220Y-19450720D01*
D10*
D11*
X26100220Y-19150720D02*
X26100220Y-19800720D01*
X10274468Y-8252000D02*
X15674468Y-8252000D01*
X15674468Y-12050000D01*
X10274468Y-12050000D01*
X10274468Y-8252000D01*
X16453452Y-7952709D02*
X16453452Y-7872709D01*
X16453452Y-7872709D02*
X16422976Y-7872709D01*
X16422976Y-7872709D02*
X16415357Y-7876519D01*
X16415357Y-7876519D02*
X16411548Y-7880328D01*
X16411548Y-7880328D02*
X16407738Y-7887948D01*
X16407738Y-7887948D02*
X16407738Y-7899376D01*
X16407738Y-7899376D02*
X16411548Y-7906995D01*
X16411548Y-7906995D02*
X16415357Y-7910805D01*
X16415357Y-7910805D02*
X16422976Y-7914614D01*
X16422976Y-7914614D02*
X16453452Y-7914614D01*
X16362024Y-7952709D02*
X16369643Y-7948900D01*
X16369643Y-7948900D02*
X16373452Y-7945090D01*
X16373452Y-7945090D02*
X16377262Y-7937471D01*
X16377262Y-7937471D02*
X16377262Y-7914614D01*
X16377262Y-7914614D02*
X16373452Y-7906995D01*
X16373452Y-7906995D02*
X16369643Y-7903186D01*
X16369643Y-7903186D02*
X16362024Y-7899376D01*
X16362024Y-7899376D02*
X16350595Y-7899376D01*
X16350595Y-7899376D02*
X16342976Y-7903186D01*
X16342976Y-7903186D02*
X16339167Y-7906995D01*
X16339167Y-7906995D02*
X16335357Y-7914614D01*
X16335357Y-7914614D02*
X16335357Y-7937471D01*
X16335357Y-7937471D02*
X16339167Y-7945090D01*
X16339167Y-7945090D02*
X16342976Y-7948900D01*
X16342976Y-7948900D02*
X16350595Y-7952709D01*
X16350595Y-7952709D02*
X16362024Y-7952709D01*
X16308690Y-7899376D02*
X16293452Y-7952709D01*
X16293452Y-7952709D02*
X16278214Y-7914614D01*
X16278214Y-7914614D02*
X16262976Y-7952709D01*
X16262976Y-7952709D02*
X16247738Y-7899376D01*
X16186786Y-7948900D02*
X16194405Y-7952709D01*
X16194405Y-7952709D02*
X16209643Y-7952709D01*
X16209643Y-7952709D02*
X16217262Y-7948900D01*
X16217262Y-7948900D02*
X16221071Y-7941281D01*
X16221071Y-7941281D02*
X16221071Y-7910805D01*
X16221071Y-7910805D02*
X16217262Y-7903186D01*
X16217262Y-7903186D02*
X16209643Y-7899376D01*
X16209643Y-7899376D02*
X16194405Y-7899376D01*
X16194405Y-7899376D02*
X16186786Y-7903186D01*
X16186786Y-7903186D02*
X16182976Y-7910805D01*
X16182976Y-7910805D02*
X16182976Y-7918424D01*
X16182976Y-7918424D02*
X16221071Y-7926043D01*
X16148690Y-7952709D02*
X16148690Y-7899376D01*
X16148690Y-7914614D02*
X16144881Y-7906995D01*
X16144881Y-7906995D02*
X16141071Y-7903186D01*
X16141071Y-7903186D02*
X16133452Y-7899376D01*
X16133452Y-7899376D02*
X16125833Y-7899376D01*
X16038214Y-7952709D02*
X16038214Y-7872709D01*
X16000119Y-7899376D02*
X16000119Y-7952709D01*
X16000119Y-7906995D02*
X15996309Y-7903186D01*
X15996309Y-7903186D02*
X15988690Y-7899376D01*
X15988690Y-7899376D02*
X15977262Y-7899376D01*
X15977262Y-7899376D02*
X15969643Y-7903186D01*
X15969643Y-7903186D02*
X15965833Y-7910805D01*
X15965833Y-7910805D02*
X15965833Y-7952709D01*
X13484778Y-7948381D02*
X13451444Y-7948381D01*
X13437159Y-8000762D02*
X13484778Y-8000762D01*
X13484778Y-8000762D02*
X13484778Y-7900762D01*
X13484778Y-7900762D02*
X13437159Y-7900762D01*
X13403825Y-7900762D02*
X13337159Y-8000762D01*
X13337159Y-7900762D02*
X13403825Y-8000762D01*
X13313349Y-7900762D02*
X13256206Y-7900762D01*
X13284778Y-8000762D02*
X13284778Y-7900762D01*
X13146682Y-8000762D02*
X13146682Y-7900762D01*
X13027635Y-7896000D02*
X13113349Y-8024571D01*
X12975254Y-7900762D02*
X12956206Y-7900762D01*
X12956206Y-7900762D02*
X12946682Y-7905524D01*
X12946682Y-7905524D02*
X12937159Y-7915048D01*
X12937159Y-7915048D02*
X12932397Y-7934095D01*
X12932397Y-7934095D02*
X12932397Y-7967428D01*
X12932397Y-7967428D02*
X12937159Y-7986476D01*
X12937159Y-7986476D02*
X12946682Y-7996000D01*
X12946682Y-7996000D02*
X12956206Y-8000762D01*
X12956206Y-8000762D02*
X12975254Y-8000762D01*
X12975254Y-8000762D02*
X12984778Y-7996000D01*
X12984778Y-7996000D02*
X12994301Y-7986476D01*
X12994301Y-7986476D02*
X12999063Y-7967428D01*
X12999063Y-7967428D02*
X12999063Y-7934095D01*
X12999063Y-7934095D02*
X12994301Y-7915048D01*
X12994301Y-7915048D02*
X12984778Y-7905524D01*
X12984778Y-7905524D02*
X12975254Y-7900762D01*
X13479778Y-7460881D02*
X13446444Y-7460881D01*
X13432159Y-7513262D02*
X13479778Y-7513262D01*
X13479778Y-7513262D02*
X13479778Y-7413262D01*
X13479778Y-7413262D02*
X13432159Y-7413262D01*
X13398825Y-7413262D02*
X13332159Y-7513262D01*
X13332159Y-7413262D02*
X13398825Y-7513262D01*
X13308349Y-7413262D02*
X13251206Y-7413262D01*
X13279778Y-7513262D02*
X13279778Y-7413262D01*
X13141682Y-7513262D02*
X13141682Y-7413262D01*
X13022635Y-7408500D02*
X13108349Y-7537071D01*
X12970254Y-7413262D02*
X12951206Y-7413262D01*
X12951206Y-7413262D02*
X12941682Y-7418024D01*
X12941682Y-7418024D02*
X12932159Y-7427548D01*
X12932159Y-7427548D02*
X12927397Y-7446595D01*
X12927397Y-7446595D02*
X12927397Y-7479928D01*
X12927397Y-7479928D02*
X12932159Y-7498976D01*
X12932159Y-7498976D02*
X12941682Y-7508500D01*
X12941682Y-7508500D02*
X12951206Y-7513262D01*
X12951206Y-7513262D02*
X12970254Y-7513262D01*
X12970254Y-7513262D02*
X12979778Y-7508500D01*
X12979778Y-7508500D02*
X12989301Y-7498976D01*
X12989301Y-7498976D02*
X12994063Y-7479928D01*
X12994063Y-7479928D02*
X12994063Y-7446595D01*
X12994063Y-7446595D02*
X12989301Y-7427548D01*
X12989301Y-7427548D02*
X12979778Y-7418024D01*
X12979778Y-7418024D02*
X12970254Y-7413262D01*
X11856309Y-12233881D02*
X11822976Y-12233881D01*
X11808690Y-12286262D02*
X11856309Y-12286262D01*
X11856309Y-12286262D02*
X11856309Y-12186262D01*
X11856309Y-12186262D02*
X11808690Y-12186262D01*
X11775357Y-12186262D02*
X11708690Y-12286262D01*
X11708690Y-12186262D02*
X11775357Y-12286262D01*
X11684881Y-12186262D02*
X11627738Y-12186262D01*
X11656309Y-12286262D02*
X11656309Y-12186262D01*
X11518214Y-12286262D02*
X11518214Y-12186262D01*
X11399167Y-12181500D02*
X11484881Y-12310071D01*
X11346786Y-12186262D02*
X11327738Y-12186262D01*
X11327738Y-12186262D02*
X11318214Y-12191024D01*
X11318214Y-12191024D02*
X11308690Y-12200548D01*
X11308690Y-12200548D02*
X11303928Y-12219595D01*
X11303928Y-12219595D02*
X11303928Y-12252928D01*
X11303928Y-12252928D02*
X11308690Y-12271976D01*
X11308690Y-12271976D02*
X11318214Y-12281500D01*
X11318214Y-12281500D02*
X11327738Y-12286262D01*
X11327738Y-12286262D02*
X11346786Y-12286262D01*
X11346786Y-12286262D02*
X11356309Y-12281500D01*
X11356309Y-12281500D02*
X11365833Y-12271976D01*
X11365833Y-12271976D02*
X11370595Y-12252928D01*
X11370595Y-12252928D02*
X11370595Y-12219595D01*
X11370595Y-12219595D02*
X11365833Y-12200548D01*
X11365833Y-12200548D02*
X11356309Y-12191024D01*
X11356309Y-12191024D02*
X11346786Y-12186262D01*
X11873809Y-12671381D02*
X11840476Y-12671381D01*
X11826190Y-12723762D02*
X11873809Y-12723762D01*
X11873809Y-12723762D02*
X11873809Y-12623762D01*
X11873809Y-12623762D02*
X11826190Y-12623762D01*
X11792857Y-12623762D02*
X11726190Y-12723762D01*
X11726190Y-12623762D02*
X11792857Y-12723762D01*
X11702381Y-12623762D02*
X11645238Y-12623762D01*
X11673809Y-12723762D02*
X11673809Y-12623762D01*
X11535714Y-12723762D02*
X11535714Y-12623762D01*
X11416667Y-12619000D02*
X11502381Y-12747571D01*
X11364286Y-12623762D02*
X11345238Y-12623762D01*
X11345238Y-12623762D02*
X11335714Y-12628524D01*
X11335714Y-12628524D02*
X11326190Y-12638048D01*
X11326190Y-12638048D02*
X11321428Y-12657095D01*
X11321428Y-12657095D02*
X11321428Y-12690428D01*
X11321428Y-12690428D02*
X11326190Y-12709476D01*
X11326190Y-12709476D02*
X11335714Y-12719000D01*
X11335714Y-12719000D02*
X11345238Y-12723762D01*
X11345238Y-12723762D02*
X11364286Y-12723762D01*
X11364286Y-12723762D02*
X11373809Y-12719000D01*
X11373809Y-12719000D02*
X11383333Y-12709476D01*
X11383333Y-12709476D02*
X11388095Y-12690428D01*
X11388095Y-12690428D02*
X11388095Y-12657095D01*
X11388095Y-12657095D02*
X11383333Y-12638048D01*
X11383333Y-12638048D02*
X11373809Y-12628524D01*
X11373809Y-12628524D02*
X11364286Y-12623762D01*
X14658690Y-10253762D02*
X14658690Y-10153762D01*
X14658690Y-10153762D02*
X14634881Y-10153762D01*
X14634881Y-10153762D02*
X14620595Y-10158524D01*
X14620595Y-10158524D02*
X14611071Y-10168048D01*
X14611071Y-10168048D02*
X14606309Y-10177571D01*
X14606309Y-10177571D02*
X14601548Y-10196619D01*
X14601548Y-10196619D02*
X14601548Y-10210905D01*
X14601548Y-10210905D02*
X14606309Y-10229952D01*
X14606309Y-10229952D02*
X14611071Y-10239476D01*
X14611071Y-10239476D02*
X14620595Y-10249000D01*
X14620595Y-10249000D02*
X14634881Y-10253762D01*
X14634881Y-10253762D02*
X14658690Y-10253762D01*
X14520595Y-10249000D02*
X14530119Y-10253762D01*
X14530119Y-10253762D02*
X14549167Y-10253762D01*
X14549167Y-10253762D02*
X14558690Y-10249000D01*
X14558690Y-10249000D02*
X14563452Y-10239476D01*
X14563452Y-10239476D02*
X14563452Y-10201381D01*
X14563452Y-10201381D02*
X14558690Y-10191857D01*
X14558690Y-10191857D02*
X14549167Y-10187095D01*
X14549167Y-10187095D02*
X14530119Y-10187095D01*
X14530119Y-10187095D02*
X14520595Y-10191857D01*
X14520595Y-10191857D02*
X14515833Y-10201381D01*
X14515833Y-10201381D02*
X14515833Y-10210905D01*
X14515833Y-10210905D02*
X14563452Y-10220429D01*
X14482500Y-10187095D02*
X14458690Y-10253762D01*
X14458690Y-10253762D02*
X14434881Y-10187095D01*
X14358690Y-10249000D02*
X14368214Y-10253762D01*
X14368214Y-10253762D02*
X14387262Y-10253762D01*
X14387262Y-10253762D02*
X14396786Y-10249000D01*
X14396786Y-10249000D02*
X14401547Y-10239476D01*
X14401547Y-10239476D02*
X14401547Y-10201381D01*
X14401547Y-10201381D02*
X14396786Y-10191857D01*
X14396786Y-10191857D02*
X14387262Y-10187095D01*
X14387262Y-10187095D02*
X14368214Y-10187095D01*
X14368214Y-10187095D02*
X14358690Y-10191857D01*
X14358690Y-10191857D02*
X14353928Y-10201381D01*
X14353928Y-10201381D02*
X14353928Y-10210905D01*
X14353928Y-10210905D02*
X14401547Y-10220429D01*
X14296786Y-10253762D02*
X14306309Y-10249000D01*
X14306309Y-10249000D02*
X14311071Y-10239476D01*
X14311071Y-10239476D02*
X14311071Y-10153762D01*
X14244405Y-10253762D02*
X14253928Y-10249000D01*
X14253928Y-10249000D02*
X14258690Y-10244238D01*
X14258690Y-10244238D02*
X14263452Y-10234714D01*
X14263452Y-10234714D02*
X14263452Y-10206143D01*
X14263452Y-10206143D02*
X14258690Y-10196619D01*
X14258690Y-10196619D02*
X14253928Y-10191857D01*
X14253928Y-10191857D02*
X14244405Y-10187095D01*
X14244405Y-10187095D02*
X14230119Y-10187095D01*
X14230119Y-10187095D02*
X14220595Y-10191857D01*
X14220595Y-10191857D02*
X14215833Y-10196619D01*
X14215833Y-10196619D02*
X14211071Y-10206143D01*
X14211071Y-10206143D02*
X14211071Y-10234714D01*
X14211071Y-10234714D02*
X14215833Y-10244238D01*
X14215833Y-10244238D02*
X14220595Y-10249000D01*
X14220595Y-10249000D02*
X14230119Y-10253762D01*
X14230119Y-10253762D02*
X14244405Y-10253762D01*
X14168214Y-10187095D02*
X14168214Y-10287095D01*
X14168214Y-10191857D02*
X14158690Y-10187095D01*
X14158690Y-10187095D02*
X14139643Y-10187095D01*
X14139643Y-10187095D02*
X14130119Y-10191857D01*
X14130119Y-10191857D02*
X14125357Y-10196619D01*
X14125357Y-10196619D02*
X14120595Y-10206143D01*
X14120595Y-10206143D02*
X14120595Y-10234714D01*
X14120595Y-10234714D02*
X14125357Y-10244238D01*
X14125357Y-10244238D02*
X14130119Y-10249000D01*
X14130119Y-10249000D02*
X14139643Y-10253762D01*
X14139643Y-10253762D02*
X14158690Y-10253762D01*
X14158690Y-10253762D02*
X14168214Y-10249000D01*
X14039643Y-10249000D02*
X14049166Y-10253762D01*
X14049166Y-10253762D02*
X14068214Y-10253762D01*
X14068214Y-10253762D02*
X14077738Y-10249000D01*
X14077738Y-10249000D02*
X14082500Y-10239476D01*
X14082500Y-10239476D02*
X14082500Y-10201381D01*
X14082500Y-10201381D02*
X14077738Y-10191857D01*
X14077738Y-10191857D02*
X14068214Y-10187095D01*
X14068214Y-10187095D02*
X14049166Y-10187095D01*
X14049166Y-10187095D02*
X14039643Y-10191857D01*
X14039643Y-10191857D02*
X14034881Y-10201381D01*
X14034881Y-10201381D02*
X14034881Y-10210905D01*
X14034881Y-10210905D02*
X14082500Y-10220429D01*
X13949166Y-10253762D02*
X13949166Y-10153762D01*
X13949166Y-10249000D02*
X13958690Y-10253762D01*
X13958690Y-10253762D02*
X13977738Y-10253762D01*
X13977738Y-10253762D02*
X13987262Y-10249000D01*
X13987262Y-10249000D02*
X13992024Y-10244238D01*
X13992024Y-10244238D02*
X13996785Y-10234714D01*
X13996785Y-10234714D02*
X13996785Y-10206143D01*
X13996785Y-10206143D02*
X13992024Y-10196619D01*
X13992024Y-10196619D02*
X13987262Y-10191857D01*
X13987262Y-10191857D02*
X13977738Y-10187095D01*
X13977738Y-10187095D02*
X13958690Y-10187095D01*
X13958690Y-10187095D02*
X13949166Y-10191857D01*
X13825357Y-10253762D02*
X13825357Y-10153762D01*
X13825357Y-10191857D02*
X13815833Y-10187095D01*
X13815833Y-10187095D02*
X13796785Y-10187095D01*
X13796785Y-10187095D02*
X13787262Y-10191857D01*
X13787262Y-10191857D02*
X13782500Y-10196619D01*
X13782500Y-10196619D02*
X13777738Y-10206143D01*
X13777738Y-10206143D02*
X13777738Y-10234714D01*
X13777738Y-10234714D02*
X13782500Y-10244238D01*
X13782500Y-10244238D02*
X13787262Y-10249000D01*
X13787262Y-10249000D02*
X13796785Y-10253762D01*
X13796785Y-10253762D02*
X13815833Y-10253762D01*
X13815833Y-10253762D02*
X13825357Y-10249000D01*
X13744404Y-10187095D02*
X13720595Y-10253762D01*
X13696785Y-10187095D02*
X13720595Y-10253762D01*
X13720595Y-10253762D02*
X13730119Y-10277571D01*
X13730119Y-10277571D02*
X13734881Y-10282333D01*
X13734881Y-10282333D02*
X13744404Y-10287095D01*
X13587262Y-10225190D02*
X13539643Y-10225190D01*
X13596785Y-10253762D02*
X13563452Y-10153762D01*
X13563452Y-10153762D02*
X13530119Y-10253762D01*
X13496785Y-10187095D02*
X13496785Y-10253762D01*
X13496785Y-10196619D02*
X13492023Y-10191857D01*
X13492023Y-10191857D02*
X13482500Y-10187095D01*
X13482500Y-10187095D02*
X13468214Y-10187095D01*
X13468214Y-10187095D02*
X13458690Y-10191857D01*
X13458690Y-10191857D02*
X13453928Y-10201381D01*
X13453928Y-10201381D02*
X13453928Y-10253762D01*
X13363452Y-10253762D02*
X13363452Y-10153762D01*
X13363452Y-10249000D02*
X13372976Y-10253762D01*
X13372976Y-10253762D02*
X13392023Y-10253762D01*
X13392023Y-10253762D02*
X13401547Y-10249000D01*
X13401547Y-10249000D02*
X13406309Y-10244238D01*
X13406309Y-10244238D02*
X13411071Y-10234714D01*
X13411071Y-10234714D02*
X13411071Y-10206143D01*
X13411071Y-10206143D02*
X13406309Y-10196619D01*
X13406309Y-10196619D02*
X13401547Y-10191857D01*
X13401547Y-10191857D02*
X13392023Y-10187095D01*
X13392023Y-10187095D02*
X13372976Y-10187095D01*
X13372976Y-10187095D02*
X13363452Y-10191857D01*
X13315833Y-10253762D02*
X13315833Y-10187095D01*
X13315833Y-10206143D02*
X13311071Y-10196619D01*
X13311071Y-10196619D02*
X13306309Y-10191857D01*
X13306309Y-10191857D02*
X13296785Y-10187095D01*
X13296785Y-10187095D02*
X13287262Y-10187095D01*
X13215833Y-10249000D02*
X13225357Y-10253762D01*
X13225357Y-10253762D02*
X13244404Y-10253762D01*
X13244404Y-10253762D02*
X13253928Y-10249000D01*
X13253928Y-10249000D02*
X13258690Y-10239476D01*
X13258690Y-10239476D02*
X13258690Y-10201381D01*
X13258690Y-10201381D02*
X13253928Y-10191857D01*
X13253928Y-10191857D02*
X13244404Y-10187095D01*
X13244404Y-10187095D02*
X13225357Y-10187095D01*
X13225357Y-10187095D02*
X13215833Y-10191857D01*
X13215833Y-10191857D02*
X13211071Y-10201381D01*
X13211071Y-10201381D02*
X13211071Y-10210905D01*
X13211071Y-10210905D02*
X13258690Y-10220429D01*
X13177738Y-10187095D02*
X13153928Y-10253762D01*
X13130119Y-10187095D02*
X13153928Y-10253762D01*
X13153928Y-10253762D02*
X13163452Y-10277571D01*
X13163452Y-10277571D02*
X13168214Y-10282333D01*
X13168214Y-10282333D02*
X13177738Y-10287095D01*
X13015833Y-10253762D02*
X13015833Y-10153762D01*
X12977738Y-10187095D02*
X12953928Y-10253762D01*
X12953928Y-10253762D02*
X12930119Y-10187095D01*
X12849166Y-10253762D02*
X12849166Y-10201381D01*
X12849166Y-10201381D02*
X12853928Y-10191857D01*
X12853928Y-10191857D02*
X12863452Y-10187095D01*
X12863452Y-10187095D02*
X12882500Y-10187095D01*
X12882500Y-10187095D02*
X12892023Y-10191857D01*
X12849166Y-10249000D02*
X12858690Y-10253762D01*
X12858690Y-10253762D02*
X12882500Y-10253762D01*
X12882500Y-10253762D02*
X12892023Y-10249000D01*
X12892023Y-10249000D02*
X12896785Y-10239476D01*
X12896785Y-10239476D02*
X12896785Y-10229952D01*
X12896785Y-10229952D02*
X12892023Y-10220429D01*
X12892023Y-10220429D02*
X12882500Y-10215667D01*
X12882500Y-10215667D02*
X12858690Y-10215667D01*
X12858690Y-10215667D02*
X12849166Y-10210905D01*
X12801547Y-10187095D02*
X12801547Y-10253762D01*
X12801547Y-10196619D02*
X12796785Y-10191857D01*
X12796785Y-10191857D02*
X12787261Y-10187095D01*
X12787261Y-10187095D02*
X12772976Y-10187095D01*
X12772976Y-10187095D02*
X12763452Y-10191857D01*
X12763452Y-10191857D02*
X12758690Y-10201381D01*
X12758690Y-10201381D02*
X12758690Y-10253762D01*
X12696785Y-10253762D02*
X12706309Y-10249000D01*
X12706309Y-10249000D02*
X12711071Y-10244238D01*
X12711071Y-10244238D02*
X12715833Y-10234714D01*
X12715833Y-10234714D02*
X12715833Y-10206143D01*
X12715833Y-10206143D02*
X12711071Y-10196619D01*
X12711071Y-10196619D02*
X12706309Y-10191857D01*
X12706309Y-10191857D02*
X12696785Y-10187095D01*
X12696785Y-10187095D02*
X12682500Y-10187095D01*
X12682500Y-10187095D02*
X12672976Y-10191857D01*
X12672976Y-10191857D02*
X12668214Y-10196619D01*
X12668214Y-10196619D02*
X12663452Y-10206143D01*
X12663452Y-10206143D02*
X12663452Y-10234714D01*
X12663452Y-10234714D02*
X12668214Y-10244238D01*
X12668214Y-10244238D02*
X12672976Y-10249000D01*
X12672976Y-10249000D02*
X12682500Y-10253762D01*
X12682500Y-10253762D02*
X12696785Y-10253762D01*
X12630119Y-10187095D02*
X12606309Y-10253762D01*
X12606309Y-10253762D02*
X12582500Y-10187095D01*
X12544404Y-10244238D02*
X12539642Y-10249000D01*
X12539642Y-10249000D02*
X12544404Y-10253762D01*
X12544404Y-10253762D02*
X12549166Y-10249000D01*
X12549166Y-10249000D02*
X12544404Y-10244238D01*
X12544404Y-10244238D02*
X12544404Y-10253762D01*
X14639643Y-10315762D02*
X14630119Y-10315762D01*
X14630119Y-10315762D02*
X14620595Y-10320524D01*
X14620595Y-10320524D02*
X14615833Y-10325286D01*
X14615833Y-10325286D02*
X14611071Y-10334810D01*
X14611071Y-10334810D02*
X14606309Y-10353857D01*
X14606309Y-10353857D02*
X14606309Y-10377667D01*
X14606309Y-10377667D02*
X14611071Y-10396714D01*
X14611071Y-10396714D02*
X14615833Y-10406238D01*
X14615833Y-10406238D02*
X14620595Y-10411000D01*
X14620595Y-10411000D02*
X14630119Y-10415762D01*
X14630119Y-10415762D02*
X14639643Y-10415762D01*
X14639643Y-10415762D02*
X14649167Y-10411000D01*
X14649167Y-10411000D02*
X14653928Y-10406238D01*
X14653928Y-10406238D02*
X14658690Y-10396714D01*
X14658690Y-10396714D02*
X14663452Y-10377667D01*
X14663452Y-10377667D02*
X14663452Y-10353857D01*
X14663452Y-10353857D02*
X14658690Y-10334810D01*
X14658690Y-10334810D02*
X14653928Y-10325286D01*
X14653928Y-10325286D02*
X14649167Y-10320524D01*
X14649167Y-10320524D02*
X14639643Y-10315762D01*
X14572976Y-10315762D02*
X14511071Y-10315762D01*
X14511071Y-10315762D02*
X14544405Y-10353857D01*
X14544405Y-10353857D02*
X14530119Y-10353857D01*
X14530119Y-10353857D02*
X14520595Y-10358619D01*
X14520595Y-10358619D02*
X14515833Y-10363381D01*
X14515833Y-10363381D02*
X14511071Y-10372905D01*
X14511071Y-10372905D02*
X14511071Y-10396714D01*
X14511071Y-10396714D02*
X14515833Y-10406238D01*
X14515833Y-10406238D02*
X14520595Y-10411000D01*
X14520595Y-10411000D02*
X14530119Y-10415762D01*
X14530119Y-10415762D02*
X14558690Y-10415762D01*
X14558690Y-10415762D02*
X14568214Y-10411000D01*
X14568214Y-10411000D02*
X14572976Y-10406238D01*
X14468214Y-10406238D02*
X14463452Y-10411000D01*
X14463452Y-10411000D02*
X14468214Y-10415762D01*
X14468214Y-10415762D02*
X14472976Y-10411000D01*
X14472976Y-10411000D02*
X14468214Y-10406238D01*
X14468214Y-10406238D02*
X14468214Y-10415762D01*
X14401548Y-10315762D02*
X14392024Y-10315762D01*
X14392024Y-10315762D02*
X14382500Y-10320524D01*
X14382500Y-10320524D02*
X14377738Y-10325286D01*
X14377738Y-10325286D02*
X14372976Y-10334810D01*
X14372976Y-10334810D02*
X14368214Y-10353857D01*
X14368214Y-10353857D02*
X14368214Y-10377667D01*
X14368214Y-10377667D02*
X14372976Y-10396714D01*
X14372976Y-10396714D02*
X14377738Y-10406238D01*
X14377738Y-10406238D02*
X14382500Y-10411000D01*
X14382500Y-10411000D02*
X14392024Y-10415762D01*
X14392024Y-10415762D02*
X14401548Y-10415762D01*
X14401548Y-10415762D02*
X14411071Y-10411000D01*
X14411071Y-10411000D02*
X14415833Y-10406238D01*
X14415833Y-10406238D02*
X14420595Y-10396714D01*
X14420595Y-10396714D02*
X14425357Y-10377667D01*
X14425357Y-10377667D02*
X14425357Y-10353857D01*
X14425357Y-10353857D02*
X14420595Y-10334810D01*
X14420595Y-10334810D02*
X14415833Y-10325286D01*
X14415833Y-10325286D02*
X14411071Y-10320524D01*
X14411071Y-10320524D02*
X14401548Y-10315762D01*
X14311071Y-10358619D02*
X14320595Y-10353857D01*
X14320595Y-10353857D02*
X14325357Y-10349095D01*
X14325357Y-10349095D02*
X14330119Y-10339571D01*
X14330119Y-10339571D02*
X14330119Y-10334810D01*
X14330119Y-10334810D02*
X14325357Y-10325286D01*
X14325357Y-10325286D02*
X14320595Y-10320524D01*
X14320595Y-10320524D02*
X14311071Y-10315762D01*
X14311071Y-10315762D02*
X14292024Y-10315762D01*
X14292024Y-10315762D02*
X14282500Y-10320524D01*
X14282500Y-10320524D02*
X14277738Y-10325286D01*
X14277738Y-10325286D02*
X14272976Y-10334810D01*
X14272976Y-10334810D02*
X14272976Y-10339571D01*
X14272976Y-10339571D02*
X14277738Y-10349095D01*
X14277738Y-10349095D02*
X14282500Y-10353857D01*
X14282500Y-10353857D02*
X14292024Y-10358619D01*
X14292024Y-10358619D02*
X14311071Y-10358619D01*
X14311071Y-10358619D02*
X14320595Y-10363381D01*
X14320595Y-10363381D02*
X14325357Y-10368143D01*
X14325357Y-10368143D02*
X14330119Y-10377667D01*
X14330119Y-10377667D02*
X14330119Y-10396714D01*
X14330119Y-10396714D02*
X14325357Y-10406238D01*
X14325357Y-10406238D02*
X14320595Y-10411000D01*
X14320595Y-10411000D02*
X14311071Y-10415762D01*
X14311071Y-10415762D02*
X14292024Y-10415762D01*
X14292024Y-10415762D02*
X14282500Y-10411000D01*
X14282500Y-10411000D02*
X14277738Y-10406238D01*
X14277738Y-10406238D02*
X14272976Y-10396714D01*
X14272976Y-10396714D02*
X14272976Y-10377667D01*
X14272976Y-10377667D02*
X14277738Y-10368143D01*
X14277738Y-10368143D02*
X14282500Y-10363381D01*
X14282500Y-10363381D02*
X14292024Y-10358619D01*
X14230119Y-10406238D02*
X14225357Y-10411000D01*
X14225357Y-10411000D02*
X14230119Y-10415762D01*
X14230119Y-10415762D02*
X14234881Y-10411000D01*
X14234881Y-10411000D02*
X14230119Y-10406238D01*
X14230119Y-10406238D02*
X14230119Y-10415762D01*
X14187262Y-10325286D02*
X14182500Y-10320524D01*
X14182500Y-10320524D02*
X14172976Y-10315762D01*
X14172976Y-10315762D02*
X14149167Y-10315762D01*
X14149167Y-10315762D02*
X14139643Y-10320524D01*
X14139643Y-10320524D02*
X14134881Y-10325286D01*
X14134881Y-10325286D02*
X14130119Y-10334810D01*
X14130119Y-10334810D02*
X14130119Y-10344333D01*
X14130119Y-10344333D02*
X14134881Y-10358619D01*
X14134881Y-10358619D02*
X14192024Y-10415762D01*
X14192024Y-10415762D02*
X14130119Y-10415762D01*
X14068214Y-10315762D02*
X14058690Y-10315762D01*
X14058690Y-10315762D02*
X14049167Y-10320524D01*
X14049167Y-10320524D02*
X14044405Y-10325286D01*
X14044405Y-10325286D02*
X14039643Y-10334810D01*
X14039643Y-10334810D02*
X14034881Y-10353857D01*
X14034881Y-10353857D02*
X14034881Y-10377667D01*
X14034881Y-10377667D02*
X14039643Y-10396714D01*
X14039643Y-10396714D02*
X14044405Y-10406238D01*
X14044405Y-10406238D02*
X14049167Y-10411000D01*
X14049167Y-10411000D02*
X14058690Y-10415762D01*
X14058690Y-10415762D02*
X14068214Y-10415762D01*
X14068214Y-10415762D02*
X14077738Y-10411000D01*
X14077738Y-10411000D02*
X14082500Y-10406238D01*
X14082500Y-10406238D02*
X14087262Y-10396714D01*
X14087262Y-10396714D02*
X14092024Y-10377667D01*
X14092024Y-10377667D02*
X14092024Y-10353857D01*
X14092024Y-10353857D02*
X14087262Y-10334810D01*
X14087262Y-10334810D02*
X14082500Y-10325286D01*
X14082500Y-10325286D02*
X14077738Y-10320524D01*
X14077738Y-10320524D02*
X14068214Y-10315762D01*
X13996786Y-10325286D02*
X13992024Y-10320524D01*
X13992024Y-10320524D02*
X13982500Y-10315762D01*
X13982500Y-10315762D02*
X13958690Y-10315762D01*
X13958690Y-10315762D02*
X13949167Y-10320524D01*
X13949167Y-10320524D02*
X13944405Y-10325286D01*
X13944405Y-10325286D02*
X13939643Y-10334810D01*
X13939643Y-10334810D02*
X13939643Y-10344333D01*
X13939643Y-10344333D02*
X13944405Y-10358619D01*
X13944405Y-10358619D02*
X14001548Y-10415762D01*
X14001548Y-10415762D02*
X13939643Y-10415762D01*
X13906309Y-10315762D02*
X13844405Y-10315762D01*
X13844405Y-10315762D02*
X13877738Y-10353857D01*
X13877738Y-10353857D02*
X13863452Y-10353857D01*
X13863452Y-10353857D02*
X13853929Y-10358619D01*
X13853929Y-10358619D02*
X13849167Y-10363381D01*
X13849167Y-10363381D02*
X13844405Y-10372905D01*
X13844405Y-10372905D02*
X13844405Y-10396714D01*
X13844405Y-10396714D02*
X13849167Y-10406238D01*
X13849167Y-10406238D02*
X13853929Y-10411000D01*
X13853929Y-10411000D02*
X13863452Y-10415762D01*
X13863452Y-10415762D02*
X13892024Y-10415762D01*
X13892024Y-10415762D02*
X13901548Y-10411000D01*
X13901548Y-10411000D02*
X13906309Y-10406238D01*
X14625357Y-10525381D02*
X14658690Y-10525381D01*
X14658690Y-10577762D02*
X14658690Y-10477762D01*
X14658690Y-10477762D02*
X14611071Y-10477762D01*
X14572976Y-10577762D02*
X14572976Y-10511095D01*
X14572976Y-10530143D02*
X14568214Y-10520619D01*
X14568214Y-10520619D02*
X14563452Y-10515857D01*
X14563452Y-10515857D02*
X14553928Y-10511095D01*
X14553928Y-10511095D02*
X14544405Y-10511095D01*
X14496786Y-10577762D02*
X14506309Y-10573000D01*
X14506309Y-10573000D02*
X14511071Y-10568238D01*
X14511071Y-10568238D02*
X14515833Y-10558714D01*
X14515833Y-10558714D02*
X14515833Y-10530143D01*
X14515833Y-10530143D02*
X14511071Y-10520619D01*
X14511071Y-10520619D02*
X14506309Y-10515857D01*
X14506309Y-10515857D02*
X14496786Y-10511095D01*
X14496786Y-10511095D02*
X14482500Y-10511095D01*
X14482500Y-10511095D02*
X14472976Y-10515857D01*
X14472976Y-10515857D02*
X14468214Y-10520619D01*
X14468214Y-10520619D02*
X14463452Y-10530143D01*
X14463452Y-10530143D02*
X14463452Y-10558714D01*
X14463452Y-10558714D02*
X14468214Y-10568238D01*
X14468214Y-10568238D02*
X14472976Y-10573000D01*
X14472976Y-10573000D02*
X14482500Y-10577762D01*
X14482500Y-10577762D02*
X14496786Y-10577762D01*
X14420595Y-10511095D02*
X14420595Y-10577762D01*
X14420595Y-10520619D02*
X14415833Y-10515857D01*
X14415833Y-10515857D02*
X14406309Y-10511095D01*
X14406309Y-10511095D02*
X14392024Y-10511095D01*
X14392024Y-10511095D02*
X14382500Y-10515857D01*
X14382500Y-10515857D02*
X14377738Y-10525381D01*
X14377738Y-10525381D02*
X14377738Y-10577762D01*
X14344405Y-10511095D02*
X14306309Y-10511095D01*
X14330119Y-10477762D02*
X14330119Y-10563476D01*
X14330119Y-10563476D02*
X14325357Y-10573000D01*
X14325357Y-10573000D02*
X14315833Y-10577762D01*
X14315833Y-10577762D02*
X14306309Y-10577762D01*
X14296786Y-10587286D02*
X14220595Y-10587286D01*
X14196785Y-10577762D02*
X14196785Y-10477762D01*
X14196785Y-10477762D02*
X14158690Y-10477762D01*
X14158690Y-10477762D02*
X14149166Y-10482524D01*
X14149166Y-10482524D02*
X14144405Y-10487286D01*
X14144405Y-10487286D02*
X14139643Y-10496810D01*
X14139643Y-10496810D02*
X14139643Y-10511095D01*
X14139643Y-10511095D02*
X14144405Y-10520619D01*
X14144405Y-10520619D02*
X14149166Y-10525381D01*
X14149166Y-10525381D02*
X14158690Y-10530143D01*
X14158690Y-10530143D02*
X14196785Y-10530143D01*
X14039643Y-10568238D02*
X14044405Y-10573000D01*
X14044405Y-10573000D02*
X14058690Y-10577762D01*
X14058690Y-10577762D02*
X14068214Y-10577762D01*
X14068214Y-10577762D02*
X14082500Y-10573000D01*
X14082500Y-10573000D02*
X14092024Y-10563476D01*
X14092024Y-10563476D02*
X14096785Y-10553952D01*
X14096785Y-10553952D02*
X14101547Y-10534905D01*
X14101547Y-10534905D02*
X14101547Y-10520619D01*
X14101547Y-10520619D02*
X14096785Y-10501571D01*
X14096785Y-10501571D02*
X14092024Y-10492048D01*
X14092024Y-10492048D02*
X14082500Y-10482524D01*
X14082500Y-10482524D02*
X14068214Y-10477762D01*
X14068214Y-10477762D02*
X14058690Y-10477762D01*
X14058690Y-10477762D02*
X14044405Y-10482524D01*
X14044405Y-10482524D02*
X14039643Y-10487286D01*
X13963452Y-10525381D02*
X13949166Y-10530143D01*
X13949166Y-10530143D02*
X13944405Y-10534905D01*
X13944405Y-10534905D02*
X13939643Y-10544429D01*
X13939643Y-10544429D02*
X13939643Y-10558714D01*
X13939643Y-10558714D02*
X13944405Y-10568238D01*
X13944405Y-10568238D02*
X13949166Y-10573000D01*
X13949166Y-10573000D02*
X13958690Y-10577762D01*
X13958690Y-10577762D02*
X13996785Y-10577762D01*
X13996785Y-10577762D02*
X13996785Y-10477762D01*
X13996785Y-10477762D02*
X13963452Y-10477762D01*
X13963452Y-10477762D02*
X13953928Y-10482524D01*
X13953928Y-10482524D02*
X13949166Y-10487286D01*
X13949166Y-10487286D02*
X13944405Y-10496810D01*
X13944405Y-10496810D02*
X13944405Y-10506333D01*
X13944405Y-10506333D02*
X13949166Y-10515857D01*
X13949166Y-10515857D02*
X13953928Y-10520619D01*
X13953928Y-10520619D02*
X13963452Y-10525381D01*
X13963452Y-10525381D02*
X13996785Y-10525381D01*
X13920595Y-10587286D02*
X13844405Y-10587286D01*
X13801547Y-10477762D02*
X13782500Y-10477762D01*
X13782500Y-10477762D02*
X13772976Y-10482524D01*
X13772976Y-10482524D02*
X13763452Y-10492048D01*
X13763452Y-10492048D02*
X13758690Y-10511095D01*
X13758690Y-10511095D02*
X13758690Y-10544429D01*
X13758690Y-10544429D02*
X13763452Y-10563476D01*
X13763452Y-10563476D02*
X13772976Y-10573000D01*
X13772976Y-10573000D02*
X13782500Y-10577762D01*
X13782500Y-10577762D02*
X13801547Y-10577762D01*
X13801547Y-10577762D02*
X13811071Y-10573000D01*
X13811071Y-10573000D02*
X13820595Y-10563476D01*
X13820595Y-10563476D02*
X13825357Y-10544429D01*
X13825357Y-10544429D02*
X13825357Y-10511095D01*
X13825357Y-10511095D02*
X13820595Y-10492048D01*
X13820595Y-10492048D02*
X13811071Y-10482524D01*
X13811071Y-10482524D02*
X13801547Y-10477762D01*
X13668214Y-10577762D02*
X13715833Y-10577762D01*
X13715833Y-10577762D02*
X13715833Y-10477762D01*
X13634881Y-10525381D02*
X13601547Y-10525381D01*
X13587262Y-10577762D02*
X13634881Y-10577762D01*
X13634881Y-10577762D02*
X13634881Y-10477762D01*
X13634881Y-10477762D02*
X13587262Y-10477762D01*
X13544404Y-10577762D02*
X13544404Y-10477762D01*
X13544404Y-10477762D02*
X13520595Y-10477762D01*
X13520595Y-10477762D02*
X13506309Y-10482524D01*
X13506309Y-10482524D02*
X13496785Y-10492048D01*
X13496785Y-10492048D02*
X13492024Y-10501571D01*
X13492024Y-10501571D02*
X13487262Y-10520619D01*
X13487262Y-10520619D02*
X13487262Y-10534905D01*
X13487262Y-10534905D02*
X13492024Y-10553952D01*
X13492024Y-10553952D02*
X13496785Y-10563476D01*
X13496785Y-10563476D02*
X13506309Y-10573000D01*
X13506309Y-10573000D02*
X13520595Y-10577762D01*
X13520595Y-10577762D02*
X13544404Y-10577762D01*
X13377738Y-10511095D02*
X13353928Y-10577762D01*
X13353928Y-10577762D02*
X13330119Y-10511095D01*
X13272976Y-10477762D02*
X13263452Y-10477762D01*
X13263452Y-10477762D02*
X13253928Y-10482524D01*
X13253928Y-10482524D02*
X13249166Y-10487286D01*
X13249166Y-10487286D02*
X13244404Y-10496810D01*
X13244404Y-10496810D02*
X13239643Y-10515857D01*
X13239643Y-10515857D02*
X13239643Y-10539667D01*
X13239643Y-10539667D02*
X13244404Y-10558714D01*
X13244404Y-10558714D02*
X13249166Y-10568238D01*
X13249166Y-10568238D02*
X13253928Y-10573000D01*
X13253928Y-10573000D02*
X13263452Y-10577762D01*
X13263452Y-10577762D02*
X13272976Y-10577762D01*
X13272976Y-10577762D02*
X13282500Y-10573000D01*
X13282500Y-10573000D02*
X13287262Y-10568238D01*
X13287262Y-10568238D02*
X13292023Y-10558714D01*
X13292023Y-10558714D02*
X13296785Y-10539667D01*
X13296785Y-10539667D02*
X13296785Y-10515857D01*
X13296785Y-10515857D02*
X13292023Y-10496810D01*
X13292023Y-10496810D02*
X13287262Y-10487286D01*
X13287262Y-10487286D02*
X13282500Y-10482524D01*
X13282500Y-10482524D02*
X13272976Y-10477762D01*
X13196785Y-10568238D02*
X13192023Y-10573000D01*
X13192023Y-10573000D02*
X13196785Y-10577762D01*
X13196785Y-10577762D02*
X13201547Y-10573000D01*
X13201547Y-10573000D02*
X13196785Y-10568238D01*
X13196785Y-10568238D02*
X13196785Y-10577762D01*
X13101547Y-10477762D02*
X13149166Y-10477762D01*
X13149166Y-10477762D02*
X13153928Y-10525381D01*
X13153928Y-10525381D02*
X13149166Y-10520619D01*
X13149166Y-10520619D02*
X13139643Y-10515857D01*
X13139643Y-10515857D02*
X13115833Y-10515857D01*
X13115833Y-10515857D02*
X13106309Y-10520619D01*
X13106309Y-10520619D02*
X13101547Y-10525381D01*
X13101547Y-10525381D02*
X13096785Y-10534905D01*
X13096785Y-10534905D02*
X13096785Y-10558714D01*
X13096785Y-10558714D02*
X13101547Y-10568238D01*
X13101547Y-10568238D02*
X13106309Y-10573000D01*
X13106309Y-10573000D02*
X13115833Y-10577762D01*
X13115833Y-10577762D02*
X13139643Y-10577762D01*
X13139643Y-10577762D02*
X13149166Y-10573000D01*
X13149166Y-10573000D02*
X13153928Y-10568238D01*
X15811548Y-7947709D02*
X15857262Y-7947709D01*
X15834405Y-7947709D02*
X15834405Y-7867709D01*
X15834405Y-7867709D02*
X15842024Y-7879138D01*
X15842024Y-7879138D02*
X15849643Y-7886757D01*
X15849643Y-7886757D02*
X15857262Y-7890567D01*
X15781071Y-7875328D02*
X15777262Y-7871519D01*
X15777262Y-7871519D02*
X15769643Y-7867709D01*
X15769643Y-7867709D02*
X15750595Y-7867709D01*
X15750595Y-7867709D02*
X15742976Y-7871519D01*
X15742976Y-7871519D02*
X15739167Y-7875328D01*
X15739167Y-7875328D02*
X15735357Y-7882948D01*
X15735357Y-7882948D02*
X15735357Y-7890567D01*
X15735357Y-7890567D02*
X15739167Y-7901995D01*
X15739167Y-7901995D02*
X15784881Y-7947709D01*
X15784881Y-7947709D02*
X15735357Y-7947709D01*
X15712500Y-7867709D02*
X15685833Y-7947709D01*
X15685833Y-7947709D02*
X15659167Y-7867709D01*
X15556309Y-7867709D02*
X15541071Y-7867709D01*
X15541071Y-7867709D02*
X15533452Y-7871519D01*
X15533452Y-7871519D02*
X15525833Y-7879138D01*
X15525833Y-7879138D02*
X15522024Y-7894376D01*
X15522024Y-7894376D02*
X15522024Y-7921043D01*
X15522024Y-7921043D02*
X15525833Y-7936281D01*
X15525833Y-7936281D02*
X15533452Y-7943900D01*
X15533452Y-7943900D02*
X15541071Y-7947709D01*
X15541071Y-7947709D02*
X15556309Y-7947709D01*
X15556309Y-7947709D02*
X15563928Y-7943900D01*
X15563928Y-7943900D02*
X15571547Y-7936281D01*
X15571547Y-7936281D02*
X15575357Y-7921043D01*
X15575357Y-7921043D02*
X15575357Y-7894376D01*
X15575357Y-7894376D02*
X15571547Y-7879138D01*
X15571547Y-7879138D02*
X15563928Y-7871519D01*
X15563928Y-7871519D02*
X15556309Y-7867709D01*
X15453452Y-7894376D02*
X15453452Y-7947709D01*
X15487738Y-7894376D02*
X15487738Y-7936281D01*
X15487738Y-7936281D02*
X15483928Y-7943900D01*
X15483928Y-7943900D02*
X15476309Y-7947709D01*
X15476309Y-7947709D02*
X15464881Y-7947709D01*
X15464881Y-7947709D02*
X15457262Y-7943900D01*
X15457262Y-7943900D02*
X15453452Y-7940090D01*
X15426786Y-7894376D02*
X15396309Y-7894376D01*
X15415357Y-7867709D02*
X15415357Y-7936281D01*
X15415357Y-7936281D02*
X15411547Y-7943900D01*
X15411547Y-7943900D02*
X15403928Y-7947709D01*
X15403928Y-7947709D02*
X15396309Y-7947709D01*
X11269524Y-7948881D02*
X11236190Y-7948881D01*
X11221905Y-8001262D02*
X11269524Y-8001262D01*
X11269524Y-8001262D02*
X11269524Y-7901262D01*
X11269524Y-7901262D02*
X11221905Y-7901262D01*
X11179048Y-8001262D02*
X11179048Y-7901262D01*
X11179048Y-7901262D02*
X11121905Y-8001262D01*
X11121905Y-8001262D02*
X11121905Y-7901262D01*
X11017143Y-7991738D02*
X11021905Y-7996500D01*
X11021905Y-7996500D02*
X11036190Y-8001262D01*
X11036190Y-8001262D02*
X11045714Y-8001262D01*
X11045714Y-8001262D02*
X11060000Y-7996500D01*
X11060000Y-7996500D02*
X11069524Y-7986976D01*
X11069524Y-7986976D02*
X11074286Y-7977452D01*
X11074286Y-7977452D02*
X11079048Y-7958405D01*
X11079048Y-7958405D02*
X11079048Y-7944119D01*
X11079048Y-7944119D02*
X11074286Y-7925071D01*
X11074286Y-7925071D02*
X11069524Y-7915548D01*
X11069524Y-7915548D02*
X11060000Y-7906024D01*
X11060000Y-7906024D02*
X11045714Y-7901262D01*
X11045714Y-7901262D02*
X11036190Y-7901262D01*
X11036190Y-7901262D02*
X11021905Y-7906024D01*
X11021905Y-7906024D02*
X11017143Y-7910786D01*
X10955238Y-7901262D02*
X10936190Y-7901262D01*
X10936190Y-7901262D02*
X10926667Y-7906024D01*
X10926667Y-7906024D02*
X10917143Y-7915548D01*
X10917143Y-7915548D02*
X10912381Y-7934595D01*
X10912381Y-7934595D02*
X10912381Y-7967928D01*
X10912381Y-7967928D02*
X10917143Y-7986976D01*
X10917143Y-7986976D02*
X10926667Y-7996500D01*
X10926667Y-7996500D02*
X10936190Y-8001262D01*
X10936190Y-8001262D02*
X10955238Y-8001262D01*
X10955238Y-8001262D02*
X10964762Y-7996500D01*
X10964762Y-7996500D02*
X10974286Y-7986976D01*
X10974286Y-7986976D02*
X10979048Y-7967928D01*
X10979048Y-7967928D02*
X10979048Y-7934595D01*
X10979048Y-7934595D02*
X10974286Y-7915548D01*
X10974286Y-7915548D02*
X10964762Y-7906024D01*
X10964762Y-7906024D02*
X10955238Y-7901262D01*
X10869524Y-8001262D02*
X10869524Y-7901262D01*
X10869524Y-7901262D02*
X10845714Y-7901262D01*
X10845714Y-7901262D02*
X10831429Y-7906024D01*
X10831429Y-7906024D02*
X10821905Y-7915548D01*
X10821905Y-7915548D02*
X10817143Y-7925071D01*
X10817143Y-7925071D02*
X10812381Y-7944119D01*
X10812381Y-7944119D02*
X10812381Y-7958405D01*
X10812381Y-7958405D02*
X10817143Y-7977452D01*
X10817143Y-7977452D02*
X10821905Y-7986976D01*
X10821905Y-7986976D02*
X10831429Y-7996500D01*
X10831429Y-7996500D02*
X10845714Y-8001262D01*
X10845714Y-8001262D02*
X10869524Y-8001262D01*
X10769524Y-7948881D02*
X10736190Y-7948881D01*
X10721905Y-8001262D02*
X10769524Y-8001262D01*
X10769524Y-8001262D02*
X10769524Y-7901262D01*
X10769524Y-7901262D02*
X10721905Y-7901262D01*
X10621905Y-8001262D02*
X10655238Y-7953643D01*
X10679048Y-8001262D02*
X10679048Y-7901262D01*
X10679048Y-7901262D02*
X10640952Y-7901262D01*
X10640952Y-7901262D02*
X10631429Y-7906024D01*
X10631429Y-7906024D02*
X10626667Y-7910786D01*
X10626667Y-7910786D02*
X10621905Y-7920309D01*
X10621905Y-7920309D02*
X10621905Y-7934595D01*
X10621905Y-7934595D02*
X10626667Y-7944119D01*
X10626667Y-7944119D02*
X10631429Y-7948881D01*
X10631429Y-7948881D02*
X10640952Y-7953643D01*
X10640952Y-7953643D02*
X10679048Y-7953643D01*
X10602857Y-8010786D02*
X10526667Y-8010786D01*
X10469524Y-7948881D02*
X10455238Y-7953643D01*
X10455238Y-7953643D02*
X10450476Y-7958405D01*
X10450476Y-7958405D02*
X10445714Y-7967928D01*
X10445714Y-7967928D02*
X10445714Y-7982214D01*
X10445714Y-7982214D02*
X10450476Y-7991738D01*
X10450476Y-7991738D02*
X10455238Y-7996500D01*
X10455238Y-7996500D02*
X10464762Y-8001262D01*
X10464762Y-8001262D02*
X10502857Y-8001262D01*
X10502857Y-8001262D02*
X10502857Y-7901262D01*
X10502857Y-7901262D02*
X10469524Y-7901262D01*
X10469524Y-7901262D02*
X10460000Y-7906024D01*
X10460000Y-7906024D02*
X10455238Y-7910786D01*
X10455238Y-7910786D02*
X10450476Y-7920309D01*
X10450476Y-7920309D02*
X10450476Y-7929833D01*
X10450476Y-7929833D02*
X10455238Y-7939357D01*
X10455238Y-7939357D02*
X10460000Y-7944119D01*
X10460000Y-7944119D02*
X10469524Y-7948881D01*
X10469524Y-7948881D02*
X10502857Y-7948881D01*
X10402857Y-7901262D02*
X10402857Y-7982214D01*
X10402857Y-7982214D02*
X10398095Y-7991738D01*
X10398095Y-7991738D02*
X10393333Y-7996500D01*
X10393333Y-7996500D02*
X10383809Y-8001262D01*
X10383809Y-8001262D02*
X10364762Y-8001262D01*
X10364762Y-8001262D02*
X10355238Y-7996500D01*
X10355238Y-7996500D02*
X10350476Y-7991738D01*
X10350476Y-7991738D02*
X10345714Y-7982214D01*
X10345714Y-7982214D02*
X10345714Y-7901262D01*
X10302857Y-7996500D02*
X10288571Y-8001262D01*
X10288571Y-8001262D02*
X10264762Y-8001262D01*
X10264762Y-8001262D02*
X10255238Y-7996500D01*
X10255238Y-7996500D02*
X10250476Y-7991738D01*
X10250476Y-7991738D02*
X10245714Y-7982214D01*
X10245714Y-7982214D02*
X10245714Y-7972690D01*
X10245714Y-7972690D02*
X10250476Y-7963167D01*
X10250476Y-7963167D02*
X10255238Y-7958405D01*
X10255238Y-7958405D02*
X10264762Y-7953643D01*
X10264762Y-7953643D02*
X10283809Y-7948881D01*
X10283809Y-7948881D02*
X10293333Y-7944119D01*
X10293333Y-7944119D02*
X10298095Y-7939357D01*
X10298095Y-7939357D02*
X10302857Y-7929833D01*
X10302857Y-7929833D02*
X10302857Y-7920309D01*
X10302857Y-7920309D02*
X10298095Y-7910786D01*
X10298095Y-7910786D02*
X10293333Y-7906024D01*
X10293333Y-7906024D02*
X10283809Y-7901262D01*
X10283809Y-7901262D02*
X10260000Y-7901262D01*
X10260000Y-7901262D02*
X10245714Y-7906024D01*
X16552976Y-12442762D02*
X16495833Y-12442762D01*
X16524405Y-12542762D02*
X16524405Y-12442762D01*
X16448214Y-12542762D02*
X16457738Y-12538000D01*
X16457738Y-12538000D02*
X16462500Y-12533238D01*
X16462500Y-12533238D02*
X16467262Y-12523714D01*
X16467262Y-12523714D02*
X16467262Y-12495143D01*
X16467262Y-12495143D02*
X16462500Y-12485619D01*
X16462500Y-12485619D02*
X16457738Y-12480857D01*
X16457738Y-12480857D02*
X16448214Y-12476095D01*
X16448214Y-12476095D02*
X16433928Y-12476095D01*
X16433928Y-12476095D02*
X16424405Y-12480857D01*
X16424405Y-12480857D02*
X16419643Y-12485619D01*
X16419643Y-12485619D02*
X16414881Y-12495143D01*
X16414881Y-12495143D02*
X16414881Y-12523714D01*
X16414881Y-12523714D02*
X16419643Y-12533238D01*
X16419643Y-12533238D02*
X16424405Y-12538000D01*
X16424405Y-12538000D02*
X16433928Y-12542762D01*
X16433928Y-12542762D02*
X16448214Y-12542762D01*
X16372024Y-12476095D02*
X16372024Y-12542762D01*
X16372024Y-12485619D02*
X16367262Y-12480857D01*
X16367262Y-12480857D02*
X16357738Y-12476095D01*
X16357738Y-12476095D02*
X16343452Y-12476095D01*
X16343452Y-12476095D02*
X16333928Y-12480857D01*
X16333928Y-12480857D02*
X16329167Y-12490381D01*
X16329167Y-12490381D02*
X16329167Y-12542762D01*
X16243452Y-12538000D02*
X16252976Y-12542762D01*
X16252976Y-12542762D02*
X16272024Y-12542762D01*
X16272024Y-12542762D02*
X16281547Y-12538000D01*
X16281547Y-12538000D02*
X16286309Y-12528476D01*
X16286309Y-12528476D02*
X16286309Y-12490381D01*
X16286309Y-12490381D02*
X16281547Y-12480857D01*
X16281547Y-12480857D02*
X16272024Y-12476095D01*
X16272024Y-12476095D02*
X16252976Y-12476095D01*
X16252976Y-12476095D02*
X16243452Y-12480857D01*
X16243452Y-12480857D02*
X16238690Y-12490381D01*
X16238690Y-12490381D02*
X16238690Y-12499905D01*
X16238690Y-12499905D02*
X16286309Y-12509428D01*
X16538690Y-12704762D02*
X16538690Y-12604762D01*
X16538690Y-12604762D02*
X16514881Y-12604762D01*
X16514881Y-12604762D02*
X16500595Y-12609524D01*
X16500595Y-12609524D02*
X16491071Y-12619048D01*
X16491071Y-12619048D02*
X16486309Y-12628571D01*
X16486309Y-12628571D02*
X16481548Y-12647619D01*
X16481548Y-12647619D02*
X16481548Y-12661905D01*
X16481548Y-12661905D02*
X16486309Y-12680952D01*
X16486309Y-12680952D02*
X16491071Y-12690476D01*
X16491071Y-12690476D02*
X16500595Y-12700000D01*
X16500595Y-12700000D02*
X16514881Y-12704762D01*
X16514881Y-12704762D02*
X16538690Y-12704762D01*
X16400595Y-12700000D02*
X16410119Y-12704762D01*
X16410119Y-12704762D02*
X16429167Y-12704762D01*
X16429167Y-12704762D02*
X16438690Y-12700000D01*
X16438690Y-12700000D02*
X16443452Y-12690476D01*
X16443452Y-12690476D02*
X16443452Y-12652381D01*
X16443452Y-12652381D02*
X16438690Y-12642857D01*
X16438690Y-12642857D02*
X16429167Y-12638095D01*
X16429167Y-12638095D02*
X16410119Y-12638095D01*
X16410119Y-12638095D02*
X16400595Y-12642857D01*
X16400595Y-12642857D02*
X16395833Y-12652381D01*
X16395833Y-12652381D02*
X16395833Y-12661905D01*
X16395833Y-12661905D02*
X16443452Y-12671428D01*
X16310119Y-12700000D02*
X16319643Y-12704762D01*
X16319643Y-12704762D02*
X16338690Y-12704762D01*
X16338690Y-12704762D02*
X16348214Y-12700000D01*
X16348214Y-12700000D02*
X16352976Y-12695238D01*
X16352976Y-12695238D02*
X16357738Y-12685714D01*
X16357738Y-12685714D02*
X16357738Y-12657143D01*
X16357738Y-12657143D02*
X16352976Y-12647619D01*
X16352976Y-12647619D02*
X16348214Y-12642857D01*
X16348214Y-12642857D02*
X16338690Y-12638095D01*
X16338690Y-12638095D02*
X16319643Y-12638095D01*
X16319643Y-12638095D02*
X16310119Y-12642857D01*
X16252976Y-12704762D02*
X16262500Y-12700000D01*
X16262500Y-12700000D02*
X16267262Y-12695238D01*
X16267262Y-12695238D02*
X16272024Y-12685714D01*
X16272024Y-12685714D02*
X16272024Y-12657143D01*
X16272024Y-12657143D02*
X16267262Y-12647619D01*
X16267262Y-12647619D02*
X16262500Y-12642857D01*
X16262500Y-12642857D02*
X16252976Y-12638095D01*
X16252976Y-12638095D02*
X16238690Y-12638095D01*
X16238690Y-12638095D02*
X16229167Y-12642857D01*
X16229167Y-12642857D02*
X16224405Y-12647619D01*
X16224405Y-12647619D02*
X16219643Y-12657143D01*
X16219643Y-12657143D02*
X16219643Y-12685714D01*
X16219643Y-12685714D02*
X16224405Y-12695238D01*
X16224405Y-12695238D02*
X16229167Y-12700000D01*
X16229167Y-12700000D02*
X16238690Y-12704762D01*
X16238690Y-12704762D02*
X16252976Y-12704762D01*
X16133928Y-12704762D02*
X16133928Y-12604762D01*
X16133928Y-12700000D02*
X16143452Y-12704762D01*
X16143452Y-12704762D02*
X16162500Y-12704762D01*
X16162500Y-12704762D02*
X16172024Y-12700000D01*
X16172024Y-12700000D02*
X16176786Y-12695238D01*
X16176786Y-12695238D02*
X16181547Y-12685714D01*
X16181547Y-12685714D02*
X16181547Y-12657143D01*
X16181547Y-12657143D02*
X16176786Y-12647619D01*
X16176786Y-12647619D02*
X16172024Y-12642857D01*
X16172024Y-12642857D02*
X16162500Y-12638095D01*
X16162500Y-12638095D02*
X16143452Y-12638095D01*
X16143452Y-12638095D02*
X16133928Y-12642857D01*
X16048214Y-12700000D02*
X16057738Y-12704762D01*
X16057738Y-12704762D02*
X16076786Y-12704762D01*
X16076786Y-12704762D02*
X16086309Y-12700000D01*
X16086309Y-12700000D02*
X16091071Y-12690476D01*
X16091071Y-12690476D02*
X16091071Y-12652381D01*
X16091071Y-12652381D02*
X16086309Y-12642857D01*
X16086309Y-12642857D02*
X16076786Y-12638095D01*
X16076786Y-12638095D02*
X16057738Y-12638095D01*
X16057738Y-12638095D02*
X16048214Y-12642857D01*
X16048214Y-12642857D02*
X16043452Y-12652381D01*
X16043452Y-12652381D02*
X16043452Y-12661905D01*
X16043452Y-12661905D02*
X16091071Y-12671428D01*
X16000595Y-12704762D02*
X16000595Y-12638095D01*
X16000595Y-12657143D02*
X15995833Y-12647619D01*
X15995833Y-12647619D02*
X15991071Y-12642857D01*
X15991071Y-12642857D02*
X15981547Y-12638095D01*
X15981547Y-12638095D02*
X15972024Y-12638095D01*
%TO.C,U1*%
X14658214Y-10006262D02*
X14658214Y-9906262D01*
X14658214Y-9906262D02*
X14624881Y-9977690D01*
X14624881Y-9977690D02*
X14591548Y-9906262D01*
X14591548Y-9906262D02*
X14591548Y-10006262D01*
X14543929Y-9953881D02*
X14510595Y-9953881D01*
X14496310Y-10006262D02*
X14543929Y-10006262D01*
X14543929Y-10006262D02*
X14543929Y-9906262D01*
X14543929Y-9906262D02*
X14496310Y-9906262D01*
X14401071Y-9911024D02*
X14410595Y-9906262D01*
X14410595Y-9906262D02*
X14424881Y-9906262D01*
X14424881Y-9906262D02*
X14439167Y-9911024D01*
X14439167Y-9911024D02*
X14448690Y-9920548D01*
X14448690Y-9920548D02*
X14453452Y-9930071D01*
X14453452Y-9930071D02*
X14458214Y-9949119D01*
X14458214Y-9949119D02*
X14458214Y-9963405D01*
X14458214Y-9963405D02*
X14453452Y-9982452D01*
X14453452Y-9982452D02*
X14448690Y-9991976D01*
X14448690Y-9991976D02*
X14439167Y-10001500D01*
X14439167Y-10001500D02*
X14424881Y-10006262D01*
X14424881Y-10006262D02*
X14415357Y-10006262D01*
X14415357Y-10006262D02*
X14401071Y-10001500D01*
X14401071Y-10001500D02*
X14396310Y-9996738D01*
X14396310Y-9996738D02*
X14396310Y-9963405D01*
X14396310Y-9963405D02*
X14415357Y-9963405D01*
X14358214Y-9977690D02*
X14310595Y-9977690D01*
X14367738Y-10006262D02*
X14334405Y-9906262D01*
X14334405Y-9906262D02*
X14301071Y-10006262D01*
X14291548Y-10015786D02*
X14215357Y-10015786D01*
X14191548Y-10006262D02*
X14191548Y-9906262D01*
X14191548Y-9906262D02*
X14153452Y-9906262D01*
X14153452Y-9906262D02*
X14143929Y-9911024D01*
X14143929Y-9911024D02*
X14139167Y-9915786D01*
X14139167Y-9915786D02*
X14134405Y-9925310D01*
X14134405Y-9925310D02*
X14134405Y-9939595D01*
X14134405Y-9939595D02*
X14139167Y-9949119D01*
X14139167Y-9949119D02*
X14143929Y-9953881D01*
X14143929Y-9953881D02*
X14153452Y-9958643D01*
X14153452Y-9958643D02*
X14191548Y-9958643D01*
X14034405Y-10006262D02*
X14067738Y-9958643D01*
X14091548Y-10006262D02*
X14091548Y-9906262D01*
X14091548Y-9906262D02*
X14053452Y-9906262D01*
X14053452Y-9906262D02*
X14043929Y-9911024D01*
X14043929Y-9911024D02*
X14039167Y-9915786D01*
X14039167Y-9915786D02*
X14034405Y-9925310D01*
X14034405Y-9925310D02*
X14034405Y-9939595D01*
X14034405Y-9939595D02*
X14039167Y-9949119D01*
X14039167Y-9949119D02*
X14043929Y-9953881D01*
X14043929Y-9953881D02*
X14053452Y-9958643D01*
X14053452Y-9958643D02*
X14091548Y-9958643D01*
X13972500Y-9906262D02*
X13953452Y-9906262D01*
X13953452Y-9906262D02*
X13943929Y-9911024D01*
X13943929Y-9911024D02*
X13934405Y-9920548D01*
X13934405Y-9920548D02*
X13929643Y-9939595D01*
X13929643Y-9939595D02*
X13929643Y-9972929D01*
X13929643Y-9972929D02*
X13934405Y-9991976D01*
X13934405Y-9991976D02*
X13943929Y-10001500D01*
X13943929Y-10001500D02*
X13953452Y-10006262D01*
X13953452Y-10006262D02*
X13972500Y-10006262D01*
X13972500Y-10006262D02*
X13982024Y-10001500D01*
X13982024Y-10001500D02*
X13991548Y-9991976D01*
X13991548Y-9991976D02*
X13996309Y-9972929D01*
X13996309Y-9972929D02*
X13996309Y-9939595D01*
X13996309Y-9939595D02*
X13991548Y-9920548D01*
X13991548Y-9920548D02*
X13982024Y-9911024D01*
X13982024Y-9911024D02*
X13972500Y-9906262D01*
X13910595Y-10015786D02*
X13834405Y-10015786D01*
X13810595Y-9953881D02*
X13777262Y-9953881D01*
X13762976Y-10006262D02*
X13810595Y-10006262D01*
X13810595Y-10006262D02*
X13810595Y-9906262D01*
X13810595Y-9906262D02*
X13762976Y-9906262D01*
X13720119Y-10006262D02*
X13720119Y-9906262D01*
X13720119Y-9906262D02*
X13686786Y-9977690D01*
X13686786Y-9977690D02*
X13653452Y-9906262D01*
X13653452Y-9906262D02*
X13653452Y-10006262D01*
X13572500Y-9953881D02*
X13558214Y-9958643D01*
X13558214Y-9958643D02*
X13553452Y-9963405D01*
X13553452Y-9963405D02*
X13548690Y-9972929D01*
X13548690Y-9972929D02*
X13548690Y-9987214D01*
X13548690Y-9987214D02*
X13553452Y-9996738D01*
X13553452Y-9996738D02*
X13558214Y-10001500D01*
X13558214Y-10001500D02*
X13567738Y-10006262D01*
X13567738Y-10006262D02*
X13605833Y-10006262D01*
X13605833Y-10006262D02*
X13605833Y-9906262D01*
X13605833Y-9906262D02*
X13572500Y-9906262D01*
X13572500Y-9906262D02*
X13562976Y-9911024D01*
X13562976Y-9911024D02*
X13558214Y-9915786D01*
X13558214Y-9915786D02*
X13553452Y-9925310D01*
X13553452Y-9925310D02*
X13553452Y-9934833D01*
X13553452Y-9934833D02*
X13558214Y-9944357D01*
X13558214Y-9944357D02*
X13562976Y-9949119D01*
X13562976Y-9949119D02*
X13572500Y-9953881D01*
X13572500Y-9953881D02*
X13605833Y-9953881D01*
X13505833Y-9953881D02*
X13472500Y-9953881D01*
X13458214Y-10006262D02*
X13505833Y-10006262D01*
X13505833Y-10006262D02*
X13505833Y-9906262D01*
X13505833Y-9906262D02*
X13458214Y-9906262D01*
X13415357Y-10006262D02*
X13415357Y-9906262D01*
X13415357Y-9906262D02*
X13391548Y-9906262D01*
X13391548Y-9906262D02*
X13377262Y-9911024D01*
X13377262Y-9911024D02*
X13367738Y-9920548D01*
X13367738Y-9920548D02*
X13362976Y-9930071D01*
X13362976Y-9930071D02*
X13358214Y-9949119D01*
X13358214Y-9949119D02*
X13358214Y-9963405D01*
X13358214Y-9963405D02*
X13362976Y-9982452D01*
X13362976Y-9982452D02*
X13367738Y-9991976D01*
X13367738Y-9991976D02*
X13377262Y-10001500D01*
X13377262Y-10001500D02*
X13391548Y-10006262D01*
X13391548Y-10006262D02*
X13415357Y-10006262D01*
X13339167Y-10015786D02*
X13262976Y-10015786D01*
X13182024Y-9996738D02*
X13186786Y-10001500D01*
X13186786Y-10001500D02*
X13201071Y-10006262D01*
X13201071Y-10006262D02*
X13210595Y-10006262D01*
X13210595Y-10006262D02*
X13224881Y-10001500D01*
X13224881Y-10001500D02*
X13234405Y-9991976D01*
X13234405Y-9991976D02*
X13239167Y-9982452D01*
X13239167Y-9982452D02*
X13243928Y-9963405D01*
X13243928Y-9963405D02*
X13243928Y-9949119D01*
X13243928Y-9949119D02*
X13239167Y-9930071D01*
X13239167Y-9930071D02*
X13234405Y-9920548D01*
X13234405Y-9920548D02*
X13224881Y-9911024D01*
X13224881Y-9911024D02*
X13210595Y-9906262D01*
X13210595Y-9906262D02*
X13201071Y-9906262D01*
X13201071Y-9906262D02*
X13186786Y-9911024D01*
X13186786Y-9911024D02*
X13182024Y-9915786D01*
X13139167Y-10006262D02*
X13139167Y-9906262D01*
X13139167Y-9953881D02*
X13082024Y-9953881D01*
X13082024Y-10006262D02*
X13082024Y-9906262D01*
X13043928Y-9906262D02*
X12982024Y-9906262D01*
X12982024Y-9906262D02*
X13015357Y-9944357D01*
X13015357Y-9944357D02*
X13001071Y-9944357D01*
X13001071Y-9944357D02*
X12991548Y-9949119D01*
X12991548Y-9949119D02*
X12986786Y-9953881D01*
X12986786Y-9953881D02*
X12982024Y-9963405D01*
X12982024Y-9963405D02*
X12982024Y-9987214D01*
X12982024Y-9987214D02*
X12986786Y-9996738D01*
X12986786Y-9996738D02*
X12991548Y-10001500D01*
X12991548Y-10001500D02*
X13001071Y-10006262D01*
X13001071Y-10006262D02*
X13029643Y-10006262D01*
X13029643Y-10006262D02*
X13039167Y-10001500D01*
X13039167Y-10001500D02*
X13043928Y-9996738D01*
X12896309Y-9939595D02*
X12896309Y-10006262D01*
X12920119Y-9901500D02*
X12943928Y-9972929D01*
X12943928Y-9972929D02*
X12882024Y-9972929D01*
X12824881Y-9906262D02*
X12815357Y-9906262D01*
X12815357Y-9906262D02*
X12805833Y-9911024D01*
X12805833Y-9911024D02*
X12801071Y-9915786D01*
X12801071Y-9915786D02*
X12796309Y-9925310D01*
X12796309Y-9925310D02*
X12791548Y-9944357D01*
X12791548Y-9944357D02*
X12791548Y-9968167D01*
X12791548Y-9968167D02*
X12796309Y-9987214D01*
X12796309Y-9987214D02*
X12801071Y-9996738D01*
X12801071Y-9996738D02*
X12805833Y-10001500D01*
X12805833Y-10001500D02*
X12815357Y-10006262D01*
X12815357Y-10006262D02*
X12824881Y-10006262D01*
X12824881Y-10006262D02*
X12834405Y-10001500D01*
X12834405Y-10001500D02*
X12839167Y-9996738D01*
X12839167Y-9996738D02*
X12843928Y-9987214D01*
X12843928Y-9987214D02*
X12848690Y-9968167D01*
X12848690Y-9968167D02*
X12848690Y-9944357D01*
X12848690Y-9944357D02*
X12843928Y-9925310D01*
X12843928Y-9925310D02*
X12839167Y-9915786D01*
X12839167Y-9915786D02*
X12834405Y-9911024D01*
X12834405Y-9911024D02*
X12824881Y-9906262D01*
X12696309Y-9911024D02*
X12705833Y-9906262D01*
X12705833Y-9906262D02*
X12720119Y-9906262D01*
X12720119Y-9906262D02*
X12734405Y-9911024D01*
X12734405Y-9911024D02*
X12743928Y-9920548D01*
X12743928Y-9920548D02*
X12748690Y-9930071D01*
X12748690Y-9930071D02*
X12753452Y-9949119D01*
X12753452Y-9949119D02*
X12753452Y-9963405D01*
X12753452Y-9963405D02*
X12748690Y-9982452D01*
X12748690Y-9982452D02*
X12743928Y-9991976D01*
X12743928Y-9991976D02*
X12734405Y-10001500D01*
X12734405Y-10001500D02*
X12720119Y-10006262D01*
X12720119Y-10006262D02*
X12710595Y-10006262D01*
X12710595Y-10006262D02*
X12696309Y-10001500D01*
X12696309Y-10001500D02*
X12691548Y-9996738D01*
X12691548Y-9996738D02*
X12691548Y-9963405D01*
X12691548Y-9963405D02*
X12710595Y-9963405D01*
X12672500Y-10015786D02*
X12596309Y-10015786D01*
X12577262Y-9977690D02*
X12529643Y-9977690D01*
X12586786Y-10006262D02*
X12553452Y-9906262D01*
X12553452Y-9906262D02*
X12520119Y-10006262D01*
X12501071Y-9906262D02*
X12443928Y-9906262D01*
X12472500Y-10006262D02*
X12472500Y-9906262D01*
X12410595Y-10006262D02*
X12410595Y-9906262D01*
X12410595Y-9906262D02*
X12377262Y-9977690D01*
X12377262Y-9977690D02*
X12343928Y-9906262D01*
X12343928Y-9906262D02*
X12343928Y-10006262D01*
X12296309Y-9953881D02*
X12262976Y-9953881D01*
X12248690Y-10006262D02*
X12296309Y-10006262D01*
X12296309Y-10006262D02*
X12296309Y-9906262D01*
X12296309Y-9906262D02*
X12248690Y-9906262D01*
X12153452Y-9911024D02*
X12162976Y-9906262D01*
X12162976Y-9906262D02*
X12177262Y-9906262D01*
X12177262Y-9906262D02*
X12191547Y-9911024D01*
X12191547Y-9911024D02*
X12201071Y-9920548D01*
X12201071Y-9920548D02*
X12205833Y-9930071D01*
X12205833Y-9930071D02*
X12210595Y-9949119D01*
X12210595Y-9949119D02*
X12210595Y-9963405D01*
X12210595Y-9963405D02*
X12205833Y-9982452D01*
X12205833Y-9982452D02*
X12201071Y-9991976D01*
X12201071Y-9991976D02*
X12191547Y-10001500D01*
X12191547Y-10001500D02*
X12177262Y-10006262D01*
X12177262Y-10006262D02*
X12167738Y-10006262D01*
X12167738Y-10006262D02*
X12153452Y-10001500D01*
X12153452Y-10001500D02*
X12148690Y-9996738D01*
X12148690Y-9996738D02*
X12148690Y-9963405D01*
X12148690Y-9963405D02*
X12167738Y-9963405D01*
X12110595Y-9977690D02*
X12062976Y-9977690D01*
X12120119Y-10006262D02*
X12086786Y-9906262D01*
X12086786Y-9906262D02*
X12053452Y-10006262D01*
X12024881Y-9915786D02*
X12020119Y-9911024D01*
X12020119Y-9911024D02*
X12010595Y-9906262D01*
X12010595Y-9906262D02*
X11986786Y-9906262D01*
X11986786Y-9906262D02*
X11977262Y-9911024D01*
X11977262Y-9911024D02*
X11972500Y-9915786D01*
X11972500Y-9915786D02*
X11967738Y-9925310D01*
X11967738Y-9925310D02*
X11967738Y-9934833D01*
X11967738Y-9934833D02*
X11972500Y-9949119D01*
X11972500Y-9949119D02*
X12029643Y-10006262D01*
X12029643Y-10006262D02*
X11967738Y-10006262D01*
X11877262Y-9906262D02*
X11924881Y-9906262D01*
X11924881Y-9906262D02*
X11929643Y-9953881D01*
X11929643Y-9953881D02*
X11924881Y-9949119D01*
X11924881Y-9949119D02*
X11915357Y-9944357D01*
X11915357Y-9944357D02*
X11891547Y-9944357D01*
X11891547Y-9944357D02*
X11882024Y-9949119D01*
X11882024Y-9949119D02*
X11877262Y-9953881D01*
X11877262Y-9953881D02*
X11872500Y-9963405D01*
X11872500Y-9963405D02*
X11872500Y-9987214D01*
X11872500Y-9987214D02*
X11877262Y-9996738D01*
X11877262Y-9996738D02*
X11882024Y-10001500D01*
X11882024Y-10001500D02*
X11891547Y-10006262D01*
X11891547Y-10006262D02*
X11915357Y-10006262D01*
X11915357Y-10006262D02*
X11924881Y-10001500D01*
X11924881Y-10001500D02*
X11929643Y-9996738D01*
X11786786Y-9906262D02*
X11805833Y-9906262D01*
X11805833Y-9906262D02*
X11815357Y-9911024D01*
X11815357Y-9911024D02*
X11820119Y-9915786D01*
X11820119Y-9915786D02*
X11829643Y-9930071D01*
X11829643Y-9930071D02*
X11834405Y-9949119D01*
X11834405Y-9949119D02*
X11834405Y-9987214D01*
X11834405Y-9987214D02*
X11829643Y-9996738D01*
X11829643Y-9996738D02*
X11824881Y-10001500D01*
X11824881Y-10001500D02*
X11815357Y-10006262D01*
X11815357Y-10006262D02*
X11796309Y-10006262D01*
X11796309Y-10006262D02*
X11786786Y-10001500D01*
X11786786Y-10001500D02*
X11782024Y-9996738D01*
X11782024Y-9996738D02*
X11777262Y-9987214D01*
X11777262Y-9987214D02*
X11777262Y-9963405D01*
X11777262Y-9963405D02*
X11782024Y-9953881D01*
X11782024Y-9953881D02*
X11786786Y-9949119D01*
X11786786Y-9949119D02*
X11796309Y-9944357D01*
X11796309Y-9944357D02*
X11815357Y-9944357D01*
X11815357Y-9944357D02*
X11824881Y-9949119D01*
X11824881Y-9949119D02*
X11829643Y-9953881D01*
X11829643Y-9953881D02*
X11834405Y-9963405D01*
X11715357Y-9906262D02*
X11705833Y-9906262D01*
X11705833Y-9906262D02*
X11696309Y-9911024D01*
X11696309Y-9911024D02*
X11691547Y-9915786D01*
X11691547Y-9915786D02*
X11686786Y-9925310D01*
X11686786Y-9925310D02*
X11682024Y-9944357D01*
X11682024Y-9944357D02*
X11682024Y-9968167D01*
X11682024Y-9968167D02*
X11686786Y-9987214D01*
X11686786Y-9987214D02*
X11691547Y-9996738D01*
X11691547Y-9996738D02*
X11696309Y-10001500D01*
X11696309Y-10001500D02*
X11705833Y-10006262D01*
X11705833Y-10006262D02*
X11715357Y-10006262D01*
X11715357Y-10006262D02*
X11724881Y-10001500D01*
X11724881Y-10001500D02*
X11729643Y-9996738D01*
X11729643Y-9996738D02*
X11734405Y-9987214D01*
X11734405Y-9987214D02*
X11739166Y-9968167D01*
X11739166Y-9968167D02*
X11739166Y-9944357D01*
X11739166Y-9944357D02*
X11734405Y-9925310D01*
X11734405Y-9925310D02*
X11729643Y-9915786D01*
X11729643Y-9915786D02*
X11724881Y-9911024D01*
X11724881Y-9911024D02*
X11715357Y-9906262D01*
%TO.C,R1*%
X14869167Y-11511262D02*
X14902500Y-11463643D01*
X14926309Y-11511262D02*
X14926309Y-11411262D01*
X14926309Y-11411262D02*
X14888214Y-11411262D01*
X14888214Y-11411262D02*
X14878690Y-11416024D01*
X14878690Y-11416024D02*
X14873928Y-11420786D01*
X14873928Y-11420786D02*
X14869167Y-11430309D01*
X14869167Y-11430309D02*
X14869167Y-11444595D01*
X14869167Y-11444595D02*
X14873928Y-11454119D01*
X14873928Y-11454119D02*
X14878690Y-11458881D01*
X14878690Y-11458881D02*
X14888214Y-11463643D01*
X14888214Y-11463643D02*
X14926309Y-11463643D01*
X14773928Y-11511262D02*
X14831071Y-11511262D01*
X14802500Y-11511262D02*
X14802500Y-11411262D01*
X14802500Y-11411262D02*
X14812024Y-11425548D01*
X14812024Y-11425548D02*
X14821547Y-11435071D01*
X14821547Y-11435071D02*
X14831071Y-11439833D01*
%TO.C,D2*%
X14988809Y-9198762D02*
X14988809Y-9098762D01*
X14988809Y-9098762D02*
X14965000Y-9098762D01*
X14965000Y-9098762D02*
X14950714Y-9103524D01*
X14950714Y-9103524D02*
X14941190Y-9113048D01*
X14941190Y-9113048D02*
X14936428Y-9122571D01*
X14936428Y-9122571D02*
X14931667Y-9141619D01*
X14931667Y-9141619D02*
X14931667Y-9155905D01*
X14931667Y-9155905D02*
X14936428Y-9174952D01*
X14936428Y-9174952D02*
X14941190Y-9184476D01*
X14941190Y-9184476D02*
X14950714Y-9194000D01*
X14950714Y-9194000D02*
X14965000Y-9198762D01*
X14965000Y-9198762D02*
X14988809Y-9198762D01*
X14893571Y-9108286D02*
X14888809Y-9103524D01*
X14888809Y-9103524D02*
X14879286Y-9098762D01*
X14879286Y-9098762D02*
X14855476Y-9098762D01*
X14855476Y-9098762D02*
X14845952Y-9103524D01*
X14845952Y-9103524D02*
X14841190Y-9108286D01*
X14841190Y-9108286D02*
X14836428Y-9117810D01*
X14836428Y-9117810D02*
X14836428Y-9127333D01*
X14836428Y-9127333D02*
X14841190Y-9141619D01*
X14841190Y-9141619D02*
X14898333Y-9198762D01*
X14898333Y-9198762D02*
X14836428Y-9198762D01*
%TO.C,J6*%
X9935833Y-7656262D02*
X9935833Y-7727690D01*
X9935833Y-7727690D02*
X9940595Y-7741976D01*
X9940595Y-7741976D02*
X9950119Y-7751500D01*
X9950119Y-7751500D02*
X9964405Y-7756262D01*
X9964405Y-7756262D02*
X9973929Y-7756262D01*
X9845357Y-7656262D02*
X9864405Y-7656262D01*
X9864405Y-7656262D02*
X9873929Y-7661024D01*
X9873929Y-7661024D02*
X9878690Y-7665786D01*
X9878690Y-7665786D02*
X9888214Y-7680071D01*
X9888214Y-7680071D02*
X9892976Y-7699119D01*
X9892976Y-7699119D02*
X9892976Y-7737214D01*
X9892976Y-7737214D02*
X9888214Y-7746738D01*
X9888214Y-7746738D02*
X9883452Y-7751500D01*
X9883452Y-7751500D02*
X9873929Y-7756262D01*
X9873929Y-7756262D02*
X9854881Y-7756262D01*
X9854881Y-7756262D02*
X9845357Y-7751500D01*
X9845357Y-7751500D02*
X9840595Y-7746738D01*
X9840595Y-7746738D02*
X9835833Y-7737214D01*
X9835833Y-7737214D02*
X9835833Y-7713405D01*
X9835833Y-7713405D02*
X9840595Y-7703881D01*
X9840595Y-7703881D02*
X9845357Y-7699119D01*
X9845357Y-7699119D02*
X9854881Y-7694357D01*
X9854881Y-7694357D02*
X9873929Y-7694357D01*
X9873929Y-7694357D02*
X9883452Y-7699119D01*
X9883452Y-7699119D02*
X9888214Y-7703881D01*
X9888214Y-7703881D02*
X9892976Y-7713405D01*
X11250492Y-7475881D02*
X11217159Y-7475881D01*
X11202873Y-7528262D02*
X11250492Y-7528262D01*
X11250492Y-7528262D02*
X11250492Y-7428262D01*
X11250492Y-7428262D02*
X11202873Y-7428262D01*
X11160016Y-7528262D02*
X11160016Y-7428262D01*
X11160016Y-7428262D02*
X11102873Y-7528262D01*
X11102873Y-7528262D02*
X11102873Y-7428262D01*
X10998111Y-7518738D02*
X11002873Y-7523500D01*
X11002873Y-7523500D02*
X11017159Y-7528262D01*
X11017159Y-7528262D02*
X11026683Y-7528262D01*
X11026683Y-7528262D02*
X11040968Y-7523500D01*
X11040968Y-7523500D02*
X11050492Y-7513976D01*
X11050492Y-7513976D02*
X11055254Y-7504452D01*
X11055254Y-7504452D02*
X11060016Y-7485405D01*
X11060016Y-7485405D02*
X11060016Y-7471119D01*
X11060016Y-7471119D02*
X11055254Y-7452071D01*
X11055254Y-7452071D02*
X11050492Y-7442548D01*
X11050492Y-7442548D02*
X11040968Y-7433024D01*
X11040968Y-7433024D02*
X11026683Y-7428262D01*
X11026683Y-7428262D02*
X11017159Y-7428262D01*
X11017159Y-7428262D02*
X11002873Y-7433024D01*
X11002873Y-7433024D02*
X10998111Y-7437786D01*
X10936206Y-7428262D02*
X10917159Y-7428262D01*
X10917159Y-7428262D02*
X10907635Y-7433024D01*
X10907635Y-7433024D02*
X10898111Y-7442548D01*
X10898111Y-7442548D02*
X10893349Y-7461595D01*
X10893349Y-7461595D02*
X10893349Y-7494928D01*
X10893349Y-7494928D02*
X10898111Y-7513976D01*
X10898111Y-7513976D02*
X10907635Y-7523500D01*
X10907635Y-7523500D02*
X10917159Y-7528262D01*
X10917159Y-7528262D02*
X10936206Y-7528262D01*
X10936206Y-7528262D02*
X10945730Y-7523500D01*
X10945730Y-7523500D02*
X10955254Y-7513976D01*
X10955254Y-7513976D02*
X10960016Y-7494928D01*
X10960016Y-7494928D02*
X10960016Y-7461595D01*
X10960016Y-7461595D02*
X10955254Y-7442548D01*
X10955254Y-7442548D02*
X10945730Y-7433024D01*
X10945730Y-7433024D02*
X10936206Y-7428262D01*
X10850492Y-7528262D02*
X10850492Y-7428262D01*
X10850492Y-7428262D02*
X10826683Y-7428262D01*
X10826683Y-7428262D02*
X10812397Y-7433024D01*
X10812397Y-7433024D02*
X10802873Y-7442548D01*
X10802873Y-7442548D02*
X10798111Y-7452071D01*
X10798111Y-7452071D02*
X10793349Y-7471119D01*
X10793349Y-7471119D02*
X10793349Y-7485405D01*
X10793349Y-7485405D02*
X10798111Y-7504452D01*
X10798111Y-7504452D02*
X10802873Y-7513976D01*
X10802873Y-7513976D02*
X10812397Y-7523500D01*
X10812397Y-7523500D02*
X10826683Y-7528262D01*
X10826683Y-7528262D02*
X10850492Y-7528262D01*
X10750492Y-7475881D02*
X10717159Y-7475881D01*
X10702873Y-7528262D02*
X10750492Y-7528262D01*
X10750492Y-7528262D02*
X10750492Y-7428262D01*
X10750492Y-7428262D02*
X10702873Y-7428262D01*
X10602873Y-7528262D02*
X10636206Y-7480643D01*
X10660016Y-7528262D02*
X10660016Y-7428262D01*
X10660016Y-7428262D02*
X10621921Y-7428262D01*
X10621921Y-7428262D02*
X10612397Y-7433024D01*
X10612397Y-7433024D02*
X10607635Y-7437786D01*
X10607635Y-7437786D02*
X10602873Y-7447309D01*
X10602873Y-7447309D02*
X10602873Y-7461595D01*
X10602873Y-7461595D02*
X10607635Y-7471119D01*
X10607635Y-7471119D02*
X10612397Y-7475881D01*
X10612397Y-7475881D02*
X10621921Y-7480643D01*
X10621921Y-7480643D02*
X10660016Y-7480643D01*
X10583825Y-7537786D02*
X10507635Y-7537786D01*
X10450492Y-7475881D02*
X10436206Y-7480643D01*
X10436206Y-7480643D02*
X10431444Y-7485405D01*
X10431444Y-7485405D02*
X10426683Y-7494928D01*
X10426683Y-7494928D02*
X10426683Y-7509214D01*
X10426683Y-7509214D02*
X10431444Y-7518738D01*
X10431444Y-7518738D02*
X10436206Y-7523500D01*
X10436206Y-7523500D02*
X10445730Y-7528262D01*
X10445730Y-7528262D02*
X10483825Y-7528262D01*
X10483825Y-7528262D02*
X10483825Y-7428262D01*
X10483825Y-7428262D02*
X10450492Y-7428262D01*
X10450492Y-7428262D02*
X10440968Y-7433024D01*
X10440968Y-7433024D02*
X10436206Y-7437786D01*
X10436206Y-7437786D02*
X10431444Y-7447309D01*
X10431444Y-7447309D02*
X10431444Y-7456833D01*
X10431444Y-7456833D02*
X10436206Y-7466357D01*
X10436206Y-7466357D02*
X10440968Y-7471119D01*
X10440968Y-7471119D02*
X10450492Y-7475881D01*
X10450492Y-7475881D02*
X10483825Y-7475881D01*
X10383825Y-7428262D02*
X10383825Y-7509214D01*
X10383825Y-7509214D02*
X10379063Y-7518738D01*
X10379063Y-7518738D02*
X10374302Y-7523500D01*
X10374302Y-7523500D02*
X10364778Y-7528262D01*
X10364778Y-7528262D02*
X10345730Y-7528262D01*
X10345730Y-7528262D02*
X10336206Y-7523500D01*
X10336206Y-7523500D02*
X10331444Y-7518738D01*
X10331444Y-7518738D02*
X10326683Y-7509214D01*
X10326683Y-7509214D02*
X10326683Y-7428262D01*
X10283825Y-7523500D02*
X10269540Y-7528262D01*
X10269540Y-7528262D02*
X10245730Y-7528262D01*
X10245730Y-7528262D02*
X10236206Y-7523500D01*
X10236206Y-7523500D02*
X10231444Y-7518738D01*
X10231444Y-7518738D02*
X10226683Y-7509214D01*
X10226683Y-7509214D02*
X10226683Y-7499690D01*
X10226683Y-7499690D02*
X10231444Y-7490167D01*
X10231444Y-7490167D02*
X10236206Y-7485405D01*
X10236206Y-7485405D02*
X10245730Y-7480643D01*
X10245730Y-7480643D02*
X10264778Y-7475881D01*
X10264778Y-7475881D02*
X10274302Y-7471119D01*
X10274302Y-7471119D02*
X10279063Y-7466357D01*
X10279063Y-7466357D02*
X10283825Y-7456833D01*
X10283825Y-7456833D02*
X10283825Y-7447309D01*
X10283825Y-7447309D02*
X10279063Y-7437786D01*
X10279063Y-7437786D02*
X10274302Y-7433024D01*
X10274302Y-7433024D02*
X10264778Y-7428262D01*
X10264778Y-7428262D02*
X10240968Y-7428262D01*
X10240968Y-7428262D02*
X10226683Y-7433024D01*
%TO.C,SW1*%
X16950833Y-7456500D02*
X16936548Y-7461262D01*
X16936548Y-7461262D02*
X16912738Y-7461262D01*
X16912738Y-7461262D02*
X16903214Y-7456500D01*
X16903214Y-7456500D02*
X16898452Y-7451738D01*
X16898452Y-7451738D02*
X16893690Y-7442214D01*
X16893690Y-7442214D02*
X16893690Y-7432690D01*
X16893690Y-7432690D02*
X16898452Y-7423167D01*
X16898452Y-7423167D02*
X16903214Y-7418405D01*
X16903214Y-7418405D02*
X16912738Y-7413643D01*
X16912738Y-7413643D02*
X16931786Y-7408881D01*
X16931786Y-7408881D02*
X16941309Y-7404119D01*
X16941309Y-7404119D02*
X16946071Y-7399357D01*
X16946071Y-7399357D02*
X16950833Y-7389833D01*
X16950833Y-7389833D02*
X16950833Y-7380309D01*
X16950833Y-7380309D02*
X16946071Y-7370786D01*
X16946071Y-7370786D02*
X16941309Y-7366024D01*
X16941309Y-7366024D02*
X16931786Y-7361262D01*
X16931786Y-7361262D02*
X16907976Y-7361262D01*
X16907976Y-7361262D02*
X16893690Y-7366024D01*
X16860357Y-7361262D02*
X16836548Y-7461262D01*
X16836548Y-7461262D02*
X16817500Y-7389833D01*
X16817500Y-7389833D02*
X16798452Y-7461262D01*
X16798452Y-7461262D02*
X16774643Y-7361262D01*
X16684167Y-7461262D02*
X16741309Y-7461262D01*
X16712738Y-7461262D02*
X16712738Y-7361262D01*
X16712738Y-7361262D02*
X16722262Y-7375548D01*
X16722262Y-7375548D02*
X16731786Y-7385071D01*
X16731786Y-7385071D02*
X16741309Y-7389833D01*
%TO.C,J7*%
X15263333Y-12386262D02*
X15263333Y-12457690D01*
X15263333Y-12457690D02*
X15268095Y-12471976D01*
X15268095Y-12471976D02*
X15277619Y-12481500D01*
X15277619Y-12481500D02*
X15291905Y-12486262D01*
X15291905Y-12486262D02*
X15301428Y-12486262D01*
X15225238Y-12386262D02*
X15158571Y-12386262D01*
X15158571Y-12386262D02*
X15201428Y-12486262D01*
%TO.C,J2*%
X9930833Y-12396262D02*
X9930833Y-12467690D01*
X9930833Y-12467690D02*
X9935595Y-12481976D01*
X9935595Y-12481976D02*
X9945119Y-12491500D01*
X9945119Y-12491500D02*
X9959405Y-12496262D01*
X9959405Y-12496262D02*
X9968929Y-12496262D01*
X9887976Y-12405786D02*
X9883214Y-12401024D01*
X9883214Y-12401024D02*
X9873690Y-12396262D01*
X9873690Y-12396262D02*
X9849881Y-12396262D01*
X9849881Y-12396262D02*
X9840357Y-12401024D01*
X9840357Y-12401024D02*
X9835595Y-12405786D01*
X9835595Y-12405786D02*
X9830833Y-12415309D01*
X9830833Y-12415309D02*
X9830833Y-12424833D01*
X9830833Y-12424833D02*
X9835595Y-12439119D01*
X9835595Y-12439119D02*
X9892738Y-12496262D01*
X9892738Y-12496262D02*
X9830833Y-12496262D01*
%TO.C,J9*%
X16248333Y-7361262D02*
X16248333Y-7432690D01*
X16248333Y-7432690D02*
X16253095Y-7446976D01*
X16253095Y-7446976D02*
X16262619Y-7456500D01*
X16262619Y-7456500D02*
X16276905Y-7461262D01*
X16276905Y-7461262D02*
X16286428Y-7461262D01*
X16195952Y-7461262D02*
X16176905Y-7461262D01*
X16176905Y-7461262D02*
X16167381Y-7456500D01*
X16167381Y-7456500D02*
X16162619Y-7451738D01*
X16162619Y-7451738D02*
X16153095Y-7437452D01*
X16153095Y-7437452D02*
X16148333Y-7418405D01*
X16148333Y-7418405D02*
X16148333Y-7380309D01*
X16148333Y-7380309D02*
X16153095Y-7370786D01*
X16153095Y-7370786D02*
X16157857Y-7366024D01*
X16157857Y-7366024D02*
X16167381Y-7361262D01*
X16167381Y-7361262D02*
X16186428Y-7361262D01*
X16186428Y-7361262D02*
X16195952Y-7366024D01*
X16195952Y-7366024D02*
X16200714Y-7370786D01*
X16200714Y-7370786D02*
X16205476Y-7380309D01*
X16205476Y-7380309D02*
X16205476Y-7404119D01*
X16205476Y-7404119D02*
X16200714Y-7413643D01*
X16200714Y-7413643D02*
X16195952Y-7418405D01*
X16195952Y-7418405D02*
X16186428Y-7423167D01*
X16186428Y-7423167D02*
X16167381Y-7423167D01*
X16167381Y-7423167D02*
X16157857Y-7418405D01*
X16157857Y-7418405D02*
X16153095Y-7413643D01*
X16153095Y-7413643D02*
X16148333Y-7404119D01*
%TO.C,R2*%
X14639167Y-11508762D02*
X14672500Y-11461143D01*
X14696309Y-11508762D02*
X14696309Y-11408762D01*
X14696309Y-11408762D02*
X14658214Y-11408762D01*
X14658214Y-11408762D02*
X14648690Y-11413524D01*
X14648690Y-11413524D02*
X14643928Y-11418286D01*
X14643928Y-11418286D02*
X14639167Y-11427809D01*
X14639167Y-11427809D02*
X14639167Y-11442095D01*
X14639167Y-11442095D02*
X14643928Y-11451619D01*
X14643928Y-11451619D02*
X14648690Y-11456381D01*
X14648690Y-11456381D02*
X14658214Y-11461143D01*
X14658214Y-11461143D02*
X14696309Y-11461143D01*
X14601071Y-11418286D02*
X14596309Y-11413524D01*
X14596309Y-11413524D02*
X14586786Y-11408762D01*
X14586786Y-11408762D02*
X14562976Y-11408762D01*
X14562976Y-11408762D02*
X14553452Y-11413524D01*
X14553452Y-11413524D02*
X14548690Y-11418286D01*
X14548690Y-11418286D02*
X14543928Y-11427809D01*
X14543928Y-11427809D02*
X14543928Y-11437333D01*
X14543928Y-11437333D02*
X14548690Y-11451619D01*
X14548690Y-11451619D02*
X14605833Y-11508762D01*
X14605833Y-11508762D02*
X14543928Y-11508762D01*
%TO.C,J4*%
X11463333Y-7638762D02*
X11463333Y-7710190D01*
X11463333Y-7710190D02*
X11468095Y-7724476D01*
X11468095Y-7724476D02*
X11477619Y-7734000D01*
X11477619Y-7734000D02*
X11491905Y-7738762D01*
X11491905Y-7738762D02*
X11501428Y-7738762D01*
X11372857Y-7672095D02*
X11372857Y-7738762D01*
X11396667Y-7634000D02*
X11420476Y-7705428D01*
X11420476Y-7705428D02*
X11358571Y-7705428D01*
%TO.C,J10*%
X15695952Y-7366262D02*
X15695952Y-7437690D01*
X15695952Y-7437690D02*
X15700714Y-7451976D01*
X15700714Y-7451976D02*
X15710238Y-7461500D01*
X15710238Y-7461500D02*
X15724524Y-7466262D01*
X15724524Y-7466262D02*
X15734047Y-7466262D01*
X15595952Y-7466262D02*
X15653095Y-7466262D01*
X15624524Y-7466262D02*
X15624524Y-7366262D01*
X15624524Y-7366262D02*
X15634047Y-7380548D01*
X15634047Y-7380548D02*
X15643571Y-7390071D01*
X15643571Y-7390071D02*
X15653095Y-7394833D01*
X15534047Y-7366262D02*
X15524524Y-7366262D01*
X15524524Y-7366262D02*
X15515000Y-7371024D01*
X15515000Y-7371024D02*
X15510238Y-7375786D01*
X15510238Y-7375786D02*
X15505476Y-7385309D01*
X15505476Y-7385309D02*
X15500714Y-7404357D01*
X15500714Y-7404357D02*
X15500714Y-7428167D01*
X15500714Y-7428167D02*
X15505476Y-7447214D01*
X15505476Y-7447214D02*
X15510238Y-7456738D01*
X15510238Y-7456738D02*
X15515000Y-7461500D01*
X15515000Y-7461500D02*
X15524524Y-7466262D01*
X15524524Y-7466262D02*
X15534047Y-7466262D01*
X15534047Y-7466262D02*
X15543571Y-7461500D01*
X15543571Y-7461500D02*
X15548333Y-7456738D01*
X15548333Y-7456738D02*
X15553095Y-7447214D01*
X15553095Y-7447214D02*
X15557857Y-7428167D01*
X15557857Y-7428167D02*
X15557857Y-7404357D01*
X15557857Y-7404357D02*
X15553095Y-7385309D01*
X15553095Y-7385309D02*
X15548333Y-7375786D01*
X15548333Y-7375786D02*
X15543571Y-7371024D01*
X15543571Y-7371024D02*
X15534047Y-7366262D01*
%TO.C,D1*%
X14973809Y-8996262D02*
X14973809Y-8896262D01*
X14973809Y-8896262D02*
X14950000Y-8896262D01*
X14950000Y-8896262D02*
X14935714Y-8901024D01*
X14935714Y-8901024D02*
X14926190Y-8910548D01*
X14926190Y-8910548D02*
X14921428Y-8920071D01*
X14921428Y-8920071D02*
X14916667Y-8939119D01*
X14916667Y-8939119D02*
X14916667Y-8953405D01*
X14916667Y-8953405D02*
X14921428Y-8972452D01*
X14921428Y-8972452D02*
X14926190Y-8981976D01*
X14926190Y-8981976D02*
X14935714Y-8991500D01*
X14935714Y-8991500D02*
X14950000Y-8996262D01*
X14950000Y-8996262D02*
X14973809Y-8996262D01*
X14821428Y-8996262D02*
X14878571Y-8996262D01*
X14850000Y-8996262D02*
X14850000Y-8896262D01*
X14850000Y-8896262D02*
X14859524Y-8910548D01*
X14859524Y-8910548D02*
X14869047Y-8920071D01*
X14869047Y-8920071D02*
X14878571Y-8924833D01*
D14*
%TO.C,R1*%
X14937468Y-11715544D02*
X14937468Y-11860956D01*
X14755468Y-11715544D02*
X14755468Y-11860956D01*
%TO.C,D2*%
X14299000Y-9036500D02*
X14687500Y-9036500D01*
X14299000Y-9263500D02*
X14299000Y-9036500D01*
X14687500Y-9263500D02*
X14299000Y-9263500D01*
%TO.C,J6*%
X11347468Y-7576500D02*
X11347468Y-7842500D01*
X10325468Y-7576500D02*
X11347468Y-7576500D01*
X10325468Y-7576500D02*
X10325468Y-7842500D01*
X10198468Y-7576500D02*
X10065468Y-7576500D01*
X10065468Y-7576500D02*
X10065468Y-7709500D01*
X10325468Y-7842500D02*
X11347468Y-7842500D01*
%TO.C,SW1*%
X17073968Y-7536500D02*
X17073968Y-7802500D01*
X16813968Y-7536500D02*
X17073968Y-7536500D01*
X16813968Y-7536500D02*
X16813968Y-7802500D01*
X16553968Y-7669500D02*
X16553968Y-7802500D01*
X16813968Y-7802500D02*
X17073968Y-7802500D01*
X16553968Y-7802500D02*
X16686968Y-7802500D01*
%TO.C,J7*%
X15414500Y-12573000D02*
X15414500Y-12307000D01*
X15928500Y-12573000D02*
X15414500Y-12573000D01*
X15928500Y-12573000D02*
X15928500Y-12307000D01*
X16055500Y-12573000D02*
X16188500Y-12573000D01*
X16188500Y-12573000D02*
X16188500Y-12440000D01*
X15928500Y-12307000D02*
X15414500Y-12307000D01*
%TO.C,J2*%
X13642500Y-12317000D02*
X13642500Y-12583000D01*
X10334500Y-12317000D02*
X13642500Y-12317000D01*
X10334500Y-12317000D02*
X10334500Y-12583000D01*
X10207500Y-12317000D02*
X10074500Y-12317000D01*
X10074500Y-12317000D02*
X10074500Y-12450000D01*
X10334500Y-12583000D02*
X13642500Y-12583000D01*
%TO.C,J9*%
X15942968Y-7800000D02*
X15942968Y-7534000D01*
X16202968Y-7800000D02*
X15942968Y-7800000D01*
X16202968Y-7800000D02*
X16202968Y-7534000D01*
X16462968Y-7667000D02*
X16462968Y-7534000D01*
X16202968Y-7534000D02*
X15942968Y-7534000D01*
X16462968Y-7534000D02*
X16329968Y-7534000D01*
%TO.C,R2*%
X14537968Y-11855956D02*
X14537968Y-11710544D01*
X14719968Y-11855956D02*
X14719968Y-11710544D01*
%TO.C,J4*%
X15120000Y-7562000D02*
X15120000Y-7828000D01*
X11812000Y-7562000D02*
X15120000Y-7562000D01*
X11812000Y-7562000D02*
X11812000Y-7828000D01*
X11685000Y-7562000D02*
X11552000Y-7562000D01*
X11552000Y-7562000D02*
X11552000Y-7695000D01*
X11812000Y-7828000D02*
X15120000Y-7828000D01*
%TO.C,J10*%
X15879468Y-7534500D02*
X15879468Y-7800500D01*
X15619468Y-7534500D02*
X15879468Y-7534500D01*
X15619468Y-7534500D02*
X15619468Y-7800500D01*
X15359468Y-7667500D02*
X15359468Y-7800500D01*
X15619468Y-7800500D02*
X15879468Y-7800500D01*
X15359468Y-7800500D02*
X15492468Y-7800500D01*
%TO.C,D1*%
X14299968Y-8803500D02*
X14688468Y-8803500D01*
X14299968Y-9030500D02*
X14299968Y-8803500D01*
X14688468Y-9030500D02*
X14299968Y-9030500D01*
%TD*%
M02*
